<?xml version="1.0" encoding="UTF-8" standalone="no"?><svg xmlns="http://www.w3.org/2000/svg" xmlns:xlink="http://www.w3.org/1999/xlink" clip-rule="evenodd" stroke-miterlimit="10" viewBox="0 0 242 113"><desc>SVG generated by Keynote</desc><defs></defs><g transform="matrix(1.00, 0.00, -0.00, -1.00, 0.0, 113.0)"><g><clipPath id="clip0x618000aa6120"><path d="M 0.2 0.3 L 111.9 0.3 L 111.9 112.0 L 0.2 112.0 Z M 0.2 0.3 "></path></clipPath><g clip-path="url(#clip0x618000aa6120)"><image xlink:href="E51BCF9F52BD064289CD78FFC0081E04.png" width="1000.00" height="1000.00" transform="matrix(0.11, 0.00, -0.00, -0.11, 0.0, 112.0)"></image></g></g><g><clipPath id="clip0x6000006b9f80"><path d="M 132.0 25.6 L 245.1 25.6 L 245.1 86.6 L 132.0 86.6 Z M 132.0 25.6 "></path></clipPath><g clip-path="url(#clip0x6000006b9f80)"><text xml:space="preserve" font-family="Helvetica-Light,Helvetica" font-size="36.0" fill="#FEFFFF" transform="matrix(1.00, 0.00, -0.00, -1.00, 141.0, 42.9)">R</text><text xml:space="preserve" font-family="Helvetica-Light,Helvetica" font-size="36.0" fill="#FEFFFF" transform="matrix(1.00, 0.00, -0.00, -1.00, 165.0, 42.9)">e</text><text xml:space="preserve" font-family="Helvetica-Light,Helvetica" font-size="36.0" fill="#FEFFFF" transform="matrix(1.00, 0.00, -0.00, -1.00, 185.0, 42.9)">a</text><text xml:space="preserve" font-family="Helvetica-Light,Helvetica" font-size="36.0" fill="#FEFFFF" transform="matrix(1.00, 0.00, -0.00, -1.00, 205.0, 42.9)">c</text><text xml:space="preserve" font-family="Helvetica-Light,Helvetica" font-size="36.0" fill="#FEFFFF" transform="matrix(1.00, 0.00, -0.00, -1.00, 225.1, 42.9)">t</text></g></g></g></svg>