<?xml version="1.0" encoding="UTF-8" standalone="no"?><svg xmlns="http://www.w3.org/2000/svg" xmlns:xlink="http://www.w3.org/1999/xlink" clip-rule="evenodd" stroke-miterlimit="10" viewBox="0 0 854 67"><desc>SVG generated by Keynote</desc><defs></defs><g transform="matrix(1.00, 0.00, -0.00, -1.00, 0.0, 67.0)"><text xml:space="preserve" font-family="Helvetica-Light,Helvetica" font-size="68.0" fill="#FEFFFF" transform="matrix(1.00, 0.00, -0.00, -1.00, -1.8, 15.6)">C</text><text xml:space="preserve" font-family="Helvetica-Light,Helvetica" font-size="68.0" fill="#FEFFFF" transform="matrix(1.00, 0.00, -0.00, -1.00, 47.3, 15.6)">o</text><text xml:space="preserve" font-family="Helvetica-Light,Helvetica" font-size="68.0" fill="#FEFFFF" transform="matrix(1.00, 0.00, -0.00, -1.00, 85.1, 15.6)">n</text><text xml:space="preserve" font-family="Helvetica-Light,Helvetica" font-size="68.0" fill="#FEFFFF" transform="matrix(1.00, 0.00, -0.00, -1.00, 122.9, 15.6)">s</text><text xml:space="preserve" font-family="Helvetica-Light,Helvetica" font-size="68.0" fill="#FEFFFF" transform="matrix(1.00, 0.00, -0.00, -1.00, 156.9, 15.6)">i</text><text xml:space="preserve" font-family="Helvetica-Light,Helvetica" font-size="68.0" fill="#FEFFFF" transform="matrix(1.00, 0.00, -0.00, -1.00, 172.0, 15.6)">d</text><text xml:space="preserve" font-family="Helvetica-Light,Helvetica" font-size="68.0" fill="#FEFFFF" transform="matrix(1.00, 0.00, -0.00, -1.00, 213.5, 15.6)">e</text><text xml:space="preserve" font-family="Helvetica-Light,Helvetica" font-size="68.0" fill="#FEFFFF" transform="matrix(1.00, 0.00, -0.00, -1.00, 251.3, 15.6)">r</text><text xml:space="preserve" font-family="Helvetica-Light,Helvetica" font-size="68.0" fill="#FEFFFF" transform="matrix(1.00, 0.00, -0.00, -1.00, 274.0, 15.6)">i</text><text xml:space="preserve" font-family="Helvetica-Light,Helvetica" font-size="68.0" fill="#FEFFFF" transform="matrix(1.00, 0.00, -0.00, -1.00, 289.1, 15.6)">n</text><text xml:space="preserve" font-family="Helvetica-Light,Helvetica" font-size="68.0" fill="#FEFFFF" transform="matrix(1.00, 0.00, -0.00, -1.00, 326.9, 15.6)">g</text><text xml:space="preserve" font-family="Helvetica-Light,Helvetica" font-size="68.0" fill="#FEFFFF" transform="matrix(1.00, 0.00, -0.00, -1.00, 368.4, 15.6)"> </text><text xml:space="preserve" font-family="Helvetica-Light,Helvetica" font-size="68.0" fill="#FEFFFF" transform="matrix(1.00, 0.00, -0.00, -1.00, 387.3, 15.6)">t</text><text xml:space="preserve" font-family="Helvetica-Light,Helvetica" font-size="68.0" fill="#FEFFFF" transform="matrix(1.00, 0.00, -0.00, -1.00, 406.2, 15.6)">h</text><text xml:space="preserve" font-family="Helvetica-Light,Helvetica" font-size="68.0" fill="#FEFFFF" transform="matrix(1.00, 0.00, -0.00, -1.00, 444.0, 15.6)">e</text><text xml:space="preserve" font-family="Helvetica-Light,Helvetica" font-size="68.0" fill="#FEFFFF" transform="matrix(1.00, 0.00, -0.00, -1.00, 481.8, 15.6)"> </text><text xml:space="preserve" font-family="Helvetica-Light,Helvetica" font-size="68.0" fill="#FEFFFF" transform="matrix(1.00, 0.00, -0.00, -1.00, 500.7, 15.6)">P</text><text xml:space="preserve" font-family="Helvetica-Light,Helvetica" font-size="68.0" fill="#FEFFFF" transform="matrix(1.00, 0.00, -0.00, -1.00, 542.3, 15.6)">o</text><text xml:space="preserve" font-family="Helvetica-Light,Helvetica" font-size="68.0" fill="#FEFFFF" transform="matrix(1.00, 0.00, -0.00, -1.00, 580.1, 15.6)">s</text><text xml:space="preserve" font-family="Helvetica-Light,Helvetica" font-size="68.0" fill="#FEFFFF" transform="matrix(1.00, 0.00, -0.00, -1.00, 614.1, 15.6)">s</text><text xml:space="preserve" font-family="Helvetica-Light,Helvetica" font-size="68.0" fill="#FEFFFF" transform="matrix(1.00, 0.00, -0.00, -1.00, 648.1, 15.6)">i</text><text xml:space="preserve" font-family="Helvetica-Light,Helvetica" font-size="68.0" fill="#FEFFFF" transform="matrix(1.00, 0.00, -0.00, -1.00, 663.2, 15.6)">b</text><text xml:space="preserve" font-family="Helvetica-Light,Helvetica" font-size="68.0" fill="#FEFFFF" transform="matrix(1.00, 0.00, -0.00, -1.00, 704.7, 15.6)">i</text><text xml:space="preserve" font-family="Helvetica-Light,Helvetica" font-size="68.0" fill="#FEFFFF" transform="matrix(1.00, 0.00, -0.00, -1.00, 719.8, 15.6)">l</text><text xml:space="preserve" font-family="Helvetica-Light,Helvetica" font-size="68.0" fill="#FEFFFF" transform="matrix(1.00, 0.00, -0.00, -1.00, 734.9, 15.6)">i</text><text xml:space="preserve" font-family="Helvetica-Light,Helvetica" font-size="68.0" fill="#FEFFFF" transform="matrix(1.00, 0.00, -0.00, -1.00, 750.0, 15.6)">t</text><text xml:space="preserve" font-family="Helvetica-Light,Helvetica" font-size="68.0" fill="#FEFFFF" transform="matrix(1.00, 0.00, -0.00, -1.00, 768.9, 15.6)">i</text><text xml:space="preserve" font-family="Helvetica-Light,Helvetica" font-size="68.0" fill="#FEFFFF" transform="matrix(1.00, 0.00, -0.00, -1.00, 784.0, 15.6)">e</text><text xml:space="preserve" font-family="Helvetica-Light,Helvetica" font-size="68.0" fill="#FEFFFF" transform="matrix(1.00, 0.00, -0.00, -1.00, 821.8, 15.6)">s</text></g></svg>