<?xml version="1.0" encoding="UTF-8" standalone="no"?><svg xmlns="http://www.w3.org/2000/svg" xmlns:xlink="http://www.w3.org/1999/xlink" clip-rule="evenodd" stroke-miterlimit="10" viewBox="0 0 1024 768"><desc>SVG generated by Keynote</desc><defs></defs><g transform="matrix(1.00, 0.00, -0.00, -1.00, 0.0, 768.0)"><path d="M 0.0 768.0 L 1024.0 768.0 L 1024.0 0.0 L 0.0 0.0 Z M 0.0 768.0 " fill="#000000"></path><image xlink:href="../../29DA8393-5333-4AC0-AD25-235A3817DC6D/assets/E727359302650BB934A06C09F9880E12.png" width="871.00" height="259.00" transform="matrix(1.00, 0.00, -0.00, -1.00, 77.0, 689.0)"></image><image xlink:href="../../29DA8393-5333-4AC0-AD25-235A3817DC6D/assets/349782CCC66A911284324F5123AADDD9.png" width="873.00" height="263.00" transform="matrix(1.00, 0.00, -0.00, -1.00, 76.0, 389.0)"></image><path d="M -0.1 0.1 L 23.9 0.1 L 23.9 27.1 L -0.1 27.1 Z M 0.0 0.0 " fill="none" stroke="#961817" stroke-width="5.00" transform="matrix(1.00, 0.00, 0.00, -1.00, 310.6, 650.6)"></path><path d="M -0.1 0.1 L 274.9 0.1 L 274.9 27.1 L -0.1 27.1 Z M 0.0 0.0 " fill="none" stroke="#961817" stroke-width="5.00" transform="matrix(1.00, 0.00, 0.00, -1.00, 310.6, 650.6)"></path><path d="M -0.1 -0.3 L 274.9 -0.3 L 274.9 99.7 L -0.1 99.7 Z M 0.0 0.0 " fill="none" stroke="#961817" stroke-width="5.00" transform="matrix(1.00, 0.00, 0.00, -1.00, 310.6, 650.2)"></path><path d="M 0.3 -0.5 L 24.3 -0.5 L 24.3 26.5 L 0.3 26.5 Z M 0.0 0.0 " fill="none" stroke="#961817" stroke-width="5.00" transform="matrix(1.00, 0.00, 0.00, -1.00, 917.2, 686.0)"></path><path d="M 0.5 0.3 L 24.5 0.3 L 24.5 26.3 L 0.5 26.3 Z M 0.0 0.0 " fill="none" stroke="#961817" stroke-width="5.00" transform="matrix(1.00, 0.00, 0.00, -1.00, 608.0, 348.8)"></path><path d="M -0.5 0.3 L 265.5 0.3 L 265.5 26.3 L -0.5 26.3 Z M 0.0 0.0 " fill="none" stroke="#961817" stroke-width="5.00" transform="matrix(1.00, 0.00, 0.00, -1.00, 368.0, 348.8)"></path><path d="M -0.5 0.4 L 24.5 0.4 L 24.5 26.4 L -0.5 26.4 Z M 0.0 0.0 " fill="none" stroke="#961817" stroke-width="5.00" transform="matrix(1.00, 0.00, 0.00, -1.00, 368.0, 319.9)"></path><path d="M 0.4 0.4 L 265.4 0.4 L 265.4 26.4 L 0.4 26.4 Z M 0.0 0.0 " fill="none" stroke="#961817" stroke-width="5.00" transform="matrix(1.00, 0.00, 0.00, -1.00, 368.1, 319.9)"></path><path d="M 0.4 -0.5 L 265.4 -0.5 L 265.4 99.5 L 0.4 99.5 Z M 0.0 0.0 " fill="none" stroke="#961817" stroke-width="5.00" transform="matrix(1.00, 0.00, 0.00, -1.00, 368.1, 319.0)"></path><path d="M 0.3 -0.5 L 265.3 -0.5 L 265.3 187.5 L 0.3 187.5 Z M 0.0 0.0 " fill="none" stroke="#961817" stroke-width="5.00" transform="matrix(1.00, 0.00, 0.00, -1.00, 92.2, 319.0)"></path><g><clipPath id="clip0x610000aaf960"><path d="M 92.7 134.2 L 357.0 134.2 L 357.0 316.0 L 92.7 316.0 Z M 92.7 134.2 "></path></clipPath><g clip-path="url(#clip0x610000aaf960)"><text xml:space="preserve" font-family="Helvetica-Light,Helvetica" font-size="26.0" fill="#FEFFFF" transform="matrix(1.00, 0.00, -0.00, -1.00, 214.0, 215.0)">m</text></g></g><path d="M 0.4 0.3 L 265.4 0.3 L 265.4 26.3 L 0.4 26.3 Z M 0.0 0.0 " fill="none" stroke="#961817" stroke-width="5.00" transform="matrix(1.00, 0.00, 0.00, -1.00, 644.1, 348.8)"></path><path d="M 0.4 -0.2 L 265.4 -0.2 L 265.4 74.8 L 0.4 74.8 Z M 0.0 0.0 " fill="none" stroke="#961817" stroke-width="5.00" transform="matrix(1.00, 0.00, 0.00, -1.00, 644.1, 322.3)"></path></g></svg>