<?xml version="1.0" encoding="UTF-8" standalone="no"?><svg xmlns="http://www.w3.org/2000/svg" xmlns:xlink="http://www.w3.org/1999/xlink" clip-rule="evenodd" stroke-miterlimit="10" viewBox="0 0 1024 768"><desc>SVG generated by Keynote</desc><defs></defs><g transform="matrix(1.00, 0.00, -0.00, -1.00, 0.0, 768.0)"><path d="M 0.0 768.0 L 1024.0 768.0 L 1024.0 0.0 L 0.0 0.0 Z M 0.0 768.0 " fill="#000000"></path><text xml:space="preserve" font-family="Helvetica-Light,Helvetica" font-size="80.0" fill="#FEFFFF" transform="matrix(1.00, 0.00, -0.00, -1.00, 263.0, 684.1)">C</text><text xml:space="preserve" font-family="Helvetica-Light,Helvetica" font-size="80.0" fill="#FEFFFF" transform="matrix(1.00, 0.00, -0.00, -1.00, 320.8, 684.1)">o</text><text xml:space="preserve" font-family="Helvetica-Light,Helvetica" font-size="80.0" fill="#FEFFFF" transform="matrix(1.00, 0.00, -0.00, -1.00, 365.3, 684.1)">l</text><text xml:space="preserve" font-family="Helvetica-Light,Helvetica" font-size="80.0" fill="#FEFFFF" transform="matrix(1.00, 0.00, -0.00, -1.00, 383.0, 684.1)">o</text><text xml:space="preserve" font-family="Helvetica-Light,Helvetica" font-size="80.0" fill="#FEFFFF" transform="matrix(1.00, 0.00, -0.00, -1.00, 427.5, 684.1)">r</text><text xml:space="preserve" font-family="Helvetica-Light,Helvetica" font-size="80.0" fill="#FEFFFF" transform="matrix(1.00, 0.00, -0.00, -1.00, 454.2, 684.1)"> </text><text xml:space="preserve" font-family="Helvetica-Light,Helvetica" font-size="80.0" fill="#FEFFFF" transform="matrix(1.00, 0.00, -0.00, -1.00, 476.4, 684.1)">p</text><text xml:space="preserve" font-family="Helvetica-Light,Helvetica" font-size="80.0" fill="#FEFFFF" transform="matrix(1.00, 0.00, -0.00, -1.00, 525.3, 684.1)">a</text><text xml:space="preserve" font-family="Helvetica-Light,Helvetica" font-size="80.0" fill="#FEFFFF" transform="matrix(1.00, 0.00, -0.00, -1.00, 569.8, 684.1)">l</text><text xml:space="preserve" font-family="Helvetica-Light,Helvetica" font-size="80.0" fill="#FEFFFF" transform="matrix(1.00, 0.00, -0.00, -1.00, 587.5, 684.1)">e</text><text xml:space="preserve" font-family="Helvetica-Light,Helvetica" font-size="80.0" fill="#FEFFFF" transform="matrix(1.00, 0.00, -0.00, -1.00, 632.0, 684.1)">t</text><text xml:space="preserve" font-family="Helvetica-Light,Helvetica" font-size="80.0" fill="#FEFFFF" transform="matrix(1.00, 0.00, -0.00, -1.00, 654.2, 684.1)">t</text><text xml:space="preserve" font-family="Helvetica-Light,Helvetica" font-size="80.0" fill="#FEFFFF" transform="matrix(1.00, 0.00, -0.00, -1.00, 676.5, 684.1)">e</text><text xml:space="preserve" font-family="Helvetica-Light,Helvetica" font-size="80.0" fill="#FEFFFF" transform="matrix(1.00, 0.00, -0.00, -1.00, 721.0, 684.1)">s</text><text xml:space="preserve" font-family="Courier,Courier" font-size="36.0" fill="#FEFFFF" transform="matrix(1.00, 0.00, -0.00, -1.00, 491.4, 539.9)">e</text><text xml:space="preserve" font-family="Courier,Courier" font-size="36.0" fill="#FEFFFF" transform="matrix(1.00, 0.00, -0.00, -1.00, 513.0, 539.9)">x</text><text xml:space="preserve" font-family="Courier,Courier" font-size="36.0" fill="#FEFFFF" transform="matrix(1.00, 0.00, -0.00, -1.00, 534.6, 539.9)">p</text><text xml:space="preserve" font-family="Courier,Courier" font-size="36.0" fill="#FEFFFF" transform="matrix(1.00, 0.00, -0.00, -1.00, 556.3, 539.9)">o</text><text xml:space="preserve" font-family="Courier,Courier" font-size="36.0" fill="#FEFFFF" transform="matrix(1.00, 0.00, -0.00, -1.00, 577.9, 539.9)">r</text><text xml:space="preserve" font-family="Courier,Courier" font-size="36.0" fill="#FEFFFF" transform="matrix(1.00, 0.00, -0.00, -1.00, 599.5, 539.9)">t</text><text xml:space="preserve" font-family="Courier,Courier" font-size="36.0" fill="#FEFFFF" transform="matrix(1.00, 0.00, -0.00, -1.00, 621.1, 539.9)"> </text><text xml:space="preserve" font-family="Courier,Courier" font-size="36.0" fill="#FEFFFF" transform="matrix(1.00, 0.00, -0.00, -1.00, 642.7, 539.9)">c</text><text xml:space="preserve" font-family="Courier,Courier" font-size="36.0" fill="#FEFFFF" transform="matrix(1.00, 0.00, -0.00, -1.00, 664.3, 539.9)">o</text><text xml:space="preserve" font-family="Courier,Courier" font-size="36.0" fill="#FEFFFF" transform="matrix(1.00, 0.00, -0.00, -1.00, 685.9, 539.9)">n</text><text xml:space="preserve" font-family="Courier,Courier" font-size="36.0" fill="#FEFFFF" transform="matrix(1.00, 0.00, -0.00, -1.00, 707.5, 539.9)">s</text><text xml:space="preserve" font-family="Courier,Courier" font-size="36.0" fill="#FEFFFF" transform="matrix(1.00, 0.00, -0.00, -1.00, 729.1, 539.9)">t</text><text xml:space="preserve" font-family="Courier,Courier" font-size="36.0" fill="#FEFFFF" transform="matrix(1.00, 0.00, -0.00, -1.00, 750.7, 539.9)"> </text><text xml:space="preserve" font-family="Courier,Courier" font-size="36.0" fill="#FEFFFF" transform="matrix(1.00, 0.00, -0.00, -1.00, 772.3, 539.9)">B</text><text xml:space="preserve" font-family="Courier,Courier" font-size="36.0" fill="#FEFFFF" transform="matrix(1.00, 0.00, -0.00, -1.00, 793.9, 539.9)">L</text><text xml:space="preserve" font-family="Courier,Courier" font-size="36.0" fill="#FEFFFF" transform="matrix(1.00, 0.00, -0.00, -1.00, 815.5, 539.9)">U</text><text xml:space="preserve" font-family="Courier,Courier" font-size="36.0" fill="#FEFFFF" transform="matrix(1.00, 0.00, -0.00, -1.00, 837.1, 539.9)">E</text><text xml:space="preserve" font-family="Courier,Courier" font-size="36.0" fill="#FEFFFF" transform="matrix(1.00, 0.00, -0.00, -1.00, 858.7, 539.9)"> </text><text xml:space="preserve" font-family="Courier,Courier" font-size="36.0" fill="#FEFFFF" transform="matrix(1.00, 0.00, -0.00, -1.00, 880.3, 539.9)">=</text><text xml:space="preserve" font-family="Courier,Courier" font-size="36.0" fill="#FEFFFF" transform="matrix(1.00, 0.00, -0.00, -1.00, 901.9, 539.9)"> </text><text xml:space="preserve" font-family="Courier,Courier" font-size="36.0" fill="#FEFFFF" transform="matrix(1.00, 0.00, -0.00, -1.00, 923.5, 539.9)">{</text><text xml:space="preserve" font-family="Courier,Courier" font-size="36.0" fill="#FEFFFF" transform="matrix(1.00, 0.00, -0.00, -1.00, 491.4, 496.9)"> </text><text xml:space="preserve" font-family="Courier,Courier" font-size="36.0" fill="#FEFFFF" transform="matrix(1.00, 0.00, -0.00, -1.00, 513.0, 496.9)"> </text><text xml:space="preserve" font-family="Courier,Courier" font-size="36.0" fill="#FEFFFF" transform="matrix(1.00, 0.00, -0.00, -1.00, 534.6, 496.9)">“</text><text xml:space="preserve" font-family="Courier,Courier" font-size="36.0" fill="#FEFFFF" transform="matrix(1.00, 0.00, -0.00, -1.00, 556.3, 496.9)">5</text><text xml:space="preserve" font-family="Courier,Courier" font-size="36.0" fill="#FEFFFF" transform="matrix(1.00, 0.00, -0.00, -1.00, 577.9, 496.9)">0</text><text xml:space="preserve" font-family="Courier,Courier" font-size="36.0" fill="#FEFFFF" transform="matrix(1.00, 0.00, -0.00, -1.00, 599.5, 496.9)">"</text><text xml:space="preserve" font-family="Courier,Courier" font-size="36.0" fill="#FEFFFF" transform="matrix(1.00, 0.00, -0.00, -1.00, 621.1, 496.9)"> </text><text xml:space="preserve" font-family="Courier,Courier" font-size="36.0" fill="#FEFFFF" transform="matrix(1.00, 0.00, -0.00, -1.00, 642.7, 496.9)"> </text><text xml:space="preserve" font-family="Courier,Courier" font-size="36.0" fill="#FEFFFF" transform="matrix(1.00, 0.00, -0.00, -1.00, 664.3, 496.9)"> </text><text xml:space="preserve" font-family="Courier,Courier" font-size="36.0" fill="#FEFFFF" transform="matrix(1.00, 0.00, -0.00, -1.00, 685.9, 496.9)">:</text><text xml:space="preserve" font-family="Courier,Courier" font-size="36.0" fill="#FEFFFF" transform="matrix(1.00, 0.00, -0.00, -1.00, 707.5, 496.9)"> </text><text xml:space="preserve" font-family="Courier,Courier" font-size="36.0" fill="#FEFFFF" transform="matrix(1.00, 0.00, -0.00, -1.00, 729.1, 496.9)">"</text><text xml:space="preserve" font-family="Courier,Courier" font-size="36.0" fill="#FEFFFF" transform="matrix(1.00, 0.00, -0.00, -1.00, 750.7, 496.9)">#</text><text xml:space="preserve" font-family="Courier,Courier" font-size="36.0" fill="#FEFFFF" transform="matrix(1.00, 0.00, -0.00, -1.00, 772.3, 496.9)">F</text><text xml:space="preserve" font-family="Courier,Courier" font-size="36.0" fill="#FEFFFF" transform="matrix(1.00, 0.00, -0.00, -1.00, 793.9, 496.9)">5</text><text xml:space="preserve" font-family="Courier,Courier" font-size="36.0" fill="#FEFFFF" transform="matrix(1.00, 0.00, -0.00, -1.00, 815.5, 496.9)">F</text><text xml:space="preserve" font-family="Courier,Courier" font-size="36.0" fill="#FEFFFF" transform="matrix(1.00, 0.00, -0.00, -1.00, 837.1, 496.9)">6</text><text xml:space="preserve" font-family="Courier,Courier" font-size="36.0" fill="#FEFFFF" transform="matrix(1.00, 0.00, -0.00, -1.00, 858.7, 496.9)">F</text><text xml:space="preserve" font-family="Courier,Courier" font-size="36.0" fill="#FEFFFF" transform="matrix(1.00, 0.00, -0.00, -1.00, 880.3, 496.9)">7</text><text xml:space="preserve" font-family="Courier,Courier" font-size="36.0" fill="#FEFFFF" transform="matrix(1.00, 0.00, -0.00, -1.00, 901.9, 496.9)">"</text><text xml:space="preserve" font-family="Courier,Courier" font-size="36.0" fill="#FEFFFF" transform="matrix(1.00, 0.00, -0.00, -1.00, 923.5, 496.9)">,</text><text xml:space="preserve" font-family="Courier,Courier" font-size="36.0" fill="#FEFFFF" transform="matrix(1.00, 0.00, -0.00, -1.00, 491.4, 453.9)"> </text><text xml:space="preserve" font-family="Courier,Courier" font-size="36.0" fill="#FEFFFF" transform="matrix(1.00, 0.00, -0.00, -1.00, 513.0, 453.9)"> </text><text xml:space="preserve" font-family="Courier,Courier" font-size="36.0" fill="#FEFFFF" transform="matrix(1.00, 0.00, -0.00, -1.00, 534.6, 453.9)">“</text><text xml:space="preserve" font-family="Courier,Courier" font-size="36.0" fill="#FEFFFF" transform="matrix(1.00, 0.00, -0.00, -1.00, 556.3, 453.9)">1</text><text xml:space="preserve" font-family="Courier,Courier" font-size="36.0" fill="#FEFFFF" transform="matrix(1.00, 0.00, -0.00, -1.00, 577.9, 453.9)">0</text><text xml:space="preserve" font-family="Courier,Courier" font-size="36.0" fill="#FEFFFF" transform="matrix(1.00, 0.00, -0.00, -1.00, 599.5, 453.9)">0</text><text xml:space="preserve" font-family="Courier,Courier" font-size="36.0" fill="#FEFFFF" transform="matrix(1.00, 0.00, -0.00, -1.00, 621.1, 453.9)">"</text><text xml:space="preserve" font-family="Courier,Courier" font-size="36.0" fill="#FEFFFF" transform="matrix(1.00, 0.00, -0.00, -1.00, 642.7, 453.9)"> </text><text xml:space="preserve" font-family="Courier,Courier" font-size="36.0" fill="#FEFFFF" transform="matrix(1.00, 0.00, -0.00, -1.00, 664.3, 453.9)"> </text><text xml:space="preserve" font-family="Courier,Courier" font-size="36.0" fill="#FEFFFF" transform="matrix(1.00, 0.00, -0.00, -1.00, 685.9, 453.9)">:</text><text xml:space="preserve" font-family="Courier,Courier" font-size="36.0" fill="#FEFFFF" transform="matrix(1.00, 0.00, -0.00, -1.00, 707.5, 453.9)"> </text><text xml:space="preserve" font-family="Courier,Courier" font-size="36.0" fill="#FEFFFF" transform="matrix(1.00, 0.00, -0.00, -1.00, 729.1, 453.9)">"</text><text xml:space="preserve" font-family="Courier,Courier" font-size="36.0" fill="#FEFFFF" transform="matrix(1.00, 0.00, -0.00, -1.00, 750.7, 453.9)">#</text><text xml:space="preserve" font-family="Courier,Courier" font-size="36.0" fill="#FEFFFF" transform="matrix(1.00, 0.00, -0.00, -1.00, 772.3, 453.9)">D</text><text xml:space="preserve" font-family="Courier,Courier" font-size="36.0" fill="#FEFFFF" transform="matrix(1.00, 0.00, -0.00, -1.00, 793.9, 453.9)">9</text><text xml:space="preserve" font-family="Courier,Courier" font-size="36.0" fill="#FEFFFF" transform="matrix(1.00, 0.00, -0.00, -1.00, 815.5, 453.9)">D</text><text xml:space="preserve" font-family="Courier,Courier" font-size="36.0" fill="#FEFFFF" transform="matrix(1.00, 0.00, -0.00, -1.00, 837.1, 453.9)">E</text><text xml:space="preserve" font-family="Courier,Courier" font-size="36.0" fill="#FEFFFF" transform="matrix(1.00, 0.00, -0.00, -1.00, 858.7, 453.9)">E</text><text xml:space="preserve" font-family="Courier,Courier" font-size="36.0" fill="#FEFFFF" transform="matrix(1.00, 0.00, -0.00, -1.00, 880.3, 453.9)">2</text><text xml:space="preserve" font-family="Courier,Courier" font-size="36.0" fill="#FEFFFF" transform="matrix(1.00, 0.00, -0.00, -1.00, 901.9, 453.9)">"</text><text xml:space="preserve" font-family="Courier,Courier" font-size="36.0" fill="#FEFFFF" transform="matrix(1.00, 0.00, -0.00, -1.00, 923.5, 453.9)">,</text><text xml:space="preserve" font-family="Courier,Courier" font-size="36.0" fill="#FEFFFF" transform="matrix(1.00, 0.00, -0.00, -1.00, 491.4, 410.9)"> </text><text xml:space="preserve" font-family="Courier,Courier" font-size="36.0" fill="#FEFFFF" transform="matrix(1.00, 0.00, -0.00, -1.00, 513.0, 410.9)"> </text><text xml:space="preserve" font-family="Courier,Courier" font-size="36.0" fill="#FEFFFF" transform="matrix(1.00, 0.00, -0.00, -1.00, 534.6, 410.9)">“</text><text xml:space="preserve" font-family="Courier,Courier" font-size="36.0" fill="#FEFFFF" transform="matrix(1.00, 0.00, -0.00, -1.00, 556.3, 410.9)">2</text><text xml:space="preserve" font-family="Courier,Courier" font-size="36.0" fill="#FEFFFF" transform="matrix(1.00, 0.00, -0.00, -1.00, 577.9, 410.9)">0</text><text xml:space="preserve" font-family="Courier,Courier" font-size="36.0" fill="#FEFFFF" transform="matrix(1.00, 0.00, -0.00, -1.00, 599.5, 410.9)">0</text><text xml:space="preserve" font-family="Courier,Courier" font-size="36.0" fill="#FEFFFF" transform="matrix(1.00, 0.00, -0.00, -1.00, 621.1, 410.9)">"</text><text xml:space="preserve" font-family="Courier,Courier" font-size="36.0" fill="#FEFFFF" transform="matrix(1.00, 0.00, -0.00, -1.00, 642.7, 410.9)"> </text><text xml:space="preserve" font-family="Courier,Courier" font-size="36.0" fill="#FEFFFF" transform="matrix(1.00, 0.00, -0.00, -1.00, 664.3, 410.9)"> </text><text xml:space="preserve" font-family="Courier,Courier" font-size="36.0" fill="#FEFFFF" transform="matrix(1.00, 0.00, -0.00, -1.00, 685.9, 410.9)">:</text><text xml:space="preserve" font-family="Courier,Courier" font-size="36.0" fill="#FEFFFF" transform="matrix(1.00, 0.00, -0.00, -1.00, 707.5, 410.9)"> </text><text xml:space="preserve" font-family="Courier,Courier" font-size="36.0" fill="#FEFFFF" transform="matrix(1.00, 0.00, -0.00, -1.00, 729.1, 410.9)">"</text><text xml:space="preserve" font-family="Courier,Courier" font-size="36.0" fill="#FEFFFF" transform="matrix(1.00, 0.00, -0.00, -1.00, 750.7, 410.9)">#</text><text xml:space="preserve" font-family="Courier,Courier" font-size="36.0" fill="#FEFFFF" transform="matrix(1.00, 0.00, -0.00, -1.00, 772.3, 410.9)">C</text><text xml:space="preserve" font-family="Courier,Courier" font-size="36.0" fill="#FEFFFF" transform="matrix(1.00, 0.00, -0.00, -1.00, 793.9, 410.9)">3</text><text xml:space="preserve" font-family="Courier,Courier" font-size="36.0" fill="#FEFFFF" transform="matrix(1.00, 0.00, -0.00, -1.00, 815.5, 410.9)">C</text><text xml:space="preserve" font-family="Courier,Courier" font-size="36.0" fill="#FEFFFF" transform="matrix(1.00, 0.00, -0.00, -1.00, 837.1, 410.9)">9</text><text xml:space="preserve" font-family="Courier,Courier" font-size="36.0" fill="#FEFFFF" transform="matrix(1.00, 0.00, -0.00, -1.00, 858.7, 410.9)">D</text><text xml:space="preserve" font-family="Courier,Courier" font-size="36.0" fill="#FEFFFF" transform="matrix(1.00, 0.00, -0.00, -1.00, 880.3, 410.9)">1</text><text xml:space="preserve" font-family="Courier,Courier" font-size="36.0" fill="#FEFFFF" transform="matrix(1.00, 0.00, -0.00, -1.00, 901.9, 410.9)">"</text><text xml:space="preserve" font-family="Courier,Courier" font-size="36.0" fill="#FEFFFF" transform="matrix(1.00, 0.00, -0.00, -1.00, 923.5, 410.9)">,</text><text xml:space="preserve" font-family="Courier,Courier" font-size="36.0" fill="#FEFFFF" transform="matrix(1.00, 0.00, -0.00, -1.00, 491.4, 367.9)"> </text><text xml:space="preserve" font-family="Courier,Courier" font-size="36.0" fill="#FEFFFF" transform="matrix(1.00, 0.00, -0.00, -1.00, 513.0, 367.9)"> </text><text xml:space="preserve" font-family="Courier,Courier" font-size="36.0" fill="#FEFFFF" transform="matrix(1.00, 0.00, -0.00, -1.00, 534.6, 367.9)">“</text><text xml:space="preserve" font-family="Courier,Courier" font-size="36.0" fill="#FEFFFF" transform="matrix(1.00, 0.00, -0.00, -1.00, 556.3, 367.9)">8</text><text xml:space="preserve" font-family="Courier,Courier" font-size="36.0" fill="#FEFFFF" transform="matrix(1.00, 0.00, -0.00, -1.00, 577.9, 367.9)">0</text><text xml:space="preserve" font-family="Courier,Courier" font-size="36.0" fill="#FEFFFF" transform="matrix(1.00, 0.00, -0.00, -1.00, 599.5, 367.9)">0</text><text xml:space="preserve" font-family="Courier,Courier" font-size="36.0" fill="#FEFFFF" transform="matrix(1.00, 0.00, -0.00, -1.00, 621.1, 367.9)">"</text><text xml:space="preserve" font-family="Courier,Courier" font-size="36.0" fill="#FEFFFF" transform="matrix(1.00, 0.00, -0.00, -1.00, 642.7, 367.9)"> </text><text xml:space="preserve" font-family="Courier,Courier" font-size="36.0" fill="#FEFFFF" transform="matrix(1.00, 0.00, -0.00, -1.00, 664.3, 367.9)"> </text><text xml:space="preserve" font-family="Courier,Courier" font-size="36.0" fill="#FEFFFF" transform="matrix(1.00, 0.00, -0.00, -1.00, 685.9, 367.9)">:</text><text xml:space="preserve" font-family="Courier,Courier" font-size="36.0" fill="#FEFFFF" transform="matrix(1.00, 0.00, -0.00, -1.00, 707.5, 367.9)"> </text><text xml:space="preserve" font-family="Courier,Courier" font-size="36.0" fill="#FEFFFF" transform="matrix(1.00, 0.00, -0.00, -1.00, 729.1, 367.9)">"</text><text xml:space="preserve" font-family="Courier,Courier" font-size="36.0" fill="#FEFFFF" transform="matrix(1.00, 0.00, -0.00, -1.00, 750.7, 367.9)">#</text><text xml:space="preserve" font-family="Courier,Courier" font-size="36.0" fill="#FEFFFF" transform="matrix(1.00, 0.00, -0.00, -1.00, 772.3, 367.9)">1</text><text xml:space="preserve" font-family="Courier,Courier" font-size="36.0" fill="#FEFFFF" transform="matrix(1.00, 0.00, -0.00, -1.00, 793.9, 367.9)">B</text><text xml:space="preserve" font-family="Courier,Courier" font-size="36.0" fill="#FEFFFF" transform="matrix(1.00, 0.00, -0.00, -1.00, 815.5, 367.9)">2</text><text xml:space="preserve" font-family="Courier,Courier" font-size="36.0" fill="#FEFFFF" transform="matrix(1.00, 0.00, -0.00, -1.00, 837.1, 367.9)">2</text><text xml:space="preserve" font-family="Courier,Courier" font-size="36.0" fill="#FEFFFF" transform="matrix(1.00, 0.00, -0.00, -1.00, 858.7, 367.9)">2</text><text xml:space="preserve" font-family="Courier,Courier" font-size="36.0" fill="#FEFFFF" transform="matrix(1.00, 0.00, -0.00, -1.00, 880.3, 367.9)">E</text><text xml:space="preserve" font-family="Courier,Courier" font-size="36.0" fill="#FEFFFF" transform="matrix(1.00, 0.00, -0.00, -1.00, 901.9, 367.9)">"</text><text xml:space="preserve" font-family="Courier,Courier" font-size="36.0" fill="#FEFFFF" transform="matrix(1.00, 0.00, -0.00, -1.00, 923.5, 367.9)">,</text><text xml:space="preserve" font-family="Courier,Courier" font-size="36.0" fill="#FEFFFF" transform="matrix(1.00, 0.00, -0.00, -1.00, 491.4, 324.9)"> </text><text xml:space="preserve" font-family="Courier,Courier" font-size="36.0" fill="#FEFFFF" transform="matrix(1.00, 0.00, -0.00, -1.00, 513.0, 324.9)"> </text><text xml:space="preserve" font-family="Courier,Courier" font-size="36.0" fill="#FEFFFF" transform="matrix(1.00, 0.00, -0.00, -1.00, 534.6, 324.9)">“</text><text xml:space="preserve" font-family="Courier,Courier" font-size="36.0" fill="#FEFFFF" transform="matrix(1.00, 0.00, -0.00, -1.00, 556.3, 324.9)">9</text><text xml:space="preserve" font-family="Courier,Courier" font-size="36.0" fill="#FEFFFF" transform="matrix(1.00, 0.00, -0.00, -1.00, 577.9, 324.9)">0</text><text xml:space="preserve" font-family="Courier,Courier" font-size="36.0" fill="#FEFFFF" transform="matrix(1.00, 0.00, -0.00, -1.00, 599.5, 324.9)">0</text><text xml:space="preserve" font-family="Courier,Courier" font-size="36.0" fill="#FEFFFF" transform="matrix(1.00, 0.00, -0.00, -1.00, 621.1, 324.9)">"</text><text xml:space="preserve" font-family="Courier,Courier" font-size="36.0" fill="#FEFFFF" transform="matrix(1.00, 0.00, -0.00, -1.00, 642.7, 324.9)"> </text><text xml:space="preserve" font-family="Courier,Courier" font-size="36.0" fill="#FEFFFF" transform="matrix(1.00, 0.00, -0.00, -1.00, 664.3, 324.9)"> </text><text xml:space="preserve" font-family="Courier,Courier" font-size="36.0" fill="#FEFFFF" transform="matrix(1.00, 0.00, -0.00, -1.00, 685.9, 324.9)">:</text><text xml:space="preserve" font-family="Courier,Courier" font-size="36.0" fill="#FEFFFF" transform="matrix(1.00, 0.00, -0.00, -1.00, 707.5, 324.9)"> </text><text xml:space="preserve" font-family="Courier,Courier" font-size="36.0" fill="#FEFFFF" transform="matrix(1.00, 0.00, -0.00, -1.00, 729.1, 324.9)">"</text><text xml:space="preserve" font-family="Courier,Courier" font-size="36.0" fill="#FEFFFF" transform="matrix(1.00, 0.00, -0.00, -1.00, 750.7, 324.9)">#</text><text xml:space="preserve" font-family="Courier,Courier" font-size="36.0" fill="#FEFFFF" transform="matrix(1.00, 0.00, -0.00, -1.00, 772.3, 324.9)">0</text><text xml:space="preserve" font-family="Courier,Courier" font-size="36.0" fill="#FEFFFF" transform="matrix(1.00, 0.00, -0.00, -1.00, 793.9, 324.9)">D</text><text xml:space="preserve" font-family="Courier,Courier" font-size="36.0" fill="#FEFFFF" transform="matrix(1.00, 0.00, -0.00, -1.00, 815.5, 324.9)">1</text><text xml:space="preserve" font-family="Courier,Courier" font-size="36.0" fill="#FEFFFF" transform="matrix(1.00, 0.00, -0.00, -1.00, 837.1, 324.9)">0</text><text xml:space="preserve" font-family="Courier,Courier" font-size="36.0" fill="#FEFFFF" transform="matrix(1.00, 0.00, -0.00, -1.00, 858.7, 324.9)">1</text><text xml:space="preserve" font-family="Courier,Courier" font-size="36.0" fill="#FEFFFF" transform="matrix(1.00, 0.00, -0.00, -1.00, 880.3, 324.9)">7</text><text xml:space="preserve" font-family="Courier,Courier" font-size="36.0" fill="#FEFFFF" transform="matrix(1.00, 0.00, -0.00, -1.00, 901.9, 324.9)">"</text><text xml:space="preserve" font-family="Courier,Courier" font-size="36.0" fill="#FEFFFF" transform="matrix(1.00, 0.00, -0.00, -1.00, 923.5, 324.9)">,</text><text xml:space="preserve" font-family="Courier,Courier" font-size="36.0" fill="#FEFFFF" transform="matrix(1.00, 0.00, -0.00, -1.00, 491.4, 281.9)"> </text><text xml:space="preserve" font-family="Courier,Courier" font-size="36.0" fill="#FEFFFF" transform="matrix(1.00, 0.00, -0.00, -1.00, 513.0, 281.9)"> </text><text xml:space="preserve" font-family="Courier,Courier" font-size="36.0" fill="#FEFFFF" transform="matrix(1.00, 0.00, -0.00, -1.00, 534.6, 281.9)">“</text><text xml:space="preserve" font-family="Courier,Courier" font-size="36.0" fill="#FEFFFF" transform="matrix(1.00, 0.00, -0.00, -1.00, 556.3, 281.9)">5</text><text xml:space="preserve" font-family="Courier,Courier" font-size="36.0" fill="#FEFFFF" transform="matrix(1.00, 0.00, -0.00, -1.00, 577.9, 281.9)">0</text><text xml:space="preserve" font-family="Courier,Courier" font-size="36.0" fill="#FEFFFF" transform="matrix(1.00, 0.00, -0.00, -1.00, 599.5, 281.9)">c</text><text xml:space="preserve" font-family="Courier,Courier" font-size="36.0" fill="#FEFFFF" transform="matrix(1.00, 0.00, -0.00, -1.00, 621.1, 281.9)">"</text><text xml:space="preserve" font-family="Courier,Courier" font-size="36.0" fill="#FEFFFF" transform="matrix(1.00, 0.00, -0.00, -1.00, 642.7, 281.9)"> </text><text xml:space="preserve" font-family="Courier,Courier" font-size="36.0" fill="#FEFFFF" transform="matrix(1.00, 0.00, -0.00, -1.00, 664.3, 281.9)"> </text><text xml:space="preserve" font-family="Courier,Courier" font-size="36.0" fill="#FEFFFF" transform="matrix(1.00, 0.00, -0.00, -1.00, 685.9, 281.9)">:</text><text xml:space="preserve" font-family="Courier,Courier" font-size="36.0" fill="#FEFFFF" transform="matrix(1.00, 0.00, -0.00, -1.00, 707.5, 281.9)"> </text><text xml:space="preserve" font-family="Courier,Courier" font-size="36.0" fill="#FEFFFF" transform="matrix(1.00, 0.00, -0.00, -1.00, 729.1, 281.9)">"</text><text xml:space="preserve" font-family="Courier,Courier" font-size="36.0" fill="#FEFFFF" transform="matrix(1.00, 0.00, -0.00, -1.00, 750.7, 281.9)">#</text><text xml:space="preserve" font-family="Courier,Courier" font-size="36.0" fill="#FEFFFF" transform="matrix(1.00, 0.00, -0.00, -1.00, 772.3, 281.9)">1</text><text xml:space="preserve" font-family="Courier,Courier" font-size="36.0" fill="#FEFFFF" transform="matrix(1.00, 0.00, -0.00, -1.00, 793.9, 281.9)">B</text><text xml:space="preserve" font-family="Courier,Courier" font-size="36.0" fill="#FEFFFF" transform="matrix(1.00, 0.00, -0.00, -1.00, 815.5, 281.9)">2</text><text xml:space="preserve" font-family="Courier,Courier" font-size="36.0" fill="#FEFFFF" transform="matrix(1.00, 0.00, -0.00, -1.00, 837.1, 281.9)">2</text><text xml:space="preserve" font-family="Courier,Courier" font-size="36.0" fill="#FEFFFF" transform="matrix(1.00, 0.00, -0.00, -1.00, 858.7, 281.9)">2</text><text xml:space="preserve" font-family="Courier,Courier" font-size="36.0" fill="#FEFFFF" transform="matrix(1.00, 0.00, -0.00, -1.00, 880.3, 281.9)">E</text><text xml:space="preserve" font-family="Courier,Courier" font-size="36.0" fill="#FEFFFF" transform="matrix(1.00, 0.00, -0.00, -1.00, 901.9, 281.9)">"</text><text xml:space="preserve" font-family="Courier,Courier" font-size="36.0" fill="#FEFFFF" transform="matrix(1.00, 0.00, -0.00, -1.00, 923.5, 281.9)">,</text><text xml:space="preserve" font-family="Courier,Courier" font-size="36.0" fill="#FEFFFF" transform="matrix(1.00, 0.00, -0.00, -1.00, 491.4, 238.9)"> </text><text xml:space="preserve" font-family="Courier,Courier" font-size="36.0" fill="#FEFFFF" transform="matrix(1.00, 0.00, -0.00, -1.00, 513.0, 238.9)"> </text><text xml:space="preserve" font-family="Courier,Courier" font-size="36.0" fill="#FEFFFF" transform="matrix(1.00, 0.00, -0.00, -1.00, 534.6, 238.9)">“</text><text xml:space="preserve" font-family="Courier,Courier" font-size="36.0" fill="#FEFFFF" transform="matrix(1.00, 0.00, -0.00, -1.00, 556.3, 238.9)">1</text><text xml:space="preserve" font-family="Courier,Courier" font-size="36.0" fill="#FEFFFF" transform="matrix(1.00, 0.00, -0.00, -1.00, 577.9, 238.9)">0</text><text xml:space="preserve" font-family="Courier,Courier" font-size="36.0" fill="#FEFFFF" transform="matrix(1.00, 0.00, -0.00, -1.00, 599.5, 238.9)">0</text><text xml:space="preserve" font-family="Courier,Courier" font-size="36.0" fill="#FEFFFF" transform="matrix(1.00, 0.00, -0.00, -1.00, 621.1, 238.9)">c</text><text xml:space="preserve" font-family="Courier,Courier" font-size="36.0" fill="#FEFFFF" transform="matrix(1.00, 0.00, -0.00, -1.00, 642.7, 238.9)">"</text><text xml:space="preserve" font-family="Courier,Courier" font-size="36.0" fill="#FEFFFF" transform="matrix(1.00, 0.00, -0.00, -1.00, 664.3, 238.9)"> </text><text xml:space="preserve" font-family="Courier,Courier" font-size="36.0" fill="#FEFFFF" transform="matrix(1.00, 0.00, -0.00, -1.00, 685.9, 238.9)">:</text><text xml:space="preserve" font-family="Courier,Courier" font-size="36.0" fill="#FEFFFF" transform="matrix(1.00, 0.00, -0.00, -1.00, 707.5, 238.9)"> </text><text xml:space="preserve" font-family="Courier,Courier" font-size="36.0" fill="#FEFFFF" transform="matrix(1.00, 0.00, -0.00, -1.00, 729.1, 238.9)">"</text><text xml:space="preserve" font-family="Courier,Courier" font-size="36.0" fill="#FEFFFF" transform="matrix(1.00, 0.00, -0.00, -1.00, 750.7, 238.9)">#</text><text xml:space="preserve" font-family="Courier,Courier" font-size="36.0" fill="#FEFFFF" transform="matrix(1.00, 0.00, -0.00, -1.00, 772.3, 238.9)">1</text><text xml:space="preserve" font-family="Courier,Courier" font-size="36.0" fill="#FEFFFF" transform="matrix(1.00, 0.00, -0.00, -1.00, 793.9, 238.9)">B</text><text xml:space="preserve" font-family="Courier,Courier" font-size="36.0" fill="#FEFFFF" transform="matrix(1.00, 0.00, -0.00, -1.00, 815.5, 238.9)">2</text><text xml:space="preserve" font-family="Courier,Courier" font-size="36.0" fill="#FEFFFF" transform="matrix(1.00, 0.00, -0.00, -1.00, 837.1, 238.9)">2</text><text xml:space="preserve" font-family="Courier,Courier" font-size="36.0" fill="#FEFFFF" transform="matrix(1.00, 0.00, -0.00, -1.00, 858.7, 238.9)">2</text><text xml:space="preserve" font-family="Courier,Courier" font-size="36.0" fill="#FEFFFF" transform="matrix(1.00, 0.00, -0.00, -1.00, 880.3, 238.9)">E</text><text xml:space="preserve" font-family="Courier,Courier" font-size="36.0" fill="#FEFFFF" transform="matrix(1.00, 0.00, -0.00, -1.00, 901.9, 238.9)">"</text><text xml:space="preserve" font-family="Courier,Courier" font-size="36.0" fill="#FEFFFF" transform="matrix(1.00, 0.00, -0.00, -1.00, 923.5, 238.9)">,</text><text xml:space="preserve" font-family="Courier,Courier" font-size="36.0" fill="#FEFFFF" transform="matrix(1.00, 0.00, -0.00, -1.00, 491.4, 195.9)"> </text><text xml:space="preserve" font-family="Courier,Courier" font-size="36.0" fill="#FEFFFF" transform="matrix(1.00, 0.00, -0.00, -1.00, 513.0, 195.9)"> </text><text xml:space="preserve" font-family="Courier,Courier" font-size="36.0" fill="#FEFFFF" transform="matrix(1.00, 0.00, -0.00, -1.00, 534.6, 195.9)">“</text><text xml:space="preserve" font-family="Courier,Courier" font-size="36.0" fill="#FEFFFF" transform="matrix(1.00, 0.00, -0.00, -1.00, 556.3, 195.9)">2</text><text xml:space="preserve" font-family="Courier,Courier" font-size="36.0" fill="#FEFFFF" transform="matrix(1.00, 0.00, -0.00, -1.00, 577.9, 195.9)">0</text><text xml:space="preserve" font-family="Courier,Courier" font-size="36.0" fill="#FEFFFF" transform="matrix(1.00, 0.00, -0.00, -1.00, 599.5, 195.9)">0</text><text xml:space="preserve" font-family="Courier,Courier" font-size="36.0" fill="#FEFFFF" transform="matrix(1.00, 0.00, -0.00, -1.00, 621.1, 195.9)">c</text><text xml:space="preserve" font-family="Courier,Courier" font-size="36.0" fill="#FEFFFF" transform="matrix(1.00, 0.00, -0.00, -1.00, 642.7, 195.9)">"</text><text xml:space="preserve" font-family="Courier,Courier" font-size="36.0" fill="#FEFFFF" transform="matrix(1.00, 0.00, -0.00, -1.00, 664.3, 195.9)"> </text><text xml:space="preserve" font-family="Courier,Courier" font-size="36.0" fill="#FEFFFF" transform="matrix(1.00, 0.00, -0.00, -1.00, 685.9, 195.9)">:</text><text xml:space="preserve" font-family="Courier,Courier" font-size="36.0" fill="#FEFFFF" transform="matrix(1.00, 0.00, -0.00, -1.00, 707.5, 195.9)"> </text><text xml:space="preserve" font-family="Courier,Courier" font-size="36.0" fill="#FEFFFF" transform="matrix(1.00, 0.00, -0.00, -1.00, 729.1, 195.9)">"</text><text xml:space="preserve" font-family="Courier,Courier" font-size="36.0" fill="#FEFFFF" transform="matrix(1.00, 0.00, -0.00, -1.00, 750.7, 195.9)">#</text><text xml:space="preserve" font-family="Courier,Courier" font-size="36.0" fill="#FEFFFF" transform="matrix(1.00, 0.00, -0.00, -1.00, 772.3, 195.9)">1</text><text xml:space="preserve" font-family="Courier,Courier" font-size="36.0" fill="#FEFFFF" transform="matrix(1.00, 0.00, -0.00, -1.00, 793.9, 195.9)">B</text><text xml:space="preserve" font-family="Courier,Courier" font-size="36.0" fill="#FEFFFF" transform="matrix(1.00, 0.00, -0.00, -1.00, 815.5, 195.9)">2</text><text xml:space="preserve" font-family="Courier,Courier" font-size="36.0" fill="#FEFFFF" transform="matrix(1.00, 0.00, -0.00, -1.00, 837.1, 195.9)">2</text><text xml:space="preserve" font-family="Courier,Courier" font-size="36.0" fill="#FEFFFF" transform="matrix(1.00, 0.00, -0.00, -1.00, 858.7, 195.9)">2</text><text xml:space="preserve" font-family="Courier,Courier" font-size="36.0" fill="#FEFFFF" transform="matrix(1.00, 0.00, -0.00, -1.00, 880.3, 195.9)">E</text><text xml:space="preserve" font-family="Courier,Courier" font-size="36.0" fill="#FEFFFF" transform="matrix(1.00, 0.00, -0.00, -1.00, 901.9, 195.9)">"</text><text xml:space="preserve" font-family="Courier,Courier" font-size="36.0" fill="#FEFFFF" transform="matrix(1.00, 0.00, -0.00, -1.00, 923.5, 195.9)">,</text><text xml:space="preserve" font-family="Courier,Courier" font-size="36.0" fill="#FEFFFF" transform="matrix(1.00, 0.00, -0.00, -1.00, 491.4, 152.9)"> </text><text xml:space="preserve" font-family="Courier,Courier" font-size="36.0" fill="#FEFFFF" transform="matrix(1.00, 0.00, -0.00, -1.00, 513.0, 152.9)"> </text><text xml:space="preserve" font-family="Courier,Courier" font-size="36.0" fill="#FEFFFF" transform="matrix(1.00, 0.00, -0.00, -1.00, 534.6, 152.9)">“</text><text xml:space="preserve" font-family="Courier,Courier" font-size="36.0" fill="#FEFFFF" transform="matrix(1.00, 0.00, -0.00, -1.00, 556.3, 152.9)">8</text><text xml:space="preserve" font-family="Courier,Courier" font-size="36.0" fill="#FEFFFF" transform="matrix(1.00, 0.00, -0.00, -1.00, 577.9, 152.9)">0</text><text xml:space="preserve" font-family="Courier,Courier" font-size="36.0" fill="#FEFFFF" transform="matrix(1.00, 0.00, -0.00, -1.00, 599.5, 152.9)">0</text><text xml:space="preserve" font-family="Courier,Courier" font-size="36.0" fill="#FEFFFF" transform="matrix(1.00, 0.00, -0.00, -1.00, 621.1, 152.9)">c</text><text xml:space="preserve" font-family="Courier,Courier" font-size="36.0" fill="#FEFFFF" transform="matrix(1.00, 0.00, -0.00, -1.00, 642.7, 152.9)">"</text><text xml:space="preserve" font-family="Courier,Courier" font-size="36.0" fill="#FEFFFF" transform="matrix(1.00, 0.00, -0.00, -1.00, 664.3, 152.9)"> </text><text xml:space="preserve" font-family="Courier,Courier" font-size="36.0" fill="#FEFFFF" transform="matrix(1.00, 0.00, -0.00, -1.00, 685.9, 152.9)">:</text><text xml:space="preserve" font-family="Courier,Courier" font-size="36.0" fill="#FEFFFF" transform="matrix(1.00, 0.00, -0.00, -1.00, 707.5, 152.9)"> </text><text xml:space="preserve" font-family="Courier,Courier" font-size="36.0" fill="#FEFFFF" transform="matrix(1.00, 0.00, -0.00, -1.00, 729.1, 152.9)">"</text><text xml:space="preserve" font-family="Courier,Courier" font-size="36.0" fill="#FEFFFF" transform="matrix(1.00, 0.00, -0.00, -1.00, 750.7, 152.9)">w</text><text xml:space="preserve" font-family="Courier,Courier" font-size="36.0" fill="#FEFFFF" transform="matrix(1.00, 0.00, -0.00, -1.00, 772.3, 152.9)">h</text><text xml:space="preserve" font-family="Courier,Courier" font-size="36.0" fill="#FEFFFF" transform="matrix(1.00, 0.00, -0.00, -1.00, 793.9, 152.9)">i</text><text xml:space="preserve" font-family="Courier,Courier" font-size="36.0" fill="#FEFFFF" transform="matrix(1.00, 0.00, -0.00, -1.00, 815.5, 152.9)">t</text><text xml:space="preserve" font-family="Courier,Courier" font-size="36.0" fill="#FEFFFF" transform="matrix(1.00, 0.00, -0.00, -1.00, 837.1, 152.9)">e</text><text xml:space="preserve" font-family="Courier,Courier" font-size="36.0" fill="#FEFFFF" transform="matrix(1.00, 0.00, -0.00, -1.00, 858.7, 152.9)">"</text><text xml:space="preserve" font-family="Courier,Courier" font-size="36.0" fill="#FEFFFF" transform="matrix(1.00, 0.00, -0.00, -1.00, 880.3, 152.9)">,</text><text xml:space="preserve" font-family="Courier,Courier" font-size="36.0" fill="#FEFFFF" transform="matrix(1.00, 0.00, -0.00, -1.00, 491.4, 109.9)"> </text><text xml:space="preserve" font-family="Courier,Courier" font-size="36.0" fill="#FEFFFF" transform="matrix(1.00, 0.00, -0.00, -1.00, 513.0, 109.9)"> </text><text xml:space="preserve" font-family="Courier,Courier" font-size="36.0" fill="#FEFFFF" transform="matrix(1.00, 0.00, -0.00, -1.00, 534.6, 109.9)">“</text><text xml:space="preserve" font-family="Courier,Courier" font-size="36.0" fill="#FEFFFF" transform="matrix(1.00, 0.00, -0.00, -1.00, 556.3, 109.9)">9</text><text xml:space="preserve" font-family="Courier,Courier" font-size="36.0" fill="#FEFFFF" transform="matrix(1.00, 0.00, -0.00, -1.00, 577.9, 109.9)">0</text><text xml:space="preserve" font-family="Courier,Courier" font-size="36.0" fill="#FEFFFF" transform="matrix(1.00, 0.00, -0.00, -1.00, 599.5, 109.9)">0</text><text xml:space="preserve" font-family="Courier,Courier" font-size="36.0" fill="#FEFFFF" transform="matrix(1.00, 0.00, -0.00, -1.00, 621.1, 109.9)">c</text><text xml:space="preserve" font-family="Courier,Courier" font-size="36.0" fill="#FEFFFF" transform="matrix(1.00, 0.00, -0.00, -1.00, 642.7, 109.9)">"</text><text xml:space="preserve" font-family="Courier,Courier" font-size="36.0" fill="#FEFFFF" transform="matrix(1.00, 0.00, -0.00, -1.00, 664.3, 109.9)"> </text><text xml:space="preserve" font-family="Courier,Courier" font-size="36.0" fill="#FEFFFF" transform="matrix(1.00, 0.00, -0.00, -1.00, 685.9, 109.9)">:</text><text xml:space="preserve" font-family="Courier,Courier" font-size="36.0" fill="#FEFFFF" transform="matrix(1.00, 0.00, -0.00, -1.00, 707.5, 109.9)"> </text><text xml:space="preserve" font-family="Courier,Courier" font-size="36.0" fill="#FEFFFF" transform="matrix(1.00, 0.00, -0.00, -1.00, 729.1, 109.9)">"</text><text xml:space="preserve" font-family="Courier,Courier" font-size="36.0" fill="#FEFFFF" transform="matrix(1.00, 0.00, -0.00, -1.00, 750.7, 109.9)">w</text><text xml:space="preserve" font-family="Courier,Courier" font-size="36.0" fill="#FEFFFF" transform="matrix(1.00, 0.00, -0.00, -1.00, 772.3, 109.9)">h</text><text xml:space="preserve" font-family="Courier,Courier" font-size="36.0" fill="#FEFFFF" transform="matrix(1.00, 0.00, -0.00, -1.00, 793.9, 109.9)">i</text><text xml:space="preserve" font-family="Courier,Courier" font-size="36.0" fill="#FEFFFF" transform="matrix(1.00, 0.00, -0.00, -1.00, 815.5, 109.9)">t</text><text xml:space="preserve" font-family="Courier,Courier" font-size="36.0" fill="#FEFFFF" transform="matrix(1.00, 0.00, -0.00, -1.00, 837.1, 109.9)">e</text><text xml:space="preserve" font-family="Courier,Courier" font-size="36.0" fill="#FEFFFF" transform="matrix(1.00, 0.00, -0.00, -1.00, 858.7, 109.9)">"</text><text xml:space="preserve" font-family="Courier,Courier" font-size="36.0" fill="#FEFFFF" transform="matrix(1.00, 0.00, -0.00, -1.00, 491.4, 66.9)">}</text><text xml:space="preserve" font-family="Courier,Courier" font-size="36.0" fill="#FEFFFF" transform="matrix(1.00, 0.00, -0.00, -1.00, 513.0, 66.9)">;</text><image xlink:href="90964BD886BE548D304970FF61779501.png" width="608.00" height="904.00" transform="matrix(0.53, 0.00, -0.00, -0.53, 86.0, 555.0)"></image><text xml:space="preserve" font-family="Helvetica-Light,Helvetica" font-size="36.0" fill="#FEFFFF" transform="matrix(1.00, 0.00, -0.00, -1.00, 341.9, 618.8)">I</text><text xml:space="preserve" font-family="Helvetica-Light,Helvetica" font-size="36.0" fill="#FEFFFF" transform="matrix(1.00, 0.00, -0.00, -1.00, 351.9, 618.8)">n</text><text xml:space="preserve" font-family="Helvetica-Light,Helvetica" font-size="36.0" fill="#FEFFFF" transform="matrix(1.00, 0.00, -0.00, -1.00, 372.0, 618.8)">s</text><text xml:space="preserve" font-family="Helvetica-Light,Helvetica" font-size="36.0" fill="#FEFFFF" transform="matrix(1.00, 0.00, -0.00, -1.00, 390.0, 618.8)">i</text><text xml:space="preserve" font-family="Helvetica-Light,Helvetica" font-size="36.0" fill="#FEFFFF" transform="matrix(1.00, 0.00, -0.00, -1.00, 398.0, 618.8)">d</text><text xml:space="preserve" font-family="Helvetica-Light,Helvetica" font-size="36.0" fill="#FEFFFF" transform="matrix(1.00, 0.00, -0.00, -1.00, 419.9, 618.8)">e</text><text xml:space="preserve" font-family="Helvetica-Light,Helvetica" font-size="36.0" fill="#FEFFFF" transform="matrix(1.00, 0.00, -0.00, -1.00, 440.0, 618.8)"> </text><text xml:space="preserve" font-family="Helvetica-Light,Helvetica" font-size="36.0" fill="#FEFFFF" transform="matrix(1.00, 0.00, -0.00, -1.00, 450.0, 618.8)">p</text><text xml:space="preserve" font-family="Helvetica-Light,Helvetica" font-size="36.0" fill="#FEFFFF" transform="matrix(1.00, 0.00, -0.00, -1.00, 472.0, 618.8)">a</text><text xml:space="preserve" font-family="Helvetica-Light,Helvetica" font-size="36.0" fill="#FEFFFF" transform="matrix(1.00, 0.00, -0.00, -1.00, 492.0, 618.8)">l</text><text xml:space="preserve" font-family="Helvetica-Light,Helvetica" font-size="36.0" fill="#FEFFFF" transform="matrix(1.00, 0.00, -0.00, -1.00, 500.0, 618.8)">e</text><text xml:space="preserve" font-family="Helvetica-Light,Helvetica" font-size="36.0" fill="#FEFFFF" transform="matrix(1.00, 0.00, -0.00, -1.00, 520.0, 618.8)">t</text><text xml:space="preserve" font-family="Helvetica-Light,Helvetica" font-size="36.0" fill="#FEFFFF" transform="matrix(1.00, 0.00, -0.00, -1.00, 530.0, 618.8)">t</text><text xml:space="preserve" font-family="Helvetica-Light,Helvetica" font-size="36.0" fill="#FEFFFF" transform="matrix(1.00, 0.00, -0.00, -1.00, 540.0, 618.8)">e</text><text xml:space="preserve" font-family="Helvetica-Light,Helvetica" font-size="36.0" fill="#FEFFFF" transform="matrix(1.00, 0.00, -0.00, -1.00, 560.0, 618.8)">s</text><text xml:space="preserve" font-family="Helvetica-Light,Helvetica" font-size="36.0" fill="#FEFFFF" transform="matrix(1.00, 0.00, -0.00, -1.00, 578.0, 618.8)">.</text><text xml:space="preserve" font-family="Helvetica-Light,Helvetica" font-size="36.0" fill="#FEFFFF" transform="matrix(1.00, 0.00, -0.00, -1.00, 588.0, 618.8)">e</text><text xml:space="preserve" font-family="Helvetica-Light,Helvetica" font-size="36.0" fill="#FEFFFF" transform="matrix(1.00, 0.00, -0.00, -1.00, 608.0, 618.8)">s</text><text xml:space="preserve" font-family="Helvetica-Light,Helvetica" font-size="36.0" fill="#FEFFFF" transform="matrix(1.00, 0.00, -0.00, -1.00, 626.0, 618.8)">6</text><text xml:space="preserve" font-family="Helvetica-Light,Helvetica" font-size="36.0" fill="#FEFFFF" transform="matrix(1.00, 0.00, -0.00, -1.00, 646.1, 618.8)">.</text><text xml:space="preserve" font-family="Helvetica-Light,Helvetica" font-size="36.0" fill="#FEFFFF" transform="matrix(1.00, 0.00, -0.00, -1.00, 656.1, 618.8)">j</text><text xml:space="preserve" font-family="Helvetica-Light,Helvetica" font-size="36.0" fill="#FEFFFF" transform="matrix(1.00, 0.00, -0.00, -1.00, 664.1, 618.8)">s</text></g></svg>