<?xml version="1.0" encoding="UTF-8" standalone="no"?><svg xmlns="http://www.w3.org/2000/svg" xmlns:xlink="http://www.w3.org/1999/xlink" clip-rule="evenodd" stroke-miterlimit="10" viewBox="0 0 1024 768"><desc>SVG generated by Keynote</desc><defs></defs><g transform="matrix(1.00, 0.00, -0.00, -1.00, 0.0, 768.0)"><path d="M 0.0 768.0 L 1024.0 768.0 L 1024.0 0.0 L 0.0 0.0 Z M 0.0 768.0 " fill="#000000"></path><text xml:space="preserve" font-family="Helvetica-Light,Helvetica" font-size="80.0" fill="#FEFFFF" transform="matrix(1.00, 0.00, -0.00, -1.00, 188.2, 633.4)">U</text><text xml:space="preserve" font-family="Helvetica-Light,Helvetica" font-size="80.0" fill="#FEFFFF" transform="matrix(1.00, 0.00, -0.00, -1.00, 245.9, 633.4)">n</text><text xml:space="preserve" font-family="Helvetica-Light,Helvetica" font-size="80.0" fill="#FEFFFF" transform="matrix(1.00, 0.00, -0.00, -1.00, 290.4, 633.4)">c</text><text xml:space="preserve" font-family="Helvetica-Light,Helvetica" font-size="80.0" fill="#FEFFFF" transform="matrix(1.00, 0.00, -0.00, -1.00, 334.9, 633.4)">o</text><text xml:space="preserve" font-family="Helvetica-Light,Helvetica" font-size="80.0" fill="#FEFFFF" transform="matrix(1.00, 0.00, -0.00, -1.00, 379.4, 633.4)">n</text><text xml:space="preserve" font-family="Helvetica-Light,Helvetica" font-size="80.0" fill="#FEFFFF" transform="matrix(1.00, 0.00, -0.00, -1.00, 423.8, 633.4)">t</text><text xml:space="preserve" font-family="Helvetica-Light,Helvetica" font-size="80.0" fill="#FEFFFF" transform="matrix(1.00, 0.00, -0.00, -1.00, 446.1, 633.4)">r</text><text xml:space="preserve" font-family="Helvetica-Light,Helvetica" font-size="80.0" fill="#FEFFFF" transform="matrix(1.00, 0.00, -0.00, -1.00, 471.3, 633.4)">o</text><text xml:space="preserve" font-family="Helvetica-Light,Helvetica" font-size="80.0" fill="#FEFFFF" transform="matrix(1.00, 0.00, -0.00, -1.00, 515.8, 633.4)">l</text><text xml:space="preserve" font-family="Helvetica-Light,Helvetica" font-size="80.0" fill="#FEFFFF" transform="matrix(1.00, 0.00, -0.00, -1.00, 533.5, 633.4)">l</text><text xml:space="preserve" font-family="Helvetica-Light,Helvetica" font-size="80.0" fill="#FEFFFF" transform="matrix(1.00, 0.00, -0.00, -1.00, 551.3, 633.4)">e</text><text xml:space="preserve" font-family="Helvetica-Light,Helvetica" font-size="80.0" fill="#FEFFFF" transform="matrix(1.00, 0.00, -0.00, -1.00, 595.8, 633.4)">d</text><text xml:space="preserve" font-family="Helvetica-Light,Helvetica" font-size="80.0" fill="#FEFFFF" transform="matrix(1.00, 0.00, -0.00, -1.00, 644.6, 633.4)"> </text><text xml:space="preserve" font-family="Helvetica-Light,Helvetica" font-size="80.0" fill="#FEFFFF" transform="matrix(1.00, 0.00, -0.00, -1.00, 666.9, 633.4)">T</text><text xml:space="preserve" font-family="Helvetica-Light,Helvetica" font-size="80.0" fill="#FEFFFF" transform="matrix(1.00, 0.00, -0.00, -1.00, 702.5, 633.4)">a</text><text xml:space="preserve" font-family="Helvetica-Light,Helvetica" font-size="80.0" fill="#FEFFFF" transform="matrix(1.00, 0.00, -0.00, -1.00, 747.0, 633.4)">b</text><text xml:space="preserve" font-family="Helvetica-Light,Helvetica" font-size="80.0" fill="#FEFFFF" transform="matrix(1.00, 0.00, -0.00, -1.00, 795.8, 633.4)">s</text><text xml:space="preserve" font-family="Courier,Courier" font-size="36.0" fill="#FEFFFF" transform="matrix(1.00, 0.00, -0.00, -1.00, 64.2, 410.9)">l</text><text xml:space="preserve" font-family="Courier,Courier" font-size="36.0" fill="#FEFFFF" transform="matrix(1.00, 0.00, -0.00, -1.00, 85.8, 410.9)">e</text><text xml:space="preserve" font-family="Courier,Courier" font-size="36.0" fill="#FEFFFF" transform="matrix(1.00, 0.00, -0.00, -1.00, 107.4, 410.9)">t</text><text xml:space="preserve" font-family="Courier,Courier" font-size="36.0" fill="#FEFFFF" transform="matrix(1.00, 0.00, -0.00, -1.00, 129.0, 410.9)"> </text><text xml:space="preserve" font-family="Courier,Courier" font-size="36.0" fill="#FEFFFF" transform="matrix(1.00, 0.00, -0.00, -1.00, 150.6, 410.9)">t</text><text xml:space="preserve" font-family="Courier,Courier" font-size="36.0" fill="#FEFFFF" transform="matrix(1.00, 0.00, -0.00, -1.00, 172.2, 410.9)">a</text><text xml:space="preserve" font-family="Courier,Courier" font-size="36.0" fill="#FEFFFF" transform="matrix(1.00, 0.00, -0.00, -1.00, 193.8, 410.9)">b</text><text xml:space="preserve" font-family="Courier,Courier" font-size="36.0" fill="#FEFFFF" transform="matrix(1.00, 0.00, -0.00, -1.00, 215.4, 410.9)">I</text><text xml:space="preserve" font-family="Courier,Courier" font-size="36.0" fill="#FEFFFF" transform="matrix(1.00, 0.00, -0.00, -1.00, 237.0, 410.9)">t</text><text xml:space="preserve" font-family="Courier,Courier" font-size="36.0" fill="#FEFFFF" transform="matrix(1.00, 0.00, -0.00, -1.00, 258.6, 410.9)">e</text><text xml:space="preserve" font-family="Courier,Courier" font-size="36.0" fill="#FEFFFF" transform="matrix(1.00, 0.00, -0.00, -1.00, 280.2, 410.9)">m</text><text xml:space="preserve" font-family="Courier,Courier" font-size="36.0" fill="#FEFFFF" transform="matrix(1.00, 0.00, -0.00, -1.00, 301.9, 410.9)">s</text><text xml:space="preserve" font-family="Courier,Courier" font-size="36.0" fill="#FEFFFF" transform="matrix(1.00, 0.00, -0.00, -1.00, 323.5, 410.9)"> </text><text xml:space="preserve" font-family="Courier,Courier" font-size="36.0" fill="#FEFFFF" transform="matrix(1.00, 0.00, -0.00, -1.00, 345.1, 410.9)">=</text><text xml:space="preserve" font-family="Courier,Courier" font-size="36.0" fill="#FEFFFF" transform="matrix(1.00, 0.00, -0.00, -1.00, 366.7, 410.9)"> </text><text xml:space="preserve" font-family="Courier,Courier" font-size="36.0" fill="#FEFFFF" transform="matrix(1.00, 0.00, -0.00, -1.00, 388.3, 410.9)">[</text><text xml:space="preserve" font-family="Courier,Courier" font-size="36.0" fill="#FEFFFF" transform="matrix(1.00, 0.00, -0.00, -1.00, 64.2, 367.9)"> </text><text xml:space="preserve" font-family="Courier,Courier" font-size="36.0" fill="#FEFFFF" transform="matrix(1.00, 0.00, -0.00, -1.00, 85.8, 367.9)"> </text><text xml:space="preserve" font-family="Courier,Courier" font-size="36.0" fill="#FEFFFF" transform="matrix(1.00, 0.00, -0.00, -1.00, 107.4, 367.9)">{</text><text xml:space="preserve" font-family="Courier,Courier" font-size="36.0" fill="#FEFFFF" transform="matrix(1.00, 0.00, -0.00, -1.00, 129.0, 367.9)">n</text><text xml:space="preserve" font-family="Courier,Courier" font-size="36.0" fill="#FEFFFF" transform="matrix(1.00, 0.00, -0.00, -1.00, 150.6, 367.9)">a</text><text xml:space="preserve" font-family="Courier,Courier" font-size="36.0" fill="#FEFFFF" transform="matrix(1.00, 0.00, -0.00, -1.00, 172.2, 367.9)">m</text><text xml:space="preserve" font-family="Courier,Courier" font-size="36.0" fill="#FEFFFF" transform="matrix(1.00, 0.00, -0.00, -1.00, 193.8, 367.9)">e</text><text xml:space="preserve" font-family="Courier,Courier" font-size="36.0" fill="#FEFFFF" transform="matrix(1.00, 0.00, -0.00, -1.00, 215.4, 367.9)">:</text><text xml:space="preserve" font-family="Courier,Courier" font-size="36.0" fill="#FEFFFF" transform="matrix(1.00, 0.00, -0.00, -1.00, 237.0, 367.9)"> </text><text xml:space="preserve" font-family="Courier,Courier" font-size="36.0" fill="#FEFFFF" transform="matrix(1.00, 0.00, -0.00, -1.00, 258.6, 367.9)">‘</text><text xml:space="preserve" font-family="Courier,Courier" font-size="36.0" fill="#FEFFFF" transform="matrix(1.00, 0.00, -0.00, -1.00, 280.2, 367.9)">P</text><text xml:space="preserve" font-family="Courier,Courier" font-size="36.0" fill="#FEFFFF" transform="matrix(1.00, 0.00, -0.00, -1.00, 301.9, 367.9)">a</text><text xml:space="preserve" font-family="Courier,Courier" font-size="36.0" fill="#FEFFFF" transform="matrix(1.00, 0.00, -0.00, -1.00, 323.5, 367.9)">t</text><text xml:space="preserve" font-family="Courier,Courier" font-size="36.0" fill="#FEFFFF" transform="matrix(1.00, 0.00, -0.00, -1.00, 345.1, 367.9)">r</text><text xml:space="preserve" font-family="Courier,Courier" font-size="36.0" fill="#FEFFFF" transform="matrix(1.00, 0.00, -0.00, -1.00, 366.7, 367.9)">i</text><text xml:space="preserve" font-family="Courier,Courier" font-size="36.0" fill="#FEFFFF" transform="matrix(1.00, 0.00, -0.00, -1.00, 388.3, 367.9)">c</text><text xml:space="preserve" font-family="Courier,Courier" font-size="36.0" fill="#FEFFFF" transform="matrix(1.00, 0.00, -0.00, -1.00, 409.9, 367.9)">k</text><text xml:space="preserve" font-family="Courier,Courier" font-size="36.0" fill="#FEFFFF" transform="matrix(1.00, 0.00, -0.00, -1.00, 431.5, 367.9)">’</text><text xml:space="preserve" font-family="Courier,Courier" font-size="36.0" fill="#FEFFFF" transform="matrix(1.00, 0.00, -0.00, -1.00, 453.1, 367.9)">,</text><text xml:space="preserve" font-family="Courier,Courier" font-size="36.0" fill="#FEFFFF" transform="matrix(1.00, 0.00, -0.00, -1.00, 474.7, 367.9)"> </text><text xml:space="preserve" font-family="Courier,Courier" font-size="36.0" fill="#FEFFFF" transform="matrix(1.00, 0.00, -0.00, -1.00, 496.3, 367.9)">h</text><text xml:space="preserve" font-family="Courier,Courier" font-size="36.0" fill="#FEFFFF" transform="matrix(1.00, 0.00, -0.00, -1.00, 517.9, 367.9)">e</text><text xml:space="preserve" font-family="Courier,Courier" font-size="36.0" fill="#FEFFFF" transform="matrix(1.00, 0.00, -0.00, -1.00, 539.5, 367.9)">a</text><text xml:space="preserve" font-family="Courier,Courier" font-size="36.0" fill="#FEFFFF" transform="matrix(1.00, 0.00, -0.00, -1.00, 561.1, 367.9)">d</text><text xml:space="preserve" font-family="Courier,Courier" font-size="36.0" fill="#FEFFFF" transform="matrix(1.00, 0.00, -0.00, -1.00, 582.7, 367.9)">i</text><text xml:space="preserve" font-family="Courier,Courier" font-size="36.0" fill="#FEFFFF" transform="matrix(1.00, 0.00, -0.00, -1.00, 604.4, 367.9)">n</text><text xml:space="preserve" font-family="Courier,Courier" font-size="36.0" fill="#FEFFFF" transform="matrix(1.00, 0.00, -0.00, -1.00, 626.0, 367.9)">g</text><text xml:space="preserve" font-family="Courier,Courier" font-size="36.0" fill="#FEFFFF" transform="matrix(1.00, 0.00, -0.00, -1.00, 647.6, 367.9)">:</text><text xml:space="preserve" font-family="Courier,Courier" font-size="36.0" fill="#FEFFFF" transform="matrix(1.00, 0.00, -0.00, -1.00, 669.2, 367.9)"> </text><text xml:space="preserve" font-family="Courier,Courier" font-size="36.0" fill="#FEFFFF" transform="matrix(1.00, 0.00, -0.00, -1.00, 690.8, 367.9)">‘</text><text xml:space="preserve" font-family="Courier,Courier" font-size="36.0" fill="#FEFFFF" transform="matrix(1.00, 0.00, -0.00, -1.00, 712.4, 367.9)">P</text><text xml:space="preserve" font-family="Courier,Courier" font-size="36.0" fill="#FEFFFF" transform="matrix(1.00, 0.00, -0.00, -1.00, 734.0, 367.9)">a</text><text xml:space="preserve" font-family="Courier,Courier" font-size="36.0" fill="#FEFFFF" transform="matrix(1.00, 0.00, -0.00, -1.00, 755.6, 367.9)">t</text><text xml:space="preserve" font-family="Courier,Courier" font-size="36.0" fill="#FEFFFF" transform="matrix(1.00, 0.00, -0.00, -1.00, 777.2, 367.9)">r</text><text xml:space="preserve" font-family="Courier,Courier" font-size="36.0" fill="#FEFFFF" transform="matrix(1.00, 0.00, -0.00, -1.00, 798.8, 367.9)">i</text><text xml:space="preserve" font-family="Courier,Courier" font-size="36.0" fill="#FEFFFF" transform="matrix(1.00, 0.00, -0.00, -1.00, 820.4, 367.9)">c</text><text xml:space="preserve" font-family="Courier,Courier" font-size="36.0" fill="#FEFFFF" transform="matrix(1.00, 0.00, -0.00, -1.00, 842.0, 367.9)">k</text><text xml:space="preserve" font-family="Courier,Courier" font-size="36.0" fill="#FEFFFF" transform="matrix(1.00, 0.00, -0.00, -1.00, 863.6, 367.9)">’</text><text xml:space="preserve" font-family="Courier,Courier" font-size="36.0" fill="#FEFFFF" transform="matrix(1.00, 0.00, -0.00, -1.00, 885.2, 367.9)">}</text><text xml:space="preserve" font-family="Courier,Courier" font-size="36.0" fill="#FEFFFF" transform="matrix(1.00, 0.00, -0.00, -1.00, 906.9, 367.9)">,</text><text xml:space="preserve" font-family="Courier,Courier" font-size="36.0" fill="#FEFFFF" transform="matrix(1.00, 0.00, -0.00, -1.00, 64.2, 324.9)"> </text><text xml:space="preserve" font-family="Courier,Courier" font-size="36.0" fill="#FEFFFF" transform="matrix(1.00, 0.00, -0.00, -1.00, 85.8, 324.9)"> </text><text xml:space="preserve" font-family="Courier,Courier" font-size="36.0" fill="#FEFFFF" transform="matrix(1.00, 0.00, -0.00, -1.00, 107.4, 324.9)">{</text><text xml:space="preserve" font-family="Courier,Courier" font-size="36.0" fill="#FEFFFF" transform="matrix(1.00, 0.00, -0.00, -1.00, 129.0, 324.9)">n</text><text xml:space="preserve" font-family="Courier,Courier" font-size="36.0" fill="#FEFFFF" transform="matrix(1.00, 0.00, -0.00, -1.00, 150.6, 324.9)">a</text><text xml:space="preserve" font-family="Courier,Courier" font-size="36.0" fill="#FEFFFF" transform="matrix(1.00, 0.00, -0.00, -1.00, 172.2, 324.9)">m</text><text xml:space="preserve" font-family="Courier,Courier" font-size="36.0" fill="#FEFFFF" transform="matrix(1.00, 0.00, -0.00, -1.00, 193.8, 324.9)">e</text><text xml:space="preserve" font-family="Courier,Courier" font-size="36.0" fill="#FEFFFF" transform="matrix(1.00, 0.00, -0.00, -1.00, 215.4, 324.9)">:</text><text xml:space="preserve" font-family="Courier,Courier" font-size="36.0" fill="#FEFFFF" transform="matrix(1.00, 0.00, -0.00, -1.00, 237.0, 324.9)"> </text><text xml:space="preserve" font-family="Courier,Courier" font-size="36.0" fill="#FEFFFF" transform="matrix(1.00, 0.00, -0.00, -1.00, 258.6, 324.9)">‘</text><text xml:space="preserve" font-family="Courier,Courier" font-size="36.0" fill="#FEFFFF" transform="matrix(1.00, 0.00, -0.00, -1.00, 280.2, 324.9)">D</text><text xml:space="preserve" font-family="Courier,Courier" font-size="36.0" fill="#FEFFFF" transform="matrix(1.00, 0.00, -0.00, -1.00, 301.9, 324.9)">a</text><text xml:space="preserve" font-family="Courier,Courier" font-size="36.0" fill="#FEFFFF" transform="matrix(1.00, 0.00, -0.00, -1.00, 323.5, 324.9)">v</text><text xml:space="preserve" font-family="Courier,Courier" font-size="36.0" fill="#FEFFFF" transform="matrix(1.00, 0.00, -0.00, -1.00, 345.1, 324.9)">e</text><text xml:space="preserve" font-family="Courier,Courier" font-size="36.0" fill="#FEFFFF" transform="matrix(1.00, 0.00, -0.00, -1.00, 366.7, 324.9)">’</text><text xml:space="preserve" font-family="Courier,Courier" font-size="36.0" fill="#FEFFFF" transform="matrix(1.00, 0.00, -0.00, -1.00, 388.3, 324.9)">,</text><text xml:space="preserve" font-family="Courier,Courier" font-size="36.0" fill="#FEFFFF" transform="matrix(1.00, 0.00, -0.00, -1.00, 409.9, 324.9)"> </text><text xml:space="preserve" font-family="Courier,Courier" font-size="36.0" fill="#FEFFFF" transform="matrix(1.00, 0.00, -0.00, -1.00, 431.5, 324.9)">h</text><text xml:space="preserve" font-family="Courier,Courier" font-size="36.0" fill="#FEFFFF" transform="matrix(1.00, 0.00, -0.00, -1.00, 453.1, 324.9)">e</text><text xml:space="preserve" font-family="Courier,Courier" font-size="36.0" fill="#FEFFFF" transform="matrix(1.00, 0.00, -0.00, -1.00, 474.7, 324.9)">a</text><text xml:space="preserve" font-family="Courier,Courier" font-size="36.0" fill="#FEFFFF" transform="matrix(1.00, 0.00, -0.00, -1.00, 496.3, 324.9)">d</text><text xml:space="preserve" font-family="Courier,Courier" font-size="36.0" fill="#FEFFFF" transform="matrix(1.00, 0.00, -0.00, -1.00, 517.9, 324.9)">i</text><text xml:space="preserve" font-family="Courier,Courier" font-size="36.0" fill="#FEFFFF" transform="matrix(1.00, 0.00, -0.00, -1.00, 539.5, 324.9)">n</text><text xml:space="preserve" font-family="Courier,Courier" font-size="36.0" fill="#FEFFFF" transform="matrix(1.00, 0.00, -0.00, -1.00, 561.1, 324.9)">g</text><text xml:space="preserve" font-family="Courier,Courier" font-size="36.0" fill="#FEFFFF" transform="matrix(1.00, 0.00, -0.00, -1.00, 582.7, 324.9)">:</text><text xml:space="preserve" font-family="Courier,Courier" font-size="36.0" fill="#FEFFFF" transform="matrix(1.00, 0.00, -0.00, -1.00, 604.4, 324.9)"> </text><text xml:space="preserve" font-family="Courier,Courier" font-size="36.0" fill="#FEFFFF" transform="matrix(1.00, 0.00, -0.00, -1.00, 626.0, 324.9)">‘</text><text xml:space="preserve" font-family="Courier,Courier" font-size="36.0" fill="#FEFFFF" transform="matrix(1.00, 0.00, -0.00, -1.00, 647.6, 324.9)">D</text><text xml:space="preserve" font-family="Courier,Courier" font-size="36.0" fill="#FEFFFF" transform="matrix(1.00, 0.00, -0.00, -1.00, 669.2, 324.9)">a</text><text xml:space="preserve" font-family="Courier,Courier" font-size="36.0" fill="#FEFFFF" transform="matrix(1.00, 0.00, -0.00, -1.00, 690.8, 324.9)">v</text><text xml:space="preserve" font-family="Courier,Courier" font-size="36.0" fill="#FEFFFF" transform="matrix(1.00, 0.00, -0.00, -1.00, 712.4, 324.9)">e</text><text xml:space="preserve" font-family="Courier,Courier" font-size="36.0" fill="#FEFFFF" transform="matrix(1.00, 0.00, -0.00, -1.00, 734.0, 324.9)">’</text><text xml:space="preserve" font-family="Courier,Courier" font-size="36.0" fill="#FEFFFF" transform="matrix(1.00, 0.00, -0.00, -1.00, 755.6, 324.9)">}</text><text xml:space="preserve" font-family="Courier,Courier" font-size="36.0" fill="#FEFFFF" transform="matrix(1.00, 0.00, -0.00, -1.00, 64.2, 281.9)">]</text><text xml:space="preserve" font-family="Courier,Courier" font-size="36.0" fill="#FEFFFF" transform="matrix(1.00, 0.00, -0.00, -1.00, 85.8, 281.9)">;</text><text xml:space="preserve" font-family="Courier,Courier" font-size="36.0" fill="#7ADA45" transform="matrix(1.00, 0.00, -0.00, -1.00, 64.2, 195.9)">&lt;</text><text xml:space="preserve" font-family="Courier,Courier" font-size="36.0" fill="#7ADA45" transform="matrix(1.00, 0.00, -0.00, -1.00, 85.8, 195.9)">T</text><text xml:space="preserve" font-family="Courier,Courier" font-size="36.0" fill="#7ADA45" transform="matrix(1.00, 0.00, -0.00, -1.00, 107.4, 195.9)">a</text><text xml:space="preserve" font-family="Courier,Courier" font-size="36.0" fill="#7ADA45" transform="matrix(1.00, 0.00, -0.00, -1.00, 129.0, 195.9)">b</text><text xml:space="preserve" font-family="Courier,Courier" font-size="36.0" fill="#7ADA45" transform="matrix(1.00, 0.00, -0.00, -1.00, 150.6, 195.9)">s</text><text xml:space="preserve" font-family="Courier,Courier" font-size="36.0" fill="#7ADA45" transform="matrix(1.00, 0.00, -0.00, -1.00, 172.2, 195.9)"> </text><text xml:space="preserve" font-family="Courier,Courier" font-size="36.0" fill="#7ADA45" transform="matrix(1.00, 0.00, -0.00, -1.00, 193.8, 195.9)">i</text><text xml:space="preserve" font-family="Courier,Courier" font-size="36.0" fill="#7ADA45" transform="matrix(1.00, 0.00, -0.00, -1.00, 215.4, 195.9)">t</text><text xml:space="preserve" font-family="Courier,Courier" font-size="36.0" fill="#7ADA45" transform="matrix(1.00, 0.00, -0.00, -1.00, 237.0, 195.9)">e</text><text xml:space="preserve" font-family="Courier,Courier" font-size="36.0" fill="#7ADA45" transform="matrix(1.00, 0.00, -0.00, -1.00, 258.6, 195.9)">m</text><text xml:space="preserve" font-family="Courier,Courier" font-size="36.0" fill="#7ADA45" transform="matrix(1.00, 0.00, -0.00, -1.00, 280.2, 195.9)">s</text><text xml:space="preserve" font-family="Courier,Courier" font-size="36.0" fill="#7ADA45" transform="matrix(1.00, 0.00, -0.00, -1.00, 301.8, 195.9)">=</text><text xml:space="preserve" font-family="Courier,Courier" font-size="36.0" fill="#7ADA45" transform="matrix(1.00, 0.00, -0.00, -1.00, 323.4, 195.9)">{</text><text xml:space="preserve" font-family="Courier,Courier" font-size="36.0" fill="#7ADA45" transform="matrix(1.00, 0.00, -0.00, -1.00, 345.0, 195.9)">t</text><text xml:space="preserve" font-family="Courier,Courier" font-size="36.0" fill="#7ADA45" transform="matrix(1.00, 0.00, -0.00, -1.00, 366.7, 195.9)">a</text><text xml:space="preserve" font-family="Courier,Courier" font-size="36.0" fill="#7ADA45" transform="matrix(1.00, 0.00, -0.00, -1.00, 388.3, 195.9)">b</text><text xml:space="preserve" font-family="Courier,Courier" font-size="36.0" fill="#7ADA45" transform="matrix(1.00, 0.00, -0.00, -1.00, 409.9, 195.9)">I</text><text xml:space="preserve" font-family="Courier,Courier" font-size="36.0" fill="#7ADA45" transform="matrix(1.00, 0.00, -0.00, -1.00, 431.5, 195.9)">t</text><text xml:space="preserve" font-family="Courier,Courier" font-size="36.0" fill="#7ADA45" transform="matrix(1.00, 0.00, -0.00, -1.00, 453.1, 195.9)">e</text><text xml:space="preserve" font-family="Courier,Courier" font-size="36.0" fill="#7ADA45" transform="matrix(1.00, 0.00, -0.00, -1.00, 474.7, 195.9)">m</text><text xml:space="preserve" font-family="Courier,Courier" font-size="36.0" fill="#7ADA45" transform="matrix(1.00, 0.00, -0.00, -1.00, 496.3, 195.9)">s</text><text xml:space="preserve" font-family="Courier,Courier" font-size="36.0" fill="#7ADA45" transform="matrix(1.00, 0.00, -0.00, -1.00, 517.9, 195.9)">}</text><text xml:space="preserve" font-family="Courier,Courier" font-size="36.0" fill="#7ADA45" transform="matrix(1.00, 0.00, -0.00, -1.00, 539.5, 195.9)">/</text><text xml:space="preserve" font-family="Courier,Courier" font-size="36.0" fill="#7ADA45" transform="matrix(1.00, 0.00, -0.00, -1.00, 561.1, 195.9)">&gt;</text></g></svg>