<?xml version="1.0" encoding="UTF-8" standalone="no"?><svg xmlns="http://www.w3.org/2000/svg" xmlns:xlink="http://www.w3.org/1999/xlink" clip-rule="evenodd" stroke-miterlimit="10" viewBox="0 0 854 315"><desc>SVG generated by Keynote</desc><defs></defs><g transform="matrix(1.00, 0.00, -0.00, -1.00, 0.0, 315.0)"><text xml:space="preserve" font-family="Courier,Courier" font-size="24.0" fill="#FEFFFF" transform="matrix(1.00, 0.00, -0.00, -1.00, 2.6, 296.1)">v</text><text xml:space="preserve" font-family="Courier,Courier" font-size="24.0" fill="#FEFFFF" transform="matrix(1.00, 0.00, -0.00, -1.00, 17.0, 296.1)">a</text><text xml:space="preserve" font-family="Courier,Courier" font-size="24.0" fill="#FEFFFF" transform="matrix(1.00, 0.00, -0.00, -1.00, 31.4, 296.1)">r</text><text xml:space="preserve" font-family="Courier,Courier" font-size="24.0" fill="#FEFFFF" transform="matrix(1.00, 0.00, -0.00, -1.00, 45.8, 296.1)"> </text><text xml:space="preserve" font-family="Courier,Courier" font-size="24.0" fill="#FEFFFF" transform="matrix(1.00, 0.00, -0.00, -1.00, 60.3, 296.1)">b</text><text xml:space="preserve" font-family="Courier,Courier" font-size="24.0" fill="#FEFFFF" transform="matrix(1.00, 0.00, -0.00, -1.00, 74.7, 296.1)">u</text><text xml:space="preserve" font-family="Courier,Courier" font-size="24.0" fill="#FEFFFF" transform="matrix(1.00, 0.00, -0.00, -1.00, 89.1, 296.1)">i</text><text xml:space="preserve" font-family="Courier,Courier" font-size="24.0" fill="#FEFFFF" transform="matrix(1.00, 0.00, -0.00, -1.00, 103.5, 296.1)">l</text><text xml:space="preserve" font-family="Courier,Courier" font-size="24.0" fill="#FEFFFF" transform="matrix(1.00, 0.00, -0.00, -1.00, 117.9, 296.1)">d</text><text xml:space="preserve" font-family="Courier,Courier" font-size="24.0" fill="#FEFFFF" transform="matrix(1.00, 0.00, -0.00, -1.00, 132.3, 296.1)">e</text><text xml:space="preserve" font-family="Courier,Courier" font-size="24.0" fill="#FEFFFF" transform="matrix(1.00, 0.00, -0.00, -1.00, 146.7, 296.1)">r</text><text xml:space="preserve" font-family="Courier,Courier" font-size="24.0" fill="#FEFFFF" transform="matrix(1.00, 0.00, -0.00, -1.00, 161.1, 296.1)"> </text><text xml:space="preserve" font-family="Courier,Courier" font-size="24.0" fill="#FEFFFF" transform="matrix(1.00, 0.00, -0.00, -1.00, 175.5, 296.1)">=</text><text xml:space="preserve" font-family="Courier,Courier" font-size="24.0" fill="#FEFFFF" transform="matrix(1.00, 0.00, -0.00, -1.00, 189.9, 296.1)"> </text><text xml:space="preserve" font-family="Courier,Courier" font-size="24.0" fill="#FEFFFF" transform="matrix(1.00, 0.00, -0.00, -1.00, 204.3, 296.1)">r</text><text xml:space="preserve" font-family="Courier,Courier" font-size="24.0" fill="#FEFFFF" transform="matrix(1.00, 0.00, -0.00, -1.00, 218.7, 296.1)">e</text><text xml:space="preserve" font-family="Courier,Courier" font-size="24.0" fill="#FEFFFF" transform="matrix(1.00, 0.00, -0.00, -1.00, 233.1, 296.1)">q</text><text xml:space="preserve" font-family="Courier,Courier" font-size="24.0" fill="#FEFFFF" transform="matrix(1.00, 0.00, -0.00, -1.00, 247.5, 296.1)">u</text><text xml:space="preserve" font-family="Courier,Courier" font-size="24.0" fill="#FEFFFF" transform="matrix(1.00, 0.00, -0.00, -1.00, 261.9, 296.1)">i</text><text xml:space="preserve" font-family="Courier,Courier" font-size="24.0" fill="#FEFFFF" transform="matrix(1.00, 0.00, -0.00, -1.00, 276.3, 296.1)">r</text><text xml:space="preserve" font-family="Courier,Courier" font-size="24.0" fill="#FEFFFF" transform="matrix(1.00, 0.00, -0.00, -1.00, 290.7, 296.1)">e</text><text xml:space="preserve" font-family="Courier,Courier" font-size="24.0" fill="#FEFFFF" transform="matrix(1.00, 0.00, -0.00, -1.00, 305.1, 296.1)">(</text><text xml:space="preserve" font-family="Courier,Courier" font-size="24.0" fill="#FEFFFF" transform="matrix(1.00, 0.00, -0.00, -1.00, 319.5, 296.1)">‘</text><text xml:space="preserve" font-family="Courier,Courier" font-size="24.0" fill="#FEFFFF" transform="matrix(1.00, 0.00, -0.00, -1.00, 333.9, 296.1)">d</text><text xml:space="preserve" font-family="Courier,Courier" font-size="24.0" fill="#FEFFFF" transform="matrix(1.00, 0.00, -0.00, -1.00, 348.3, 296.1)">e</text><text xml:space="preserve" font-family="Courier,Courier" font-size="24.0" fill="#FEFFFF" transform="matrix(1.00, 0.00, -0.00, -1.00, 362.8, 296.1)">l</text><text xml:space="preserve" font-family="Courier,Courier" font-size="24.0" fill="#FEFFFF" transform="matrix(1.00, 0.00, -0.00, -1.00, 377.2, 296.1)">p</text><text xml:space="preserve" font-family="Courier,Courier" font-size="24.0" fill="#FEFFFF" transform="matrix(1.00, 0.00, -0.00, -1.00, 391.6, 296.1)">h</text><text xml:space="preserve" font-family="Courier,Courier" font-size="24.0" fill="#FEFFFF" transform="matrix(1.00, 0.00, -0.00, -1.00, 406.0, 296.1)">i</text><text xml:space="preserve" font-family="Courier,Courier" font-size="24.0" fill="#FEFFFF" transform="matrix(1.00, 0.00, -0.00, -1.00, 420.4, 296.1)">-</text><text xml:space="preserve" font-family="Courier,Courier" font-size="24.0" fill="#FEFFFF" transform="matrix(1.00, 0.00, -0.00, -1.00, 434.8, 296.1)">t</text><text xml:space="preserve" font-family="Courier,Courier" font-size="24.0" fill="#FEFFFF" transform="matrix(1.00, 0.00, -0.00, -1.00, 449.2, 296.1)">o</text><text xml:space="preserve" font-family="Courier,Courier" font-size="24.0" fill="#FEFFFF" transform="matrix(1.00, 0.00, -0.00, -1.00, 463.6, 296.1)">o</text><text xml:space="preserve" font-family="Courier,Courier" font-size="24.0" fill="#FEFFFF" transform="matrix(1.00, 0.00, -0.00, -1.00, 478.0, 296.1)">l</text><text xml:space="preserve" font-family="Courier,Courier" font-size="24.0" fill="#FEFFFF" transform="matrix(1.00, 0.00, -0.00, -1.00, 492.4, 296.1)">s</text><text xml:space="preserve" font-family="Courier,Courier" font-size="24.0" fill="#FEFFFF" transform="matrix(1.00, 0.00, -0.00, -1.00, 506.7, 296.1)">/</text><text xml:space="preserve" font-family="Courier,Courier" font-size="24.0" fill="#FEFFFF" transform="matrix(1.00, 0.00, -0.00, -1.00, 521.1, 296.1)">b</text><text xml:space="preserve" font-family="Courier,Courier" font-size="24.0" fill="#FEFFFF" transform="matrix(1.00, 0.00, -0.00, -1.00, 535.5, 296.1)">u</text><text xml:space="preserve" font-family="Courier,Courier" font-size="24.0" fill="#FEFFFF" transform="matrix(1.00, 0.00, -0.00, -1.00, 549.9, 296.1)">i</text><text xml:space="preserve" font-family="Courier,Courier" font-size="24.0" fill="#FEFFFF" transform="matrix(1.00, 0.00, -0.00, -1.00, 564.3, 296.1)">l</text><text xml:space="preserve" font-family="Courier,Courier" font-size="24.0" fill="#FEFFFF" transform="matrix(1.00, 0.00, -0.00, -1.00, 578.7, 296.1)">d</text><text xml:space="preserve" font-family="Courier,Courier" font-size="24.0" fill="#FEFFFF" transform="matrix(1.00, 0.00, -0.00, -1.00, 593.1, 296.1)">-</text><text xml:space="preserve" font-family="Courier,Courier" font-size="24.0" fill="#FEFFFF" transform="matrix(1.00, 0.00, -0.00, -1.00, 607.5, 296.1)">w</text><text xml:space="preserve" font-family="Courier,Courier" font-size="24.0" fill="#FEFFFF" transform="matrix(1.00, 0.00, -0.00, -1.00, 622.0, 296.1)">e</text><text xml:space="preserve" font-family="Courier,Courier" font-size="24.0" fill="#FEFFFF" transform="matrix(1.00, 0.00, -0.00, -1.00, 636.4, 296.1)">b</text><text xml:space="preserve" font-family="Courier,Courier" font-size="24.0" fill="#FEFFFF" transform="matrix(1.00, 0.00, -0.00, -1.00, 650.8, 296.1)">p</text><text xml:space="preserve" font-family="Courier,Courier" font-size="24.0" fill="#FEFFFF" transform="matrix(1.00, 0.00, -0.00, -1.00, 665.2, 296.1)">a</text><text xml:space="preserve" font-family="Courier,Courier" font-size="24.0" fill="#FEFFFF" transform="matrix(1.00, 0.00, -0.00, -1.00, 679.6, 296.1)">c</text><text xml:space="preserve" font-family="Courier,Courier" font-size="24.0" fill="#FEFFFF" transform="matrix(1.00, 0.00, -0.00, -1.00, 694.0, 296.1)">k</text><text xml:space="preserve" font-family="Courier,Courier" font-size="24.0" fill="#FEFFFF" transform="matrix(1.00, 0.00, -0.00, -1.00, 708.4, 296.1)">-</text><text xml:space="preserve" font-family="Courier,Courier" font-size="24.0" fill="#FEFFFF" transform="matrix(1.00, 0.00, -0.00, -1.00, 722.8, 296.1)">c</text><text xml:space="preserve" font-family="Courier,Courier" font-size="24.0" fill="#FEFFFF" transform="matrix(1.00, 0.00, -0.00, -1.00, 737.2, 296.1)">o</text><text xml:space="preserve" font-family="Courier,Courier" font-size="24.0" fill="#FEFFFF" transform="matrix(1.00, 0.00, -0.00, -1.00, 751.6, 296.1)">n</text><text xml:space="preserve" font-family="Courier,Courier" font-size="24.0" fill="#FEFFFF" transform="matrix(1.00, 0.00, -0.00, -1.00, 766.0, 296.1)">f</text><text xml:space="preserve" font-family="Courier,Courier" font-size="24.0" fill="#FEFFFF" transform="matrix(1.00, 0.00, -0.00, -1.00, 780.4, 296.1)">i</text><text xml:space="preserve" font-family="Courier,Courier" font-size="24.0" fill="#FEFFFF" transform="matrix(1.00, 0.00, -0.00, -1.00, 794.8, 296.1)">g</text><text xml:space="preserve" font-family="Courier,Courier" font-size="24.0" fill="#FEFFFF" transform="matrix(1.00, 0.00, -0.00, -1.00, 809.2, 296.1)">'</text><text xml:space="preserve" font-family="Courier,Courier" font-size="24.0" fill="#FEFFFF" transform="matrix(1.00, 0.00, -0.00, -1.00, 823.6, 296.1)">)</text><text xml:space="preserve" font-family="Courier,Courier" font-size="24.0" fill="#FEFFFF" transform="matrix(1.00, 0.00, -0.00, -1.00, 838.0, 296.1)">;</text><text xml:space="preserve" font-family="Courier,Courier" font-size="24.0" fill="#FEFFFF" transform="matrix(1.00, 0.00, -0.00, -1.00, 2.6, 267.1)">m</text><text xml:space="preserve" font-family="Courier,Courier" font-size="24.0" fill="#FEFFFF" transform="matrix(1.00, 0.00, -0.00, -1.00, 17.0, 267.1)">o</text><text xml:space="preserve" font-family="Courier,Courier" font-size="24.0" fill="#FEFFFF" transform="matrix(1.00, 0.00, -0.00, -1.00, 31.4, 267.1)">d</text><text xml:space="preserve" font-family="Courier,Courier" font-size="24.0" fill="#FEFFFF" transform="matrix(1.00, 0.00, -0.00, -1.00, 45.8, 267.1)">u</text><text xml:space="preserve" font-family="Courier,Courier" font-size="24.0" fill="#FEFFFF" transform="matrix(1.00, 0.00, -0.00, -1.00, 60.3, 267.1)">l</text><text xml:space="preserve" font-family="Courier,Courier" font-size="24.0" fill="#FEFFFF" transform="matrix(1.00, 0.00, -0.00, -1.00, 74.7, 267.1)">e</text><text xml:space="preserve" font-family="Courier,Courier" font-size="24.0" fill="#FEFFFF" transform="matrix(1.00, 0.00, -0.00, -1.00, 89.1, 267.1)">.</text><text xml:space="preserve" font-family="Courier,Courier" font-size="24.0" fill="#FEFFFF" transform="matrix(1.00, 0.00, -0.00, -1.00, 103.5, 267.1)">e</text><text xml:space="preserve" font-family="Courier,Courier" font-size="24.0" fill="#FEFFFF" transform="matrix(1.00, 0.00, -0.00, -1.00, 117.9, 267.1)">x</text><text xml:space="preserve" font-family="Courier,Courier" font-size="24.0" fill="#FEFFFF" transform="matrix(1.00, 0.00, -0.00, -1.00, 132.3, 267.1)">p</text><text xml:space="preserve" font-family="Courier,Courier" font-size="24.0" fill="#FEFFFF" transform="matrix(1.00, 0.00, -0.00, -1.00, 146.7, 267.1)">o</text><text xml:space="preserve" font-family="Courier,Courier" font-size="24.0" fill="#FEFFFF" transform="matrix(1.00, 0.00, -0.00, -1.00, 161.1, 267.1)">r</text><text xml:space="preserve" font-family="Courier,Courier" font-size="24.0" fill="#FEFFFF" transform="matrix(1.00, 0.00, -0.00, -1.00, 175.5, 267.1)">t</text><text xml:space="preserve" font-family="Courier,Courier" font-size="24.0" fill="#FEFFFF" transform="matrix(1.00, 0.00, -0.00, -1.00, 189.9, 267.1)">s</text><text xml:space="preserve" font-family="Courier,Courier" font-size="24.0" fill="#FEFFFF" transform="matrix(1.00, 0.00, -0.00, -1.00, 204.3, 267.1)"> </text><text xml:space="preserve" font-family="Courier,Courier" font-size="24.0" fill="#FEFFFF" transform="matrix(1.00, 0.00, -0.00, -1.00, 218.7, 267.1)">=</text><text xml:space="preserve" font-family="Courier,Courier" font-size="24.0" fill="#FEFFFF" transform="matrix(1.00, 0.00, -0.00, -1.00, 233.1, 267.1)"> </text><text xml:space="preserve" font-family="Courier,Courier" font-size="24.0" fill="#FEFFFF" transform="matrix(1.00, 0.00, -0.00, -1.00, 247.5, 267.1)">b</text><text xml:space="preserve" font-family="Courier,Courier" font-size="24.0" fill="#FEFFFF" transform="matrix(1.00, 0.00, -0.00, -1.00, 261.9, 267.1)">u</text><text xml:space="preserve" font-family="Courier,Courier" font-size="24.0" fill="#FEFFFF" transform="matrix(1.00, 0.00, -0.00, -1.00, 276.3, 267.1)">i</text><text xml:space="preserve" font-family="Courier,Courier" font-size="24.0" fill="#FEFFFF" transform="matrix(1.00, 0.00, -0.00, -1.00, 290.7, 267.1)">l</text><text xml:space="preserve" font-family="Courier,Courier" font-size="24.0" fill="#FEFFFF" transform="matrix(1.00, 0.00, -0.00, -1.00, 305.1, 267.1)">d</text><text xml:space="preserve" font-family="Courier,Courier" font-size="24.0" fill="#FEFFFF" transform="matrix(1.00, 0.00, -0.00, -1.00, 319.5, 267.1)">e</text><text xml:space="preserve" font-family="Courier,Courier" font-size="24.0" fill="#FEFFFF" transform="matrix(1.00, 0.00, -0.00, -1.00, 333.9, 267.1)">r</text><text xml:space="preserve" font-family="Courier,Courier" font-size="24.0" fill="#FEFFFF" transform="matrix(1.00, 0.00, -0.00, -1.00, 348.3, 267.1)">(</text><text xml:space="preserve" font-family="Courier,Courier" font-size="24.0" fill="#FEFFFF" transform="matrix(1.00, 0.00, -0.00, -1.00, 362.8, 267.1)">{</text><text xml:space="preserve" font-family="Courier,Courier" font-size="24.0" fill="#FEFFFF" transform="matrix(1.00, 0.00, -0.00, -1.00, 2.6, 238.1)"> </text><text xml:space="preserve" font-family="Courier,Courier" font-size="24.0" fill="#FEFFFF" transform="matrix(1.00, 0.00, -0.00, -1.00, 17.0, 238.1)"> </text><text xml:space="preserve" font-family="Courier,Courier" font-size="24.0" fill="#FEFFFF" transform="matrix(1.00, 0.00, -0.00, -1.00, 31.4, 238.1)">e</text><text xml:space="preserve" font-family="Courier,Courier" font-size="24.0" fill="#FEFFFF" transform="matrix(1.00, 0.00, -0.00, -1.00, 45.8, 238.1)">n</text><text xml:space="preserve" font-family="Courier,Courier" font-size="24.0" fill="#FEFFFF" transform="matrix(1.00, 0.00, -0.00, -1.00, 60.3, 238.1)">t</text><text xml:space="preserve" font-family="Courier,Courier" font-size="24.0" fill="#FEFFFF" transform="matrix(1.00, 0.00, -0.00, -1.00, 74.7, 238.1)">r</text><text xml:space="preserve" font-family="Courier,Courier" font-size="24.0" fill="#FEFFFF" transform="matrix(1.00, 0.00, -0.00, -1.00, 89.1, 238.1)">y</text><text xml:space="preserve" font-family="Courier,Courier" font-size="24.0" fill="#FEFFFF" transform="matrix(1.00, 0.00, -0.00, -1.00, 103.5, 238.1)"> </text><text xml:space="preserve" font-family="Courier,Courier" font-size="24.0" fill="#FEFFFF" transform="matrix(1.00, 0.00, -0.00, -1.00, 117.9, 238.1)"> </text><text xml:space="preserve" font-family="Courier,Courier" font-size="24.0" fill="#FEFFFF" transform="matrix(1.00, 0.00, -0.00, -1.00, 132.3, 238.1)">:</text><text xml:space="preserve" font-family="Courier,Courier" font-size="24.0" fill="#FEFFFF" transform="matrix(1.00, 0.00, -0.00, -1.00, 146.7, 238.1)"> </text><text xml:space="preserve" font-family="Courier,Courier" font-size="24.0" fill="#FEFFFF" transform="matrix(1.00, 0.00, -0.00, -1.00, 161.1, 238.1)">'</text><text xml:space="preserve" font-family="Courier,Courier" font-size="24.0" fill="#FEFFFF" transform="matrix(1.00, 0.00, -0.00, -1.00, 175.5, 238.1)">.</text><text xml:space="preserve" font-family="Courier,Courier" font-size="24.0" fill="#FEFFFF" transform="matrix(1.00, 0.00, -0.00, -1.00, 189.9, 238.1)">/</text><text xml:space="preserve" font-family="Courier,Courier" font-size="24.0" fill="#FEFFFF" transform="matrix(1.00, 0.00, -0.00, -1.00, 204.3, 238.1)">A</text><text xml:space="preserve" font-family="Courier,Courier" font-size="24.0" fill="#FEFFFF" transform="matrix(1.00, 0.00, -0.00, -1.00, 218.7, 238.1)">p</text><text xml:space="preserve" font-family="Courier,Courier" font-size="24.0" fill="#FEFFFF" transform="matrix(1.00, 0.00, -0.00, -1.00, 233.1, 238.1)">p</text><text xml:space="preserve" font-family="Courier,Courier" font-size="24.0" fill="#FEFFFF" transform="matrix(1.00, 0.00, -0.00, -1.00, 247.5, 238.1)">'</text><text xml:space="preserve" font-family="Courier,Courier" font-size="24.0" fill="#FEFFFF" transform="matrix(1.00, 0.00, -0.00, -1.00, 261.9, 238.1)">,</text><text xml:space="preserve" font-family="Courier,Courier" font-size="24.0" fill="#FEFFFF" transform="matrix(1.00, 0.00, -0.00, -1.00, 2.6, 209.1)"> </text><text xml:space="preserve" font-family="Courier,Courier" font-size="24.0" fill="#FEFFFF" transform="matrix(1.00, 0.00, -0.00, -1.00, 17.0, 209.1)"> </text><text xml:space="preserve" font-family="Courier,Courier" font-size="24.0" fill="#FEFFFF" transform="matrix(1.00, 0.00, -0.00, -1.00, 31.4, 209.1)">o</text><text xml:space="preserve" font-family="Courier,Courier" font-size="24.0" fill="#FEFFFF" transform="matrix(1.00, 0.00, -0.00, -1.00, 45.8, 209.1)">u</text><text xml:space="preserve" font-family="Courier,Courier" font-size="24.0" fill="#FEFFFF" transform="matrix(1.00, 0.00, -0.00, -1.00, 60.3, 209.1)">t</text><text xml:space="preserve" font-family="Courier,Courier" font-size="24.0" fill="#FEFFFF" transform="matrix(1.00, 0.00, -0.00, -1.00, 74.7, 209.1)">p</text><text xml:space="preserve" font-family="Courier,Courier" font-size="24.0" fill="#FEFFFF" transform="matrix(1.00, 0.00, -0.00, -1.00, 89.1, 209.1)">u</text><text xml:space="preserve" font-family="Courier,Courier" font-size="24.0" fill="#FEFFFF" transform="matrix(1.00, 0.00, -0.00, -1.00, 103.5, 209.1)">t</text><text xml:space="preserve" font-family="Courier,Courier" font-size="24.0" fill="#FEFFFF" transform="matrix(1.00, 0.00, -0.00, -1.00, 117.9, 209.1)"> </text><text xml:space="preserve" font-family="Courier,Courier" font-size="24.0" fill="#FEFFFF" transform="matrix(1.00, 0.00, -0.00, -1.00, 132.3, 209.1)">:</text><text xml:space="preserve" font-family="Courier,Courier" font-size="24.0" fill="#FEFFFF" transform="matrix(1.00, 0.00, -0.00, -1.00, 146.7, 209.1)"> </text><text xml:space="preserve" font-family="Courier,Courier" font-size="24.0" fill="#FEFFFF" transform="matrix(1.00, 0.00, -0.00, -1.00, 161.1, 209.1)">{</text><text xml:space="preserve" font-family="Courier,Courier" font-size="24.0" fill="#FEFFFF" transform="matrix(1.00, 0.00, -0.00, -1.00, 2.6, 180.1)"> </text><text xml:space="preserve" font-family="Courier,Courier" font-size="24.0" fill="#FEFFFF" transform="matrix(1.00, 0.00, -0.00, -1.00, 17.0, 180.1)"> </text><text xml:space="preserve" font-family="Courier,Courier" font-size="24.0" fill="#FEFFFF" transform="matrix(1.00, 0.00, -0.00, -1.00, 31.4, 180.1)"> </text><text xml:space="preserve" font-family="Courier,Courier" font-size="24.0" fill="#FEFFFF" transform="matrix(1.00, 0.00, -0.00, -1.00, 45.8, 180.1)"> </text><text xml:space="preserve" font-family="Courier,Courier" font-size="24.0" fill="#FEFFFF" transform="matrix(1.00, 0.00, -0.00, -1.00, 60.3, 180.1)">p</text><text xml:space="preserve" font-family="Courier,Courier" font-size="24.0" fill="#FEFFFF" transform="matrix(1.00, 0.00, -0.00, -1.00, 74.7, 180.1)">a</text><text xml:space="preserve" font-family="Courier,Courier" font-size="24.0" fill="#FEFFFF" transform="matrix(1.00, 0.00, -0.00, -1.00, 89.1, 180.1)">t</text><text xml:space="preserve" font-family="Courier,Courier" font-size="24.0" fill="#FEFFFF" transform="matrix(1.00, 0.00, -0.00, -1.00, 103.5, 180.1)">h</text><text xml:space="preserve" font-family="Courier,Courier" font-size="24.0" fill="#FEFFFF" transform="matrix(1.00, 0.00, -0.00, -1.00, 117.9, 180.1)"> </text><text xml:space="preserve" font-family="Courier,Courier" font-size="24.0" fill="#FEFFFF" transform="matrix(1.00, 0.00, -0.00, -1.00, 132.3, 180.1)"> </text><text xml:space="preserve" font-family="Courier,Courier" font-size="24.0" fill="#FEFFFF" transform="matrix(1.00, 0.00, -0.00, -1.00, 146.7, 180.1)"> </text><text xml:space="preserve" font-family="Courier,Courier" font-size="24.0" fill="#FEFFFF" transform="matrix(1.00, 0.00, -0.00, -1.00, 161.1, 180.1)"> </text><text xml:space="preserve" font-family="Courier,Courier" font-size="24.0" fill="#FEFFFF" transform="matrix(1.00, 0.00, -0.00, -1.00, 175.5, 180.1)"> </text><text xml:space="preserve" font-family="Courier,Courier" font-size="24.0" fill="#FEFFFF" transform="matrix(1.00, 0.00, -0.00, -1.00, 189.9, 180.1)">:</text><text xml:space="preserve" font-family="Courier,Courier" font-size="24.0" fill="#FEFFFF" transform="matrix(1.00, 0.00, -0.00, -1.00, 204.3, 180.1)"> </text><text xml:space="preserve" font-family="Courier,Courier" font-size="24.0" fill="#FEFFFF" transform="matrix(1.00, 0.00, -0.00, -1.00, 218.7, 180.1)">_</text><text xml:space="preserve" font-family="Courier,Courier" font-size="24.0" fill="#FEFFFF" transform="matrix(1.00, 0.00, -0.00, -1.00, 233.1, 180.1)">_</text><text xml:space="preserve" font-family="Courier,Courier" font-size="24.0" fill="#FEFFFF" transform="matrix(1.00, 0.00, -0.00, -1.00, 247.5, 180.1)">d</text><text xml:space="preserve" font-family="Courier,Courier" font-size="24.0" fill="#FEFFFF" transform="matrix(1.00, 0.00, -0.00, -1.00, 261.9, 180.1)">i</text><text xml:space="preserve" font-family="Courier,Courier" font-size="24.0" fill="#FEFFFF" transform="matrix(1.00, 0.00, -0.00, -1.00, 276.3, 180.1)">r</text><text xml:space="preserve" font-family="Courier,Courier" font-size="24.0" fill="#FEFFFF" transform="matrix(1.00, 0.00, -0.00, -1.00, 290.7, 180.1)">n</text><text xml:space="preserve" font-family="Courier,Courier" font-size="24.0" fill="#FEFFFF" transform="matrix(1.00, 0.00, -0.00, -1.00, 305.1, 180.1)">a</text><text xml:space="preserve" font-family="Courier,Courier" font-size="24.0" fill="#FEFFFF" transform="matrix(1.00, 0.00, -0.00, -1.00, 319.5, 180.1)">m</text><text xml:space="preserve" font-family="Courier,Courier" font-size="24.0" fill="#FEFFFF" transform="matrix(1.00, 0.00, -0.00, -1.00, 333.9, 180.1)">e</text><text xml:space="preserve" font-family="Courier,Courier" font-size="24.0" fill="#FEFFFF" transform="matrix(1.00, 0.00, -0.00, -1.00, 348.3, 180.1)"> </text><text xml:space="preserve" font-family="Courier,Courier" font-size="24.0" fill="#FEFFFF" transform="matrix(1.00, 0.00, -0.00, -1.00, 362.8, 180.1)">+</text><text xml:space="preserve" font-family="Courier,Courier" font-size="24.0" fill="#FEFFFF" transform="matrix(1.00, 0.00, -0.00, -1.00, 377.2, 180.1)"> </text><text xml:space="preserve" font-family="Courier,Courier" font-size="24.0" fill="#FEFFFF" transform="matrix(1.00, 0.00, -0.00, -1.00, 391.6, 180.1)">‘</text><text xml:space="preserve" font-family="Courier,Courier" font-size="24.0" fill="#FEFFFF" transform="matrix(1.00, 0.00, -0.00, -1.00, 406.0, 180.1)">/</text><text xml:space="preserve" font-family="Courier,Courier" font-size="24.0" fill="#FEFFFF" transform="matrix(1.00, 0.00, -0.00, -1.00, 420.4, 180.1)">b</text><text xml:space="preserve" font-family="Courier,Courier" font-size="24.0" fill="#FEFFFF" transform="matrix(1.00, 0.00, -0.00, -1.00, 434.8, 180.1)">u</text><text xml:space="preserve" font-family="Courier,Courier" font-size="24.0" fill="#FEFFFF" transform="matrix(1.00, 0.00, -0.00, -1.00, 449.2, 180.1)">n</text><text xml:space="preserve" font-family="Courier,Courier" font-size="24.0" fill="#FEFFFF" transform="matrix(1.00, 0.00, -0.00, -1.00, 463.6, 180.1)">d</text><text xml:space="preserve" font-family="Courier,Courier" font-size="24.0" fill="#FEFFFF" transform="matrix(1.00, 0.00, -0.00, -1.00, 478.0, 180.1)">l</text><text xml:space="preserve" font-family="Courier,Courier" font-size="24.0" fill="#FEFFFF" transform="matrix(1.00, 0.00, -0.00, -1.00, 492.4, 180.1)">e</text><text xml:space="preserve" font-family="Courier,Courier" font-size="24.0" fill="#FEFFFF" transform="matrix(1.00, 0.00, -0.00, -1.00, 506.8, 180.1)">s</text><text xml:space="preserve" font-family="Courier,Courier" font-size="24.0" fill="#FEFFFF" transform="matrix(1.00, 0.00, -0.00, -1.00, 521.2, 180.1)">’</text><text xml:space="preserve" font-family="Courier,Courier" font-size="24.0" fill="#FEFFFF" transform="matrix(1.00, 0.00, -0.00, -1.00, 535.5, 180.1)">,</text><text xml:space="preserve" font-family="Courier,Courier" font-size="24.0" fill="#FEFFFF" transform="matrix(1.00, 0.00, -0.00, -1.00, 2.6, 151.1)"> </text><text xml:space="preserve" font-family="Courier,Courier" font-size="24.0" fill="#FEFFFF" transform="matrix(1.00, 0.00, -0.00, -1.00, 17.0, 151.1)"> </text><text xml:space="preserve" font-family="Courier,Courier" font-size="24.0" fill="#FEFFFF" transform="matrix(1.00, 0.00, -0.00, -1.00, 31.4, 151.1)"> </text><text xml:space="preserve" font-family="Courier,Courier" font-size="24.0" fill="#FEFFFF" transform="matrix(1.00, 0.00, -0.00, -1.00, 45.8, 151.1)"> </text><text xml:space="preserve" font-family="Courier,Courier" font-size="24.0" fill="#FEFFFF" transform="matrix(1.00, 0.00, -0.00, -1.00, 60.3, 151.1)">f</text><text xml:space="preserve" font-family="Courier,Courier" font-size="24.0" fill="#FEFFFF" transform="matrix(1.00, 0.00, -0.00, -1.00, 74.7, 151.1)">i</text><text xml:space="preserve" font-family="Courier,Courier" font-size="24.0" fill="#FEFFFF" transform="matrix(1.00, 0.00, -0.00, -1.00, 89.1, 151.1)">l</text><text xml:space="preserve" font-family="Courier,Courier" font-size="24.0" fill="#FEFFFF" transform="matrix(1.00, 0.00, -0.00, -1.00, 103.5, 151.1)">e</text><text xml:space="preserve" font-family="Courier,Courier" font-size="24.0" fill="#FEFFFF" transform="matrix(1.00, 0.00, -0.00, -1.00, 117.9, 151.1)">n</text><text xml:space="preserve" font-family="Courier,Courier" font-size="24.0" fill="#FEFFFF" transform="matrix(1.00, 0.00, -0.00, -1.00, 132.3, 151.1)">a</text><text xml:space="preserve" font-family="Courier,Courier" font-size="24.0" fill="#FEFFFF" transform="matrix(1.00, 0.00, -0.00, -1.00, 146.7, 151.1)">m</text><text xml:space="preserve" font-family="Courier,Courier" font-size="24.0" fill="#FEFFFF" transform="matrix(1.00, 0.00, -0.00, -1.00, 161.1, 151.1)">e</text><text xml:space="preserve" font-family="Courier,Courier" font-size="24.0" fill="#FEFFFF" transform="matrix(1.00, 0.00, -0.00, -1.00, 175.5, 151.1)"> </text><text xml:space="preserve" font-family="Courier,Courier" font-size="24.0" fill="#FEFFFF" transform="matrix(1.00, 0.00, -0.00, -1.00, 189.9, 151.1)">:</text><text xml:space="preserve" font-family="Courier,Courier" font-size="24.0" fill="#FEFFFF" transform="matrix(1.00, 0.00, -0.00, -1.00, 204.3, 151.1)"> </text><text xml:space="preserve" font-family="Courier,Courier" font-size="24.0" fill="#FEFFFF" transform="matrix(1.00, 0.00, -0.00, -1.00, 218.7, 151.1)">'</text><text xml:space="preserve" font-family="Courier,Courier" font-size="24.0" fill="#FEFFFF" transform="matrix(1.00, 0.00, -0.00, -1.00, 233.1, 151.1)">[</text><text xml:space="preserve" font-family="Courier,Courier" font-size="24.0" fill="#FEFFFF" transform="matrix(1.00, 0.00, -0.00, -1.00, 247.5, 151.1)">n</text><text xml:space="preserve" font-family="Courier,Courier" font-size="24.0" fill="#FEFFFF" transform="matrix(1.00, 0.00, -0.00, -1.00, 261.9, 151.1)">a</text><text xml:space="preserve" font-family="Courier,Courier" font-size="24.0" fill="#FEFFFF" transform="matrix(1.00, 0.00, -0.00, -1.00, 276.3, 151.1)">m</text><text xml:space="preserve" font-family="Courier,Courier" font-size="24.0" fill="#FEFFFF" transform="matrix(1.00, 0.00, -0.00, -1.00, 290.7, 151.1)">e</text><text xml:space="preserve" font-family="Courier,Courier" font-size="24.0" fill="#FEFFFF" transform="matrix(1.00, 0.00, -0.00, -1.00, 305.1, 151.1)">]</text><text xml:space="preserve" font-family="Courier,Courier" font-size="24.0" fill="#FEFFFF" transform="matrix(1.00, 0.00, -0.00, -1.00, 319.5, 151.1)">.</text><text xml:space="preserve" font-family="Courier,Courier" font-size="24.0" fill="#FEFFFF" transform="matrix(1.00, 0.00, -0.00, -1.00, 333.9, 151.1)">j</text><text xml:space="preserve" font-family="Courier,Courier" font-size="24.0" fill="#FEFFFF" transform="matrix(1.00, 0.00, -0.00, -1.00, 348.3, 151.1)">s</text><text xml:space="preserve" font-family="Courier,Courier" font-size="24.0" fill="#FEFFFF" transform="matrix(1.00, 0.00, -0.00, -1.00, 362.8, 151.1)">'</text><text xml:space="preserve" font-family="Courier,Courier" font-size="24.0" fill="#FEFFFF" transform="matrix(1.00, 0.00, -0.00, -1.00, 2.6, 122.1)"> </text><text xml:space="preserve" font-family="Courier,Courier" font-size="24.0" fill="#FEFFFF" transform="matrix(1.00, 0.00, -0.00, -1.00, 17.0, 122.1)"> </text><text xml:space="preserve" font-family="Courier,Courier" font-size="24.0" fill="#FEFFFF" transform="matrix(1.00, 0.00, -0.00, -1.00, 31.4, 122.1)">}</text><text xml:space="preserve" font-family="Courier,Courier" font-size="24.0" fill="#FEFFFF" transform="matrix(1.00, 0.00, -0.00, -1.00, 2.6, 93.1)">}</text><text xml:space="preserve" font-family="Courier,Courier" font-size="24.0" fill="#FEFFFF" transform="matrix(1.00, 0.00, -0.00, -1.00, 17.0, 93.1)">,</text><text xml:space="preserve" font-family="Courier,Courier" font-size="24.0" fill="#FEFFFF" transform="matrix(1.00, 0.00, -0.00, -1.00, 31.4, 93.1)"> </text><text xml:space="preserve" font-family="Courier,Courier" font-size="24.0" fill="#FEFFFF" transform="matrix(1.00, 0.00, -0.00, -1.00, 45.8, 93.1)">{</text><text xml:space="preserve" font-family="Courier,Courier" font-size="24.0" fill="#FEFFFF" transform="matrix(1.00, 0.00, -0.00, -1.00, 2.6, 64.1)"> </text><text xml:space="preserve" font-family="Courier,Courier" font-size="24.0" fill="#FEFFFF" transform="matrix(1.00, 0.00, -0.00, -1.00, 17.0, 64.1)"> </text><text xml:space="preserve" font-family="Courier,Courier" font-size="24.0" fill="#FEFFFF" transform="matrix(1.00, 0.00, -0.00, -1.00, 31.4, 64.1)">p</text><text xml:space="preserve" font-family="Courier,Courier" font-size="24.0" fill="#FEFFFF" transform="matrix(1.00, 0.00, -0.00, -1.00, 45.8, 64.1)">r</text><text xml:space="preserve" font-family="Courier,Courier" font-size="24.0" fill="#FEFFFF" transform="matrix(1.00, 0.00, -0.00, -1.00, 60.3, 64.1)">o</text><text xml:space="preserve" font-family="Courier,Courier" font-size="24.0" fill="#FEFFFF" transform="matrix(1.00, 0.00, -0.00, -1.00, 74.7, 64.1)">d</text><text xml:space="preserve" font-family="Courier,Courier" font-size="24.0" fill="#FEFFFF" transform="matrix(1.00, 0.00, -0.00, -1.00, 89.1, 64.1)">u</text><text xml:space="preserve" font-family="Courier,Courier" font-size="24.0" fill="#FEFFFF" transform="matrix(1.00, 0.00, -0.00, -1.00, 103.5, 64.1)">c</text><text xml:space="preserve" font-family="Courier,Courier" font-size="24.0" fill="#FEFFFF" transform="matrix(1.00, 0.00, -0.00, -1.00, 117.9, 64.1)">t</text><text xml:space="preserve" font-family="Courier,Courier" font-size="24.0" fill="#FEFFFF" transform="matrix(1.00, 0.00, -0.00, -1.00, 132.3, 64.1)">i</text><text xml:space="preserve" font-family="Courier,Courier" font-size="24.0" fill="#FEFFFF" transform="matrix(1.00, 0.00, -0.00, -1.00, 146.7, 64.1)">o</text><text xml:space="preserve" font-family="Courier,Courier" font-size="24.0" fill="#FEFFFF" transform="matrix(1.00, 0.00, -0.00, -1.00, 161.1, 64.1)">n</text><text xml:space="preserve" font-family="Courier,Courier" font-size="24.0" fill="#FEFFFF" transform="matrix(1.00, 0.00, -0.00, -1.00, 175.5, 64.1)"> </text><text xml:space="preserve" font-family="Courier,Courier" font-size="24.0" fill="#FEFFFF" transform="matrix(1.00, 0.00, -0.00, -1.00, 189.9, 64.1)">:</text><text xml:space="preserve" font-family="Courier,Courier" font-size="24.0" fill="#FEFFFF" transform="matrix(1.00, 0.00, -0.00, -1.00, 204.3, 64.1)"> </text><text xml:space="preserve" font-family="Courier,Courier" font-size="24.0" fill="#FEFFFF" transform="matrix(1.00, 0.00, -0.00, -1.00, 218.7, 64.1)">t</text><text xml:space="preserve" font-family="Courier,Courier" font-size="24.0" fill="#FEFFFF" transform="matrix(1.00, 0.00, -0.00, -1.00, 233.1, 64.1)">r</text><text xml:space="preserve" font-family="Courier,Courier" font-size="24.0" fill="#FEFFFF" transform="matrix(1.00, 0.00, -0.00, -1.00, 247.5, 64.1)">u</text><text xml:space="preserve" font-family="Courier,Courier" font-size="24.0" fill="#FEFFFF" transform="matrix(1.00, 0.00, -0.00, -1.00, 261.9, 64.1)">e</text><text xml:space="preserve" font-family="Courier,Courier" font-size="24.0" fill="#FEFFFF" transform="matrix(1.00, 0.00, -0.00, -1.00, 276.3, 64.1)">,</text><text xml:space="preserve" font-family="Courier,Courier" font-size="24.0" fill="#FEFFFF" transform="matrix(1.00, 0.00, -0.00, -1.00, 2.6, 35.1)"> </text><text xml:space="preserve" font-family="Courier,Courier" font-size="24.0" fill="#FEFFFF" transform="matrix(1.00, 0.00, -0.00, -1.00, 17.0, 35.1)"> </text><text xml:space="preserve" font-family="Courier,Courier" font-size="24.0" fill="#FEFFFF" transform="matrix(1.00, 0.00, -0.00, -1.00, 31.4, 35.1)">h</text><text xml:space="preserve" font-family="Courier,Courier" font-size="24.0" fill="#FEFFFF" transform="matrix(1.00, 0.00, -0.00, -1.00, 45.8, 35.1)">o</text><text xml:space="preserve" font-family="Courier,Courier" font-size="24.0" fill="#FEFFFF" transform="matrix(1.00, 0.00, -0.00, -1.00, 60.3, 35.1)">t</text><text xml:space="preserve" font-family="Courier,Courier" font-size="24.0" fill="#FEFFFF" transform="matrix(1.00, 0.00, -0.00, -1.00, 74.7, 35.1)"> </text><text xml:space="preserve" font-family="Courier,Courier" font-size="24.0" fill="#FEFFFF" transform="matrix(1.00, 0.00, -0.00, -1.00, 89.1, 35.1)"> </text><text xml:space="preserve" font-family="Courier,Courier" font-size="24.0" fill="#FEFFFF" transform="matrix(1.00, 0.00, -0.00, -1.00, 103.5, 35.1)"> </text><text xml:space="preserve" font-family="Courier,Courier" font-size="24.0" fill="#FEFFFF" transform="matrix(1.00, 0.00, -0.00, -1.00, 117.9, 35.1)"> </text><text xml:space="preserve" font-family="Courier,Courier" font-size="24.0" fill="#FEFFFF" transform="matrix(1.00, 0.00, -0.00, -1.00, 132.3, 35.1)"> </text><text xml:space="preserve" font-family="Courier,Courier" font-size="24.0" fill="#FEFFFF" transform="matrix(1.00, 0.00, -0.00, -1.00, 146.7, 35.1)"> </text><text xml:space="preserve" font-family="Courier,Courier" font-size="24.0" fill="#FEFFFF" transform="matrix(1.00, 0.00, -0.00, -1.00, 161.1, 35.1)"> </text><text xml:space="preserve" font-family="Courier,Courier" font-size="24.0" fill="#FEFFFF" transform="matrix(1.00, 0.00, -0.00, -1.00, 175.5, 35.1)"> </text><text xml:space="preserve" font-family="Courier,Courier" font-size="24.0" fill="#FEFFFF" transform="matrix(1.00, 0.00, -0.00, -1.00, 189.9, 35.1)">:</text><text xml:space="preserve" font-family="Courier,Courier" font-size="24.0" fill="#FEFFFF" transform="matrix(1.00, 0.00, -0.00, -1.00, 204.3, 35.1)"> </text><text xml:space="preserve" font-family="Courier,Courier" font-size="24.0" fill="#FEFFFF" transform="matrix(1.00, 0.00, -0.00, -1.00, 218.7, 35.1)">f</text><text xml:space="preserve" font-family="Courier,Courier" font-size="24.0" fill="#FEFFFF" transform="matrix(1.00, 0.00, -0.00, -1.00, 233.1, 35.1)">a</text><text xml:space="preserve" font-family="Courier,Courier" font-size="24.0" fill="#FEFFFF" transform="matrix(1.00, 0.00, -0.00, -1.00, 247.5, 35.1)">l</text><text xml:space="preserve" font-family="Courier,Courier" font-size="24.0" fill="#FEFFFF" transform="matrix(1.00, 0.00, -0.00, -1.00, 261.9, 35.1)">s</text><text xml:space="preserve" font-family="Courier,Courier" font-size="24.0" fill="#FEFFFF" transform="matrix(1.00, 0.00, -0.00, -1.00, 276.3, 35.1)">e</text><text xml:space="preserve" font-family="Courier,Courier" font-size="24.0" fill="#FEFFFF" transform="matrix(1.00, 0.00, -0.00, -1.00, 2.6, 6.1)">}</text><text xml:space="preserve" font-family="Courier,Courier" font-size="24.0" fill="#FEFFFF" transform="matrix(1.00, 0.00, -0.00, -1.00, 17.0, 6.1)">)</text><text xml:space="preserve" font-family="Courier,Courier" font-size="24.0" fill="#FEFFFF" transform="matrix(1.00, 0.00, -0.00, -1.00, 31.4, 6.1)">;</text></g></svg>