<?xml version="1.0" encoding="UTF-8" standalone="no"?><svg xmlns="http://www.w3.org/2000/svg" xmlns:xlink="http://www.w3.org/1999/xlink" clip-rule="evenodd" stroke-miterlimit="10" viewBox="0 0 925 122"><desc>SVG generated by Keynote</desc><defs></defs><g transform="matrix(1.00, 0.00, -0.00, -1.00, 0.0, 122.0)"><g><clipPath id="clip0x6080008afde0"><path d="M 0.1 0.6 L 120.9 0.6 L 120.9 121.4 L 0.1 121.4 Z M 0.1 0.6 "></path></clipPath><g clip-path="url(#clip0x6080008afde0)"><image xlink:href="46826B175B2B8CAD9F477211393F99B9.png" width="400.00" height="400.00" transform="matrix(0.30, 0.00, -0.00, -0.30, 0.0, 121.0)"></image></g></g><g><clipPath id="clip0x608000aaf600"><path d="M 348.2 3.8 L 594.5 3.8 L 594.5 115.7 L 348.2 115.7 Z M 348.2 3.8 "></path></clipPath><g clip-path="url(#clip0x608000aaf600)"><image xlink:href="AC45BBBF57FFED526717BF3D6609E884.png" width="3276.00" height="1488.00" transform="matrix(0.08, 0.00, -0.00, -0.08, 348.0, 116.0)"></image></g></g><g><clipPath id="clip0x6000008afd20"><path d="M 120.4 35.0 L 291.5 35.0 L 291.5 92.6 L 120.4 92.6 Z M 120.4 35.0 "></path></clipPath><g clip-path="url(#clip0x6000008afd20)"><image xlink:href="843969CBC39CA01CD93607087B2D7AB4.png" width="585.00" height="197.00" transform="matrix(0.29, 0.00, -0.00, -0.29, 120.0, 93.0)"></image></g></g><g><clipPath id="clip0x6000008aec40"><path d="M 625.6 33.5 L 928.8 33.5 L 928.8 94.5 L 625.6 94.5 Z M 625.6 33.5 "></path></clipPath><g clip-path="url(#clip0x6000008aec40)"><text xml:space="preserve" font-family="Helvetica-Light,Helvetica" font-size="36.0" fill="#FEFFFF" transform="matrix(1.00, 0.00, -0.00, -1.00, 635.1, 50.7)">R</text><text xml:space="preserve" font-family="Helvetica-Light,Helvetica" font-size="36.0" fill="#FEFFFF" transform="matrix(1.00, 0.00, -0.00, -1.00, 659.1, 50.7)">e</text><text xml:space="preserve" font-family="Helvetica-Light,Helvetica" font-size="36.0" fill="#FEFFFF" transform="matrix(1.00, 0.00, -0.00, -1.00, 679.2, 50.7)">a</text><text xml:space="preserve" font-family="Helvetica-Light,Helvetica" font-size="36.0" fill="#FEFFFF" transform="matrix(1.00, 0.00, -0.00, -1.00, 699.2, 50.7)">c</text><text xml:space="preserve" font-family="Helvetica-Light,Helvetica" font-size="36.0" fill="#FEFFFF" transform="matrix(1.00, 0.00, -0.00, -1.00, 719.2, 50.7)">t</text><text xml:space="preserve" font-family="Helvetica-Light,Helvetica" font-size="36.0" fill="#FEFFFF" transform="matrix(1.00, 0.00, -0.00, -1.00, 729.2, 50.7)"> </text><text xml:space="preserve" font-family="Helvetica-Light,Helvetica" font-size="36.0" fill="#FEFFFF" transform="matrix(1.00, 0.00, -0.00, -1.00, 739.2, 50.7)">H</text><text xml:space="preserve" font-family="Helvetica-Light,Helvetica" font-size="36.0" fill="#FEFFFF" transform="matrix(1.00, 0.00, -0.00, -1.00, 765.2, 50.7)">o</text><text xml:space="preserve" font-family="Helvetica-Light,Helvetica" font-size="36.0" fill="#FEFFFF" transform="matrix(1.00, 0.00, -0.00, -1.00, 785.2, 50.7)">t</text><text xml:space="preserve" font-family="Helvetica-Light,Helvetica" font-size="36.0" fill="#FEFFFF" transform="matrix(1.00, 0.00, -0.00, -1.00, 795.2, 50.7)"> </text><text xml:space="preserve" font-family="Helvetica-Light,Helvetica" font-size="36.0" fill="#FEFFFF" transform="matrix(1.00, 0.00, -0.00, -1.00, 805.2, 50.7)">L</text><text xml:space="preserve" font-family="Helvetica-Light,Helvetica" font-size="36.0" fill="#FEFFFF" transform="matrix(1.00, 0.00, -0.00, -1.00, 825.2, 50.7)">o</text><text xml:space="preserve" font-family="Helvetica-Light,Helvetica" font-size="36.0" fill="#FEFFFF" transform="matrix(1.00, 0.00, -0.00, -1.00, 845.3, 50.7)">a</text><text xml:space="preserve" font-family="Helvetica-Light,Helvetica" font-size="36.0" fill="#FEFFFF" transform="matrix(1.00, 0.00, -0.00, -1.00, 865.3, 50.7)">d</text><text xml:space="preserve" font-family="Helvetica-Light,Helvetica" font-size="36.0" fill="#FEFFFF" transform="matrix(1.00, 0.00, -0.00, -1.00, 887.3, 50.7)">e</text><text xml:space="preserve" font-family="Helvetica-Light,Helvetica" font-size="36.0" fill="#FEFFFF" transform="matrix(1.00, 0.00, -0.00, -1.00, 907.3, 50.7)">r</text></g></g></g></svg>