<?xml version="1.0" encoding="UTF-8" standalone="no"?><svg xmlns="http://www.w3.org/2000/svg" xmlns:xlink="http://www.w3.org/1999/xlink" clip-rule="evenodd" stroke-miterlimit="10" viewBox="0 0 1024 768"><desc>SVG generated by Keynote</desc><defs></defs><g transform="matrix(1.00, 0.00, -0.00, -1.00, 0.0, 768.0)"><path d="M 0.0 768.0 L 1024.0 768.0 L 1024.0 0.0 L 0.0 0.0 Z M 0.0 768.0 " fill="#000000"></path><text xml:space="preserve" font-family="Helvetica-Light,Helvetica" font-size="80.0" fill="#FEFFFF" transform="matrix(1.00, 0.00, -0.00, -1.00, 312.2, 633.4)">D</text><text xml:space="preserve" font-family="Helvetica-Light,Helvetica" font-size="80.0" fill="#FEFFFF" transform="matrix(1.00, 0.00, -0.00, -1.00, 369.9, 633.4)">e</text><text xml:space="preserve" font-family="Helvetica-Light,Helvetica" font-size="80.0" fill="#FEFFFF" transform="matrix(1.00, 0.00, -0.00, -1.00, 414.4, 633.4)">l</text><text xml:space="preserve" font-family="Helvetica-Light,Helvetica" font-size="80.0" fill="#FEFFFF" transform="matrix(1.00, 0.00, -0.00, -1.00, 432.2, 633.4)">p</text><text xml:space="preserve" font-family="Helvetica-Light,Helvetica" font-size="80.0" fill="#FEFFFF" transform="matrix(1.00, 0.00, -0.00, -1.00, 481.0, 633.4)">h</text><text xml:space="preserve" font-family="Helvetica-Light,Helvetica" font-size="80.0" fill="#FEFFFF" transform="matrix(1.00, 0.00, -0.00, -1.00, 525.5, 633.4)">i</text><text xml:space="preserve" font-family="Helvetica-Light,Helvetica" font-size="80.0" fill="#FEFFFF" transform="matrix(1.00, 0.00, -0.00, -1.00, 543.3, 633.4)"> </text><text xml:space="preserve" font-family="Helvetica-Light,Helvetica" font-size="80.0" fill="#FEFFFF" transform="matrix(1.00, 0.00, -0.00, -1.00, 565.5, 633.4)">T</text><text xml:space="preserve" font-family="Helvetica-Light,Helvetica" font-size="80.0" fill="#FEFFFF" transform="matrix(1.00, 0.00, -0.00, -1.00, 601.1, 633.4)">o</text><text xml:space="preserve" font-family="Helvetica-Light,Helvetica" font-size="80.0" fill="#FEFFFF" transform="matrix(1.00, 0.00, -0.00, -1.00, 645.6, 633.4)">o</text><text xml:space="preserve" font-family="Helvetica-Light,Helvetica" font-size="80.0" fill="#FEFFFF" transform="matrix(1.00, 0.00, -0.00, -1.00, 690.1, 633.4)">l</text><text xml:space="preserve" font-family="Helvetica-Light,Helvetica" font-size="80.0" fill="#FEFFFF" transform="matrix(1.00, 0.00, -0.00, -1.00, 707.8, 633.4)">s</text><text xml:space="preserve" font-family="Courier,Courier" font-size="24.0" fill="#FEFFFF" transform="matrix(1.00, 0.00, -0.00, -1.00, 94.6, 328.1)">v</text><text xml:space="preserve" font-family="Courier,Courier" font-size="24.0" fill="#FEFFFF" transform="matrix(1.00, 0.00, -0.00, -1.00, 109.0, 328.1)">a</text><text xml:space="preserve" font-family="Courier,Courier" font-size="24.0" fill="#FEFFFF" transform="matrix(1.00, 0.00, -0.00, -1.00, 123.4, 328.1)">r</text><text xml:space="preserve" font-family="Courier,Courier" font-size="24.0" fill="#FEFFFF" transform="matrix(1.00, 0.00, -0.00, -1.00, 137.8, 328.1)"> </text><text xml:space="preserve" font-family="Courier,Courier" font-size="24.0" fill="#FEFFFF" transform="matrix(1.00, 0.00, -0.00, -1.00, 152.3, 328.1)">b</text><text xml:space="preserve" font-family="Courier,Courier" font-size="24.0" fill="#FEFFFF" transform="matrix(1.00, 0.00, -0.00, -1.00, 166.7, 328.1)">u</text><text xml:space="preserve" font-family="Courier,Courier" font-size="24.0" fill="#FEFFFF" transform="matrix(1.00, 0.00, -0.00, -1.00, 181.1, 328.1)">i</text><text xml:space="preserve" font-family="Courier,Courier" font-size="24.0" fill="#FEFFFF" transform="matrix(1.00, 0.00, -0.00, -1.00, 195.5, 328.1)">l</text><text xml:space="preserve" font-family="Courier,Courier" font-size="24.0" fill="#FEFFFF" transform="matrix(1.00, 0.00, -0.00, -1.00, 209.9, 328.1)">d</text><text xml:space="preserve" font-family="Courier,Courier" font-size="24.0" fill="#FEFFFF" transform="matrix(1.00, 0.00, -0.00, -1.00, 224.3, 328.1)">e</text><text xml:space="preserve" font-family="Courier,Courier" font-size="24.0" fill="#FEFFFF" transform="matrix(1.00, 0.00, -0.00, -1.00, 238.7, 328.1)">r</text><text xml:space="preserve" font-family="Courier,Courier" font-size="24.0" fill="#FEFFFF" transform="matrix(1.00, 0.00, -0.00, -1.00, 253.1, 328.1)"> </text><text xml:space="preserve" font-family="Courier,Courier" font-size="24.0" fill="#FEFFFF" transform="matrix(1.00, 0.00, -0.00, -1.00, 267.5, 328.1)">=</text><text xml:space="preserve" font-family="Courier,Courier" font-size="24.0" fill="#FEFFFF" transform="matrix(1.00, 0.00, -0.00, -1.00, 281.9, 328.1)"> </text><text xml:space="preserve" font-family="Courier,Courier" font-size="24.0" fill="#FEFFFF" transform="matrix(1.00, 0.00, -0.00, -1.00, 296.3, 328.1)">r</text><text xml:space="preserve" font-family="Courier,Courier" font-size="24.0" fill="#FEFFFF" transform="matrix(1.00, 0.00, -0.00, -1.00, 310.7, 328.1)">e</text><text xml:space="preserve" font-family="Courier,Courier" font-size="24.0" fill="#FEFFFF" transform="matrix(1.00, 0.00, -0.00, -1.00, 325.1, 328.1)">q</text><text xml:space="preserve" font-family="Courier,Courier" font-size="24.0" fill="#FEFFFF" transform="matrix(1.00, 0.00, -0.00, -1.00, 339.5, 328.1)">u</text><text xml:space="preserve" font-family="Courier,Courier" font-size="24.0" fill="#FEFFFF" transform="matrix(1.00, 0.00, -0.00, -1.00, 353.9, 328.1)">i</text><text xml:space="preserve" font-family="Courier,Courier" font-size="24.0" fill="#FEFFFF" transform="matrix(1.00, 0.00, -0.00, -1.00, 368.3, 328.1)">r</text><text xml:space="preserve" font-family="Courier,Courier" font-size="24.0" fill="#FEFFFF" transform="matrix(1.00, 0.00, -0.00, -1.00, 382.7, 328.1)">e</text><text xml:space="preserve" font-family="Courier,Courier" font-size="24.0" fill="#FEFFFF" transform="matrix(1.00, 0.00, -0.00, -1.00, 397.1, 328.1)">(</text><text xml:space="preserve" font-family="Courier,Courier" font-size="24.0" fill="#FEFFFF" transform="matrix(1.00, 0.00, -0.00, -1.00, 411.5, 328.1)">‘</text><text xml:space="preserve" font-family="Courier,Courier" font-size="24.0" fill="#FEFFFF" transform="matrix(1.00, 0.00, -0.00, -1.00, 425.9, 328.1)">d</text><text xml:space="preserve" font-family="Courier,Courier" font-size="24.0" fill="#FEFFFF" transform="matrix(1.00, 0.00, -0.00, -1.00, 440.3, 328.1)">e</text><text xml:space="preserve" font-family="Courier,Courier" font-size="24.0" fill="#FEFFFF" transform="matrix(1.00, 0.00, -0.00, -1.00, 454.8, 328.1)">l</text><text xml:space="preserve" font-family="Courier,Courier" font-size="24.0" fill="#FEFFFF" transform="matrix(1.00, 0.00, -0.00, -1.00, 469.2, 328.1)">p</text><text xml:space="preserve" font-family="Courier,Courier" font-size="24.0" fill="#FEFFFF" transform="matrix(1.00, 0.00, -0.00, -1.00, 483.6, 328.1)">h</text><text xml:space="preserve" font-family="Courier,Courier" font-size="24.0" fill="#FEFFFF" transform="matrix(1.00, 0.00, -0.00, -1.00, 498.0, 328.1)">i</text><text xml:space="preserve" font-family="Courier,Courier" font-size="24.0" fill="#FEFFFF" transform="matrix(1.00, 0.00, -0.00, -1.00, 512.4, 328.1)">-</text><text xml:space="preserve" font-family="Courier,Courier" font-size="24.0" fill="#FEFFFF" transform="matrix(1.00, 0.00, -0.00, -1.00, 526.8, 328.1)">t</text><text xml:space="preserve" font-family="Courier,Courier" font-size="24.0" fill="#FEFFFF" transform="matrix(1.00, 0.00, -0.00, -1.00, 541.2, 328.1)">o</text><text xml:space="preserve" font-family="Courier,Courier" font-size="24.0" fill="#FEFFFF" transform="matrix(1.00, 0.00, -0.00, -1.00, 555.6, 328.1)">o</text><text xml:space="preserve" font-family="Courier,Courier" font-size="24.0" fill="#FEFFFF" transform="matrix(1.00, 0.00, -0.00, -1.00, 570.0, 328.1)">l</text><text xml:space="preserve" font-family="Courier,Courier" font-size="24.0" fill="#FEFFFF" transform="matrix(1.00, 0.00, -0.00, -1.00, 584.4, 328.1)">s</text><text xml:space="preserve" font-family="Courier,Courier" font-size="24.0" fill="#FEFFFF" transform="matrix(1.00, 0.00, -0.00, -1.00, 598.7, 328.1)">/</text><text xml:space="preserve" font-family="Courier,Courier" font-size="24.0" fill="#FEFFFF" transform="matrix(1.00, 0.00, -0.00, -1.00, 613.1, 328.1)">b</text><text xml:space="preserve" font-family="Courier,Courier" font-size="24.0" fill="#FEFFFF" transform="matrix(1.00, 0.00, -0.00, -1.00, 627.5, 328.1)">u</text><text xml:space="preserve" font-family="Courier,Courier" font-size="24.0" fill="#FEFFFF" transform="matrix(1.00, 0.00, -0.00, -1.00, 641.9, 328.1)">i</text><text xml:space="preserve" font-family="Courier,Courier" font-size="24.0" fill="#FEFFFF" transform="matrix(1.00, 0.00, -0.00, -1.00, 656.3, 328.1)">l</text><text xml:space="preserve" font-family="Courier,Courier" font-size="24.0" fill="#FEFFFF" transform="matrix(1.00, 0.00, -0.00, -1.00, 670.7, 328.1)">d</text><text xml:space="preserve" font-family="Courier,Courier" font-size="24.0" fill="#FEFFFF" transform="matrix(1.00, 0.00, -0.00, -1.00, 685.1, 328.1)">-</text><text xml:space="preserve" font-family="Courier,Courier" font-size="24.0" fill="#FEFFFF" transform="matrix(1.00, 0.00, -0.00, -1.00, 699.5, 328.1)">w</text><text xml:space="preserve" font-family="Courier,Courier" font-size="24.0" fill="#FEFFFF" transform="matrix(1.00, 0.00, -0.00, -1.00, 714.0, 328.1)">e</text><text xml:space="preserve" font-family="Courier,Courier" font-size="24.0" fill="#FEFFFF" transform="matrix(1.00, 0.00, -0.00, -1.00, 728.4, 328.1)">b</text><text xml:space="preserve" font-family="Courier,Courier" font-size="24.0" fill="#FEFFFF" transform="matrix(1.00, 0.00, -0.00, -1.00, 742.8, 328.1)">p</text><text xml:space="preserve" font-family="Courier,Courier" font-size="24.0" fill="#FEFFFF" transform="matrix(1.00, 0.00, -0.00, -1.00, 757.2, 328.1)">a</text><text xml:space="preserve" font-family="Courier,Courier" font-size="24.0" fill="#FEFFFF" transform="matrix(1.00, 0.00, -0.00, -1.00, 771.6, 328.1)">c</text><text xml:space="preserve" font-family="Courier,Courier" font-size="24.0" fill="#FEFFFF" transform="matrix(1.00, 0.00, -0.00, -1.00, 786.0, 328.1)">k</text><text xml:space="preserve" font-family="Courier,Courier" font-size="24.0" fill="#FEFFFF" transform="matrix(1.00, 0.00, -0.00, -1.00, 800.4, 328.1)">-</text><text xml:space="preserve" font-family="Courier,Courier" font-size="24.0" fill="#FEFFFF" transform="matrix(1.00, 0.00, -0.00, -1.00, 814.8, 328.1)">c</text><text xml:space="preserve" font-family="Courier,Courier" font-size="24.0" fill="#FEFFFF" transform="matrix(1.00, 0.00, -0.00, -1.00, 829.2, 328.1)">o</text><text xml:space="preserve" font-family="Courier,Courier" font-size="24.0" fill="#FEFFFF" transform="matrix(1.00, 0.00, -0.00, -1.00, 843.6, 328.1)">n</text><text xml:space="preserve" font-family="Courier,Courier" font-size="24.0" fill="#FEFFFF" transform="matrix(1.00, 0.00, -0.00, -1.00, 858.0, 328.1)">f</text><text xml:space="preserve" font-family="Courier,Courier" font-size="24.0" fill="#FEFFFF" transform="matrix(1.00, 0.00, -0.00, -1.00, 872.4, 328.1)">i</text><text xml:space="preserve" font-family="Courier,Courier" font-size="24.0" fill="#FEFFFF" transform="matrix(1.00, 0.00, -0.00, -1.00, 886.8, 328.1)">g</text><text xml:space="preserve" font-family="Courier,Courier" font-size="24.0" fill="#FEFFFF" transform="matrix(1.00, 0.00, -0.00, -1.00, 901.2, 328.1)">'</text><text xml:space="preserve" font-family="Courier,Courier" font-size="24.0" fill="#FEFFFF" transform="matrix(1.00, 0.00, -0.00, -1.00, 915.6, 328.1)">)</text><text xml:space="preserve" font-family="Courier,Courier" font-size="24.0" fill="#FEFFFF" transform="matrix(1.00, 0.00, -0.00, -1.00, 930.0, 328.1)">;</text><text xml:space="preserve" font-family="Courier,Courier" font-size="24.0" fill="#FEFFFF" transform="matrix(1.00, 0.00, -0.00, -1.00, 94.6, 299.1)">m</text><text xml:space="preserve" font-family="Courier,Courier" font-size="24.0" fill="#FEFFFF" transform="matrix(1.00, 0.00, -0.00, -1.00, 109.0, 299.1)">o</text><text xml:space="preserve" font-family="Courier,Courier" font-size="24.0" fill="#FEFFFF" transform="matrix(1.00, 0.00, -0.00, -1.00, 123.4, 299.1)">d</text><text xml:space="preserve" font-family="Courier,Courier" font-size="24.0" fill="#FEFFFF" transform="matrix(1.00, 0.00, -0.00, -1.00, 137.8, 299.1)">u</text><text xml:space="preserve" font-family="Courier,Courier" font-size="24.0" fill="#FEFFFF" transform="matrix(1.00, 0.00, -0.00, -1.00, 152.3, 299.1)">l</text><text xml:space="preserve" font-family="Courier,Courier" font-size="24.0" fill="#FEFFFF" transform="matrix(1.00, 0.00, -0.00, -1.00, 166.7, 299.1)">e</text><text xml:space="preserve" font-family="Courier,Courier" font-size="24.0" fill="#FEFFFF" transform="matrix(1.00, 0.00, -0.00, -1.00, 181.1, 299.1)">.</text><text xml:space="preserve" font-family="Courier,Courier" font-size="24.0" fill="#FEFFFF" transform="matrix(1.00, 0.00, -0.00, -1.00, 195.5, 299.1)">e</text><text xml:space="preserve" font-family="Courier,Courier" font-size="24.0" fill="#FEFFFF" transform="matrix(1.00, 0.00, -0.00, -1.00, 209.9, 299.1)">x</text><text xml:space="preserve" font-family="Courier,Courier" font-size="24.0" fill="#FEFFFF" transform="matrix(1.00, 0.00, -0.00, -1.00, 224.3, 299.1)">p</text><text xml:space="preserve" font-family="Courier,Courier" font-size="24.0" fill="#FEFFFF" transform="matrix(1.00, 0.00, -0.00, -1.00, 238.7, 299.1)">o</text><text xml:space="preserve" font-family="Courier,Courier" font-size="24.0" fill="#FEFFFF" transform="matrix(1.00, 0.00, -0.00, -1.00, 253.1, 299.1)">r</text><text xml:space="preserve" font-family="Courier,Courier" font-size="24.0" fill="#FEFFFF" transform="matrix(1.00, 0.00, -0.00, -1.00, 267.5, 299.1)">t</text><text xml:space="preserve" font-family="Courier,Courier" font-size="24.0" fill="#FEFFFF" transform="matrix(1.00, 0.00, -0.00, -1.00, 281.9, 299.1)">s</text><text xml:space="preserve" font-family="Courier,Courier" font-size="24.0" fill="#FEFFFF" transform="matrix(1.00, 0.00, -0.00, -1.00, 296.3, 299.1)"> </text><text xml:space="preserve" font-family="Courier,Courier" font-size="24.0" fill="#FEFFFF" transform="matrix(1.00, 0.00, -0.00, -1.00, 310.7, 299.1)">=</text><text xml:space="preserve" font-family="Courier,Courier" font-size="24.0" fill="#FEFFFF" transform="matrix(1.00, 0.00, -0.00, -1.00, 325.1, 299.1)"> </text><text xml:space="preserve" font-family="Courier,Courier" font-size="24.0" fill="#FEFFFF" transform="matrix(1.00, 0.00, -0.00, -1.00, 339.5, 299.1)">b</text><text xml:space="preserve" font-family="Courier,Courier" font-size="24.0" fill="#FEFFFF" transform="matrix(1.00, 0.00, -0.00, -1.00, 353.9, 299.1)">u</text><text xml:space="preserve" font-family="Courier,Courier" font-size="24.0" fill="#FEFFFF" transform="matrix(1.00, 0.00, -0.00, -1.00, 368.3, 299.1)">i</text><text xml:space="preserve" font-family="Courier,Courier" font-size="24.0" fill="#FEFFFF" transform="matrix(1.00, 0.00, -0.00, -1.00, 382.7, 299.1)">l</text><text xml:space="preserve" font-family="Courier,Courier" font-size="24.0" fill="#FEFFFF" transform="matrix(1.00, 0.00, -0.00, -1.00, 397.1, 299.1)">d</text><text xml:space="preserve" font-family="Courier,Courier" font-size="24.0" fill="#FEFFFF" transform="matrix(1.00, 0.00, -0.00, -1.00, 411.5, 299.1)">e</text><text xml:space="preserve" font-family="Courier,Courier" font-size="24.0" fill="#FEFFFF" transform="matrix(1.00, 0.00, -0.00, -1.00, 425.9, 299.1)">r</text><text xml:space="preserve" font-family="Courier,Courier" font-size="24.0" fill="#FEFFFF" transform="matrix(1.00, 0.00, -0.00, -1.00, 440.3, 299.1)">(</text><text xml:space="preserve" font-family="Courier,Courier" font-size="24.0" fill="#FEFFFF" transform="matrix(1.00, 0.00, -0.00, -1.00, 454.8, 299.1)">{</text><text xml:space="preserve" font-family="Courier,Courier" font-size="24.0" fill="#FEFFFF" transform="matrix(1.00, 0.00, -0.00, -1.00, 94.6, 270.1)"> </text><text xml:space="preserve" font-family="Courier,Courier" font-size="24.0" fill="#FEFFFF" transform="matrix(1.00, 0.00, -0.00, -1.00, 109.0, 270.1)"> </text><text xml:space="preserve" font-family="Courier,Courier" font-size="24.0" fill="#FEFFFF" transform="matrix(1.00, 0.00, -0.00, -1.00, 123.4, 270.1)">e</text><text xml:space="preserve" font-family="Courier,Courier" font-size="24.0" fill="#FEFFFF" transform="matrix(1.00, 0.00, -0.00, -1.00, 137.8, 270.1)">n</text><text xml:space="preserve" font-family="Courier,Courier" font-size="24.0" fill="#FEFFFF" transform="matrix(1.00, 0.00, -0.00, -1.00, 152.3, 270.1)">t</text><text xml:space="preserve" font-family="Courier,Courier" font-size="24.0" fill="#FEFFFF" transform="matrix(1.00, 0.00, -0.00, -1.00, 166.7, 270.1)">r</text><text xml:space="preserve" font-family="Courier,Courier" font-size="24.0" fill="#FEFFFF" transform="matrix(1.00, 0.00, -0.00, -1.00, 181.1, 270.1)">y</text><text xml:space="preserve" font-family="Courier,Courier" font-size="24.0" fill="#FEFFFF" transform="matrix(1.00, 0.00, -0.00, -1.00, 195.5, 270.1)"> </text><text xml:space="preserve" font-family="Courier,Courier" font-size="24.0" fill="#FEFFFF" transform="matrix(1.00, 0.00, -0.00, -1.00, 209.9, 270.1)"> </text><text xml:space="preserve" font-family="Courier,Courier" font-size="24.0" fill="#FEFFFF" transform="matrix(1.00, 0.00, -0.00, -1.00, 224.3, 270.1)">:</text><text xml:space="preserve" font-family="Courier,Courier" font-size="24.0" fill="#FEFFFF" transform="matrix(1.00, 0.00, -0.00, -1.00, 238.7, 270.1)"> </text><text xml:space="preserve" font-family="Courier,Courier" font-size="24.0" fill="#FEFFFF" transform="matrix(1.00, 0.00, -0.00, -1.00, 253.1, 270.1)">'</text><text xml:space="preserve" font-family="Courier,Courier" font-size="24.0" fill="#FEFFFF" transform="matrix(1.00, 0.00, -0.00, -1.00, 267.5, 270.1)">.</text><text xml:space="preserve" font-family="Courier,Courier" font-size="24.0" fill="#FEFFFF" transform="matrix(1.00, 0.00, -0.00, -1.00, 281.9, 270.1)">/</text><text xml:space="preserve" font-family="Courier,Courier" font-size="24.0" fill="#FEFFFF" transform="matrix(1.00, 0.00, -0.00, -1.00, 296.3, 270.1)">A</text><text xml:space="preserve" font-family="Courier,Courier" font-size="24.0" fill="#FEFFFF" transform="matrix(1.00, 0.00, -0.00, -1.00, 310.7, 270.1)">p</text><text xml:space="preserve" font-family="Courier,Courier" font-size="24.0" fill="#FEFFFF" transform="matrix(1.00, 0.00, -0.00, -1.00, 325.1, 270.1)">p</text><text xml:space="preserve" font-family="Courier,Courier" font-size="24.0" fill="#FEFFFF" transform="matrix(1.00, 0.00, -0.00, -1.00, 339.5, 270.1)">'</text><text xml:space="preserve" font-family="Courier,Courier" font-size="24.0" fill="#FEFFFF" transform="matrix(1.00, 0.00, -0.00, -1.00, 353.9, 270.1)">,</text><text xml:space="preserve" font-family="Courier,Courier" font-size="24.0" fill="#FEFFFF" transform="matrix(1.00, 0.00, -0.00, -1.00, 94.6, 241.1)"> </text><text xml:space="preserve" font-family="Courier,Courier" font-size="24.0" fill="#FEFFFF" transform="matrix(1.00, 0.00, -0.00, -1.00, 109.0, 241.1)"> </text><text xml:space="preserve" font-family="Courier,Courier" font-size="24.0" fill="#FEFFFF" transform="matrix(1.00, 0.00, -0.00, -1.00, 123.4, 241.1)">o</text><text xml:space="preserve" font-family="Courier,Courier" font-size="24.0" fill="#FEFFFF" transform="matrix(1.00, 0.00, -0.00, -1.00, 137.8, 241.1)">u</text><text xml:space="preserve" font-family="Courier,Courier" font-size="24.0" fill="#FEFFFF" transform="matrix(1.00, 0.00, -0.00, -1.00, 152.3, 241.1)">t</text><text xml:space="preserve" font-family="Courier,Courier" font-size="24.0" fill="#FEFFFF" transform="matrix(1.00, 0.00, -0.00, -1.00, 166.7, 241.1)">p</text><text xml:space="preserve" font-family="Courier,Courier" font-size="24.0" fill="#FEFFFF" transform="matrix(1.00, 0.00, -0.00, -1.00, 181.1, 241.1)">u</text><text xml:space="preserve" font-family="Courier,Courier" font-size="24.0" fill="#FEFFFF" transform="matrix(1.00, 0.00, -0.00, -1.00, 195.5, 241.1)">t</text><text xml:space="preserve" font-family="Courier,Courier" font-size="24.0" fill="#FEFFFF" transform="matrix(1.00, 0.00, -0.00, -1.00, 209.9, 241.1)"> </text><text xml:space="preserve" font-family="Courier,Courier" font-size="24.0" fill="#FEFFFF" transform="matrix(1.00, 0.00, -0.00, -1.00, 224.3, 241.1)">:</text><text xml:space="preserve" font-family="Courier,Courier" font-size="24.0" fill="#FEFFFF" transform="matrix(1.00, 0.00, -0.00, -1.00, 238.7, 241.1)"> </text><text xml:space="preserve" font-family="Courier,Courier" font-size="24.0" fill="#FEFFFF" transform="matrix(1.00, 0.00, -0.00, -1.00, 253.1, 241.1)">{</text><text xml:space="preserve" font-family="Courier,Courier" font-size="24.0" fill="#FEFFFF" transform="matrix(1.00, 0.00, -0.00, -1.00, 94.6, 212.1)"> </text><text xml:space="preserve" font-family="Courier,Courier" font-size="24.0" fill="#FEFFFF" transform="matrix(1.00, 0.00, -0.00, -1.00, 109.0, 212.1)"> </text><text xml:space="preserve" font-family="Courier,Courier" font-size="24.0" fill="#FEFFFF" transform="matrix(1.00, 0.00, -0.00, -1.00, 123.4, 212.1)"> </text><text xml:space="preserve" font-family="Courier,Courier" font-size="24.0" fill="#FEFFFF" transform="matrix(1.00, 0.00, -0.00, -1.00, 137.8, 212.1)"> </text><text xml:space="preserve" font-family="Courier,Courier" font-size="24.0" fill="#FEFFFF" transform="matrix(1.00, 0.00, -0.00, -1.00, 152.3, 212.1)">p</text><text xml:space="preserve" font-family="Courier,Courier" font-size="24.0" fill="#FEFFFF" transform="matrix(1.00, 0.00, -0.00, -1.00, 166.7, 212.1)">a</text><text xml:space="preserve" font-family="Courier,Courier" font-size="24.0" fill="#FEFFFF" transform="matrix(1.00, 0.00, -0.00, -1.00, 181.1, 212.1)">t</text><text xml:space="preserve" font-family="Courier,Courier" font-size="24.0" fill="#FEFFFF" transform="matrix(1.00, 0.00, -0.00, -1.00, 195.5, 212.1)">h</text><text xml:space="preserve" font-family="Courier,Courier" font-size="24.0" fill="#FEFFFF" transform="matrix(1.00, 0.00, -0.00, -1.00, 209.9, 212.1)"> </text><text xml:space="preserve" font-family="Courier,Courier" font-size="24.0" fill="#FEFFFF" transform="matrix(1.00, 0.00, -0.00, -1.00, 224.3, 212.1)"> </text><text xml:space="preserve" font-family="Courier,Courier" font-size="24.0" fill="#FEFFFF" transform="matrix(1.00, 0.00, -0.00, -1.00, 238.7, 212.1)"> </text><text xml:space="preserve" font-family="Courier,Courier" font-size="24.0" fill="#FEFFFF" transform="matrix(1.00, 0.00, -0.00, -1.00, 253.1, 212.1)"> </text><text xml:space="preserve" font-family="Courier,Courier" font-size="24.0" fill="#FEFFFF" transform="matrix(1.00, 0.00, -0.00, -1.00, 267.5, 212.1)"> </text><text xml:space="preserve" font-family="Courier,Courier" font-size="24.0" fill="#FEFFFF" transform="matrix(1.00, 0.00, -0.00, -1.00, 281.9, 212.1)">:</text><text xml:space="preserve" font-family="Courier,Courier" font-size="24.0" fill="#FEFFFF" transform="matrix(1.00, 0.00, -0.00, -1.00, 296.3, 212.1)"> </text><text xml:space="preserve" font-family="Courier,Courier" font-size="24.0" fill="#FEFFFF" transform="matrix(1.00, 0.00, -0.00, -1.00, 310.7, 212.1)">_</text><text xml:space="preserve" font-family="Courier,Courier" font-size="24.0" fill="#FEFFFF" transform="matrix(1.00, 0.00, -0.00, -1.00, 325.1, 212.1)">_</text><text xml:space="preserve" font-family="Courier,Courier" font-size="24.0" fill="#FEFFFF" transform="matrix(1.00, 0.00, -0.00, -1.00, 339.5, 212.1)">d</text><text xml:space="preserve" font-family="Courier,Courier" font-size="24.0" fill="#FEFFFF" transform="matrix(1.00, 0.00, -0.00, -1.00, 353.9, 212.1)">i</text><text xml:space="preserve" font-family="Courier,Courier" font-size="24.0" fill="#FEFFFF" transform="matrix(1.00, 0.00, -0.00, -1.00, 368.3, 212.1)">r</text><text xml:space="preserve" font-family="Courier,Courier" font-size="24.0" fill="#FEFFFF" transform="matrix(1.00, 0.00, -0.00, -1.00, 382.7, 212.1)">n</text><text xml:space="preserve" font-family="Courier,Courier" font-size="24.0" fill="#FEFFFF" transform="matrix(1.00, 0.00, -0.00, -1.00, 397.1, 212.1)">a</text><text xml:space="preserve" font-family="Courier,Courier" font-size="24.0" fill="#FEFFFF" transform="matrix(1.00, 0.00, -0.00, -1.00, 411.5, 212.1)">m</text><text xml:space="preserve" font-family="Courier,Courier" font-size="24.0" fill="#FEFFFF" transform="matrix(1.00, 0.00, -0.00, -1.00, 425.9, 212.1)">e</text><text xml:space="preserve" font-family="Courier,Courier" font-size="24.0" fill="#FEFFFF" transform="matrix(1.00, 0.00, -0.00, -1.00, 440.3, 212.1)"> </text><text xml:space="preserve" font-family="Courier,Courier" font-size="24.0" fill="#FEFFFF" transform="matrix(1.00, 0.00, -0.00, -1.00, 454.8, 212.1)">+</text><text xml:space="preserve" font-family="Courier,Courier" font-size="24.0" fill="#FEFFFF" transform="matrix(1.00, 0.00, -0.00, -1.00, 469.2, 212.1)"> </text><text xml:space="preserve" font-family="Courier,Courier" font-size="24.0" fill="#FEFFFF" transform="matrix(1.00, 0.00, -0.00, -1.00, 483.6, 212.1)">‘</text><text xml:space="preserve" font-family="Courier,Courier" font-size="24.0" fill="#FEFFFF" transform="matrix(1.00, 0.00, -0.00, -1.00, 498.0, 212.1)">/</text><text xml:space="preserve" font-family="Courier,Courier" font-size="24.0" fill="#FEFFFF" transform="matrix(1.00, 0.00, -0.00, -1.00, 512.4, 212.1)">b</text><text xml:space="preserve" font-family="Courier,Courier" font-size="24.0" fill="#FEFFFF" transform="matrix(1.00, 0.00, -0.00, -1.00, 526.8, 212.1)">u</text><text xml:space="preserve" font-family="Courier,Courier" font-size="24.0" fill="#FEFFFF" transform="matrix(1.00, 0.00, -0.00, -1.00, 541.2, 212.1)">n</text><text xml:space="preserve" font-family="Courier,Courier" font-size="24.0" fill="#FEFFFF" transform="matrix(1.00, 0.00, -0.00, -1.00, 555.6, 212.1)">d</text><text xml:space="preserve" font-family="Courier,Courier" font-size="24.0" fill="#FEFFFF" transform="matrix(1.00, 0.00, -0.00, -1.00, 570.0, 212.1)">l</text><text xml:space="preserve" font-family="Courier,Courier" font-size="24.0" fill="#FEFFFF" transform="matrix(1.00, 0.00, -0.00, -1.00, 584.4, 212.1)">e</text><text xml:space="preserve" font-family="Courier,Courier" font-size="24.0" fill="#FEFFFF" transform="matrix(1.00, 0.00, -0.00, -1.00, 598.8, 212.1)">s</text><text xml:space="preserve" font-family="Courier,Courier" font-size="24.0" fill="#FEFFFF" transform="matrix(1.00, 0.00, -0.00, -1.00, 613.2, 212.1)">’</text><text xml:space="preserve" font-family="Courier,Courier" font-size="24.0" fill="#FEFFFF" transform="matrix(1.00, 0.00, -0.00, -1.00, 627.5, 212.1)">,</text><text xml:space="preserve" font-family="Courier,Courier" font-size="24.0" fill="#FEFFFF" transform="matrix(1.00, 0.00, -0.00, -1.00, 94.6, 183.1)"> </text><text xml:space="preserve" font-family="Courier,Courier" font-size="24.0" fill="#FEFFFF" transform="matrix(1.00, 0.00, -0.00, -1.00, 109.0, 183.1)"> </text><text xml:space="preserve" font-family="Courier,Courier" font-size="24.0" fill="#FEFFFF" transform="matrix(1.00, 0.00, -0.00, -1.00, 123.4, 183.1)"> </text><text xml:space="preserve" font-family="Courier,Courier" font-size="24.0" fill="#FEFFFF" transform="matrix(1.00, 0.00, -0.00, -1.00, 137.8, 183.1)"> </text><text xml:space="preserve" font-family="Courier,Courier" font-size="24.0" fill="#FEFFFF" transform="matrix(1.00, 0.00, -0.00, -1.00, 152.3, 183.1)">f</text><text xml:space="preserve" font-family="Courier,Courier" font-size="24.0" fill="#FEFFFF" transform="matrix(1.00, 0.00, -0.00, -1.00, 166.7, 183.1)">i</text><text xml:space="preserve" font-family="Courier,Courier" font-size="24.0" fill="#FEFFFF" transform="matrix(1.00, 0.00, -0.00, -1.00, 181.1, 183.1)">l</text><text xml:space="preserve" font-family="Courier,Courier" font-size="24.0" fill="#FEFFFF" transform="matrix(1.00, 0.00, -0.00, -1.00, 195.5, 183.1)">e</text><text xml:space="preserve" font-family="Courier,Courier" font-size="24.0" fill="#FEFFFF" transform="matrix(1.00, 0.00, -0.00, -1.00, 209.9, 183.1)">n</text><text xml:space="preserve" font-family="Courier,Courier" font-size="24.0" fill="#FEFFFF" transform="matrix(1.00, 0.00, -0.00, -1.00, 224.3, 183.1)">a</text><text xml:space="preserve" font-family="Courier,Courier" font-size="24.0" fill="#FEFFFF" transform="matrix(1.00, 0.00, -0.00, -1.00, 238.7, 183.1)">m</text><text xml:space="preserve" font-family="Courier,Courier" font-size="24.0" fill="#FEFFFF" transform="matrix(1.00, 0.00, -0.00, -1.00, 253.1, 183.1)">e</text><text xml:space="preserve" font-family="Courier,Courier" font-size="24.0" fill="#FEFFFF" transform="matrix(1.00, 0.00, -0.00, -1.00, 267.5, 183.1)"> </text><text xml:space="preserve" font-family="Courier,Courier" font-size="24.0" fill="#FEFFFF" transform="matrix(1.00, 0.00, -0.00, -1.00, 281.9, 183.1)">:</text><text xml:space="preserve" font-family="Courier,Courier" font-size="24.0" fill="#FEFFFF" transform="matrix(1.00, 0.00, -0.00, -1.00, 296.3, 183.1)"> </text><text xml:space="preserve" font-family="Courier,Courier" font-size="24.0" fill="#FEFFFF" transform="matrix(1.00, 0.00, -0.00, -1.00, 310.7, 183.1)">'</text><text xml:space="preserve" font-family="Courier,Courier" font-size="24.0" fill="#FEFFFF" transform="matrix(1.00, 0.00, -0.00, -1.00, 325.1, 183.1)">[</text><text xml:space="preserve" font-family="Courier,Courier" font-size="24.0" fill="#FEFFFF" transform="matrix(1.00, 0.00, -0.00, -1.00, 339.5, 183.1)">n</text><text xml:space="preserve" font-family="Courier,Courier" font-size="24.0" fill="#FEFFFF" transform="matrix(1.00, 0.00, -0.00, -1.00, 353.9, 183.1)">a</text><text xml:space="preserve" font-family="Courier,Courier" font-size="24.0" fill="#FEFFFF" transform="matrix(1.00, 0.00, -0.00, -1.00, 368.3, 183.1)">m</text><text xml:space="preserve" font-family="Courier,Courier" font-size="24.0" fill="#FEFFFF" transform="matrix(1.00, 0.00, -0.00, -1.00, 382.7, 183.1)">e</text><text xml:space="preserve" font-family="Courier,Courier" font-size="24.0" fill="#FEFFFF" transform="matrix(1.00, 0.00, -0.00, -1.00, 397.1, 183.1)">]</text><text xml:space="preserve" font-family="Courier,Courier" font-size="24.0" fill="#FEFFFF" transform="matrix(1.00, 0.00, -0.00, -1.00, 411.5, 183.1)">.</text><text xml:space="preserve" font-family="Courier,Courier" font-size="24.0" fill="#FEFFFF" transform="matrix(1.00, 0.00, -0.00, -1.00, 425.9, 183.1)">j</text><text xml:space="preserve" font-family="Courier,Courier" font-size="24.0" fill="#FEFFFF" transform="matrix(1.00, 0.00, -0.00, -1.00, 440.3, 183.1)">s</text><text xml:space="preserve" font-family="Courier,Courier" font-size="24.0" fill="#FEFFFF" transform="matrix(1.00, 0.00, -0.00, -1.00, 454.8, 183.1)">'</text><text xml:space="preserve" font-family="Courier,Courier" font-size="24.0" fill="#FEFFFF" transform="matrix(1.00, 0.00, -0.00, -1.00, 94.6, 154.1)"> </text><text xml:space="preserve" font-family="Courier,Courier" font-size="24.0" fill="#FEFFFF" transform="matrix(1.00, 0.00, -0.00, -1.00, 109.0, 154.1)"> </text><text xml:space="preserve" font-family="Courier,Courier" font-size="24.0" fill="#FEFFFF" transform="matrix(1.00, 0.00, -0.00, -1.00, 123.4, 154.1)">}</text><text xml:space="preserve" font-family="Courier,Courier" font-size="24.0" fill="#FEFFFF" transform="matrix(1.00, 0.00, -0.00, -1.00, 94.6, 125.1)">}</text><text xml:space="preserve" font-family="Courier,Courier" font-size="24.0" fill="#FEFFFF" transform="matrix(1.00, 0.00, -0.00, -1.00, 109.0, 125.1)">,</text><text xml:space="preserve" font-family="Courier,Courier" font-size="24.0" fill="#FEFFFF" transform="matrix(1.00, 0.00, -0.00, -1.00, 123.4, 125.1)"> </text><text xml:space="preserve" font-family="Courier,Courier" font-size="24.0" fill="#FEFFFF" transform="matrix(1.00, 0.00, -0.00, -1.00, 137.8, 125.1)">{</text><text xml:space="preserve" font-family="Courier,Courier" font-size="24.0" fill="#FEFFFF" transform="matrix(1.00, 0.00, -0.00, -1.00, 94.6, 96.1)"> </text><text xml:space="preserve" font-family="Courier,Courier" font-size="24.0" fill="#FEFFFF" transform="matrix(1.00, 0.00, -0.00, -1.00, 109.0, 96.1)"> </text><text xml:space="preserve" font-family="Courier,Courier" font-size="24.0" fill="#FEFFFF" transform="matrix(1.00, 0.00, -0.00, -1.00, 123.4, 96.1)">p</text><text xml:space="preserve" font-family="Courier,Courier" font-size="24.0" fill="#FEFFFF" transform="matrix(1.00, 0.00, -0.00, -1.00, 137.8, 96.1)">r</text><text xml:space="preserve" font-family="Courier,Courier" font-size="24.0" fill="#FEFFFF" transform="matrix(1.00, 0.00, -0.00, -1.00, 152.3, 96.1)">o</text><text xml:space="preserve" font-family="Courier,Courier" font-size="24.0" fill="#FEFFFF" transform="matrix(1.00, 0.00, -0.00, -1.00, 166.7, 96.1)">d</text><text xml:space="preserve" font-family="Courier,Courier" font-size="24.0" fill="#FEFFFF" transform="matrix(1.00, 0.00, -0.00, -1.00, 181.1, 96.1)">u</text><text xml:space="preserve" font-family="Courier,Courier" font-size="24.0" fill="#FEFFFF" transform="matrix(1.00, 0.00, -0.00, -1.00, 195.5, 96.1)">c</text><text xml:space="preserve" font-family="Courier,Courier" font-size="24.0" fill="#FEFFFF" transform="matrix(1.00, 0.00, -0.00, -1.00, 209.9, 96.1)">t</text><text xml:space="preserve" font-family="Courier,Courier" font-size="24.0" fill="#FEFFFF" transform="matrix(1.00, 0.00, -0.00, -1.00, 224.3, 96.1)">i</text><text xml:space="preserve" font-family="Courier,Courier" font-size="24.0" fill="#FEFFFF" transform="matrix(1.00, 0.00, -0.00, -1.00, 238.7, 96.1)">o</text><text xml:space="preserve" font-family="Courier,Courier" font-size="24.0" fill="#FEFFFF" transform="matrix(1.00, 0.00, -0.00, -1.00, 253.1, 96.1)">n</text><text xml:space="preserve" font-family="Courier,Courier" font-size="24.0" fill="#FEFFFF" transform="matrix(1.00, 0.00, -0.00, -1.00, 267.5, 96.1)"> </text><text xml:space="preserve" font-family="Courier,Courier" font-size="24.0" fill="#FEFFFF" transform="matrix(1.00, 0.00, -0.00, -1.00, 281.9, 96.1)">:</text><text xml:space="preserve" font-family="Courier,Courier" font-size="24.0" fill="#FEFFFF" transform="matrix(1.00, 0.00, -0.00, -1.00, 296.3, 96.1)"> </text><text xml:space="preserve" font-family="Courier,Courier" font-size="24.0" fill="#FEFFFF" transform="matrix(1.00, 0.00, -0.00, -1.00, 310.7, 96.1)">t</text><text xml:space="preserve" font-family="Courier,Courier" font-size="24.0" fill="#FEFFFF" transform="matrix(1.00, 0.00, -0.00, -1.00, 325.1, 96.1)">r</text><text xml:space="preserve" font-family="Courier,Courier" font-size="24.0" fill="#FEFFFF" transform="matrix(1.00, 0.00, -0.00, -1.00, 339.5, 96.1)">u</text><text xml:space="preserve" font-family="Courier,Courier" font-size="24.0" fill="#FEFFFF" transform="matrix(1.00, 0.00, -0.00, -1.00, 353.9, 96.1)">e</text><text xml:space="preserve" font-family="Courier,Courier" font-size="24.0" fill="#FEFFFF" transform="matrix(1.00, 0.00, -0.00, -1.00, 368.3, 96.1)">,</text><text xml:space="preserve" font-family="Courier,Courier" font-size="24.0" fill="#FEFFFF" transform="matrix(1.00, 0.00, -0.00, -1.00, 94.6, 67.1)"> </text><text xml:space="preserve" font-family="Courier,Courier" font-size="24.0" fill="#FEFFFF" transform="matrix(1.00, 0.00, -0.00, -1.00, 109.0, 67.1)"> </text><text xml:space="preserve" font-family="Courier,Courier" font-size="24.0" fill="#FEFFFF" transform="matrix(1.00, 0.00, -0.00, -1.00, 123.4, 67.1)">h</text><text xml:space="preserve" font-family="Courier,Courier" font-size="24.0" fill="#FEFFFF" transform="matrix(1.00, 0.00, -0.00, -1.00, 137.8, 67.1)">o</text><text xml:space="preserve" font-family="Courier,Courier" font-size="24.0" fill="#FEFFFF" transform="matrix(1.00, 0.00, -0.00, -1.00, 152.3, 67.1)">t</text><text xml:space="preserve" font-family="Courier,Courier" font-size="24.0" fill="#FEFFFF" transform="matrix(1.00, 0.00, -0.00, -1.00, 166.7, 67.1)"> </text><text xml:space="preserve" font-family="Courier,Courier" font-size="24.0" fill="#FEFFFF" transform="matrix(1.00, 0.00, -0.00, -1.00, 181.1, 67.1)"> </text><text xml:space="preserve" font-family="Courier,Courier" font-size="24.0" fill="#FEFFFF" transform="matrix(1.00, 0.00, -0.00, -1.00, 195.5, 67.1)"> </text><text xml:space="preserve" font-family="Courier,Courier" font-size="24.0" fill="#FEFFFF" transform="matrix(1.00, 0.00, -0.00, -1.00, 209.9, 67.1)"> </text><text xml:space="preserve" font-family="Courier,Courier" font-size="24.0" fill="#FEFFFF" transform="matrix(1.00, 0.00, -0.00, -1.00, 224.3, 67.1)"> </text><text xml:space="preserve" font-family="Courier,Courier" font-size="24.0" fill="#FEFFFF" transform="matrix(1.00, 0.00, -0.00, -1.00, 238.7, 67.1)"> </text><text xml:space="preserve" font-family="Courier,Courier" font-size="24.0" fill="#FEFFFF" transform="matrix(1.00, 0.00, -0.00, -1.00, 253.1, 67.1)"> </text><text xml:space="preserve" font-family="Courier,Courier" font-size="24.0" fill="#FEFFFF" transform="matrix(1.00, 0.00, -0.00, -1.00, 267.5, 67.1)"> </text><text xml:space="preserve" font-family="Courier,Courier" font-size="24.0" fill="#FEFFFF" transform="matrix(1.00, 0.00, -0.00, -1.00, 281.9, 67.1)">:</text><text xml:space="preserve" font-family="Courier,Courier" font-size="24.0" fill="#FEFFFF" transform="matrix(1.00, 0.00, -0.00, -1.00, 296.3, 67.1)"> </text><text xml:space="preserve" font-family="Courier,Courier" font-size="24.0" fill="#FEFFFF" transform="matrix(1.00, 0.00, -0.00, -1.00, 310.7, 67.1)">f</text><text xml:space="preserve" font-family="Courier,Courier" font-size="24.0" fill="#FEFFFF" transform="matrix(1.00, 0.00, -0.00, -1.00, 325.1, 67.1)">a</text><text xml:space="preserve" font-family="Courier,Courier" font-size="24.0" fill="#FEFFFF" transform="matrix(1.00, 0.00, -0.00, -1.00, 339.5, 67.1)">l</text><text xml:space="preserve" font-family="Courier,Courier" font-size="24.0" fill="#FEFFFF" transform="matrix(1.00, 0.00, -0.00, -1.00, 353.9, 67.1)">s</text><text xml:space="preserve" font-family="Courier,Courier" font-size="24.0" fill="#FEFFFF" transform="matrix(1.00, 0.00, -0.00, -1.00, 368.3, 67.1)">e</text><text xml:space="preserve" font-family="Courier,Courier" font-size="24.0" fill="#FEFFFF" transform="matrix(1.00, 0.00, -0.00, -1.00, 94.6, 38.1)">}</text><text xml:space="preserve" font-family="Courier,Courier" font-size="24.0" fill="#FEFFFF" transform="matrix(1.00, 0.00, -0.00, -1.00, 109.0, 38.1)">)</text><text xml:space="preserve" font-family="Courier,Courier" font-size="24.0" fill="#FEFFFF" transform="matrix(1.00, 0.00, -0.00, -1.00, 123.4, 38.1)">;</text><text xml:space="preserve" font-family="Helvetica-Light,Helvetica" font-size="36.0" fill="#FEFFFF" transform="matrix(1.00, 0.00, -0.00, -1.00, 266.3, 421.2)">.</text><text xml:space="preserve" font-family="Helvetica-Light,Helvetica" font-size="36.0" fill="#FEFFFF" transform="matrix(1.00, 0.00, -0.00, -1.00, 276.3, 421.2)">j</text><text xml:space="preserve" font-family="Helvetica-Light,Helvetica" font-size="36.0" fill="#FEFFFF" transform="matrix(1.00, 0.00, -0.00, -1.00, 284.3, 421.2)">s</text><text xml:space="preserve" font-family="Helvetica-Light,Helvetica" font-size="36.0" fill="#FEFFFF" transform="matrix(1.00, 0.00, -0.00, -1.00, 302.3, 421.2)">x</text><text xml:space="preserve" font-family="Helvetica-Light,Helvetica" font-size="36.0" fill="#FEFFFF" transform="matrix(1.00, 0.00, -0.00, -1.00, 320.3, 421.2)">,</text><text xml:space="preserve" font-family="Helvetica-Light,Helvetica" font-size="36.0" fill="#FEFFFF" transform="matrix(1.00, 0.00, -0.00, -1.00, 330.3, 421.2)"> </text><text xml:space="preserve" font-family="Helvetica-Light,Helvetica" font-size="36.0" fill="#FEFFFF" transform="matrix(1.00, 0.00, -0.00, -1.00, 340.3, 421.2)">.</text><text xml:space="preserve" font-family="Helvetica-Light,Helvetica" font-size="36.0" fill="#FEFFFF" transform="matrix(1.00, 0.00, -0.00, -1.00, 350.3, 421.2)">e</text><text xml:space="preserve" font-family="Helvetica-Light,Helvetica" font-size="36.0" fill="#FEFFFF" transform="matrix(1.00, 0.00, -0.00, -1.00, 370.4, 421.2)">s</text><text xml:space="preserve" font-family="Helvetica-Light,Helvetica" font-size="36.0" fill="#FEFFFF" transform="matrix(1.00, 0.00, -0.00, -1.00, 388.4, 421.2)">6</text><text xml:space="preserve" font-family="Helvetica-Light,Helvetica" font-size="36.0" fill="#FEFFFF" transform="matrix(1.00, 0.00, -0.00, -1.00, 408.4, 421.2)">.</text><text xml:space="preserve" font-family="Helvetica-Light,Helvetica" font-size="36.0" fill="#FEFFFF" transform="matrix(1.00, 0.00, -0.00, -1.00, 418.4, 421.2)">j</text><text xml:space="preserve" font-family="Helvetica-Light,Helvetica" font-size="36.0" fill="#FEFFFF" transform="matrix(1.00, 0.00, -0.00, -1.00, 426.4, 421.2)">s</text><text xml:space="preserve" font-family="Helvetica-Light,Helvetica" font-size="36.0" fill="#FEFFFF" transform="matrix(1.00, 0.00, -0.00, -1.00, 444.4, 421.2)">,</text><text xml:space="preserve" font-family="Helvetica-Light,Helvetica" font-size="36.0" fill="#FEFFFF" transform="matrix(1.00, 0.00, -0.00, -1.00, 454.4, 421.2)"> </text><text xml:space="preserve" font-family="Helvetica-Light,Helvetica" font-size="36.0" fill="#FEFFFF" transform="matrix(1.00, 0.00, -0.00, -1.00, 464.4, 421.2)">.</text><text xml:space="preserve" font-family="Helvetica-Light,Helvetica" font-size="36.0" fill="#FEFFFF" transform="matrix(1.00, 0.00, -0.00, -1.00, 474.4, 421.2)">j</text><text xml:space="preserve" font-family="Helvetica-Light,Helvetica" font-size="36.0" fill="#FEFFFF" transform="matrix(1.00, 0.00, -0.00, -1.00, 482.4, 421.2)">s</text><text xml:space="preserve" font-family="Helvetica-Light,Helvetica" font-size="36.0" fill="#FEFFFF" transform="matrix(1.00, 0.00, -0.00, -1.00, 500.4, 421.2)">o</text><text xml:space="preserve" font-family="Helvetica-Light,Helvetica" font-size="36.0" fill="#FEFFFF" transform="matrix(1.00, 0.00, -0.00, -1.00, 520.4, 421.2)">n</text><text xml:space="preserve" font-family="Helvetica-Light,Helvetica" font-size="36.0" fill="#FEFFFF" transform="matrix(1.00, 0.00, -0.00, -1.00, 540.4, 421.2)">,</text><text xml:space="preserve" font-family="Helvetica-Light,Helvetica" font-size="36.0" fill="#FEFFFF" transform="matrix(1.00, 0.00, -0.00, -1.00, 550.4, 421.2)"> </text><text xml:space="preserve" font-family="Helvetica-Light,Helvetica" font-size="36.0" fill="#FEFFFF" transform="matrix(1.00, 0.00, -0.00, -1.00, 560.4, 421.2)">.</text><text xml:space="preserve" font-family="Helvetica-Light,Helvetica" font-size="36.0" fill="#FEFFFF" transform="matrix(1.00, 0.00, -0.00, -1.00, 570.4, 421.2)">l</text><text xml:space="preserve" font-family="Helvetica-Light,Helvetica" font-size="36.0" fill="#FEFFFF" transform="matrix(1.00, 0.00, -0.00, -1.00, 578.4, 421.2)">e</text><text xml:space="preserve" font-family="Helvetica-Light,Helvetica" font-size="36.0" fill="#FEFFFF" transform="matrix(1.00, 0.00, -0.00, -1.00, 598.5, 421.2)">s</text><text xml:space="preserve" font-family="Helvetica-Light,Helvetica" font-size="36.0" fill="#FEFFFF" transform="matrix(1.00, 0.00, -0.00, -1.00, 616.5, 421.2)">s</text><text xml:space="preserve" font-family="Helvetica-Light,Helvetica" font-size="36.0" fill="#FEFFFF" transform="matrix(1.00, 0.00, -0.00, -1.00, 634.5, 421.2)">,</text><text xml:space="preserve" font-family="Helvetica-Light,Helvetica" font-size="36.0" fill="#FEFFFF" transform="matrix(1.00, 0.00, -0.00, -1.00, 644.5, 421.2)"> </text><text xml:space="preserve" font-family="Helvetica-Light,Helvetica" font-size="36.0" fill="#FEFFFF" transform="matrix(1.00, 0.00, -0.00, -1.00, 654.5, 421.2)">.</text><text xml:space="preserve" font-family="Helvetica-Light,Helvetica" font-size="36.0" fill="#FEFFFF" transform="matrix(1.00, 0.00, -0.00, -1.00, 664.5, 421.2)">s</text><text xml:space="preserve" font-family="Helvetica-Light,Helvetica" font-size="36.0" fill="#FEFFFF" transform="matrix(1.00, 0.00, -0.00, -1.00, 682.5, 421.2)">v</text><text xml:space="preserve" font-family="Helvetica-Light,Helvetica" font-size="36.0" fill="#FEFFFF" transform="matrix(1.00, 0.00, -0.00, -1.00, 700.5, 421.2)">g</text><g><clipPath id="clip0x618000ca23a0"><path d="M 50.1 493.6 L 170.9 493.6 L 170.9 614.4 L 50.1 614.4 Z M 50.1 493.6 "></path></clipPath><g clip-path="url(#clip0x618000ca23a0)"><image xlink:href="../../135448C5-18A8-46F1-A4B2-FF6662570182/assets/46826B175B2B8CAD9F477211393F99B9.png" width="400.00" height="400.00" transform="matrix(0.30, 0.00, -0.00, -0.30, 50.0, 614.0)"></image></g></g><g><clipPath id="clip0x610000ca8ee0"><path d="M 398.2 496.8 L 644.5 496.8 L 644.5 608.7 L 398.2 608.7 Z M 398.2 496.8 "></path></clipPath><g clip-path="url(#clip0x610000ca8ee0)"><image xlink:href="../../135448C5-18A8-46F1-A4B2-FF6662570182/assets/AC45BBBF57FFED526717BF3D6609E884.png" width="3276.00" height="1488.00" transform="matrix(0.08, 0.00, -0.00, -0.08, 398.0, 609.0)"></image></g></g><g><clipPath id="clip0x618000ca7da0"><path d="M 170.4 528.0 L 341.5 528.0 L 341.5 585.6 L 170.4 585.6 Z M 170.4 528.0 "></path></clipPath><g clip-path="url(#clip0x618000ca7da0)"><image xlink:href="../../135448C5-18A8-46F1-A4B2-FF6662570182/assets/843969CBC39CA01CD93607087B2D7AB4.png" width="585.00" height="197.00" transform="matrix(0.29, 0.00, -0.00, -0.29, 170.0, 586.0)"></image></g></g><g><clipPath id="clip0x618000cb21e0"><path d="M 675.6 526.5 L 978.8 526.5 L 978.8 587.5 L 675.6 587.5 Z M 675.6 526.5 "></path></clipPath><g clip-path="url(#clip0x618000cb21e0)"><text xml:space="preserve" font-family="Helvetica-Light,Helvetica" font-size="36.0" fill="#FEFFFF" transform="matrix(1.00, 0.00, -0.00, -1.00, 685.1, 543.7)">R</text><text xml:space="preserve" font-family="Helvetica-Light,Helvetica" font-size="36.0" fill="#FEFFFF" transform="matrix(1.00, 0.00, -0.00, -1.00, 709.1, 543.7)">e</text><text xml:space="preserve" font-family="Helvetica-Light,Helvetica" font-size="36.0" fill="#FEFFFF" transform="matrix(1.00, 0.00, -0.00, -1.00, 729.2, 543.7)">a</text><text xml:space="preserve" font-family="Helvetica-Light,Helvetica" font-size="36.0" fill="#FEFFFF" transform="matrix(1.00, 0.00, -0.00, -1.00, 749.2, 543.7)">c</text><text xml:space="preserve" font-family="Helvetica-Light,Helvetica" font-size="36.0" fill="#FEFFFF" transform="matrix(1.00, 0.00, -0.00, -1.00, 769.2, 543.7)">t</text><text xml:space="preserve" font-family="Helvetica-Light,Helvetica" font-size="36.0" fill="#FEFFFF" transform="matrix(1.00, 0.00, -0.00, -1.00, 779.2, 543.7)"> </text><text xml:space="preserve" font-family="Helvetica-Light,Helvetica" font-size="36.0" fill="#FEFFFF" transform="matrix(1.00, 0.00, -0.00, -1.00, 789.2, 543.7)">H</text><text xml:space="preserve" font-family="Helvetica-Light,Helvetica" font-size="36.0" fill="#FEFFFF" transform="matrix(1.00, 0.00, -0.00, -1.00, 815.2, 543.7)">o</text><text xml:space="preserve" font-family="Helvetica-Light,Helvetica" font-size="36.0" fill="#FEFFFF" transform="matrix(1.00, 0.00, -0.00, -1.00, 835.2, 543.7)">t</text><text xml:space="preserve" font-family="Helvetica-Light,Helvetica" font-size="36.0" fill="#FEFFFF" transform="matrix(1.00, 0.00, -0.00, -1.00, 845.2, 543.7)"> </text><text xml:space="preserve" font-family="Helvetica-Light,Helvetica" font-size="36.0" fill="#FEFFFF" transform="matrix(1.00, 0.00, -0.00, -1.00, 855.2, 543.7)">L</text><text xml:space="preserve" font-family="Helvetica-Light,Helvetica" font-size="36.0" fill="#FEFFFF" transform="matrix(1.00, 0.00, -0.00, -1.00, 875.2, 543.7)">o</text><text xml:space="preserve" font-family="Helvetica-Light,Helvetica" font-size="36.0" fill="#FEFFFF" transform="matrix(1.00, 0.00, -0.00, -1.00, 895.3, 543.7)">a</text><text xml:space="preserve" font-family="Helvetica-Light,Helvetica" font-size="36.0" fill="#FEFFFF" transform="matrix(1.00, 0.00, -0.00, -1.00, 915.3, 543.7)">d</text><text xml:space="preserve" font-family="Helvetica-Light,Helvetica" font-size="36.0" fill="#FEFFFF" transform="matrix(1.00, 0.00, -0.00, -1.00, 937.3, 543.7)">e</text><text xml:space="preserve" font-family="Helvetica-Light,Helvetica" font-size="36.0" fill="#FEFFFF" transform="matrix(1.00, 0.00, -0.00, -1.00, 957.3, 543.7)">r</text></g></g></g></svg>