<?xml version="1.0" encoding="UTF-8" standalone="no"?><svg xmlns="http://www.w3.org/2000/svg" xmlns:xlink="http://www.w3.org/1999/xlink" clip-rule="evenodd" stroke-miterlimit="10" viewBox="0 0 1024 768"><desc>SVG generated by Keynote</desc><defs></defs><g transform="matrix(1.00, 0.00, -0.00, -1.00, 0.0, 768.0)"><path d="M 0.0 768.0 L 1024.0 768.0 L 1024.0 0.0 L 0.0 0.0 Z M 0.0 768.0 " fill="#000000"></path><text xml:space="preserve" font-family="Helvetica-Light,Helvetica" font-size="80.0" fill="#FEFFFF" transform="matrix(1.00, 0.00, -0.00, -1.00, 244.6, 633.4)">T</text><text xml:space="preserve" font-family="Helvetica-Light,Helvetica" font-size="80.0" fill="#FEFFFF" transform="matrix(1.00, 0.00, -0.00, -1.00, 289.0, 633.4)">h</text><text xml:space="preserve" font-family="Helvetica-Light,Helvetica" font-size="80.0" fill="#FEFFFF" transform="matrix(1.00, 0.00, -0.00, -1.00, 333.5, 633.4)">e</text><text xml:space="preserve" font-family="Helvetica-Light,Helvetica" font-size="80.0" fill="#FEFFFF" transform="matrix(1.00, 0.00, -0.00, -1.00, 378.0, 633.4)">m</text><text xml:space="preserve" font-family="Helvetica-Light,Helvetica" font-size="80.0" fill="#FEFFFF" transform="matrix(1.00, 0.00, -0.00, -1.00, 444.6, 633.4)">e</text><text xml:space="preserve" font-family="Helvetica-Light,Helvetica" font-size="80.0" fill="#FEFFFF" transform="matrix(1.00, 0.00, -0.00, -1.00, 489.1, 633.4)"> </text><text xml:space="preserve" font-family="Helvetica-Light,Helvetica" font-size="80.0" fill="#FEFFFF" transform="matrix(1.00, 0.00, -0.00, -1.00, 511.4, 633.4)">i</text><text xml:space="preserve" font-family="Helvetica-Light,Helvetica" font-size="80.0" fill="#FEFFFF" transform="matrix(1.00, 0.00, -0.00, -1.00, 529.1, 633.4)">m</text><text xml:space="preserve" font-family="Helvetica-Light,Helvetica" font-size="80.0" fill="#FEFFFF" transform="matrix(1.00, 0.00, -0.00, -1.00, 595.8, 633.4)">p</text><text xml:space="preserve" font-family="Helvetica-Light,Helvetica" font-size="80.0" fill="#FEFFFF" transform="matrix(1.00, 0.00, -0.00, -1.00, 644.6, 633.4)">o</text><text xml:space="preserve" font-family="Helvetica-Light,Helvetica" font-size="80.0" fill="#FEFFFF" transform="matrix(1.00, 0.00, -0.00, -1.00, 689.1, 633.4)">r</text><text xml:space="preserve" font-family="Helvetica-Light,Helvetica" font-size="80.0" fill="#FEFFFF" transform="matrix(1.00, 0.00, -0.00, -1.00, 717.2, 633.4)">t</text><text xml:space="preserve" font-family="Helvetica-Light,Helvetica" font-size="80.0" fill="#FEFFFF" transform="matrix(1.00, 0.00, -0.00, -1.00, 739.4, 633.4)">s</text><text xml:space="preserve" font-family="Courier,Courier" font-size="36.0" fill="#FEFFFF" transform="matrix(1.00, 0.00, -0.00, -1.00, 60.4, 470.0)">i</text><text xml:space="preserve" font-family="Courier,Courier" font-size="36.0" fill="#FEFFFF" transform="matrix(1.00, 0.00, -0.00, -1.00, 82.0, 470.0)">m</text><text xml:space="preserve" font-family="Courier,Courier" font-size="36.0" fill="#FEFFFF" transform="matrix(1.00, 0.00, -0.00, -1.00, 103.6, 470.0)">p</text><text xml:space="preserve" font-family="Courier,Courier" font-size="36.0" fill="#FEFFFF" transform="matrix(1.00, 0.00, -0.00, -1.00, 125.2, 470.0)">o</text><text xml:space="preserve" font-family="Courier,Courier" font-size="36.0" fill="#FEFFFF" transform="matrix(1.00, 0.00, -0.00, -1.00, 146.8, 470.0)">r</text><text xml:space="preserve" font-family="Courier,Courier" font-size="36.0" fill="#FEFFFF" transform="matrix(1.00, 0.00, -0.00, -1.00, 168.4, 470.0)">t</text><text xml:space="preserve" font-family="Courier,Courier" font-size="36.0" fill="#FEFFFF" transform="matrix(1.00, 0.00, -0.00, -1.00, 190.0, 470.0)"> </text><text xml:space="preserve" font-family="Courier,Courier" font-size="36.0" fill="#FEFFFF" transform="matrix(1.00, 0.00, -0.00, -1.00, 211.6, 470.0)">{</text><text xml:space="preserve" font-family="Courier,Courier" font-size="36.0" fill="#00F900" transform="matrix(1.00, 0.00, -0.00, -1.00, 233.2, 470.0)">C</text><text xml:space="preserve" font-family="Courier,Courier" font-size="36.0" fill="#00F900" transform="matrix(1.00, 0.00, -0.00, -1.00, 254.8, 470.0)">O</text><text xml:space="preserve" font-family="Courier,Courier" font-size="36.0" fill="#00F900" transform="matrix(1.00, 0.00, -0.00, -1.00, 276.4, 470.0)">L</text><text xml:space="preserve" font-family="Courier,Courier" font-size="36.0" fill="#00F900" transform="matrix(1.00, 0.00, -0.00, -1.00, 298.0, 470.0)">O</text><text xml:space="preserve" font-family="Courier,Courier" font-size="36.0" fill="#00F900" transform="matrix(1.00, 0.00, -0.00, -1.00, 319.6, 470.0)">R</text><text xml:space="preserve" font-family="Courier,Courier" font-size="36.0" fill="#00F900" transform="matrix(1.00, 0.00, -0.00, -1.00, 341.2, 470.0)">_</text><text xml:space="preserve" font-family="Courier,Courier" font-size="36.0" fill="#00F900" transform="matrix(1.00, 0.00, -0.00, -1.00, 362.8, 470.0)">N</text><text xml:space="preserve" font-family="Courier,Courier" font-size="36.0" fill="#00F900" transform="matrix(1.00, 0.00, -0.00, -1.00, 384.4, 470.0)">E</text><text xml:space="preserve" font-family="Courier,Courier" font-size="36.0" fill="#00F900" transform="matrix(1.00, 0.00, -0.00, -1.00, 406.1, 470.0)">U</text><text xml:space="preserve" font-family="Courier,Courier" font-size="36.0" fill="#00F900" transform="matrix(1.00, 0.00, -0.00, -1.00, 427.7, 470.0)">T</text><text xml:space="preserve" font-family="Courier,Courier" font-size="36.0" fill="#00F900" transform="matrix(1.00, 0.00, -0.00, -1.00, 449.3, 470.0)">R</text><text xml:space="preserve" font-family="Courier,Courier" font-size="36.0" fill="#00F900" transform="matrix(1.00, 0.00, -0.00, -1.00, 470.9, 470.0)">A</text><text xml:space="preserve" font-family="Courier,Courier" font-size="36.0" fill="#00F900" transform="matrix(1.00, 0.00, -0.00, -1.00, 492.5, 470.0)">L</text><text xml:space="preserve" font-family="Courier,Courier" font-size="36.0" fill="#FEFFFF" transform="matrix(1.00, 0.00, -0.00, -1.00, 514.0, 470.0)">}</text><text xml:space="preserve" font-family="Courier,Courier" font-size="36.0" fill="#FEFFFF" transform="matrix(1.00, 0.00, -0.00, -1.00, 535.6, 470.0)"> </text><text xml:space="preserve" font-family="Courier,Courier" font-size="36.0" fill="#FEFFFF" transform="matrix(1.00, 0.00, -0.00, -1.00, 557.3, 470.0)">f</text><text xml:space="preserve" font-family="Courier,Courier" font-size="36.0" fill="#FEFFFF" transform="matrix(1.00, 0.00, -0.00, -1.00, 578.9, 470.0)">r</text><text xml:space="preserve" font-family="Courier,Courier" font-size="36.0" fill="#FEFFFF" transform="matrix(1.00, 0.00, -0.00, -1.00, 600.5, 470.0)">o</text><text xml:space="preserve" font-family="Courier,Courier" font-size="36.0" fill="#FEFFFF" transform="matrix(1.00, 0.00, -0.00, -1.00, 622.1, 470.0)">m</text><text xml:space="preserve" font-family="Courier,Courier" font-size="36.0" fill="#FEFFFF" transform="matrix(1.00, 0.00, -0.00, -1.00, 643.7, 470.0)"> </text><text xml:space="preserve" font-family="Courier,Courier" font-size="36.0" fill="#FEFFFF" transform="matrix(1.00, 0.00, -0.00, -1.00, 665.3, 470.0)">‘</text><text xml:space="preserve" font-family="Courier,Courier" font-size="36.0" fill="#FEFFFF" transform="matrix(1.00, 0.00, -0.00, -1.00, 686.9, 470.0)">.</text><text xml:space="preserve" font-family="Courier,Courier" font-size="36.0" fill="#FEFFFF" transform="matrix(1.00, 0.00, -0.00, -1.00, 708.5, 470.0)">/</text><text xml:space="preserve" font-family="Courier,Courier" font-size="36.0" fill="#FEFFFF" transform="matrix(1.00, 0.00, -0.00, -1.00, 730.1, 470.0)">t</text><text xml:space="preserve" font-family="Courier,Courier" font-size="36.0" fill="#FEFFFF" transform="matrix(1.00, 0.00, -0.00, -1.00, 751.7, 470.0)">h</text><text xml:space="preserve" font-family="Courier,Courier" font-size="36.0" fill="#FEFFFF" transform="matrix(1.00, 0.00, -0.00, -1.00, 773.3, 470.0)">e</text><text xml:space="preserve" font-family="Courier,Courier" font-size="36.0" fill="#FEFFFF" transform="matrix(1.00, 0.00, -0.00, -1.00, 794.9, 470.0)">m</text><text xml:space="preserve" font-family="Courier,Courier" font-size="36.0" fill="#FEFFFF" transform="matrix(1.00, 0.00, -0.00, -1.00, 816.5, 470.0)">e</text><text xml:space="preserve" font-family="Courier,Courier" font-size="36.0" fill="#FEFFFF" transform="matrix(1.00, 0.00, -0.00, -1.00, 838.1, 470.0)">’</text><text xml:space="preserve" font-family="Courier,Courier" font-size="36.0" fill="#FEFFFF" transform="matrix(1.00, 0.00, -0.00, -1.00, 859.8, 470.0)">;</text><text xml:space="preserve" font-family="Courier,Courier" font-size="36.0" fill="#FEFFFF" transform="matrix(1.00, 0.00, -0.00, -1.00, 60.4, 384.0)">l</text><text xml:space="preserve" font-family="Courier,Courier" font-size="36.0" fill="#FEFFFF" transform="matrix(1.00, 0.00, -0.00, -1.00, 82.0, 384.0)">e</text><text xml:space="preserve" font-family="Courier,Courier" font-size="36.0" fill="#FEFFFF" transform="matrix(1.00, 0.00, -0.00, -1.00, 103.6, 384.0)">t</text><text xml:space="preserve" font-family="Courier,Courier" font-size="36.0" fill="#FEFFFF" transform="matrix(1.00, 0.00, -0.00, -1.00, 125.2, 384.0)"> </text><text xml:space="preserve" font-family="Courier,Courier" font-size="36.0" fill="#FEFFFF" transform="matrix(1.00, 0.00, -0.00, -1.00, 146.8, 384.0)">s</text><text xml:space="preserve" font-family="Courier,Courier" font-size="36.0" fill="#FEFFFF" transform="matrix(1.00, 0.00, -0.00, -1.00, 168.4, 384.0)">t</text><text xml:space="preserve" font-family="Courier,Courier" font-size="36.0" fill="#FEFFFF" transform="matrix(1.00, 0.00, -0.00, -1.00, 190.0, 384.0)">y</text><text xml:space="preserve" font-family="Courier,Courier" font-size="36.0" fill="#FEFFFF" transform="matrix(1.00, 0.00, -0.00, -1.00, 211.6, 384.0)">l</text><text xml:space="preserve" font-family="Courier,Courier" font-size="36.0" fill="#FEFFFF" transform="matrix(1.00, 0.00, -0.00, -1.00, 233.2, 384.0)">e</text><text xml:space="preserve" font-family="Courier,Courier" font-size="36.0" fill="#FEFFFF" transform="matrix(1.00, 0.00, -0.00, -1.00, 254.8, 384.0)">s</text><text xml:space="preserve" font-family="Courier,Courier" font-size="36.0" fill="#FEFFFF" transform="matrix(1.00, 0.00, -0.00, -1.00, 276.4, 384.0)"> </text><text xml:space="preserve" font-family="Courier,Courier" font-size="36.0" fill="#FEFFFF" transform="matrix(1.00, 0.00, -0.00, -1.00, 298.0, 384.0)">=</text><text xml:space="preserve" font-family="Courier,Courier" font-size="36.0" fill="#FEFFFF" transform="matrix(1.00, 0.00, -0.00, -1.00, 319.7, 384.0)"> </text><text xml:space="preserve" font-family="Courier,Courier" font-size="36.0" fill="#FEFFFF" transform="matrix(1.00, 0.00, -0.00, -1.00, 341.3, 384.0)">{</text><text xml:space="preserve" font-family="Courier,Courier" font-size="36.0" fill="#FEFFFF" transform="matrix(1.00, 0.00, -0.00, -1.00, 60.4, 341.0)"> </text><text xml:space="preserve" font-family="Courier,Courier" font-size="36.0" fill="#FEFFFF" transform="matrix(1.00, 0.00, -0.00, -1.00, 82.0, 341.0)"> </text><text xml:space="preserve" font-family="Courier,Courier" font-size="36.0" fill="#FEFFFF" transform="matrix(1.00, 0.00, -0.00, -1.00, 103.6, 341.0)">b</text><text xml:space="preserve" font-family="Courier,Courier" font-size="36.0" fill="#FEFFFF" transform="matrix(1.00, 0.00, -0.00, -1.00, 125.2, 341.0)">a</text><text xml:space="preserve" font-family="Courier,Courier" font-size="36.0" fill="#FEFFFF" transform="matrix(1.00, 0.00, -0.00, -1.00, 146.8, 341.0)">c</text><text xml:space="preserve" font-family="Courier,Courier" font-size="36.0" fill="#FEFFFF" transform="matrix(1.00, 0.00, -0.00, -1.00, 168.4, 341.0)">k</text><text xml:space="preserve" font-family="Courier,Courier" font-size="36.0" fill="#FEFFFF" transform="matrix(1.00, 0.00, -0.00, -1.00, 190.0, 341.0)">g</text><text xml:space="preserve" font-family="Courier,Courier" font-size="36.0" fill="#FEFFFF" transform="matrix(1.00, 0.00, -0.00, -1.00, 211.6, 341.0)">r</text><text xml:space="preserve" font-family="Courier,Courier" font-size="36.0" fill="#FEFFFF" transform="matrix(1.00, 0.00, -0.00, -1.00, 233.2, 341.0)">o</text><text xml:space="preserve" font-family="Courier,Courier" font-size="36.0" fill="#FEFFFF" transform="matrix(1.00, 0.00, -0.00, -1.00, 254.8, 341.0)">u</text><text xml:space="preserve" font-family="Courier,Courier" font-size="36.0" fill="#FEFFFF" transform="matrix(1.00, 0.00, -0.00, -1.00, 276.4, 341.0)">n</text><text xml:space="preserve" font-family="Courier,Courier" font-size="36.0" fill="#FEFFFF" transform="matrix(1.00, 0.00, -0.00, -1.00, 298.0, 341.0)">d</text><text xml:space="preserve" font-family="Courier,Courier" font-size="36.0" fill="#FEFFFF" transform="matrix(1.00, 0.00, -0.00, -1.00, 319.7, 341.0)">C</text><text xml:space="preserve" font-family="Courier,Courier" font-size="36.0" fill="#FEFFFF" transform="matrix(1.00, 0.00, -0.00, -1.00, 341.3, 341.0)">o</text><text xml:space="preserve" font-family="Courier,Courier" font-size="36.0" fill="#FEFFFF" transform="matrix(1.00, 0.00, -0.00, -1.00, 362.9, 341.0)">l</text><text xml:space="preserve" font-family="Courier,Courier" font-size="36.0" fill="#FEFFFF" transform="matrix(1.00, 0.00, -0.00, -1.00, 384.5, 341.0)">o</text><text xml:space="preserve" font-family="Courier,Courier" font-size="36.0" fill="#FEFFFF" transform="matrix(1.00, 0.00, -0.00, -1.00, 406.1, 341.0)">r</text><text xml:space="preserve" font-family="Courier,Courier" font-size="36.0" fill="#FEFFFF" transform="matrix(1.00, 0.00, -0.00, -1.00, 427.7, 341.0)"> </text><text xml:space="preserve" font-family="Courier,Courier" font-size="36.0" fill="#FEFFFF" transform="matrix(1.00, 0.00, -0.00, -1.00, 449.3, 341.0)">:</text><text xml:space="preserve" font-family="Courier,Courier" font-size="36.0" fill="#FEFFFF" transform="matrix(1.00, 0.00, -0.00, -1.00, 470.9, 341.0)"> </text><text xml:space="preserve" font-family="Courier,Courier" font-size="36.0" fill="#00F900" transform="matrix(1.00, 0.00, -0.00, -1.00, 492.4, 341.0)">C</text><text xml:space="preserve" font-family="Courier,Courier" font-size="36.0" fill="#00F900" transform="matrix(1.00, 0.00, -0.00, -1.00, 514.0, 341.0)">O</text><text xml:space="preserve" font-family="Courier,Courier" font-size="36.0" fill="#00F900" transform="matrix(1.00, 0.00, -0.00, -1.00, 535.6, 341.0)">L</text><text xml:space="preserve" font-family="Courier,Courier" font-size="36.0" fill="#00F900" transform="matrix(1.00, 0.00, -0.00, -1.00, 557.3, 341.0)">O</text><text xml:space="preserve" font-family="Courier,Courier" font-size="36.0" fill="#00F900" transform="matrix(1.00, 0.00, -0.00, -1.00, 578.9, 341.0)">R</text><text xml:space="preserve" font-family="Courier,Courier" font-size="36.0" fill="#00F900" transform="matrix(1.00, 0.00, -0.00, -1.00, 600.5, 341.0)">_</text><text xml:space="preserve" font-family="Courier,Courier" font-size="36.0" fill="#00F900" transform="matrix(1.00, 0.00, -0.00, -1.00, 622.1, 341.0)">N</text><text xml:space="preserve" font-family="Courier,Courier" font-size="36.0" fill="#00F900" transform="matrix(1.00, 0.00, -0.00, -1.00, 643.7, 341.0)">E</text><text xml:space="preserve" font-family="Courier,Courier" font-size="36.0" fill="#00F900" transform="matrix(1.00, 0.00, -0.00, -1.00, 665.3, 341.0)">U</text><text xml:space="preserve" font-family="Courier,Courier" font-size="36.0" fill="#00F900" transform="matrix(1.00, 0.00, -0.00, -1.00, 686.9, 341.0)">T</text><text xml:space="preserve" font-family="Courier,Courier" font-size="36.0" fill="#00F900" transform="matrix(1.00, 0.00, -0.00, -1.00, 708.5, 341.0)">R</text><text xml:space="preserve" font-family="Courier,Courier" font-size="36.0" fill="#00F900" transform="matrix(1.00, 0.00, -0.00, -1.00, 730.1, 341.0)">A</text><text xml:space="preserve" font-family="Courier,Courier" font-size="36.0" fill="#00F900" transform="matrix(1.00, 0.00, -0.00, -1.00, 751.7, 341.0)">L</text><text xml:space="preserve" font-family="Courier,Courier" font-size="36.0" fill="#00F900" transform="matrix(1.00, 0.00, -0.00, -1.00, 773.3, 341.0)">[</text><text xml:space="preserve" font-family="Courier,Courier" font-size="36.0" fill="#00F900" transform="matrix(1.00, 0.00, -0.00, -1.00, 794.9, 341.0)">‘</text><text xml:space="preserve" font-family="Courier,Courier" font-size="36.0" fill="#00F900" transform="matrix(1.00, 0.00, -0.00, -1.00, 816.5, 341.0)">5</text><text xml:space="preserve" font-family="Courier,Courier" font-size="36.0" fill="#00F900" transform="matrix(1.00, 0.00, -0.00, -1.00, 838.1, 341.0)">0</text><text xml:space="preserve" font-family="Courier,Courier" font-size="36.0" fill="#00F900" transform="matrix(1.00, 0.00, -0.00, -1.00, 859.8, 341.0)">0</text><text xml:space="preserve" font-family="Courier,Courier" font-size="36.0" fill="#00F900" transform="matrix(1.00, 0.00, -0.00, -1.00, 881.4, 341.0)">’</text><text xml:space="preserve" font-family="Courier,Courier" font-size="36.0" fill="#00F900" transform="matrix(1.00, 0.00, -0.00, -1.00, 903.0, 341.0)">]</text><text xml:space="preserve" font-family="Courier,Courier" font-size="36.0" fill="#FEFFFF" transform="matrix(1.00, 0.00, -0.00, -1.00, 924.5, 341.0)">,</text><text xml:space="preserve" font-family="Courier,Courier" font-size="36.0" fill="#FEFFFF" transform="matrix(1.00, 0.00, -0.00, -1.00, 60.4, 298.0)"> </text><text xml:space="preserve" font-family="Courier,Courier" font-size="36.0" fill="#FEFFFF" transform="matrix(1.00, 0.00, -0.00, -1.00, 82.0, 298.0)"> </text><text xml:space="preserve" font-family="Courier,Courier" font-size="36.0" fill="#FEFFFF" transform="matrix(1.00, 0.00, -0.00, -1.00, 103.6, 298.0)">c</text><text xml:space="preserve" font-family="Courier,Courier" font-size="36.0" fill="#FEFFFF" transform="matrix(1.00, 0.00, -0.00, -1.00, 125.2, 298.0)">o</text><text xml:space="preserve" font-family="Courier,Courier" font-size="36.0" fill="#FEFFFF" transform="matrix(1.00, 0.00, -0.00, -1.00, 146.8, 298.0)">l</text><text xml:space="preserve" font-family="Courier,Courier" font-size="36.0" fill="#FEFFFF" transform="matrix(1.00, 0.00, -0.00, -1.00, 168.4, 298.0)">o</text><text xml:space="preserve" font-family="Courier,Courier" font-size="36.0" fill="#FEFFFF" transform="matrix(1.00, 0.00, -0.00, -1.00, 190.0, 298.0)">r</text><text xml:space="preserve" font-family="Courier,Courier" font-size="36.0" fill="#FEFFFF" transform="matrix(1.00, 0.00, -0.00, -1.00, 211.6, 298.0)"> </text><text xml:space="preserve" font-family="Courier,Courier" font-size="36.0" fill="#FEFFFF" transform="matrix(1.00, 0.00, -0.00, -1.00, 233.2, 298.0)"> </text><text xml:space="preserve" font-family="Courier,Courier" font-size="36.0" fill="#FEFFFF" transform="matrix(1.00, 0.00, -0.00, -1.00, 254.8, 298.0)"> </text><text xml:space="preserve" font-family="Courier,Courier" font-size="36.0" fill="#FEFFFF" transform="matrix(1.00, 0.00, -0.00, -1.00, 276.4, 298.0)"> </text><text xml:space="preserve" font-family="Courier,Courier" font-size="36.0" fill="#FEFFFF" transform="matrix(1.00, 0.00, -0.00, -1.00, 298.0, 298.0)"> </text><text xml:space="preserve" font-family="Courier,Courier" font-size="36.0" fill="#FEFFFF" transform="matrix(1.00, 0.00, -0.00, -1.00, 319.7, 298.0)"> </text><text xml:space="preserve" font-family="Courier,Courier" font-size="36.0" fill="#FEFFFF" transform="matrix(1.00, 0.00, -0.00, -1.00, 341.3, 298.0)"> </text><text xml:space="preserve" font-family="Courier,Courier" font-size="36.0" fill="#FEFFFF" transform="matrix(1.00, 0.00, -0.00, -1.00, 362.9, 298.0)"> </text><text xml:space="preserve" font-family="Courier,Courier" font-size="36.0" fill="#FEFFFF" transform="matrix(1.00, 0.00, -0.00, -1.00, 384.5, 298.0)"> </text><text xml:space="preserve" font-family="Courier,Courier" font-size="36.0" fill="#FEFFFF" transform="matrix(1.00, 0.00, -0.00, -1.00, 406.1, 298.0)"> </text><text xml:space="preserve" font-family="Courier,Courier" font-size="36.0" fill="#FEFFFF" transform="matrix(1.00, 0.00, -0.00, -1.00, 427.7, 298.0)"> </text><text xml:space="preserve" font-family="Courier,Courier" font-size="36.0" fill="#FEFFFF" transform="matrix(1.00, 0.00, -0.00, -1.00, 449.3, 298.0)">:</text><text xml:space="preserve" font-family="Courier,Courier" font-size="36.0" fill="#FEFFFF" transform="matrix(1.00, 0.00, -0.00, -1.00, 470.9, 298.0)"> </text><text xml:space="preserve" font-family="Courier,Courier" font-size="36.0" fill="#00F900" transform="matrix(1.00, 0.00, -0.00, -1.00, 492.4, 298.0)">C</text><text xml:space="preserve" font-family="Courier,Courier" font-size="36.0" fill="#00F900" transform="matrix(1.00, 0.00, -0.00, -1.00, 514.0, 298.0)">O</text><text xml:space="preserve" font-family="Courier,Courier" font-size="36.0" fill="#00F900" transform="matrix(1.00, 0.00, -0.00, -1.00, 535.6, 298.0)">L</text><text xml:space="preserve" font-family="Courier,Courier" font-size="36.0" fill="#00F900" transform="matrix(1.00, 0.00, -0.00, -1.00, 557.3, 298.0)">O</text><text xml:space="preserve" font-family="Courier,Courier" font-size="36.0" fill="#00F900" transform="matrix(1.00, 0.00, -0.00, -1.00, 578.9, 298.0)">R</text><text xml:space="preserve" font-family="Courier,Courier" font-size="36.0" fill="#00F900" transform="matrix(1.00, 0.00, -0.00, -1.00, 600.5, 298.0)">_</text><text xml:space="preserve" font-family="Courier,Courier" font-size="36.0" fill="#00F900" transform="matrix(1.00, 0.00, -0.00, -1.00, 622.1, 298.0)">N</text><text xml:space="preserve" font-family="Courier,Courier" font-size="36.0" fill="#00F900" transform="matrix(1.00, 0.00, -0.00, -1.00, 643.7, 298.0)">E</text><text xml:space="preserve" font-family="Courier,Courier" font-size="36.0" fill="#00F900" transform="matrix(1.00, 0.00, -0.00, -1.00, 665.3, 298.0)">U</text><text xml:space="preserve" font-family="Courier,Courier" font-size="36.0" fill="#00F900" transform="matrix(1.00, 0.00, -0.00, -1.00, 686.9, 298.0)">T</text><text xml:space="preserve" font-family="Courier,Courier" font-size="36.0" fill="#00F900" transform="matrix(1.00, 0.00, -0.00, -1.00, 708.5, 298.0)">R</text><text xml:space="preserve" font-family="Courier,Courier" font-size="36.0" fill="#00F900" transform="matrix(1.00, 0.00, -0.00, -1.00, 730.1, 298.0)">A</text><text xml:space="preserve" font-family="Courier,Courier" font-size="36.0" fill="#00F900" transform="matrix(1.00, 0.00, -0.00, -1.00, 751.7, 298.0)">L</text><text xml:space="preserve" font-family="Courier,Courier" font-size="36.0" fill="#00F900" transform="matrix(1.00, 0.00, -0.00, -1.00, 773.3, 298.0)">[</text><text xml:space="preserve" font-family="Courier,Courier" font-size="36.0" fill="#00F900" transform="matrix(1.00, 0.00, -0.00, -1.00, 794.9, 298.0)">‘</text><text xml:space="preserve" font-family="Courier,Courier" font-size="36.0" fill="#00F900" transform="matrix(1.00, 0.00, -0.00, -1.00, 816.5, 298.0)">5</text><text xml:space="preserve" font-family="Courier,Courier" font-size="36.0" fill="#00F900" transform="matrix(1.00, 0.00, -0.00, -1.00, 838.1, 298.0)">0</text><text xml:space="preserve" font-family="Courier,Courier" font-size="36.0" fill="#00F900" transform="matrix(1.00, 0.00, -0.00, -1.00, 859.8, 298.0)">0</text><text xml:space="preserve" font-family="Courier,Courier" font-size="36.0" fill="#00F900" transform="matrix(1.00, 0.00, -0.00, -1.00, 881.4, 298.0)">c</text><text xml:space="preserve" font-family="Courier,Courier" font-size="36.0" fill="#00F900" transform="matrix(1.00, 0.00, -0.00, -1.00, 903.0, 298.0)">’</text><text xml:space="preserve" font-family="Courier,Courier" font-size="36.0" fill="#00F900" transform="matrix(1.00, 0.00, -0.00, -1.00, 924.6, 298.0)">]</text><text xml:space="preserve" font-family="Courier,Courier" font-size="36.0" fill="#FEFFFF" transform="matrix(1.00, 0.00, -0.00, -1.00, 60.4, 255.0)">}</text><text xml:space="preserve" font-family="Courier,Courier" font-size="36.0" fill="#FEFFFF" transform="matrix(1.00, 0.00, -0.00, -1.00, 82.0, 255.0)">;</text></g></svg>