<?xml version="1.0" encoding="UTF-8" standalone="no"?><svg xmlns="http://www.w3.org/2000/svg" xmlns:xlink="http://www.w3.org/1999/xlink" clip-rule="evenodd" stroke-miterlimit="10" viewBox="0 0 1024 768"><desc>SVG generated by Keynote</desc><defs></defs><g transform="matrix(1.00, 0.00, -0.00, -1.00, 0.0, 768.0)"><path d="M 0.0 768.0 L 1024.0 768.0 L 1024.0 0.0 L 0.0 0.0 Z M 0.0 768.0 " fill="#000000"></path><text xml:space="preserve" font-family="Helvetica-Light,Helvetica" font-size="80.0" fill="#FEFFFF" transform="matrix(1.00, 0.00, -0.00, -1.00, 192.1, 633.4)">W</text><text xml:space="preserve" font-family="Helvetica-Light,Helvetica" font-size="80.0" fill="#FEFFFF" transform="matrix(1.00, 0.00, -0.00, -1.00, 263.2, 633.4)">h</text><text xml:space="preserve" font-family="Helvetica-Light,Helvetica" font-size="80.0" fill="#FEFFFF" transform="matrix(1.00, 0.00, -0.00, -1.00, 307.7, 633.4)">a</text><text xml:space="preserve" font-family="Helvetica-Light,Helvetica" font-size="80.0" fill="#FEFFFF" transform="matrix(1.00, 0.00, -0.00, -1.00, 352.2, 633.4)">t</text><text xml:space="preserve" font-family="Helvetica-Light,Helvetica" font-size="80.0" fill="#FEFFFF" transform="matrix(1.00, 0.00, -0.00, -1.00, 374.4, 633.4)"> </text><text xml:space="preserve" font-family="Helvetica-Light,Helvetica" font-size="80.0" fill="#FEFFFF" transform="matrix(1.00, 0.00, -0.00, -1.00, 396.6, 633.4)">i</text><text xml:space="preserve" font-family="Helvetica-Light,Helvetica" font-size="80.0" fill="#FEFFFF" transform="matrix(1.00, 0.00, -0.00, -1.00, 414.4, 633.4)">s</text><text xml:space="preserve" font-family="Helvetica-Light,Helvetica" font-size="80.0" fill="#FEFFFF" transform="matrix(1.00, 0.00, -0.00, -1.00, 454.4, 633.4)"> </text><text xml:space="preserve" font-family="Helvetica-Light,Helvetica" font-size="80.0" fill="#FEFFFF" transform="matrix(1.00, 0.00, -0.00, -1.00, 476.6, 633.4)">t</text><text xml:space="preserve" font-family="Helvetica-Light,Helvetica" font-size="80.0" fill="#FEFFFF" transform="matrix(1.00, 0.00, -0.00, -1.00, 498.9, 633.4)">h</text><text xml:space="preserve" font-family="Helvetica-Light,Helvetica" font-size="80.0" fill="#FEFFFF" transform="matrix(1.00, 0.00, -0.00, -1.00, 543.4, 633.4)">i</text><text xml:space="preserve" font-family="Helvetica-Light,Helvetica" font-size="80.0" fill="#FEFFFF" transform="matrix(1.00, 0.00, -0.00, -1.00, 561.1, 633.4)">s</text><text xml:space="preserve" font-family="Helvetica-Light,Helvetica" font-size="80.0" fill="#FEFFFF" transform="matrix(1.00, 0.00, -0.00, -1.00, 601.1, 633.4)"> </text><text xml:space="preserve" font-family="Helvetica-Light,Helvetica" font-size="80.0" fill="#FEFFFF" transform="matrix(1.00, 0.00, -0.00, -1.00, 623.4, 633.4)">a</text><text xml:space="preserve" font-family="Helvetica-Light,Helvetica" font-size="80.0" fill="#FEFFFF" transform="matrix(1.00, 0.00, -0.00, -1.00, 667.8, 633.4)">b</text><text xml:space="preserve" font-family="Helvetica-Light,Helvetica" font-size="80.0" fill="#FEFFFF" transform="matrix(1.00, 0.00, -0.00, -1.00, 716.7, 633.4)">o</text><text xml:space="preserve" font-family="Helvetica-Light,Helvetica" font-size="80.0" fill="#FEFFFF" transform="matrix(1.00, 0.00, -0.00, -1.00, 761.2, 633.4)">u</text><text xml:space="preserve" font-family="Helvetica-Light,Helvetica" font-size="80.0" fill="#FEFFFF" transform="matrix(1.00, 0.00, -0.00, -1.00, 805.7, 633.4)">t</text><text xml:space="preserve" font-family="Helvetica-Light,Helvetica" font-size="80.0" fill="#FEFFFF" transform="matrix(1.00, 0.00, -0.00, -1.00, 827.9, 633.4)">?</text><text xml:space="preserve" font-family="Helvetica-Light,Helvetica" font-size="28.5" fill="#FEFFFF" transform="matrix(1.00, 0.00, -0.00, -1.00, 79.0, 484.7)">•</text><text xml:space="preserve" font-family="Helvetica-Light,Helvetica" font-size="38.0" fill="#FEFFFF" transform="matrix(1.00, 0.00, -0.00, -1.00, 114.0, 481.3)">C</text><text xml:space="preserve" font-family="Helvetica-Light,Helvetica" font-size="38.0" fill="#FEFFFF" transform="matrix(1.00, 0.00, -0.00, -1.00, 141.4, 481.3)">r</text><text xml:space="preserve" font-family="Helvetica-Light,Helvetica" font-size="38.0" fill="#FEFFFF" transform="matrix(1.00, 0.00, -0.00, -1.00, 153.4, 481.3)">e</text><text xml:space="preserve" font-family="Helvetica-Light,Helvetica" font-size="38.0" fill="#FEFFFF" transform="matrix(1.00, 0.00, -0.00, -1.00, 174.5, 481.3)">a</text><text xml:space="preserve" font-family="Helvetica-Light,Helvetica" font-size="38.0" fill="#FEFFFF" transform="matrix(1.00, 0.00, -0.00, -1.00, 195.7, 481.3)">t</text><text xml:space="preserve" font-family="Helvetica-Light,Helvetica" font-size="38.0" fill="#FEFFFF" transform="matrix(1.00, 0.00, -0.00, -1.00, 206.2, 481.3)">i</text><text xml:space="preserve" font-family="Helvetica-Light,Helvetica" font-size="38.0" fill="#FEFFFF" transform="matrix(1.00, 0.00, -0.00, -1.00, 214.7, 481.3)">n</text><text xml:space="preserve" font-family="Helvetica-Light,Helvetica" font-size="38.0" fill="#FEFFFF" transform="matrix(1.00, 0.00, -0.00, -1.00, 235.8, 481.3)">g</text><text xml:space="preserve" font-family="Helvetica-Light,Helvetica" font-size="38.0" fill="#FEFFFF" transform="matrix(1.00, 0.00, -0.00, -1.00, 259.0, 481.3)"> </text><text xml:space="preserve" font-family="Helvetica-Light,Helvetica" font-size="38.0" fill="#FEFFFF" transform="matrix(1.00, 0.00, -0.00, -1.00, 269.6, 481.3)">a</text><text xml:space="preserve" font-family="Helvetica-Light,Helvetica" font-size="38.0" fill="#FEFFFF" transform="matrix(1.00, 0.00, -0.00, -1.00, 290.7, 481.3)"> </text><text xml:space="preserve" font-family="Helvetica-Light,Helvetica" font-size="38.0" fill="#FEFFFF" transform="matrix(1.00, 0.00, -0.00, -1.00, 301.3, 481.3)">m</text><text xml:space="preserve" font-family="Helvetica-Light,Helvetica" font-size="38.0" fill="#FEFFFF" transform="matrix(1.00, 0.00, -0.00, -1.00, 332.9, 481.3)">a</text><text xml:space="preserve" font-family="Helvetica-Light,Helvetica" font-size="38.0" fill="#FEFFFF" transform="matrix(1.00, 0.00, -0.00, -1.00, 354.0, 481.3)">i</text><text xml:space="preserve" font-family="Helvetica-Light,Helvetica" font-size="38.0" fill="#FEFFFF" transform="matrix(1.00, 0.00, -0.00, -1.00, 362.5, 481.3)">n</text><text xml:space="preserve" font-family="Helvetica-Light,Helvetica" font-size="38.0" fill="#FEFFFF" transform="matrix(1.00, 0.00, -0.00, -1.00, 383.6, 481.3)">t</text><text xml:space="preserve" font-family="Helvetica-Light,Helvetica" font-size="38.0" fill="#FEFFFF" transform="matrix(1.00, 0.00, -0.00, -1.00, 394.2, 481.3)">a</text><text xml:space="preserve" font-family="Helvetica-Light,Helvetica" font-size="38.0" fill="#FEFFFF" transform="matrix(1.00, 0.00, -0.00, -1.00, 415.3, 481.3)">i</text><text xml:space="preserve" font-family="Helvetica-Light,Helvetica" font-size="38.0" fill="#FEFFFF" transform="matrix(1.00, 0.00, -0.00, -1.00, 423.7, 481.3)">n</text><text xml:space="preserve" font-family="Helvetica-Light,Helvetica" font-size="38.0" fill="#FEFFFF" transform="matrix(1.00, 0.00, -0.00, -1.00, 444.9, 481.3)">a</text><text xml:space="preserve" font-family="Helvetica-Light,Helvetica" font-size="38.0" fill="#FEFFFF" transform="matrix(1.00, 0.00, -0.00, -1.00, 466.0, 481.3)">b</text><text xml:space="preserve" font-family="Helvetica-Light,Helvetica" font-size="38.0" fill="#FEFFFF" transform="matrix(1.00, 0.00, -0.00, -1.00, 489.2, 481.3)">l</text><text xml:space="preserve" font-family="Helvetica-Light,Helvetica" font-size="38.0" fill="#FEFFFF" transform="matrix(1.00, 0.00, -0.00, -1.00, 497.6, 481.3)">e</text><text xml:space="preserve" font-family="Helvetica-Light,Helvetica" font-size="38.0" fill="#FEFFFF" transform="matrix(1.00, 0.00, -0.00, -1.00, 518.8, 481.3)">,</text><text xml:space="preserve" font-family="Helvetica-Light,Helvetica" font-size="38.0" fill="#FEFFFF" transform="matrix(1.00, 0.00, -0.00, -1.00, 529.3, 481.3)"> </text><text xml:space="preserve" font-family="Helvetica-Light,Helvetica" font-size="38.0" fill="#FEFFFF" transform="matrix(1.00, 0.00, -0.00, -1.00, 539.9, 481.3)">o</text><text xml:space="preserve" font-family="Helvetica-Light,Helvetica" font-size="38.0" fill="#FEFFFF" transform="matrix(1.00, 0.00, -0.00, -1.00, 561.0, 481.3)">r</text><text xml:space="preserve" font-family="Helvetica-Light,Helvetica" font-size="38.0" fill="#FEFFFF" transform="matrix(1.00, 0.00, -0.00, -1.00, 573.7, 481.3)">g</text><text xml:space="preserve" font-family="Helvetica-Light,Helvetica" font-size="38.0" fill="#FEFFFF" transform="matrix(1.00, 0.00, -0.00, -1.00, 596.9, 481.3)">a</text><text xml:space="preserve" font-family="Helvetica-Light,Helvetica" font-size="38.0" fill="#FEFFFF" transform="matrix(1.00, 0.00, -0.00, -1.00, 618.0, 481.3)">n</text><text xml:space="preserve" font-family="Helvetica-Light,Helvetica" font-size="38.0" fill="#FEFFFF" transform="matrix(1.00, 0.00, -0.00, -1.00, 639.2, 481.3)">i</text><text xml:space="preserve" font-family="Helvetica-Light,Helvetica" font-size="38.0" fill="#FEFFFF" transform="matrix(1.00, 0.00, -0.00, -1.00, 647.6, 481.3)">z</text><text xml:space="preserve" font-family="Helvetica-Light,Helvetica" font-size="38.0" fill="#FEFFFF" transform="matrix(1.00, 0.00, -0.00, -1.00, 666.6, 481.3)">e</text><text xml:space="preserve" font-family="Helvetica-Light,Helvetica" font-size="38.0" fill="#FEFFFF" transform="matrix(1.00, 0.00, -0.00, -1.00, 687.7, 481.3)">d</text><text xml:space="preserve" font-family="Helvetica-Light,Helvetica" font-size="38.0" fill="#FEFFFF" transform="matrix(1.00, 0.00, -0.00, -1.00, 710.9, 481.3)">,</text><text xml:space="preserve" font-family="Helvetica-Light,Helvetica" font-size="38.0" fill="#FEFFFF" transform="matrix(1.00, 0.00, -0.00, -1.00, 721.5, 481.3)"> </text><text xml:space="preserve" font-family="Helvetica-Light,Helvetica" font-size="38.0" fill="#FEFFFF" transform="matrix(1.00, 0.00, -0.00, -1.00, 732.1, 481.3)">a</text><text xml:space="preserve" font-family="Helvetica-Light,Helvetica" font-size="38.0" fill="#FEFFFF" transform="matrix(1.00, 0.00, -0.00, -1.00, 753.2, 481.3)">n</text><text xml:space="preserve" font-family="Helvetica-Light,Helvetica" font-size="38.0" fill="#FEFFFF" transform="matrix(1.00, 0.00, -0.00, -1.00, 774.3, 481.3)">d</text><text xml:space="preserve" font-family="Helvetica-Light,Helvetica" font-size="38.0" fill="#FEFFFF" transform="matrix(1.00, 0.00, -0.00, -1.00, 797.5, 481.3)"> </text><text xml:space="preserve" font-family="Helvetica-Light,Helvetica" font-size="38.0" fill="#FEFFFF" transform="matrix(1.00, 0.00, -0.00, -1.00, 808.1, 481.3)">t</text><text xml:space="preserve" font-family="Helvetica-Light,Helvetica" font-size="38.0" fill="#FEFFFF" transform="matrix(1.00, 0.00, -0.00, -1.00, 818.7, 481.3)">e</text><text xml:space="preserve" font-family="Helvetica-Light,Helvetica" font-size="38.0" fill="#FEFFFF" transform="matrix(1.00, 0.00, -0.00, -1.00, 839.8, 481.3)">s</text><text xml:space="preserve" font-family="Helvetica-Light,Helvetica" font-size="38.0" fill="#FEFFFF" transform="matrix(1.00, 0.00, -0.00, -1.00, 858.8, 481.3)">t</text><text xml:space="preserve" font-family="Helvetica-Light,Helvetica" font-size="38.0" fill="#FEFFFF" transform="matrix(1.00, 0.00, -0.00, -1.00, 869.4, 481.3)">e</text><text xml:space="preserve" font-family="Helvetica-Light,Helvetica" font-size="38.0" fill="#FEFFFF" transform="matrix(1.00, 0.00, -0.00, -1.00, 890.5, 481.3)">d</text><text xml:space="preserve" font-family="Helvetica-Light,Helvetica" font-size="38.0" fill="#FEFFFF" transform="matrix(1.00, 0.00, -0.00, -1.00, 913.7, 481.3)"> </text><text xml:space="preserve" font-family="Helvetica-Light,Helvetica" font-size="38.0" fill="#FEFFFF" transform="matrix(1.00, 0.00, -0.00, -1.00, 114.0, 435.3)">c</text><text xml:space="preserve" font-family="Helvetica-Light,Helvetica" font-size="38.0" fill="#FEFFFF" transform="matrix(1.00, 0.00, -0.00, -1.00, 135.1, 435.3)">o</text><text xml:space="preserve" font-family="Helvetica-Light,Helvetica" font-size="38.0" fill="#FEFFFF" transform="matrix(1.00, 0.00, -0.00, -1.00, 156.3, 435.3)">m</text><text xml:space="preserve" font-family="Helvetica-Light,Helvetica" font-size="38.0" fill="#FEFFFF" transform="matrix(1.00, 0.00, -0.00, -1.00, 187.9, 435.3)">p</text><text xml:space="preserve" font-family="Helvetica-Light,Helvetica" font-size="38.0" fill="#FEFFFF" transform="matrix(1.00, 0.00, -0.00, -1.00, 211.1, 435.3)">o</text><text xml:space="preserve" font-family="Helvetica-Light,Helvetica" font-size="38.0" fill="#FEFFFF" transform="matrix(1.00, 0.00, -0.00, -1.00, 232.3, 435.3)">n</text><text xml:space="preserve" font-family="Helvetica-Light,Helvetica" font-size="38.0" fill="#FEFFFF" transform="matrix(1.00, 0.00, -0.00, -1.00, 253.4, 435.3)">e</text><text xml:space="preserve" font-family="Helvetica-Light,Helvetica" font-size="38.0" fill="#FEFFFF" transform="matrix(1.00, 0.00, -0.00, -1.00, 274.5, 435.3)">n</text><text xml:space="preserve" font-family="Helvetica-Light,Helvetica" font-size="38.0" fill="#FEFFFF" transform="matrix(1.00, 0.00, -0.00, -1.00, 295.6, 435.3)">t</text><text xml:space="preserve" font-family="Helvetica-Light,Helvetica" font-size="38.0" fill="#FEFFFF" transform="matrix(1.00, 0.00, -0.00, -1.00, 306.2, 435.3)"> </text><text xml:space="preserve" font-family="Helvetica-Light,Helvetica" font-size="38.0" fill="#FEFFFF" transform="matrix(1.00, 0.00, -0.00, -1.00, 316.8, 435.3)">l</text><text xml:space="preserve" font-family="Helvetica-Light,Helvetica" font-size="38.0" fill="#FEFFFF" transform="matrix(1.00, 0.00, -0.00, -1.00, 325.2, 435.3)">i</text><text xml:space="preserve" font-family="Helvetica-Light,Helvetica" font-size="38.0" fill="#FEFFFF" transform="matrix(1.00, 0.00, -0.00, -1.00, 333.6, 435.3)">b</text><text xml:space="preserve" font-family="Helvetica-Light,Helvetica" font-size="38.0" fill="#FEFFFF" transform="matrix(1.00, 0.00, -0.00, -1.00, 356.9, 435.3)">r</text><text xml:space="preserve" font-family="Helvetica-Light,Helvetica" font-size="38.0" fill="#FEFFFF" transform="matrix(1.00, 0.00, -0.00, -1.00, 369.5, 435.3)">a</text><text xml:space="preserve" font-family="Helvetica-Light,Helvetica" font-size="38.0" fill="#FEFFFF" transform="matrix(1.00, 0.00, -0.00, -1.00, 390.6, 435.3)">r</text><text xml:space="preserve" font-family="Helvetica-Light,Helvetica" font-size="38.0" fill="#FEFFFF" transform="matrix(1.00, 0.00, -0.00, -1.00, 404.0, 435.3)">y</text><text xml:space="preserve" font-family="Helvetica-Light,Helvetica" font-size="38.0" fill="#FEFFFF" transform="matrix(1.00, 0.00, -0.00, -1.00, 423.0, 435.3)"> </text><text xml:space="preserve" font-family="Helvetica-Light,Helvetica" font-size="28.5" fill="#FEFFFF" transform="matrix(1.00, 0.00, -0.00, -1.00, 79.0, 350.7)">•</text><text xml:space="preserve" font-family="Helvetica-Light,Helvetica" font-size="38.0" fill="#FEFFFF" transform="matrix(1.00, 0.00, -0.00, -1.00, 114.0, 347.3)">H</text><text xml:space="preserve" font-family="Helvetica-Light,Helvetica" font-size="38.0" fill="#FEFFFF" transform="matrix(1.00, 0.00, -0.00, -1.00, 141.4, 347.3)">o</text><text xml:space="preserve" font-family="Helvetica-Light,Helvetica" font-size="38.0" fill="#FEFFFF" transform="matrix(1.00, 0.00, -0.00, -1.00, 162.6, 347.3)">w</text><text xml:space="preserve" font-family="Helvetica-Light,Helvetica" font-size="38.0" fill="#FEFFFF" transform="matrix(1.00, 0.00, -0.00, -1.00, 190.0, 347.3)"> </text><text xml:space="preserve" font-family="Helvetica-Light,Helvetica" font-size="38.0" fill="#FEFFFF" transform="matrix(1.00, 0.00, -0.00, -1.00, 200.6, 347.3)">o</text><text xml:space="preserve" font-family="Helvetica-Light,Helvetica" font-size="38.0" fill="#FEFFFF" transform="matrix(1.00, 0.00, -0.00, -1.00, 221.7, 347.3)">u</text><text xml:space="preserve" font-family="Helvetica-Light,Helvetica" font-size="38.0" fill="#FEFFFF" transform="matrix(1.00, 0.00, -0.00, -1.00, 242.8, 347.3)">r</text><text xml:space="preserve" font-family="Helvetica-Light,Helvetica" font-size="38.0" fill="#FEFFFF" transform="matrix(1.00, 0.00, -0.00, -1.00, 255.5, 347.3)"> </text><text xml:space="preserve" font-family="Helvetica-Light,Helvetica" font-size="38.0" fill="#FEFFFF" transform="matrix(1.00, 0.00, -0.00, -1.00, 266.0, 347.3)">p</text><text xml:space="preserve" font-family="Helvetica-Light,Helvetica" font-size="38.0" fill="#FEFFFF" transform="matrix(1.00, 0.00, -0.00, -1.00, 289.3, 347.3)">r</text><text xml:space="preserve" font-family="Helvetica-Light,Helvetica" font-size="38.0" fill="#FEFFFF" transform="matrix(1.00, 0.00, -0.00, -1.00, 301.2, 347.3)">o</text><text xml:space="preserve" font-family="Helvetica-Light,Helvetica" font-size="38.0" fill="#FEFFFF" transform="matrix(1.00, 0.00, -0.00, -1.00, 322.4, 347.3)">c</text><text xml:space="preserve" font-family="Helvetica-Light,Helvetica" font-size="38.0" fill="#FEFFFF" transform="matrix(1.00, 0.00, -0.00, -1.00, 343.5, 347.3)">e</text><text xml:space="preserve" font-family="Helvetica-Light,Helvetica" font-size="38.0" fill="#FEFFFF" transform="matrix(1.00, 0.00, -0.00, -1.00, 364.6, 347.3)">s</text><text xml:space="preserve" font-family="Helvetica-Light,Helvetica" font-size="38.0" fill="#FEFFFF" transform="matrix(1.00, 0.00, -0.00, -1.00, 383.6, 347.3)">s</text><text xml:space="preserve" font-family="Helvetica-Light,Helvetica" font-size="38.0" fill="#FEFFFF" transform="matrix(1.00, 0.00, -0.00, -1.00, 402.6, 347.3)"> </text><text xml:space="preserve" font-family="Helvetica-Light,Helvetica" font-size="38.0" fill="#FEFFFF" transform="matrix(1.00, 0.00, -0.00, -1.00, 413.2, 347.3)">h</text><text xml:space="preserve" font-family="Helvetica-Light,Helvetica" font-size="38.0" fill="#FEFFFF" transform="matrix(1.00, 0.00, -0.00, -1.00, 434.3, 347.3)">a</text><text xml:space="preserve" font-family="Helvetica-Light,Helvetica" font-size="38.0" fill="#FEFFFF" transform="matrix(1.00, 0.00, -0.00, -1.00, 455.4, 347.3)">s</text><text xml:space="preserve" font-family="Helvetica-Light,Helvetica" font-size="38.0" fill="#FEFFFF" transform="matrix(1.00, 0.00, -0.00, -1.00, 474.4, 347.3)"> </text><text xml:space="preserve" font-family="Helvetica-Light,Helvetica" font-size="38.0" fill="#FEFFFF" transform="matrix(1.00, 0.00, -0.00, -1.00, 485.0, 347.3)">e</text><text xml:space="preserve" font-family="Helvetica-Light,Helvetica" font-size="38.0" fill="#FEFFFF" transform="matrix(1.00, 0.00, -0.00, -1.00, 506.1, 347.3)">v</text><text xml:space="preserve" font-family="Helvetica-Light,Helvetica" font-size="38.0" fill="#FEFFFF" transform="matrix(1.00, 0.00, -0.00, -1.00, 525.1, 347.3)">o</text><text xml:space="preserve" font-family="Helvetica-Light,Helvetica" font-size="38.0" fill="#FEFFFF" transform="matrix(1.00, 0.00, -0.00, -1.00, 546.2, 347.3)">l</text><text xml:space="preserve" font-family="Helvetica-Light,Helvetica" font-size="38.0" fill="#FEFFFF" transform="matrix(1.00, 0.00, -0.00, -1.00, 554.7, 347.3)">v</text><text xml:space="preserve" font-family="Helvetica-Light,Helvetica" font-size="38.0" fill="#FEFFFF" transform="matrix(1.00, 0.00, -0.00, -1.00, 573.7, 347.3)">e</text><text xml:space="preserve" font-family="Helvetica-Light,Helvetica" font-size="38.0" fill="#FEFFFF" transform="matrix(1.00, 0.00, -0.00, -1.00, 594.8, 347.3)">d</text><text xml:space="preserve" font-family="Helvetica-Light,Helvetica" font-size="38.0" fill="#FEFFFF" transform="matrix(1.00, 0.00, -0.00, -1.00, 618.0, 347.3)"> </text><text xml:space="preserve" font-family="Helvetica-Light,Helvetica" font-size="28.5" fill="#FEFFFF" transform="matrix(1.00, 0.00, -0.00, -1.00, 79.0, 262.7)">•</text><text xml:space="preserve" font-family="Helvetica-Light,Helvetica" font-size="38.0" fill="#FEFFFF" transform="matrix(1.00, 0.00, -0.00, -1.00, 114.0, 259.3)">P</text><text xml:space="preserve" font-family="Helvetica-Light,Helvetica" font-size="38.0" fill="#FEFFFF" transform="matrix(1.00, 0.00, -0.00, -1.00, 137.2, 259.3)">i</text><text xml:space="preserve" font-family="Helvetica-Light,Helvetica" font-size="38.0" fill="#FEFFFF" transform="matrix(1.00, 0.00, -0.00, -1.00, 145.7, 259.3)">t</text><text xml:space="preserve" font-family="Helvetica-Light,Helvetica" font-size="38.0" fill="#FEFFFF" transform="matrix(1.00, 0.00, -0.00, -1.00, 156.2, 259.3)">f</text><text xml:space="preserve" font-family="Helvetica-Light,Helvetica" font-size="38.0" fill="#FEFFFF" transform="matrix(1.00, 0.00, -0.00, -1.00, 166.8, 259.3)">a</text><text xml:space="preserve" font-family="Helvetica-Light,Helvetica" font-size="38.0" fill="#FEFFFF" transform="matrix(1.00, 0.00, -0.00, -1.00, 187.9, 259.3)">l</text><text xml:space="preserve" font-family="Helvetica-Light,Helvetica" font-size="38.0" fill="#FEFFFF" transform="matrix(1.00, 0.00, -0.00, -1.00, 196.3, 259.3)">l</text><text xml:space="preserve" font-family="Helvetica-Light,Helvetica" font-size="38.0" fill="#FEFFFF" transform="matrix(1.00, 0.00, -0.00, -1.00, 204.8, 259.3)">s</text><text xml:space="preserve" font-family="Helvetica-Light,Helvetica" font-size="38.0" fill="#FEFFFF" transform="matrix(1.00, 0.00, -0.00, -1.00, 223.8, 259.3)"> </text><text xml:space="preserve" font-family="Helvetica-Light,Helvetica" font-size="38.0" fill="#FEFFFF" transform="matrix(1.00, 0.00, -0.00, -1.00, 234.3, 259.3)">t</text><text xml:space="preserve" font-family="Helvetica-Light,Helvetica" font-size="38.0" fill="#FEFFFF" transform="matrix(1.00, 0.00, -0.00, -1.00, 244.9, 259.3)">o</text><text xml:space="preserve" font-family="Helvetica-Light,Helvetica" font-size="38.0" fill="#FEFFFF" transform="matrix(1.00, 0.00, -0.00, -1.00, 266.0, 259.3)"> </text><text xml:space="preserve" font-family="Helvetica-Light,Helvetica" font-size="38.0" fill="#FEFFFF" transform="matrix(1.00, 0.00, -0.00, -1.00, 276.6, 259.3)">a</text><text xml:space="preserve" font-family="Helvetica-Light,Helvetica" font-size="38.0" fill="#FEFFFF" transform="matrix(1.00, 0.00, -0.00, -1.00, 297.7, 259.3)">v</text><text xml:space="preserve" font-family="Helvetica-Light,Helvetica" font-size="38.0" fill="#FEFFFF" transform="matrix(1.00, 0.00, -0.00, -1.00, 316.7, 259.3)">o</text><text xml:space="preserve" font-family="Helvetica-Light,Helvetica" font-size="38.0" fill="#FEFFFF" transform="matrix(1.00, 0.00, -0.00, -1.00, 337.9, 259.3)">i</text><text xml:space="preserve" font-family="Helvetica-Light,Helvetica" font-size="38.0" fill="#FEFFFF" transform="matrix(1.00, 0.00, -0.00, -1.00, 346.3, 259.3)">d</text><text xml:space="preserve" font-family="Helvetica-Light,Helvetica" font-size="38.0" fill="#FEFFFF" transform="matrix(1.00, 0.00, -0.00, -1.00, 369.5, 259.3)"> </text><text xml:space="preserve" font-family="Helvetica-Light,Helvetica" font-size="28.5" fill="#FEFFFF" transform="matrix(1.00, 0.00, -0.00, -1.00, 79.0, 174.7)">•</text><text xml:space="preserve" font-family="Helvetica-Light,Helvetica" font-size="38.0" fill="#FEFFFF" transform="matrix(1.00, 0.00, -0.00, -1.00, 114.0, 171.3)">I</text><text xml:space="preserve" font-family="Helvetica-Light,Helvetica" font-size="38.0" fill="#FEFFFF" transform="matrix(1.00, 0.00, -0.00, -1.00, 124.6, 171.3)">n</text><text xml:space="preserve" font-family="Helvetica-Light,Helvetica" font-size="38.0" fill="#FEFFFF" transform="matrix(1.00, 0.00, -0.00, -1.00, 145.7, 171.3)">t</text><text xml:space="preserve" font-family="Helvetica-Light,Helvetica" font-size="38.0" fill="#FEFFFF" transform="matrix(1.00, 0.00, -0.00, -1.00, 156.3, 171.3)">e</text><text xml:space="preserve" font-family="Helvetica-Light,Helvetica" font-size="38.0" fill="#FEFFFF" transform="matrix(1.00, 0.00, -0.00, -1.00, 177.4, 171.3)">r</text><text xml:space="preserve" font-family="Helvetica-Light,Helvetica" font-size="38.0" fill="#FEFFFF" transform="matrix(1.00, 0.00, -0.00, -1.00, 189.4, 171.3)">e</text><text xml:space="preserve" font-family="Helvetica-Light,Helvetica" font-size="38.0" fill="#FEFFFF" transform="matrix(1.00, 0.00, -0.00, -1.00, 210.5, 171.3)">s</text><text xml:space="preserve" font-family="Helvetica-Light,Helvetica" font-size="38.0" fill="#FEFFFF" transform="matrix(1.00, 0.00, -0.00, -1.00, 229.5, 171.3)">t</text><text xml:space="preserve" font-family="Helvetica-Light,Helvetica" font-size="38.0" fill="#FEFFFF" transform="matrix(1.00, 0.00, -0.00, -1.00, 240.0, 171.3)">i</text><text xml:space="preserve" font-family="Helvetica-Light,Helvetica" font-size="38.0" fill="#FEFFFF" transform="matrix(1.00, 0.00, -0.00, -1.00, 248.5, 171.3)">n</text><text xml:space="preserve" font-family="Helvetica-Light,Helvetica" font-size="38.0" fill="#FEFFFF" transform="matrix(1.00, 0.00, -0.00, -1.00, 269.6, 171.3)">g</text><text xml:space="preserve" font-family="Helvetica-Light,Helvetica" font-size="38.0" fill="#FEFFFF" transform="matrix(1.00, 0.00, -0.00, -1.00, 292.8, 171.3)"> </text><text xml:space="preserve" font-family="Helvetica-Light,Helvetica" font-size="38.0" fill="#FEFFFF" transform="matrix(1.00, 0.00, -0.00, -1.00, 303.4, 171.3)">w</text><text xml:space="preserve" font-family="Helvetica-Light,Helvetica" font-size="38.0" fill="#FEFFFF" transform="matrix(1.00, 0.00, -0.00, -1.00, 330.8, 171.3)">a</text><text xml:space="preserve" font-family="Helvetica-Light,Helvetica" font-size="38.0" fill="#FEFFFF" transform="matrix(1.00, 0.00, -0.00, -1.00, 352.0, 171.3)">y</text><text xml:space="preserve" font-family="Helvetica-Light,Helvetica" font-size="38.0" fill="#FEFFFF" transform="matrix(1.00, 0.00, -0.00, -1.00, 371.0, 171.3)">s</text><text xml:space="preserve" font-family="Helvetica-Light,Helvetica" font-size="38.0" fill="#FEFFFF" transform="matrix(1.00, 0.00, -0.00, -1.00, 390.0, 171.3)"> </text><text xml:space="preserve" font-family="Helvetica-Light,Helvetica" font-size="38.0" fill="#FEFFFF" transform="matrix(1.00, 0.00, -0.00, -1.00, 400.5, 171.3)">t</text><text xml:space="preserve" font-family="Helvetica-Light,Helvetica" font-size="38.0" fill="#FEFFFF" transform="matrix(1.00, 0.00, -0.00, -1.00, 411.1, 171.3)">o</text><text xml:space="preserve" font-family="Helvetica-Light,Helvetica" font-size="38.0" fill="#FEFFFF" transform="matrix(1.00, 0.00, -0.00, -1.00, 432.2, 171.3)"> </text><text xml:space="preserve" font-family="Helvetica-Light,Helvetica" font-size="38.0" fill="#FEFFFF" transform="matrix(1.00, 0.00, -0.00, -1.00, 442.8, 171.3)">u</text><text xml:space="preserve" font-family="Helvetica-Light,Helvetica" font-size="38.0" fill="#FEFFFF" transform="matrix(1.00, 0.00, -0.00, -1.00, 463.9, 171.3)">s</text><text xml:space="preserve" font-family="Helvetica-Light,Helvetica" font-size="38.0" fill="#FEFFFF" transform="matrix(1.00, 0.00, -0.00, -1.00, 482.9, 171.3)">e</text><text xml:space="preserve" font-family="Helvetica-Light,Helvetica" font-size="38.0" fill="#FEFFFF" transform="matrix(1.00, 0.00, -0.00, -1.00, 504.0, 171.3)"> </text><text xml:space="preserve" font-family="Helvetica-Light,Helvetica" font-size="38.0" fill="#FEFFFF" transform="matrix(1.00, 0.00, -0.00, -1.00, 514.6, 171.3)">E</text><text xml:space="preserve" font-family="Helvetica-Light,Helvetica" font-size="38.0" fill="#FEFFFF" transform="matrix(1.00, 0.00, -0.00, -1.00, 537.8, 171.3)">S</text><text xml:space="preserve" font-family="Helvetica-Light,Helvetica" font-size="38.0" fill="#FEFFFF" transform="matrix(1.00, 0.00, -0.00, -1.00, 561.0, 171.3)">6</text><text xml:space="preserve" font-family="Helvetica-Light,Helvetica" font-size="38.0" fill="#FEFFFF" transform="matrix(1.00, 0.00, -0.00, -1.00, 582.2, 171.3)">,</text><text xml:space="preserve" font-family="Helvetica-Light,Helvetica" font-size="38.0" fill="#FEFFFF" transform="matrix(1.00, 0.00, -0.00, -1.00, 592.7, 171.3)"> </text><text xml:space="preserve" font-family="Helvetica-Light,Helvetica" font-size="38.0" fill="#FEFFFF" transform="matrix(1.00, 0.00, -0.00, -1.00, 603.3, 171.3)">E</text><text xml:space="preserve" font-family="Helvetica-Light,Helvetica" font-size="38.0" fill="#FEFFFF" transform="matrix(1.00, 0.00, -0.00, -1.00, 626.5, 171.3)">S</text><text xml:space="preserve" font-family="Helvetica-Light,Helvetica" font-size="38.0" fill="#FEFFFF" transform="matrix(1.00, 0.00, -0.00, -1.00, 649.7, 171.3)">7</text><text xml:space="preserve" font-family="Helvetica-Light,Helvetica" font-size="38.0" fill="#FEFFFF" transform="matrix(1.00, 0.00, -0.00, -1.00, 670.9, 171.3)">,</text><text xml:space="preserve" font-family="Helvetica-Light,Helvetica" font-size="38.0" fill="#FEFFFF" transform="matrix(1.00, 0.00, -0.00, -1.00, 681.4, 171.3)"> </text><text xml:space="preserve" font-family="Helvetica-Light,Helvetica" font-size="38.0" fill="#FEFFFF" transform="matrix(1.00, 0.00, -0.00, -1.00, 692.0, 171.3)">a</text><text xml:space="preserve" font-family="Helvetica-Light,Helvetica" font-size="38.0" fill="#FEFFFF" transform="matrix(1.00, 0.00, -0.00, -1.00, 713.1, 171.3)">n</text><text xml:space="preserve" font-family="Helvetica-Light,Helvetica" font-size="38.0" fill="#FEFFFF" transform="matrix(1.00, 0.00, -0.00, -1.00, 734.2, 171.3)">d</text><text xml:space="preserve" font-family="Helvetica-Light,Helvetica" font-size="38.0" fill="#FEFFFF" transform="matrix(1.00, 0.00, -0.00, -1.00, 757.5, 171.3)"> </text><text xml:space="preserve" font-family="Helvetica-Light,Helvetica" font-size="38.0" fill="#FEFFFF" transform="matrix(1.00, 0.00, -0.00, -1.00, 768.0, 171.3)">o</text><text xml:space="preserve" font-family="Helvetica-Light,Helvetica" font-size="38.0" fill="#FEFFFF" transform="matrix(1.00, 0.00, -0.00, -1.00, 789.1, 171.3)">t</text><text xml:space="preserve" font-family="Helvetica-Light,Helvetica" font-size="38.0" fill="#FEFFFF" transform="matrix(1.00, 0.00, -0.00, -1.00, 799.7, 171.3)">h</text><text xml:space="preserve" font-family="Helvetica-Light,Helvetica" font-size="38.0" fill="#FEFFFF" transform="matrix(1.00, 0.00, -0.00, -1.00, 820.8, 171.3)">e</text><text xml:space="preserve" font-family="Helvetica-Light,Helvetica" font-size="38.0" fill="#FEFFFF" transform="matrix(1.00, 0.00, -0.00, -1.00, 842.0, 171.3)">r</text><text xml:space="preserve" font-family="Helvetica-Light,Helvetica" font-size="38.0" fill="#FEFFFF" transform="matrix(1.00, 0.00, -0.00, -1.00, 854.6, 171.3)"> </text><text xml:space="preserve" font-family="Helvetica-Light,Helvetica" font-size="38.0" fill="#FEFFFF" transform="matrix(1.00, 0.00, -0.00, -1.00, 865.2, 171.3)">c</text><text xml:space="preserve" font-family="Helvetica-Light,Helvetica" font-size="38.0" fill="#FEFFFF" transform="matrix(1.00, 0.00, -0.00, -1.00, 886.3, 171.3)">o</text><text xml:space="preserve" font-family="Helvetica-Light,Helvetica" font-size="38.0" fill="#FEFFFF" transform="matrix(1.00, 0.00, -0.00, -1.00, 907.4, 171.3)">o</text><text xml:space="preserve" font-family="Helvetica-Light,Helvetica" font-size="38.0" fill="#FEFFFF" transform="matrix(1.00, 0.00, -0.00, -1.00, 928.6, 171.3)">l</text><text xml:space="preserve" font-family="Helvetica-Light,Helvetica" font-size="38.0" fill="#FEFFFF" transform="matrix(1.00, 0.00, -0.00, -1.00, 937.0, 171.3)"> </text><text xml:space="preserve" font-family="Helvetica-Light,Helvetica" font-size="38.0" fill="#FEFFFF" transform="matrix(1.00, 0.00, -0.00, -1.00, 114.0, 125.3)">J</text><text xml:space="preserve" font-family="Helvetica-Light,Helvetica" font-size="38.0" fill="#FEFFFF" transform="matrix(1.00, 0.00, -0.00, -1.00, 133.0, 125.3)">a</text><text xml:space="preserve" font-family="Helvetica-Light,Helvetica" font-size="38.0" fill="#FEFFFF" transform="matrix(1.00, 0.00, -0.00, -1.00, 154.1, 125.3)">v</text><text xml:space="preserve" font-family="Helvetica-Light,Helvetica" font-size="38.0" fill="#FEFFFF" transform="matrix(1.00, 0.00, -0.00, -1.00, 173.1, 125.3)">a</text><text xml:space="preserve" font-family="Helvetica-Light,Helvetica" font-size="38.0" fill="#FEFFFF" transform="matrix(1.00, 0.00, -0.00, -1.00, 194.3, 125.3)">S</text><text xml:space="preserve" font-family="Helvetica-Light,Helvetica" font-size="38.0" fill="#FEFFFF" transform="matrix(1.00, 0.00, -0.00, -1.00, 217.5, 125.3)">c</text><text xml:space="preserve" font-family="Helvetica-Light,Helvetica" font-size="38.0" fill="#FEFFFF" transform="matrix(1.00, 0.00, -0.00, -1.00, 238.6, 125.3)">r</text><text xml:space="preserve" font-family="Helvetica-Light,Helvetica" font-size="38.0" fill="#FEFFFF" transform="matrix(1.00, 0.00, -0.00, -1.00, 251.3, 125.3)">i</text><text xml:space="preserve" font-family="Helvetica-Light,Helvetica" font-size="38.0" fill="#FEFFFF" transform="matrix(1.00, 0.00, -0.00, -1.00, 259.7, 125.3)">p</text><text xml:space="preserve" font-family="Helvetica-Light,Helvetica" font-size="38.0" fill="#FEFFFF" transform="matrix(1.00, 0.00, -0.00, -1.00, 282.9, 125.3)">t</text><text xml:space="preserve" font-family="Helvetica-Light,Helvetica" font-size="38.0" fill="#FEFFFF" transform="matrix(1.00, 0.00, -0.00, -1.00, 293.5, 125.3)"> </text><text xml:space="preserve" font-family="Helvetica-Light,Helvetica" font-size="38.0" fill="#FEFFFF" transform="matrix(1.00, 0.00, -0.00, -1.00, 304.0, 125.3)">l</text><text xml:space="preserve" font-family="Helvetica-Light,Helvetica" font-size="38.0" fill="#FEFFFF" transform="matrix(1.00, 0.00, -0.00, -1.00, 312.5, 125.3)">i</text><text xml:space="preserve" font-family="Helvetica-Light,Helvetica" font-size="38.0" fill="#FEFFFF" transform="matrix(1.00, 0.00, -0.00, -1.00, 320.9, 125.3)">b</text><text xml:space="preserve" font-family="Helvetica-Light,Helvetica" font-size="38.0" fill="#FEFFFF" transform="matrix(1.00, 0.00, -0.00, -1.00, 344.1, 125.3)">r</text><text xml:space="preserve" font-family="Helvetica-Light,Helvetica" font-size="38.0" fill="#FEFFFF" transform="matrix(1.00, 0.00, -0.00, -1.00, 356.8, 125.3)">a</text><text xml:space="preserve" font-family="Helvetica-Light,Helvetica" font-size="38.0" fill="#FEFFFF" transform="matrix(1.00, 0.00, -0.00, -1.00, 377.9, 125.3)">r</text><text xml:space="preserve" font-family="Helvetica-Light,Helvetica" font-size="38.0" fill="#FEFFFF" transform="matrix(1.00, 0.00, -0.00, -1.00, 390.6, 125.3)">i</text><text xml:space="preserve" font-family="Helvetica-Light,Helvetica" font-size="38.0" fill="#FEFFFF" transform="matrix(1.00, 0.00, -0.00, -1.00, 399.0, 125.3)">e</text><text xml:space="preserve" font-family="Helvetica-Light,Helvetica" font-size="38.0" fill="#FEFFFF" transform="matrix(1.00, 0.00, -0.00, -1.00, 420.1, 125.3)">s</text></g></svg>