<?xml version="1.0" encoding="UTF-8" standalone="no"?><svg xmlns="http://www.w3.org/2000/svg" xmlns:xlink="http://www.w3.org/1999/xlink" clip-rule="evenodd" stroke-miterlimit="10" viewBox="0 0 1024 768"><desc>SVG generated by Keynote</desc><defs></defs><g transform="matrix(1.00, 0.00, -0.00, -1.00, 0.0, 768.0)"><path d="M 0.0 768.0 L 1024.0 768.0 L 1024.0 0.0 L 0.0 0.0 Z M 0.0 768.0 " fill="#000000"></path><text xml:space="preserve" font-family="Helvetica-Light,Helvetica" font-size="80.0" fill="#FEFFFF" transform="matrix(1.00, 0.00, -0.00, -1.00, 163.8, 633.4)">P</text><text xml:space="preserve" font-family="Helvetica-Light,Helvetica" font-size="80.0" fill="#FEFFFF" transform="matrix(1.00, 0.00, -0.00, -1.00, 212.7, 633.4)">u</text><text xml:space="preserve" font-family="Helvetica-Light,Helvetica" font-size="80.0" fill="#FEFFFF" transform="matrix(1.00, 0.00, -0.00, -1.00, 257.2, 633.4)">r</text><text xml:space="preserve" font-family="Helvetica-Light,Helvetica" font-size="80.0" fill="#FEFFFF" transform="matrix(1.00, 0.00, -0.00, -1.00, 282.4, 633.4)">e</text><text xml:space="preserve" font-family="Helvetica-Light,Helvetica" font-size="80.0" fill="#FEFFFF" transform="matrix(1.00, 0.00, -0.00, -1.00, 326.8, 633.4)">R</text><text xml:space="preserve" font-family="Helvetica-Light,Helvetica" font-size="80.0" fill="#FEFFFF" transform="matrix(1.00, 0.00, -0.00, -1.00, 380.2, 633.4)">e</text><text xml:space="preserve" font-family="Helvetica-Light,Helvetica" font-size="80.0" fill="#FEFFFF" transform="matrix(1.00, 0.00, -0.00, -1.00, 424.7, 633.4)">n</text><text xml:space="preserve" font-family="Helvetica-Light,Helvetica" font-size="80.0" fill="#FEFFFF" transform="matrix(1.00, 0.00, -0.00, -1.00, 469.2, 633.4)">d</text><text xml:space="preserve" font-family="Helvetica-Light,Helvetica" font-size="80.0" fill="#FEFFFF" transform="matrix(1.00, 0.00, -0.00, -1.00, 518.0, 633.4)">e</text><text xml:space="preserve" font-family="Helvetica-Light,Helvetica" font-size="80.0" fill="#FEFFFF" transform="matrix(1.00, 0.00, -0.00, -1.00, 562.5, 633.4)">r</text><text xml:space="preserve" font-family="Helvetica-Light,Helvetica" font-size="80.0" fill="#FEFFFF" transform="matrix(1.00, 0.00, -0.00, -1.00, 589.2, 633.4)"> </text><text xml:space="preserve" font-family="Helvetica-Light,Helvetica" font-size="80.0" fill="#FEFFFF" transform="matrix(1.00, 0.00, -0.00, -1.00, 611.4, 633.4)">i</text><text xml:space="preserve" font-family="Helvetica-Light,Helvetica" font-size="80.0" fill="#FEFFFF" transform="matrix(1.00, 0.00, -0.00, -1.00, 629.2, 633.4)">n</text><text xml:space="preserve" font-family="Helvetica-Light,Helvetica" font-size="80.0" fill="#FEFFFF" transform="matrix(1.00, 0.00, -0.00, -1.00, 673.6, 633.4)"> </text><text xml:space="preserve" font-family="Helvetica-Light,Helvetica" font-size="80.0" fill="#FEFFFF" transform="matrix(1.00, 0.00, -0.00, -1.00, 695.9, 633.4)">B</text><text xml:space="preserve" font-family="Helvetica-Light,Helvetica" font-size="80.0" fill="#FEFFFF" transform="matrix(1.00, 0.00, -0.00, -1.00, 749.2, 633.4)">a</text><text xml:space="preserve" font-family="Helvetica-Light,Helvetica" font-size="80.0" fill="#FEFFFF" transform="matrix(1.00, 0.00, -0.00, -1.00, 793.7, 633.4)">s</text><text xml:space="preserve" font-family="Helvetica-Light,Helvetica" font-size="80.0" fill="#FEFFFF" transform="matrix(1.00, 0.00, -0.00, -1.00, 833.7, 633.4)">e</text><text xml:space="preserve" font-family="Courier,Courier" font-size="28.0" fill="#7ADA45" transform="matrix(1.00, 0.00, -0.00, -1.00, 79.0, 458.9)">i</text><text xml:space="preserve" font-family="Courier,Courier" font-size="28.0" fill="#7ADA45" transform="matrix(1.00, 0.00, -0.00, -1.00, 95.8, 458.9)">m</text><text xml:space="preserve" font-family="Courier,Courier" font-size="28.0" fill="#7ADA45" transform="matrix(1.00, 0.00, -0.00, -1.00, 112.6, 458.9)">p</text><text xml:space="preserve" font-family="Courier,Courier" font-size="28.0" fill="#7ADA45" transform="matrix(1.00, 0.00, -0.00, -1.00, 129.4, 458.9)">o</text><text xml:space="preserve" font-family="Courier,Courier" font-size="28.0" fill="#7ADA45" transform="matrix(1.00, 0.00, -0.00, -1.00, 146.2, 458.9)">r</text><text xml:space="preserve" font-family="Courier,Courier" font-size="28.0" fill="#7ADA45" transform="matrix(1.00, 0.00, -0.00, -1.00, 163.0, 458.9)">t</text><text xml:space="preserve" font-family="Courier,Courier" font-size="28.0" fill="#7ADA45" transform="matrix(1.00, 0.00, -0.00, -1.00, 179.8, 458.9)"> </text><text xml:space="preserve" font-family="Courier,Courier" font-size="28.0" fill="#7ADA45" transform="matrix(1.00, 0.00, -0.00, -1.00, 196.6, 458.9)">s</text><text xml:space="preserve" font-family="Courier,Courier" font-size="28.0" fill="#7ADA45" transform="matrix(1.00, 0.00, -0.00, -1.00, 213.4, 458.9)">h</text><text xml:space="preserve" font-family="Courier,Courier" font-size="28.0" fill="#7ADA45" transform="matrix(1.00, 0.00, -0.00, -1.00, 230.2, 458.9)">a</text><text xml:space="preserve" font-family="Courier,Courier" font-size="28.0" fill="#7ADA45" transform="matrix(1.00, 0.00, -0.00, -1.00, 247.1, 458.9)">l</text><text xml:space="preserve" font-family="Courier,Courier" font-size="28.0" fill="#7ADA45" transform="matrix(1.00, 0.00, -0.00, -1.00, 263.9, 458.9)">l</text><text xml:space="preserve" font-family="Courier,Courier" font-size="28.0" fill="#7ADA45" transform="matrix(1.00, 0.00, -0.00, -1.00, 280.7, 458.9)">o</text><text xml:space="preserve" font-family="Courier,Courier" font-size="28.0" fill="#7ADA45" transform="matrix(1.00, 0.00, -0.00, -1.00, 297.5, 458.9)">w</text><text xml:space="preserve" font-family="Courier,Courier" font-size="28.0" fill="#7ADA45" transform="matrix(1.00, 0.00, -0.00, -1.00, 314.3, 458.9)">E</text><text xml:space="preserve" font-family="Courier,Courier" font-size="28.0" fill="#7ADA45" transform="matrix(1.00, 0.00, -0.00, -1.00, 331.1, 458.9)">q</text><text xml:space="preserve" font-family="Courier,Courier" font-size="28.0" fill="#7ADA45" transform="matrix(1.00, 0.00, -0.00, -1.00, 347.9, 458.9)">u</text><text xml:space="preserve" font-family="Courier,Courier" font-size="28.0" fill="#7ADA45" transform="matrix(1.00, 0.00, -0.00, -1.00, 364.7, 458.9)">a</text><text xml:space="preserve" font-family="Courier,Courier" font-size="28.0" fill="#7ADA45" transform="matrix(1.00, 0.00, -0.00, -1.00, 381.5, 458.9)">l</text><text xml:space="preserve" font-family="Courier,Courier" font-size="28.0" fill="#7ADA45" transform="matrix(1.00, 0.00, -0.00, -1.00, 398.3, 458.9)"> </text><text xml:space="preserve" font-family="Courier,Courier" font-size="28.0" fill="#7ADA45" transform="matrix(1.00, 0.00, -0.00, -1.00, 415.1, 458.9)">f</text><text xml:space="preserve" font-family="Courier,Courier" font-size="28.0" fill="#7ADA45" transform="matrix(1.00, 0.00, -0.00, -1.00, 431.9, 458.9)">r</text><text xml:space="preserve" font-family="Courier,Courier" font-size="28.0" fill="#7ADA45" transform="matrix(1.00, 0.00, -0.00, -1.00, 448.7, 458.9)">o</text><text xml:space="preserve" font-family="Courier,Courier" font-size="28.0" fill="#7ADA45" transform="matrix(1.00, 0.00, -0.00, -1.00, 465.5, 458.9)">m</text><text xml:space="preserve" font-family="Courier,Courier" font-size="28.0" fill="#7ADA45" transform="matrix(1.00, 0.00, -0.00, -1.00, 482.3, 458.9)"> </text><text xml:space="preserve" font-family="Courier,Courier" font-size="28.0" fill="#7ADA45" transform="matrix(1.00, 0.00, -0.00, -1.00, 499.1, 458.9)">‘</text><text xml:space="preserve" font-family="Courier,Courier" font-size="28.0" fill="#7ADA45" transform="matrix(1.00, 0.00, -0.00, -1.00, 515.9, 458.9)">r</text><text xml:space="preserve" font-family="Courier,Courier" font-size="28.0" fill="#7ADA45" transform="matrix(1.00, 0.00, -0.00, -1.00, 532.7, 458.9)">e</text><text xml:space="preserve" font-family="Courier,Courier" font-size="28.0" fill="#7ADA45" transform="matrix(1.00, 0.00, -0.00, -1.00, 549.6, 458.9)">a</text><text xml:space="preserve" font-family="Courier,Courier" font-size="28.0" fill="#7ADA45" transform="matrix(1.00, 0.00, -0.00, -1.00, 566.4, 458.9)">c</text><text xml:space="preserve" font-family="Courier,Courier" font-size="28.0" fill="#7ADA45" transform="matrix(1.00, 0.00, -0.00, -1.00, 583.2, 458.9)">t</text><text xml:space="preserve" font-family="Courier,Courier" font-size="28.0" fill="#7ADA45" transform="matrix(1.00, 0.00, -0.00, -1.00, 600.0, 458.9)">/</text><text xml:space="preserve" font-family="Courier,Courier" font-size="28.0" fill="#7ADA45" transform="matrix(1.00, 0.00, -0.00, -1.00, 616.8, 458.9)">l</text><text xml:space="preserve" font-family="Courier,Courier" font-size="28.0" fill="#7ADA45" transform="matrix(1.00, 0.00, -0.00, -1.00, 633.6, 458.9)">i</text><text xml:space="preserve" font-family="Courier,Courier" font-size="28.0" fill="#7ADA45" transform="matrix(1.00, 0.00, -0.00, -1.00, 650.4, 458.9)">b</text><text xml:space="preserve" font-family="Courier,Courier" font-size="28.0" fill="#7ADA45" transform="matrix(1.00, 0.00, -0.00, -1.00, 667.2, 458.9)">/</text><text xml:space="preserve" font-family="Courier,Courier" font-size="28.0" fill="#7ADA45" transform="matrix(1.00, 0.00, -0.00, -1.00, 684.0, 458.9)">s</text><text xml:space="preserve" font-family="Courier,Courier" font-size="28.0" fill="#7ADA45" transform="matrix(1.00, 0.00, -0.00, -1.00, 700.8, 458.9)">h</text><text xml:space="preserve" font-family="Courier,Courier" font-size="28.0" fill="#7ADA45" transform="matrix(1.00, 0.00, -0.00, -1.00, 717.6, 458.9)">a</text><text xml:space="preserve" font-family="Courier,Courier" font-size="28.0" fill="#7ADA45" transform="matrix(1.00, 0.00, -0.00, -1.00, 734.4, 458.9)">l</text><text xml:space="preserve" font-family="Courier,Courier" font-size="28.0" fill="#7ADA45" transform="matrix(1.00, 0.00, -0.00, -1.00, 751.2, 458.9)">l</text><text xml:space="preserve" font-family="Courier,Courier" font-size="28.0" fill="#7ADA45" transform="matrix(1.00, 0.00, -0.00, -1.00, 768.0, 458.9)">o</text><text xml:space="preserve" font-family="Courier,Courier" font-size="28.0" fill="#7ADA45" transform="matrix(1.00, 0.00, -0.00, -1.00, 784.8, 458.9)">w</text><text xml:space="preserve" font-family="Courier,Courier" font-size="28.0" fill="#7ADA45" transform="matrix(1.00, 0.00, -0.00, -1.00, 801.6, 458.9)">E</text><text xml:space="preserve" font-family="Courier,Courier" font-size="28.0" fill="#7ADA45" transform="matrix(1.00, 0.00, -0.00, -1.00, 818.4, 458.9)">q</text><text xml:space="preserve" font-family="Courier,Courier" font-size="28.0" fill="#7ADA45" transform="matrix(1.00, 0.00, -0.00, -1.00, 835.2, 458.9)">u</text><text xml:space="preserve" font-family="Courier,Courier" font-size="28.0" fill="#7ADA45" transform="matrix(1.00, 0.00, -0.00, -1.00, 852.1, 458.9)">a</text><text xml:space="preserve" font-family="Courier,Courier" font-size="28.0" fill="#7ADA45" transform="matrix(1.00, 0.00, -0.00, -1.00, 868.9, 458.9)">l</text><text xml:space="preserve" font-family="Courier,Courier" font-size="28.0" fill="#7ADA45" transform="matrix(1.00, 0.00, -0.00, -1.00, 885.7, 458.9)">'</text><text xml:space="preserve" font-family="Courier,Courier" font-size="28.0" fill="#7ADA45" transform="matrix(1.00, 0.00, -0.00, -1.00, 902.5, 458.9)">;</text><text xml:space="preserve" font-family="Courier,Courier" font-size="28.0" fill="#FEFFFF" transform="matrix(1.00, 0.00, -0.00, -1.00, 79.0, 390.9)">c</text><text xml:space="preserve" font-family="Courier,Courier" font-size="28.0" fill="#FEFFFF" transform="matrix(1.00, 0.00, -0.00, -1.00, 95.8, 390.9)">l</text><text xml:space="preserve" font-family="Courier,Courier" font-size="28.0" fill="#FEFFFF" transform="matrix(1.00, 0.00, -0.00, -1.00, 112.6, 390.9)">a</text><text xml:space="preserve" font-family="Courier,Courier" font-size="28.0" fill="#FEFFFF" transform="matrix(1.00, 0.00, -0.00, -1.00, 129.4, 390.9)">s</text><text xml:space="preserve" font-family="Courier,Courier" font-size="28.0" fill="#FEFFFF" transform="matrix(1.00, 0.00, -0.00, -1.00, 146.2, 390.9)">s</text><text xml:space="preserve" font-family="Courier,Courier" font-size="28.0" fill="#FEFFFF" transform="matrix(1.00, 0.00, -0.00, -1.00, 163.0, 390.9)"> </text><text xml:space="preserve" font-family="Courier,Courier" font-size="28.0" fill="#FEFFFF" transform="matrix(1.00, 0.00, -0.00, -1.00, 179.8, 390.9)">B</text><text xml:space="preserve" font-family="Courier,Courier" font-size="28.0" fill="#FEFFFF" transform="matrix(1.00, 0.00, -0.00, -1.00, 196.6, 390.9)">a</text><text xml:space="preserve" font-family="Courier,Courier" font-size="28.0" fill="#FEFFFF" transform="matrix(1.00, 0.00, -0.00, -1.00, 213.4, 390.9)">s</text><text xml:space="preserve" font-family="Courier,Courier" font-size="28.0" fill="#FEFFFF" transform="matrix(1.00, 0.00, -0.00, -1.00, 230.2, 390.9)">e</text><text xml:space="preserve" font-family="Courier,Courier" font-size="28.0" fill="#FEFFFF" transform="matrix(1.00, 0.00, -0.00, -1.00, 247.1, 390.9)"> </text><text xml:space="preserve" font-family="Courier,Courier" font-size="28.0" fill="#FEFFFF" transform="matrix(1.00, 0.00, -0.00, -1.00, 263.9, 390.9)">e</text><text xml:space="preserve" font-family="Courier,Courier" font-size="28.0" fill="#FEFFFF" transform="matrix(1.00, 0.00, -0.00, -1.00, 280.7, 390.9)">x</text><text xml:space="preserve" font-family="Courier,Courier" font-size="28.0" fill="#FEFFFF" transform="matrix(1.00, 0.00, -0.00, -1.00, 297.5, 390.9)">t</text><text xml:space="preserve" font-family="Courier,Courier" font-size="28.0" fill="#FEFFFF" transform="matrix(1.00, 0.00, -0.00, -1.00, 314.3, 390.9)">e</text><text xml:space="preserve" font-family="Courier,Courier" font-size="28.0" fill="#FEFFFF" transform="matrix(1.00, 0.00, -0.00, -1.00, 331.1, 390.9)">n</text><text xml:space="preserve" font-family="Courier,Courier" font-size="28.0" fill="#FEFFFF" transform="matrix(1.00, 0.00, -0.00, -1.00, 347.9, 390.9)">d</text><text xml:space="preserve" font-family="Courier,Courier" font-size="28.0" fill="#FEFFFF" transform="matrix(1.00, 0.00, -0.00, -1.00, 364.7, 390.9)">s</text><text xml:space="preserve" font-family="Courier,Courier" font-size="28.0" fill="#FEFFFF" transform="matrix(1.00, 0.00, -0.00, -1.00, 381.5, 390.9)"> </text><text xml:space="preserve" font-family="Courier,Courier" font-size="28.0" fill="#FEFFFF" transform="matrix(1.00, 0.00, -0.00, -1.00, 398.3, 390.9)">R</text><text xml:space="preserve" font-family="Courier,Courier" font-size="28.0" fill="#FEFFFF" transform="matrix(1.00, 0.00, -0.00, -1.00, 415.1, 390.9)">e</text><text xml:space="preserve" font-family="Courier,Courier" font-size="28.0" fill="#FEFFFF" transform="matrix(1.00, 0.00, -0.00, -1.00, 431.9, 390.9)">a</text><text xml:space="preserve" font-family="Courier,Courier" font-size="28.0" fill="#FEFFFF" transform="matrix(1.00, 0.00, -0.00, -1.00, 448.7, 390.9)">c</text><text xml:space="preserve" font-family="Courier,Courier" font-size="28.0" fill="#FEFFFF" transform="matrix(1.00, 0.00, -0.00, -1.00, 465.5, 390.9)">t</text><text xml:space="preserve" font-family="Courier,Courier" font-size="28.0" fill="#FEFFFF" transform="matrix(1.00, 0.00, -0.00, -1.00, 482.3, 390.9)">.</text><text xml:space="preserve" font-family="Courier,Courier" font-size="28.0" fill="#FEFFFF" transform="matrix(1.00, 0.00, -0.00, -1.00, 499.1, 390.9)">C</text><text xml:space="preserve" font-family="Courier,Courier" font-size="28.0" fill="#FEFFFF" transform="matrix(1.00, 0.00, -0.00, -1.00, 515.9, 390.9)">o</text><text xml:space="preserve" font-family="Courier,Courier" font-size="28.0" fill="#FEFFFF" transform="matrix(1.00, 0.00, -0.00, -1.00, 532.7, 390.9)">m</text><text xml:space="preserve" font-family="Courier,Courier" font-size="28.0" fill="#FEFFFF" transform="matrix(1.00, 0.00, -0.00, -1.00, 549.6, 390.9)">p</text><text xml:space="preserve" font-family="Courier,Courier" font-size="28.0" fill="#FEFFFF" transform="matrix(1.00, 0.00, -0.00, -1.00, 566.4, 390.9)">o</text><text xml:space="preserve" font-family="Courier,Courier" font-size="28.0" fill="#FEFFFF" transform="matrix(1.00, 0.00, -0.00, -1.00, 583.2, 390.9)">n</text><text xml:space="preserve" font-family="Courier,Courier" font-size="28.0" fill="#FEFFFF" transform="matrix(1.00, 0.00, -0.00, -1.00, 600.0, 390.9)">e</text><text xml:space="preserve" font-family="Courier,Courier" font-size="28.0" fill="#FEFFFF" transform="matrix(1.00, 0.00, -0.00, -1.00, 616.8, 390.9)">n</text><text xml:space="preserve" font-family="Courier,Courier" font-size="28.0" fill="#FEFFFF" transform="matrix(1.00, 0.00, -0.00, -1.00, 633.6, 390.9)">t</text><text xml:space="preserve" font-family="Courier,Courier" font-size="28.0" fill="#FEFFFF" transform="matrix(1.00, 0.00, -0.00, -1.00, 650.4, 390.9)">{</text><text xml:space="preserve" font-family="Courier,Courier" font-size="28.0" fill="#7ADA45" transform="matrix(1.00, 0.00, -0.00, -1.00, 115.0, 356.9)">s</text><text xml:space="preserve" font-family="Courier,Courier" font-size="28.0" fill="#7ADA45" transform="matrix(1.00, 0.00, -0.00, -1.00, 131.8, 356.9)">h</text><text xml:space="preserve" font-family="Courier,Courier" font-size="28.0" fill="#7ADA45" transform="matrix(1.00, 0.00, -0.00, -1.00, 148.6, 356.9)">o</text><text xml:space="preserve" font-family="Courier,Courier" font-size="28.0" fill="#7ADA45" transform="matrix(1.00, 0.00, -0.00, -1.00, 165.4, 356.9)">u</text><text xml:space="preserve" font-family="Courier,Courier" font-size="28.0" fill="#7ADA45" transform="matrix(1.00, 0.00, -0.00, -1.00, 182.2, 356.9)">l</text><text xml:space="preserve" font-family="Courier,Courier" font-size="28.0" fill="#7ADA45" transform="matrix(1.00, 0.00, -0.00, -1.00, 199.0, 356.9)">d</text><text xml:space="preserve" font-family="Courier,Courier" font-size="28.0" fill="#7ADA45" transform="matrix(1.00, 0.00, -0.00, -1.00, 215.8, 356.9)">C</text><text xml:space="preserve" font-family="Courier,Courier" font-size="28.0" fill="#7ADA45" transform="matrix(1.00, 0.00, -0.00, -1.00, 232.6, 356.9)">o</text><text xml:space="preserve" font-family="Courier,Courier" font-size="28.0" fill="#7ADA45" transform="matrix(1.00, 0.00, -0.00, -1.00, 249.4, 356.9)">m</text><text xml:space="preserve" font-family="Courier,Courier" font-size="28.0" fill="#7ADA45" transform="matrix(1.00, 0.00, -0.00, -1.00, 266.2, 356.9)">p</text><text xml:space="preserve" font-family="Courier,Courier" font-size="28.0" fill="#7ADA45" transform="matrix(1.00, 0.00, -0.00, -1.00, 283.1, 356.9)">o</text><text xml:space="preserve" font-family="Courier,Courier" font-size="28.0" fill="#7ADA45" transform="matrix(1.00, 0.00, -0.00, -1.00, 299.9, 356.9)">n</text><text xml:space="preserve" font-family="Courier,Courier" font-size="28.0" fill="#7ADA45" transform="matrix(1.00, 0.00, -0.00, -1.00, 316.7, 356.9)">e</text><text xml:space="preserve" font-family="Courier,Courier" font-size="28.0" fill="#7ADA45" transform="matrix(1.00, 0.00, -0.00, -1.00, 333.5, 356.9)">n</text><text xml:space="preserve" font-family="Courier,Courier" font-size="28.0" fill="#7ADA45" transform="matrix(1.00, 0.00, -0.00, -1.00, 350.3, 356.9)">t</text><text xml:space="preserve" font-family="Courier,Courier" font-size="28.0" fill="#7ADA45" transform="matrix(1.00, 0.00, -0.00, -1.00, 367.1, 356.9)">U</text><text xml:space="preserve" font-family="Courier,Courier" font-size="28.0" fill="#7ADA45" transform="matrix(1.00, 0.00, -0.00, -1.00, 383.9, 356.9)">p</text><text xml:space="preserve" font-family="Courier,Courier" font-size="28.0" fill="#7ADA45" transform="matrix(1.00, 0.00, -0.00, -1.00, 400.7, 356.9)">d</text><text xml:space="preserve" font-family="Courier,Courier" font-size="28.0" fill="#7ADA45" transform="matrix(1.00, 0.00, -0.00, -1.00, 417.5, 356.9)">a</text><text xml:space="preserve" font-family="Courier,Courier" font-size="28.0" fill="#7ADA45" transform="matrix(1.00, 0.00, -0.00, -1.00, 434.3, 356.9)">t</text><text xml:space="preserve" font-family="Courier,Courier" font-size="28.0" fill="#7ADA45" transform="matrix(1.00, 0.00, -0.00, -1.00, 451.1, 356.9)">e</text><text xml:space="preserve" font-family="Courier,Courier" font-size="28.0" fill="#7ADA45" transform="matrix(1.00, 0.00, -0.00, -1.00, 467.9, 356.9)">(</text><text xml:space="preserve" font-family="Courier,Courier" font-size="28.0" fill="#7ADA45" transform="matrix(1.00, 0.00, -0.00, -1.00, 484.7, 356.9)">n</text><text xml:space="preserve" font-family="Courier,Courier" font-size="28.0" fill="#7ADA45" transform="matrix(1.00, 0.00, -0.00, -1.00, 501.5, 356.9)">e</text><text xml:space="preserve" font-family="Courier,Courier" font-size="28.0" fill="#7ADA45" transform="matrix(1.00, 0.00, -0.00, -1.00, 518.3, 356.9)">x</text><text xml:space="preserve" font-family="Courier,Courier" font-size="28.0" fill="#7ADA45" transform="matrix(1.00, 0.00, -0.00, -1.00, 535.1, 356.9)">t</text><text xml:space="preserve" font-family="Courier,Courier" font-size="28.0" fill="#7ADA45" transform="matrix(1.00, 0.00, -0.00, -1.00, 551.9, 356.9)">P</text><text xml:space="preserve" font-family="Courier,Courier" font-size="28.0" fill="#7ADA45" transform="matrix(1.00, 0.00, -0.00, -1.00, 568.7, 356.9)">r</text><text xml:space="preserve" font-family="Courier,Courier" font-size="28.0" fill="#7ADA45" transform="matrix(1.00, 0.00, -0.00, -1.00, 585.6, 356.9)">o</text><text xml:space="preserve" font-family="Courier,Courier" font-size="28.0" fill="#7ADA45" transform="matrix(1.00, 0.00, -0.00, -1.00, 602.4, 356.9)">p</text><text xml:space="preserve" font-family="Courier,Courier" font-size="28.0" fill="#7ADA45" transform="matrix(1.00, 0.00, -0.00, -1.00, 619.2, 356.9)">s</text><text xml:space="preserve" font-family="Courier,Courier" font-size="28.0" fill="#7ADA45" transform="matrix(1.00, 0.00, -0.00, -1.00, 636.0, 356.9)">,</text><text xml:space="preserve" font-family="Courier,Courier" font-size="28.0" fill="#7ADA45" transform="matrix(1.00, 0.00, -0.00, -1.00, 652.8, 356.9)"> </text><text xml:space="preserve" font-family="Courier,Courier" font-size="28.0" fill="#7ADA45" transform="matrix(1.00, 0.00, -0.00, -1.00, 669.6, 356.9)">n</text><text xml:space="preserve" font-family="Courier,Courier" font-size="28.0" fill="#7ADA45" transform="matrix(1.00, 0.00, -0.00, -1.00, 686.4, 356.9)">e</text><text xml:space="preserve" font-family="Courier,Courier" font-size="28.0" fill="#7ADA45" transform="matrix(1.00, 0.00, -0.00, -1.00, 703.2, 356.9)">x</text><text xml:space="preserve" font-family="Courier,Courier" font-size="28.0" fill="#7ADA45" transform="matrix(1.00, 0.00, -0.00, -1.00, 720.0, 356.9)">t</text><text xml:space="preserve" font-family="Courier,Courier" font-size="28.0" fill="#7ADA45" transform="matrix(1.00, 0.00, -0.00, -1.00, 736.8, 356.9)">S</text><text xml:space="preserve" font-family="Courier,Courier" font-size="28.0" fill="#7ADA45" transform="matrix(1.00, 0.00, -0.00, -1.00, 753.6, 356.9)">t</text><text xml:space="preserve" font-family="Courier,Courier" font-size="28.0" fill="#7ADA45" transform="matrix(1.00, 0.00, -0.00, -1.00, 770.4, 356.9)">a</text><text xml:space="preserve" font-family="Courier,Courier" font-size="28.0" fill="#7ADA45" transform="matrix(1.00, 0.00, -0.00, -1.00, 787.2, 356.9)">t</text><text xml:space="preserve" font-family="Courier,Courier" font-size="28.0" fill="#7ADA45" transform="matrix(1.00, 0.00, -0.00, -1.00, 804.0, 356.9)">e</text><text xml:space="preserve" font-family="Courier,Courier" font-size="28.0" fill="#7ADA45" transform="matrix(1.00, 0.00, -0.00, -1.00, 820.8, 356.9)">)</text><text xml:space="preserve" font-family="Courier,Courier" font-size="28.0" fill="#7ADA45" transform="matrix(1.00, 0.00, -0.00, -1.00, 837.6, 356.9)"> </text><text xml:space="preserve" font-family="Courier,Courier" font-size="28.0" fill="#7ADA45" transform="matrix(1.00, 0.00, -0.00, -1.00, 854.4, 356.9)">{</text><text xml:space="preserve" font-family="Courier,Courier" font-size="28.0" fill="#7ADA45" transform="matrix(1.00, 0.00, -0.00, -1.00, 79.0, 322.9)"> </text><text xml:space="preserve" font-family="Courier,Courier" font-size="28.0" fill="#7ADA45" transform="matrix(1.00, 0.00, -0.00, -1.00, 95.8, 322.9)"> </text><text xml:space="preserve" font-family="Courier,Courier" font-size="28.0" fill="#7ADA45" transform="matrix(1.00, 0.00, -0.00, -1.00, 112.6, 322.9)"> </text><text xml:space="preserve" font-family="Courier,Courier" font-size="28.0" fill="#7ADA45" transform="matrix(1.00, 0.00, -0.00, -1.00, 129.4, 322.9)"> </text><text xml:space="preserve" font-family="Courier,Courier" font-size="28.0" fill="#7ADA45" transform="matrix(1.00, 0.00, -0.00, -1.00, 146.2, 322.9)">r</text><text xml:space="preserve" font-family="Courier,Courier" font-size="28.0" fill="#7ADA45" transform="matrix(1.00, 0.00, -0.00, -1.00, 163.0, 322.9)">e</text><text xml:space="preserve" font-family="Courier,Courier" font-size="28.0" fill="#7ADA45" transform="matrix(1.00, 0.00, -0.00, -1.00, 179.8, 322.9)">t</text><text xml:space="preserve" font-family="Courier,Courier" font-size="28.0" fill="#7ADA45" transform="matrix(1.00, 0.00, -0.00, -1.00, 196.6, 322.9)">u</text><text xml:space="preserve" font-family="Courier,Courier" font-size="28.0" fill="#7ADA45" transform="matrix(1.00, 0.00, -0.00, -1.00, 213.4, 322.9)">r</text><text xml:space="preserve" font-family="Courier,Courier" font-size="28.0" fill="#7ADA45" transform="matrix(1.00, 0.00, -0.00, -1.00, 230.2, 322.9)">n</text><text xml:space="preserve" font-family="Courier,Courier" font-size="28.0" fill="#7ADA45" transform="matrix(1.00, 0.00, -0.00, -1.00, 247.1, 322.9)"> </text><text xml:space="preserve" font-family="Courier,Courier" font-size="28.0" fill="#7ADA45" transform="matrix(1.00, 0.00, -0.00, -1.00, 263.9, 322.9)">!</text><text xml:space="preserve" font-family="Courier,Courier" font-size="28.0" fill="#7ADA45" transform="matrix(1.00, 0.00, -0.00, -1.00, 280.7, 322.9)">s</text><text xml:space="preserve" font-family="Courier,Courier" font-size="28.0" fill="#7ADA45" transform="matrix(1.00, 0.00, -0.00, -1.00, 297.5, 322.9)">h</text><text xml:space="preserve" font-family="Courier,Courier" font-size="28.0" fill="#7ADA45" transform="matrix(1.00, 0.00, -0.00, -1.00, 314.3, 322.9)">a</text><text xml:space="preserve" font-family="Courier,Courier" font-size="28.0" fill="#7ADA45" transform="matrix(1.00, 0.00, -0.00, -1.00, 331.1, 322.9)">l</text><text xml:space="preserve" font-family="Courier,Courier" font-size="28.0" fill="#7ADA45" transform="matrix(1.00, 0.00, -0.00, -1.00, 347.9, 322.9)">l</text><text xml:space="preserve" font-family="Courier,Courier" font-size="28.0" fill="#7ADA45" transform="matrix(1.00, 0.00, -0.00, -1.00, 364.7, 322.9)">o</text><text xml:space="preserve" font-family="Courier,Courier" font-size="28.0" fill="#7ADA45" transform="matrix(1.00, 0.00, -0.00, -1.00, 381.5, 322.9)">w</text><text xml:space="preserve" font-family="Courier,Courier" font-size="28.0" fill="#7ADA45" transform="matrix(1.00, 0.00, -0.00, -1.00, 398.3, 322.9)">E</text><text xml:space="preserve" font-family="Courier,Courier" font-size="28.0" fill="#7ADA45" transform="matrix(1.00, 0.00, -0.00, -1.00, 415.1, 322.9)">q</text><text xml:space="preserve" font-family="Courier,Courier" font-size="28.0" fill="#7ADA45" transform="matrix(1.00, 0.00, -0.00, -1.00, 431.9, 322.9)">u</text><text xml:space="preserve" font-family="Courier,Courier" font-size="28.0" fill="#7ADA45" transform="matrix(1.00, 0.00, -0.00, -1.00, 448.7, 322.9)">a</text><text xml:space="preserve" font-family="Courier,Courier" font-size="28.0" fill="#7ADA45" transform="matrix(1.00, 0.00, -0.00, -1.00, 465.5, 322.9)">l</text><text xml:space="preserve" font-family="Courier,Courier" font-size="28.0" fill="#7ADA45" transform="matrix(1.00, 0.00, -0.00, -1.00, 482.3, 322.9)">(</text><text xml:space="preserve" font-family="Courier,Courier" font-size="28.0" fill="#7ADA45" transform="matrix(1.00, 0.00, -0.00, -1.00, 499.1, 322.9)">t</text><text xml:space="preserve" font-family="Courier,Courier" font-size="28.0" fill="#7ADA45" transform="matrix(1.00, 0.00, -0.00, -1.00, 515.9, 322.9)">h</text><text xml:space="preserve" font-family="Courier,Courier" font-size="28.0" fill="#7ADA45" transform="matrix(1.00, 0.00, -0.00, -1.00, 532.7, 322.9)">i</text><text xml:space="preserve" font-family="Courier,Courier" font-size="28.0" fill="#7ADA45" transform="matrix(1.00, 0.00, -0.00, -1.00, 549.6, 322.9)">s</text><text xml:space="preserve" font-family="Courier,Courier" font-size="28.0" fill="#7ADA45" transform="matrix(1.00, 0.00, -0.00, -1.00, 566.4, 322.9)">.</text><text xml:space="preserve" font-family="Courier,Courier" font-size="28.0" fill="#7ADA45" transform="matrix(1.00, 0.00, -0.00, -1.00, 583.2, 322.9)">p</text><text xml:space="preserve" font-family="Courier,Courier" font-size="28.0" fill="#7ADA45" transform="matrix(1.00, 0.00, -0.00, -1.00, 600.0, 322.9)">r</text><text xml:space="preserve" font-family="Courier,Courier" font-size="28.0" fill="#7ADA45" transform="matrix(1.00, 0.00, -0.00, -1.00, 616.8, 322.9)">o</text><text xml:space="preserve" font-family="Courier,Courier" font-size="28.0" fill="#7ADA45" transform="matrix(1.00, 0.00, -0.00, -1.00, 633.6, 322.9)">p</text><text xml:space="preserve" font-family="Courier,Courier" font-size="28.0" fill="#7ADA45" transform="matrix(1.00, 0.00, -0.00, -1.00, 650.4, 322.9)">s</text><text xml:space="preserve" font-family="Courier,Courier" font-size="28.0" fill="#7ADA45" transform="matrix(1.00, 0.00, -0.00, -1.00, 667.2, 322.9)">,</text><text xml:space="preserve" font-family="Courier,Courier" font-size="28.0" fill="#7ADA45" transform="matrix(1.00, 0.00, -0.00, -1.00, 684.0, 322.9)"> </text><text xml:space="preserve" font-family="Courier,Courier" font-size="28.0" fill="#7ADA45" transform="matrix(1.00, 0.00, -0.00, -1.00, 700.8, 322.9)">n</text><text xml:space="preserve" font-family="Courier,Courier" font-size="28.0" fill="#7ADA45" transform="matrix(1.00, 0.00, -0.00, -1.00, 717.6, 322.9)">e</text><text xml:space="preserve" font-family="Courier,Courier" font-size="28.0" fill="#7ADA45" transform="matrix(1.00, 0.00, -0.00, -1.00, 734.4, 322.9)">x</text><text xml:space="preserve" font-family="Courier,Courier" font-size="28.0" fill="#7ADA45" transform="matrix(1.00, 0.00, -0.00, -1.00, 751.2, 322.9)">t</text><text xml:space="preserve" font-family="Courier,Courier" font-size="28.0" fill="#7ADA45" transform="matrix(1.00, 0.00, -0.00, -1.00, 768.0, 322.9)">P</text><text xml:space="preserve" font-family="Courier,Courier" font-size="28.0" fill="#7ADA45" transform="matrix(1.00, 0.00, -0.00, -1.00, 784.8, 322.9)">r</text><text xml:space="preserve" font-family="Courier,Courier" font-size="28.0" fill="#7ADA45" transform="matrix(1.00, 0.00, -0.00, -1.00, 801.6, 322.9)">o</text><text xml:space="preserve" font-family="Courier,Courier" font-size="28.0" fill="#7ADA45" transform="matrix(1.00, 0.00, -0.00, -1.00, 818.4, 322.9)">p</text><text xml:space="preserve" font-family="Courier,Courier" font-size="28.0" fill="#7ADA45" transform="matrix(1.00, 0.00, -0.00, -1.00, 835.2, 322.9)">s</text><text xml:space="preserve" font-family="Courier,Courier" font-size="28.0" fill="#7ADA45" transform="matrix(1.00, 0.00, -0.00, -1.00, 852.1, 322.9)">)</text><text xml:space="preserve" font-family="Courier,Courier" font-size="28.0" fill="#7ADA45" transform="matrix(1.00, 0.00, -0.00, -1.00, 868.9, 322.9)"> </text><text xml:space="preserve" font-family="Courier,Courier" font-size="28.0" fill="#7ADA45" transform="matrix(1.00, 0.00, -0.00, -1.00, 885.7, 322.9)">|</text><text xml:space="preserve" font-family="Courier,Courier" font-size="28.0" fill="#7ADA45" transform="matrix(1.00, 0.00, -0.00, -1.00, 902.5, 322.9)">|</text><text xml:space="preserve" font-family="Courier,Courier" font-size="28.0" fill="#7ADA45" transform="matrix(1.00, 0.00, -0.00, -1.00, 79.0, 288.9)"> </text><text xml:space="preserve" font-family="Courier,Courier" font-size="28.0" fill="#7ADA45" transform="matrix(1.00, 0.00, -0.00, -1.00, 95.8, 288.9)"> </text><text xml:space="preserve" font-family="Courier,Courier" font-size="28.0" fill="#7ADA45" transform="matrix(1.00, 0.00, -0.00, -1.00, 112.6, 288.9)"> </text><text xml:space="preserve" font-family="Courier,Courier" font-size="28.0" fill="#7ADA45" transform="matrix(1.00, 0.00, -0.00, -1.00, 129.4, 288.9)"> </text><text xml:space="preserve" font-family="Courier,Courier" font-size="28.0" fill="#7ADA45" transform="matrix(1.00, 0.00, -0.00, -1.00, 146.2, 288.9)"> </text><text xml:space="preserve" font-family="Courier,Courier" font-size="28.0" fill="#7ADA45" transform="matrix(1.00, 0.00, -0.00, -1.00, 163.0, 288.9)"> </text><text xml:space="preserve" font-family="Courier,Courier" font-size="28.0" fill="#7ADA45" transform="matrix(1.00, 0.00, -0.00, -1.00, 179.8, 288.9)"> </text><text xml:space="preserve" font-family="Courier,Courier" font-size="28.0" fill="#7ADA45" transform="matrix(1.00, 0.00, -0.00, -1.00, 196.6, 288.9)"> </text><text xml:space="preserve" font-family="Courier,Courier" font-size="28.0" fill="#7ADA45" transform="matrix(1.00, 0.00, -0.00, -1.00, 213.4, 288.9)"> </text><text xml:space="preserve" font-family="Courier,Courier" font-size="28.0" fill="#7ADA45" transform="matrix(1.00, 0.00, -0.00, -1.00, 230.2, 288.9)"> </text><text xml:space="preserve" font-family="Courier,Courier" font-size="28.0" fill="#7ADA45" transform="matrix(1.00, 0.00, -0.00, -1.00, 247.1, 288.9)"> </text><text xml:space="preserve" font-family="Courier,Courier" font-size="28.0" fill="#7ADA45" transform="matrix(1.00, 0.00, -0.00, -1.00, 263.9, 288.9)">!</text><text xml:space="preserve" font-family="Courier,Courier" font-size="28.0" fill="#7ADA45" transform="matrix(1.00, 0.00, -0.00, -1.00, 280.7, 288.9)">s</text><text xml:space="preserve" font-family="Courier,Courier" font-size="28.0" fill="#7ADA45" transform="matrix(1.00, 0.00, -0.00, -1.00, 297.5, 288.9)">h</text><text xml:space="preserve" font-family="Courier,Courier" font-size="28.0" fill="#7ADA45" transform="matrix(1.00, 0.00, -0.00, -1.00, 314.3, 288.9)">a</text><text xml:space="preserve" font-family="Courier,Courier" font-size="28.0" fill="#7ADA45" transform="matrix(1.00, 0.00, -0.00, -1.00, 331.1, 288.9)">l</text><text xml:space="preserve" font-family="Courier,Courier" font-size="28.0" fill="#7ADA45" transform="matrix(1.00, 0.00, -0.00, -1.00, 347.9, 288.9)">l</text><text xml:space="preserve" font-family="Courier,Courier" font-size="28.0" fill="#7ADA45" transform="matrix(1.00, 0.00, -0.00, -1.00, 364.7, 288.9)">o</text><text xml:space="preserve" font-family="Courier,Courier" font-size="28.0" fill="#7ADA45" transform="matrix(1.00, 0.00, -0.00, -1.00, 381.5, 288.9)">w</text><text xml:space="preserve" font-family="Courier,Courier" font-size="28.0" fill="#7ADA45" transform="matrix(1.00, 0.00, -0.00, -1.00, 398.3, 288.9)">E</text><text xml:space="preserve" font-family="Courier,Courier" font-size="28.0" fill="#7ADA45" transform="matrix(1.00, 0.00, -0.00, -1.00, 415.1, 288.9)">q</text><text xml:space="preserve" font-family="Courier,Courier" font-size="28.0" fill="#7ADA45" transform="matrix(1.00, 0.00, -0.00, -1.00, 431.9, 288.9)">u</text><text xml:space="preserve" font-family="Courier,Courier" font-size="28.0" fill="#7ADA45" transform="matrix(1.00, 0.00, -0.00, -1.00, 448.7, 288.9)">a</text><text xml:space="preserve" font-family="Courier,Courier" font-size="28.0" fill="#7ADA45" transform="matrix(1.00, 0.00, -0.00, -1.00, 465.5, 288.9)">l</text><text xml:space="preserve" font-family="Courier,Courier" font-size="28.0" fill="#7ADA45" transform="matrix(1.00, 0.00, -0.00, -1.00, 482.3, 288.9)">(</text><text xml:space="preserve" font-family="Courier,Courier" font-size="28.0" fill="#7ADA45" transform="matrix(1.00, 0.00, -0.00, -1.00, 499.1, 288.9)">t</text><text xml:space="preserve" font-family="Courier,Courier" font-size="28.0" fill="#7ADA45" transform="matrix(1.00, 0.00, -0.00, -1.00, 515.9, 288.9)">h</text><text xml:space="preserve" font-family="Courier,Courier" font-size="28.0" fill="#7ADA45" transform="matrix(1.00, 0.00, -0.00, -1.00, 532.7, 288.9)">i</text><text xml:space="preserve" font-family="Courier,Courier" font-size="28.0" fill="#7ADA45" transform="matrix(1.00, 0.00, -0.00, -1.00, 549.6, 288.9)">s</text><text xml:space="preserve" font-family="Courier,Courier" font-size="28.0" fill="#7ADA45" transform="matrix(1.00, 0.00, -0.00, -1.00, 566.4, 288.9)">.</text><text xml:space="preserve" font-family="Courier,Courier" font-size="28.0" fill="#7ADA45" transform="matrix(1.00, 0.00, -0.00, -1.00, 583.2, 288.9)">s</text><text xml:space="preserve" font-family="Courier,Courier" font-size="28.0" fill="#7ADA45" transform="matrix(1.00, 0.00, -0.00, -1.00, 600.0, 288.9)">t</text><text xml:space="preserve" font-family="Courier,Courier" font-size="28.0" fill="#7ADA45" transform="matrix(1.00, 0.00, -0.00, -1.00, 616.8, 288.9)">a</text><text xml:space="preserve" font-family="Courier,Courier" font-size="28.0" fill="#7ADA45" transform="matrix(1.00, 0.00, -0.00, -1.00, 633.6, 288.9)">t</text><text xml:space="preserve" font-family="Courier,Courier" font-size="28.0" fill="#7ADA45" transform="matrix(1.00, 0.00, -0.00, -1.00, 650.4, 288.9)">e</text><text xml:space="preserve" font-family="Courier,Courier" font-size="28.0" fill="#7ADA45" transform="matrix(1.00, 0.00, -0.00, -1.00, 667.2, 288.9)">,</text><text xml:space="preserve" font-family="Courier,Courier" font-size="28.0" fill="#7ADA45" transform="matrix(1.00, 0.00, -0.00, -1.00, 684.0, 288.9)"> </text><text xml:space="preserve" font-family="Courier,Courier" font-size="28.0" fill="#7ADA45" transform="matrix(1.00, 0.00, -0.00, -1.00, 700.8, 288.9)">n</text><text xml:space="preserve" font-family="Courier,Courier" font-size="28.0" fill="#7ADA45" transform="matrix(1.00, 0.00, -0.00, -1.00, 717.6, 288.9)">e</text><text xml:space="preserve" font-family="Courier,Courier" font-size="28.0" fill="#7ADA45" transform="matrix(1.00, 0.00, -0.00, -1.00, 734.4, 288.9)">x</text><text xml:space="preserve" font-family="Courier,Courier" font-size="28.0" fill="#7ADA45" transform="matrix(1.00, 0.00, -0.00, -1.00, 751.2, 288.9)">t</text><text xml:space="preserve" font-family="Courier,Courier" font-size="28.0" fill="#7ADA45" transform="matrix(1.00, 0.00, -0.00, -1.00, 768.0, 288.9)">S</text><text xml:space="preserve" font-family="Courier,Courier" font-size="28.0" fill="#7ADA45" transform="matrix(1.00, 0.00, -0.00, -1.00, 784.8, 288.9)">t</text><text xml:space="preserve" font-family="Courier,Courier" font-size="28.0" fill="#7ADA45" transform="matrix(1.00, 0.00, -0.00, -1.00, 801.6, 288.9)">a</text><text xml:space="preserve" font-family="Courier,Courier" font-size="28.0" fill="#7ADA45" transform="matrix(1.00, 0.00, -0.00, -1.00, 818.4, 288.9)">t</text><text xml:space="preserve" font-family="Courier,Courier" font-size="28.0" fill="#7ADA45" transform="matrix(1.00, 0.00, -0.00, -1.00, 835.2, 288.9)">e</text><text xml:space="preserve" font-family="Courier,Courier" font-size="28.0" fill="#7ADA45" transform="matrix(1.00, 0.00, -0.00, -1.00, 852.1, 288.9)">)</text><text xml:space="preserve" font-family="Courier,Courier" font-size="28.0" fill="#7ADA45" transform="matrix(1.00, 0.00, -0.00, -1.00, 868.9, 288.9)">;</text><text xml:space="preserve" font-family="Courier,Courier" font-size="28.0" fill="#7ADA45" transform="matrix(1.00, 0.00, -0.00, -1.00, 79.0, 254.9)"> </text><text xml:space="preserve" font-family="Courier,Courier" font-size="28.0" fill="#7ADA45" transform="matrix(1.00, 0.00, -0.00, -1.00, 95.8, 254.9)"> </text><text xml:space="preserve" font-family="Courier,Courier" font-size="28.0" fill="#7ADA45" transform="matrix(1.00, 0.00, -0.00, -1.00, 112.6, 254.9)">}</text><text xml:space="preserve" font-family="Courier,Courier" font-size="28.0" fill="#FEFFFF" transform="matrix(1.00, 0.00, -0.00, -1.00, 79.0, 220.9)">}</text><text xml:space="preserve" font-family="Courier,Courier" font-size="28.0" fill="#FEFFFF" transform="matrix(1.00, 0.00, -0.00, -1.00, 79.0, 152.9)">e</text><text xml:space="preserve" font-family="Courier,Courier" font-size="28.0" fill="#FEFFFF" transform="matrix(1.00, 0.00, -0.00, -1.00, 95.8, 152.9)">x</text><text xml:space="preserve" font-family="Courier,Courier" font-size="28.0" fill="#FEFFFF" transform="matrix(1.00, 0.00, -0.00, -1.00, 112.6, 152.9)">p</text><text xml:space="preserve" font-family="Courier,Courier" font-size="28.0" fill="#FEFFFF" transform="matrix(1.00, 0.00, -0.00, -1.00, 129.4, 152.9)">o</text><text xml:space="preserve" font-family="Courier,Courier" font-size="28.0" fill="#FEFFFF" transform="matrix(1.00, 0.00, -0.00, -1.00, 146.2, 152.9)">r</text><text xml:space="preserve" font-family="Courier,Courier" font-size="28.0" fill="#FEFFFF" transform="matrix(1.00, 0.00, -0.00, -1.00, 163.0, 152.9)">t</text><text xml:space="preserve" font-family="Courier,Courier" font-size="28.0" fill="#FEFFFF" transform="matrix(1.00, 0.00, -0.00, -1.00, 179.8, 152.9)"> </text><text xml:space="preserve" font-family="Courier,Courier" font-size="28.0" fill="#FEFFFF" transform="matrix(1.00, 0.00, -0.00, -1.00, 196.6, 152.9)">d</text><text xml:space="preserve" font-family="Courier,Courier" font-size="28.0" fill="#FEFFFF" transform="matrix(1.00, 0.00, -0.00, -1.00, 213.4, 152.9)">e</text><text xml:space="preserve" font-family="Courier,Courier" font-size="28.0" fill="#FEFFFF" transform="matrix(1.00, 0.00, -0.00, -1.00, 230.2, 152.9)">f</text><text xml:space="preserve" font-family="Courier,Courier" font-size="28.0" fill="#FEFFFF" transform="matrix(1.00, 0.00, -0.00, -1.00, 247.1, 152.9)">a</text><text xml:space="preserve" font-family="Courier,Courier" font-size="28.0" fill="#FEFFFF" transform="matrix(1.00, 0.00, -0.00, -1.00, 263.9, 152.9)">u</text><text xml:space="preserve" font-family="Courier,Courier" font-size="28.0" fill="#FEFFFF" transform="matrix(1.00, 0.00, -0.00, -1.00, 280.7, 152.9)">l</text><text xml:space="preserve" font-family="Courier,Courier" font-size="28.0" fill="#FEFFFF" transform="matrix(1.00, 0.00, -0.00, -1.00, 297.5, 152.9)">t</text><text xml:space="preserve" font-family="Courier,Courier" font-size="28.0" fill="#FEFFFF" transform="matrix(1.00, 0.00, -0.00, -1.00, 314.3, 152.9)"> </text><text xml:space="preserve" font-family="Courier,Courier" font-size="28.0" fill="#FEFFFF" transform="matrix(1.00, 0.00, -0.00, -1.00, 331.1, 152.9)">B</text><text xml:space="preserve" font-family="Courier,Courier" font-size="28.0" fill="#FEFFFF" transform="matrix(1.00, 0.00, -0.00, -1.00, 347.9, 152.9)">a</text><text xml:space="preserve" font-family="Courier,Courier" font-size="28.0" fill="#FEFFFF" transform="matrix(1.00, 0.00, -0.00, -1.00, 364.7, 152.9)">s</text><text xml:space="preserve" font-family="Courier,Courier" font-size="28.0" fill="#FEFFFF" transform="matrix(1.00, 0.00, -0.00, -1.00, 381.5, 152.9)">e</text><text xml:space="preserve" font-family="Courier,Courier" font-size="28.0" fill="#FEFFFF" transform="matrix(1.00, 0.00, -0.00, -1.00, 398.3, 152.9)">;</text></g></svg>