<?xml version="1.0" encoding="UTF-8" standalone="no"?><svg xmlns="http://www.w3.org/2000/svg" xmlns:xlink="http://www.w3.org/1999/xlink" clip-rule="evenodd" stroke-miterlimit="10" viewBox="0 0 954 119"><desc>SVG generated by Keynote</desc><defs></defs><g transform="matrix(1.00, 0.00, -0.00, -1.00, 0.0, 119.0)"><text xml:space="preserve" font-family="Courier,Courier" font-size="36.0" fill="#FEFFFF" transform="matrix(1.00, 0.00, -0.00, -1.00, 1.0, 94.4)">l</text><text xml:space="preserve" font-family="Courier,Courier" font-size="36.0" fill="#FEFFFF" transform="matrix(1.00, 0.00, -0.00, -1.00, 22.6, 94.4)">e</text><text xml:space="preserve" font-family="Courier,Courier" font-size="36.0" fill="#FEFFFF" transform="matrix(1.00, 0.00, -0.00, -1.00, 44.2, 94.4)">t</text><text xml:space="preserve" font-family="Courier,Courier" font-size="36.0" fill="#FEFFFF" transform="matrix(1.00, 0.00, -0.00, -1.00, 65.8, 94.4)"> </text><text xml:space="preserve" font-family="Courier,Courier" font-size="36.0" fill="#FEFFFF" transform="matrix(1.00, 0.00, -0.00, -1.00, 87.5, 94.4)">s</text><text xml:space="preserve" font-family="Courier,Courier" font-size="36.0" fill="#FEFFFF" transform="matrix(1.00, 0.00, -0.00, -1.00, 109.1, 94.4)">t</text><text xml:space="preserve" font-family="Courier,Courier" font-size="36.0" fill="#FEFFFF" transform="matrix(1.00, 0.00, -0.00, -1.00, 130.7, 94.4)">y</text><text xml:space="preserve" font-family="Courier,Courier" font-size="36.0" fill="#FEFFFF" transform="matrix(1.00, 0.00, -0.00, -1.00, 152.3, 94.4)">l</text><text xml:space="preserve" font-family="Courier,Courier" font-size="36.0" fill="#FEFFFF" transform="matrix(1.00, 0.00, -0.00, -1.00, 173.9, 94.4)">e</text><text xml:space="preserve" font-family="Courier,Courier" font-size="36.0" fill="#FEFFFF" transform="matrix(1.00, 0.00, -0.00, -1.00, 195.5, 94.4)">s</text><text xml:space="preserve" font-family="Courier,Courier" font-size="36.0" fill="#FEFFFF" transform="matrix(1.00, 0.00, -0.00, -1.00, 217.1, 94.4)"> </text><text xml:space="preserve" font-family="Courier,Courier" font-size="36.0" fill="#FEFFFF" transform="matrix(1.00, 0.00, -0.00, -1.00, 238.7, 94.4)">=</text><text xml:space="preserve" font-family="Courier,Courier" font-size="36.0" fill="#FEFFFF" transform="matrix(1.00, 0.00, -0.00, -1.00, 260.3, 94.4)"> </text><text xml:space="preserve" font-family="Courier,Courier" font-size="36.0" fill="#FEFFFF" transform="matrix(1.00, 0.00, -0.00, -1.00, 281.9, 94.4)">{</text><text xml:space="preserve" font-family="Courier,Courier" font-size="36.0" fill="#FEFFFF" transform="matrix(1.00, 0.00, -0.00, -1.00, 1.0, 51.4)"> </text><text xml:space="preserve" font-family="Courier,Courier" font-size="36.0" fill="#FEFFFF" transform="matrix(1.00, 0.00, -0.00, -1.00, 22.6, 51.4)"> </text><text xml:space="preserve" font-family="Courier,Courier" font-size="36.0" fill="#FEFFFF" transform="matrix(1.00, 0.00, -0.00, -1.00, 44.2, 51.4)">m</text><text xml:space="preserve" font-family="Courier,Courier" font-size="36.0" fill="#FEFFFF" transform="matrix(1.00, 0.00, -0.00, -1.00, 65.8, 51.4)">a</text><text xml:space="preserve" font-family="Courier,Courier" font-size="36.0" fill="#FEFFFF" transform="matrix(1.00, 0.00, -0.00, -1.00, 87.5, 51.4)">x</text><text xml:space="preserve" font-family="Courier,Courier" font-size="36.0" fill="#FEFFFF" transform="matrix(1.00, 0.00, -0.00, -1.00, 109.1, 51.4)">W</text><text xml:space="preserve" font-family="Courier,Courier" font-size="36.0" fill="#FEFFFF" transform="matrix(1.00, 0.00, -0.00, -1.00, 130.7, 51.4)">i</text><text xml:space="preserve" font-family="Courier,Courier" font-size="36.0" fill="#FEFFFF" transform="matrix(1.00, 0.00, -0.00, -1.00, 152.3, 51.4)">d</text><text xml:space="preserve" font-family="Courier,Courier" font-size="36.0" fill="#FEFFFF" transform="matrix(1.00, 0.00, -0.00, -1.00, 173.9, 51.4)">t</text><text xml:space="preserve" font-family="Courier,Courier" font-size="36.0" fill="#FEFFFF" transform="matrix(1.00, 0.00, -0.00, -1.00, 195.5, 51.4)">h</text><text xml:space="preserve" font-family="Courier,Courier" font-size="36.0" fill="#FEFFFF" transform="matrix(1.00, 0.00, -0.00, -1.00, 217.1, 51.4)"> </text><text xml:space="preserve" font-family="Courier,Courier" font-size="36.0" fill="#FEFFFF" transform="matrix(1.00, 0.00, -0.00, -1.00, 238.7, 51.4)">:</text><text xml:space="preserve" font-family="Courier,Courier" font-size="36.0" fill="#FEFFFF" transform="matrix(1.00, 0.00, -0.00, -1.00, 260.3, 51.4)"> </text><text xml:space="preserve" font-family="Courier,Courier" font-size="36.0" fill="#00F900" transform="matrix(1.00, 0.00, -0.00, -1.00, 281.9, 51.4)">i</text><text xml:space="preserve" font-family="Courier,Courier" font-size="36.0" fill="#00F900" transform="matrix(1.00, 0.00, -0.00, -1.00, 303.5, 51.4)">s</text><text xml:space="preserve" font-family="Courier,Courier" font-size="36.0" fill="#00F900" transform="matrix(1.00, 0.00, -0.00, -1.00, 325.1, 51.4)">M</text><text xml:space="preserve" font-family="Courier,Courier" font-size="36.0" fill="#00F900" transform="matrix(1.00, 0.00, -0.00, -1.00, 346.7, 51.4)">o</text><text xml:space="preserve" font-family="Courier,Courier" font-size="36.0" fill="#00F900" transform="matrix(1.00, 0.00, -0.00, -1.00, 368.3, 51.4)">b</text><text xml:space="preserve" font-family="Courier,Courier" font-size="36.0" fill="#00F900" transform="matrix(1.00, 0.00, -0.00, -1.00, 389.9, 51.4)">i</text><text xml:space="preserve" font-family="Courier,Courier" font-size="36.0" fill="#00F900" transform="matrix(1.00, 0.00, -0.00, -1.00, 411.5, 51.4)">l</text><text xml:space="preserve" font-family="Courier,Courier" font-size="36.0" fill="#00F900" transform="matrix(1.00, 0.00, -0.00, -1.00, 433.1, 51.4)">e</text><text xml:space="preserve" font-family="Courier,Courier" font-size="36.0" fill="#00F900" transform="matrix(1.00, 0.00, -0.00, -1.00, 454.7, 51.4)">(</text><text xml:space="preserve" font-family="Courier,Courier" font-size="36.0" fill="#00F900" transform="matrix(1.00, 0.00, -0.00, -1.00, 476.3, 51.4)">)</text><text xml:space="preserve" font-family="Courier,Courier" font-size="36.0" fill="#FEFFFF" transform="matrix(1.00, 0.00, -0.00, -1.00, 497.9, 51.4)"> </text><text xml:space="preserve" font-family="Courier,Courier" font-size="36.0" fill="#FEFFFF" transform="matrix(1.00, 0.00, -0.00, -1.00, 519.5, 51.4)">?</text><text xml:space="preserve" font-family="Courier,Courier" font-size="36.0" fill="#FEFFFF" transform="matrix(1.00, 0.00, -0.00, -1.00, 541.1, 51.4)"> </text><text xml:space="preserve" font-family="Courier,Courier" font-size="36.0" fill="#FEFFFF" transform="matrix(1.00, 0.00, -0.00, -1.00, 562.7, 51.4)">'</text><text xml:space="preserve" font-family="Courier,Courier" font-size="36.0" fill="#FEFFFF" transform="matrix(1.00, 0.00, -0.00, -1.00, 584.3, 51.4)">3</text><text xml:space="preserve" font-family="Courier,Courier" font-size="36.0" fill="#FEFFFF" transform="matrix(1.00, 0.00, -0.00, -1.00, 605.9, 51.4)">3</text><text xml:space="preserve" font-family="Courier,Courier" font-size="36.0" fill="#FEFFFF" transform="matrix(1.00, 0.00, -0.00, -1.00, 627.5, 51.4)">0</text><text xml:space="preserve" font-family="Courier,Courier" font-size="36.0" fill="#FEFFFF" transform="matrix(1.00, 0.00, -0.00, -1.00, 649.2, 51.4)">p</text><text xml:space="preserve" font-family="Courier,Courier" font-size="36.0" fill="#FEFFFF" transform="matrix(1.00, 0.00, -0.00, -1.00, 670.8, 51.4)">x</text><text xml:space="preserve" font-family="Courier,Courier" font-size="36.0" fill="#FEFFFF" transform="matrix(1.00, 0.00, -0.00, -1.00, 692.4, 51.4)">'</text><text xml:space="preserve" font-family="Courier,Courier" font-size="36.0" fill="#FEFFFF" transform="matrix(1.00, 0.00, -0.00, -1.00, 714.0, 51.4)"> </text><text xml:space="preserve" font-family="Courier,Courier" font-size="36.0" fill="#FEFFFF" transform="matrix(1.00, 0.00, -0.00, -1.00, 735.6, 51.4)">:</text><text xml:space="preserve" font-family="Courier,Courier" font-size="36.0" fill="#FEFFFF" transform="matrix(1.00, 0.00, -0.00, -1.00, 757.2, 51.4)"> </text><text xml:space="preserve" font-family="Courier,Courier" font-size="36.0" fill="#FEFFFF" transform="matrix(1.00, 0.00, -0.00, -1.00, 778.8, 51.4)">‘</text><text xml:space="preserve" font-family="Courier,Courier" font-size="36.0" fill="#FEFFFF" transform="matrix(1.00, 0.00, -0.00, -1.00, 800.4, 51.4)">1</text><text xml:space="preserve" font-family="Courier,Courier" font-size="36.0" fill="#FEFFFF" transform="matrix(1.00, 0.00, -0.00, -1.00, 822.0, 51.4)">0</text><text xml:space="preserve" font-family="Courier,Courier" font-size="36.0" fill="#FEFFFF" transform="matrix(1.00, 0.00, -0.00, -1.00, 843.6, 51.4)">0</text><text xml:space="preserve" font-family="Courier,Courier" font-size="36.0" fill="#FEFFFF" transform="matrix(1.00, 0.00, -0.00, -1.00, 865.2, 51.4)">0</text><text xml:space="preserve" font-family="Courier,Courier" font-size="36.0" fill="#FEFFFF" transform="matrix(1.00, 0.00, -0.00, -1.00, 886.8, 51.4)">p</text><text xml:space="preserve" font-family="Courier,Courier" font-size="36.0" fill="#FEFFFF" transform="matrix(1.00, 0.00, -0.00, -1.00, 908.4, 51.4)">x</text><text xml:space="preserve" font-family="Courier,Courier" font-size="36.0" fill="#FEFFFF" transform="matrix(1.00, 0.00, -0.00, -1.00, 930.0, 51.4)">'</text><text xml:space="preserve" font-family="Courier,Courier" font-size="36.0" fill="#FEFFFF" transform="matrix(1.00, 0.00, -0.00, -1.00, 1.0, 8.4)">}</text><text xml:space="preserve" font-family="Courier,Courier" font-size="36.0" fill="#FEFFFF" transform="matrix(1.00, 0.00, -0.00, -1.00, 22.6, 8.4)">;</text></g></svg>