<?xml version="1.0" encoding="UTF-8" standalone="no"?><svg xmlns="http://www.w3.org/2000/svg" xmlns:xlink="http://www.w3.org/1999/xlink" clip-rule="evenodd" stroke-miterlimit="10" viewBox="0 0 851 69"><desc>SVG generated by Keynote</desc><defs></defs><g transform="matrix(1.00, 0.00, -0.00, -1.00, 0.0, 69.0)"><text xml:space="preserve" font-family="Helvetica-Light,Helvetica" font-size="70.4" fill="#FEFFFF" transform="matrix(1.00, 0.00, -0.00, -1.00, -4.4, 16.2)">P</text><text xml:space="preserve" font-family="Helvetica-Light,Helvetica" font-size="70.4" fill="#FEFFFF" transform="matrix(1.00, 0.00, -0.00, -1.00, 38.6, 16.2)">r</text><text xml:space="preserve" font-family="Helvetica-Light,Helvetica" font-size="70.4" fill="#FEFFFF" transform="matrix(1.00, 0.00, -0.00, -1.00, 60.8, 16.2)">e</text><text xml:space="preserve" font-family="Helvetica-Light,Helvetica" font-size="70.4" fill="#FEFFFF" transform="matrix(1.00, 0.00, -0.00, -1.00, 99.9, 16.2)">p</text><text xml:space="preserve" font-family="Helvetica-Light,Helvetica" font-size="70.4" fill="#FEFFFF" transform="matrix(1.00, 0.00, -0.00, -1.00, 143.0, 16.2)">r</text><text xml:space="preserve" font-family="Helvetica-Light,Helvetica" font-size="70.4" fill="#FEFFFF" transform="matrix(1.00, 0.00, -0.00, -1.00, 165.1, 16.2)">o</text><text xml:space="preserve" font-family="Helvetica-Light,Helvetica" font-size="70.4" fill="#FEFFFF" transform="matrix(1.00, 0.00, -0.00, -1.00, 204.3, 16.2)">c</text><text xml:space="preserve" font-family="Helvetica-Light,Helvetica" font-size="70.4" fill="#FEFFFF" transform="matrix(1.00, 0.00, -0.00, -1.00, 243.4, 16.2)">e</text><text xml:space="preserve" font-family="Helvetica-Light,Helvetica" font-size="70.4" fill="#FEFFFF" transform="matrix(1.00, 0.00, -0.00, -1.00, 282.6, 16.2)">s</text><text xml:space="preserve" font-family="Helvetica-Light,Helvetica" font-size="70.4" fill="#FEFFFF" transform="matrix(1.00, 0.00, -0.00, -1.00, 317.8, 16.2)">s</text><text xml:space="preserve" font-family="Helvetica-Light,Helvetica" font-size="70.4" fill="#FEFFFF" transform="matrix(1.00, 0.00, -0.00, -1.00, 353.0, 16.2)">o</text><text xml:space="preserve" font-family="Helvetica-Light,Helvetica" font-size="70.4" fill="#FEFFFF" transform="matrix(1.00, 0.00, -0.00, -1.00, 392.1, 16.2)">r</text><text xml:space="preserve" font-family="Helvetica-Light,Helvetica" font-size="70.4" fill="#FEFFFF" transform="matrix(1.00, 0.00, -0.00, -1.00, 415.6, 16.2)"> </text><text xml:space="preserve" font-family="Helvetica-Light,Helvetica" font-size="70.4" fill="#FEFFFF" transform="matrix(1.00, 0.00, -0.00, -1.00, 435.1, 16.2)">l</text><text xml:space="preserve" font-family="Helvetica-Light,Helvetica" font-size="70.4" fill="#FEFFFF" transform="matrix(1.00, 0.00, -0.00, -1.00, 450.8, 16.2)">o</text><text xml:space="preserve" font-family="Helvetica-Light,Helvetica" font-size="70.4" fill="#FEFFFF" transform="matrix(1.00, 0.00, -0.00, -1.00, 489.9, 16.2)">g</text><text xml:space="preserve" font-family="Helvetica-Light,Helvetica" font-size="70.4" fill="#FEFFFF" transform="matrix(1.00, 0.00, -0.00, -1.00, 532.9, 16.2)">i</text><text xml:space="preserve" font-family="Helvetica-Light,Helvetica" font-size="70.4" fill="#FEFFFF" transform="matrix(1.00, 0.00, -0.00, -1.00, 548.5, 16.2)">c</text><text xml:space="preserve" font-family="Helvetica-Light,Helvetica" font-size="70.4" fill="#FEFFFF" transform="matrix(1.00, 0.00, -0.00, -1.00, 587.7, 16.2)"> </text><text xml:space="preserve" font-family="Helvetica-Light,Helvetica" font-size="70.4" fill="#FEFFFF" transform="matrix(1.00, 0.00, -0.00, -1.00, 607.3, 16.2)">i</text><text xml:space="preserve" font-family="Helvetica-Light,Helvetica" font-size="70.4" fill="#FEFFFF" transform="matrix(1.00, 0.00, -0.00, -1.00, 622.9, 16.2)">s</text><text xml:space="preserve" font-family="Helvetica-Light,Helvetica" font-size="70.4" fill="#FEFFFF" transform="matrix(1.00, 0.00, -0.00, -1.00, 658.1, 16.2)"> </text><text xml:space="preserve" font-family="Helvetica-Light,Helvetica" font-size="70.4" fill="#FEFFFF" transform="matrix(1.00, 0.00, -0.00, -1.00, 677.7, 16.2)">g</text><text xml:space="preserve" font-family="Helvetica-Light,Helvetica" font-size="70.4" fill="#FEFFFF" transform="matrix(1.00, 0.00, -0.00, -1.00, 720.7, 16.2)">r</text><text xml:space="preserve" font-family="Helvetica-Light,Helvetica" font-size="70.4" fill="#FEFFFF" transform="matrix(1.00, 0.00, -0.00, -1.00, 742.8, 16.2)">o</text><text xml:space="preserve" font-family="Helvetica-Light,Helvetica" font-size="70.4" fill="#FEFFFF" transform="matrix(1.00, 0.00, -0.00, -1.00, 782.0, 16.2)">s</text><text xml:space="preserve" font-family="Helvetica-Light,Helvetica" font-size="70.4" fill="#FEFFFF" transform="matrix(1.00, 0.00, -0.00, -1.00, 817.2, 16.2)">s</text></g></svg>