<?xml version="1.0" encoding="UTF-8" standalone="no"?><svg xmlns="http://www.w3.org/2000/svg" xmlns:xlink="http://www.w3.org/1999/xlink" clip-rule="evenodd" stroke-miterlimit="10" viewBox="0 0 1024 768"><desc>SVG generated by Keynote</desc><defs></defs><g transform="matrix(1.00, 0.00, -0.00, -1.00, 0.0, 768.0)"><path d="M 0.0 768.0 L 1024.0 768.0 L 1024.0 0.0 L 0.0 0.0 Z M 0.0 768.0 " fill="#000000"></path><text xml:space="preserve" font-family="Helvetica-Light,Helvetica" font-size="80.0" fill="#FEFFFF" transform="matrix(1.00, 0.00, -0.00, -1.00, 102.3, 633.4)">N</text><text xml:space="preserve" font-family="Helvetica-Light,Helvetica" font-size="80.0" fill="#FEFFFF" transform="matrix(1.00, 0.00, -0.00, -1.00, 160.1, 633.4)">a</text><text xml:space="preserve" font-family="Helvetica-Light,Helvetica" font-size="80.0" fill="#FEFFFF" transform="matrix(1.00, 0.00, -0.00, -1.00, 204.6, 633.4)">m</text><text xml:space="preserve" font-family="Helvetica-Light,Helvetica" font-size="80.0" fill="#FEFFFF" transform="matrix(1.00, 0.00, -0.00, -1.00, 271.2, 633.4)">e</text><text xml:space="preserve" font-family="Helvetica-Light,Helvetica" font-size="80.0" fill="#FEFFFF" transform="matrix(1.00, 0.00, -0.00, -1.00, 315.7, 633.4)">d</text><text xml:space="preserve" font-family="Helvetica-Light,Helvetica" font-size="80.0" fill="#FEFFFF" transform="matrix(1.00, 0.00, -0.00, -1.00, 364.6, 633.4)"> </text><text xml:space="preserve" font-family="Helvetica-Light,Helvetica" font-size="80.0" fill="#FEFFFF" transform="matrix(1.00, 0.00, -0.00, -1.00, 386.8, 633.4)">p</text><text xml:space="preserve" font-family="Helvetica-Light,Helvetica" font-size="80.0" fill="#FEFFFF" transform="matrix(1.00, 0.00, -0.00, -1.00, 435.7, 633.4)">a</text><text xml:space="preserve" font-family="Helvetica-Light,Helvetica" font-size="80.0" fill="#FEFFFF" transform="matrix(1.00, 0.00, -0.00, -1.00, 480.2, 633.4)">l</text><text xml:space="preserve" font-family="Helvetica-Light,Helvetica" font-size="80.0" fill="#FEFFFF" transform="matrix(1.00, 0.00, -0.00, -1.00, 497.9, 633.4)">e</text><text xml:space="preserve" font-family="Helvetica-Light,Helvetica" font-size="80.0" fill="#FEFFFF" transform="matrix(1.00, 0.00, -0.00, -1.00, 542.4, 633.4)">t</text><text xml:space="preserve" font-family="Helvetica-Light,Helvetica" font-size="80.0" fill="#FEFFFF" transform="matrix(1.00, 0.00, -0.00, -1.00, 564.6, 633.4)">t</text><text xml:space="preserve" font-family="Helvetica-Light,Helvetica" font-size="80.0" fill="#FEFFFF" transform="matrix(1.00, 0.00, -0.00, -1.00, 586.9, 633.4)">e</text><text xml:space="preserve" font-family="Helvetica-Light,Helvetica" font-size="80.0" fill="#FEFFFF" transform="matrix(1.00, 0.00, -0.00, -1.00, 631.4, 633.4)"> </text><text xml:space="preserve" font-family="Helvetica-Light,Helvetica" font-size="80.0" fill="#FEFFFF" transform="matrix(1.00, 0.00, -0.00, -1.00, 653.6, 633.4)">i</text><text xml:space="preserve" font-family="Helvetica-Light,Helvetica" font-size="80.0" fill="#FEFFFF" transform="matrix(1.00, 0.00, -0.00, -1.00, 671.4, 633.4)">m</text><text xml:space="preserve" font-family="Helvetica-Light,Helvetica" font-size="80.0" fill="#FEFFFF" transform="matrix(1.00, 0.00, -0.00, -1.00, 738.0, 633.4)">p</text><text xml:space="preserve" font-family="Helvetica-Light,Helvetica" font-size="80.0" fill="#FEFFFF" transform="matrix(1.00, 0.00, -0.00, -1.00, 786.9, 633.4)">o</text><text xml:space="preserve" font-family="Helvetica-Light,Helvetica" font-size="80.0" fill="#FEFFFF" transform="matrix(1.00, 0.00, -0.00, -1.00, 831.4, 633.4)">r</text><text xml:space="preserve" font-family="Helvetica-Light,Helvetica" font-size="80.0" fill="#FEFFFF" transform="matrix(1.00, 0.00, -0.00, -1.00, 859.4, 633.4)">t</text><text xml:space="preserve" font-family="Helvetica-Light,Helvetica" font-size="80.0" fill="#FEFFFF" transform="matrix(1.00, 0.00, -0.00, -1.00, 881.7, 633.4)">s</text><text xml:space="preserve" font-family="Courier,Courier" font-size="36.0" fill="#FEFFFF" transform="matrix(1.00, 0.00, -0.00, -1.00, 60.4, 513.0)">i</text><text xml:space="preserve" font-family="Courier,Courier" font-size="36.0" fill="#FEFFFF" transform="matrix(1.00, 0.00, -0.00, -1.00, 82.0, 513.0)">m</text><text xml:space="preserve" font-family="Courier,Courier" font-size="36.0" fill="#FEFFFF" transform="matrix(1.00, 0.00, -0.00, -1.00, 103.6, 513.0)">p</text><text xml:space="preserve" font-family="Courier,Courier" font-size="36.0" fill="#FEFFFF" transform="matrix(1.00, 0.00, -0.00, -1.00, 125.2, 513.0)">o</text><text xml:space="preserve" font-family="Courier,Courier" font-size="36.0" fill="#FEFFFF" transform="matrix(1.00, 0.00, -0.00, -1.00, 146.8, 513.0)">r</text><text xml:space="preserve" font-family="Courier,Courier" font-size="36.0" fill="#FEFFFF" transform="matrix(1.00, 0.00, -0.00, -1.00, 168.4, 513.0)">t</text><text xml:space="preserve" font-family="Courier,Courier" font-size="36.0" fill="#FEFFFF" transform="matrix(1.00, 0.00, -0.00, -1.00, 190.0, 513.0)"> </text><text xml:space="preserve" font-family="Courier,Courier" font-size="36.0" fill="#FEFFFF" transform="matrix(1.00, 0.00, -0.00, -1.00, 211.6, 513.0)">{</text><text xml:space="preserve" font-family="Courier,Courier" font-size="36.0" fill="#FEFFFF" transform="matrix(1.00, 0.00, -0.00, -1.00, 60.4, 470.0)"> </text><text xml:space="preserve" font-family="Courier,Courier" font-size="36.0" fill="#FEFFFF" transform="matrix(1.00, 0.00, -0.00, -1.00, 82.0, 470.0)"> </text><text xml:space="preserve" font-family="Courier,Courier" font-size="36.0" fill="#00F900" transform="matrix(1.00, 0.00, -0.00, -1.00, 103.6, 470.0)">P</text><text xml:space="preserve" font-family="Courier,Courier" font-size="36.0" fill="#00F900" transform="matrix(1.00, 0.00, -0.00, -1.00, 125.2, 470.0)">O</text><text xml:space="preserve" font-family="Courier,Courier" font-size="36.0" fill="#00F900" transform="matrix(1.00, 0.00, -0.00, -1.00, 146.8, 470.0)">P</text><text xml:space="preserve" font-family="Courier,Courier" font-size="36.0" fill="#00F900" transform="matrix(1.00, 0.00, -0.00, -1.00, 168.4, 470.0)">P</text><text xml:space="preserve" font-family="Courier,Courier" font-size="36.0" fill="#00F900" transform="matrix(1.00, 0.00, -0.00, -1.00, 190.0, 470.0)">Y</text><text xml:space="preserve" font-family="Courier,Courier" font-size="36.0" fill="#FEFFFF" transform="matrix(1.00, 0.00, -0.00, -1.00, 211.6, 470.0)"> </text><text xml:space="preserve" font-family="Courier,Courier" font-size="36.0" fill="#FEFFFF" transform="matrix(1.00, 0.00, -0.00, -1.00, 233.2, 470.0)">a</text><text xml:space="preserve" font-family="Courier,Courier" font-size="36.0" fill="#FEFFFF" transform="matrix(1.00, 0.00, -0.00, -1.00, 254.8, 470.0)">s</text><text xml:space="preserve" font-family="Courier,Courier" font-size="36.0" fill="#FEFFFF" transform="matrix(1.00, 0.00, -0.00, -1.00, 276.4, 470.0)"> </text><text xml:space="preserve" font-family="Courier,Courier" font-size="36.0" fill="#00F900" transform="matrix(1.00, 0.00, -0.00, -1.00, 298.0, 470.0)">C</text><text xml:space="preserve" font-family="Courier,Courier" font-size="36.0" fill="#00F900" transform="matrix(1.00, 0.00, -0.00, -1.00, 319.6, 470.0)">O</text><text xml:space="preserve" font-family="Courier,Courier" font-size="36.0" fill="#00F900" transform="matrix(1.00, 0.00, -0.00, -1.00, 341.2, 470.0)">L</text><text xml:space="preserve" font-family="Courier,Courier" font-size="36.0" fill="#00F900" transform="matrix(1.00, 0.00, -0.00, -1.00, 362.8, 470.0)">O</text><text xml:space="preserve" font-family="Courier,Courier" font-size="36.0" fill="#00F900" transform="matrix(1.00, 0.00, -0.00, -1.00, 384.4, 470.0)">R</text><text xml:space="preserve" font-family="Courier,Courier" font-size="36.0" fill="#00F900" transform="matrix(1.00, 0.00, -0.00, -1.00, 406.0, 470.0)">_</text><text xml:space="preserve" font-family="Courier,Courier" font-size="36.0" fill="#00F900" transform="matrix(1.00, 0.00, -0.00, -1.00, 427.6, 470.0)">N</text><text xml:space="preserve" font-family="Courier,Courier" font-size="36.0" fill="#00F900" transform="matrix(1.00, 0.00, -0.00, -1.00, 449.3, 470.0)">E</text><text xml:space="preserve" font-family="Courier,Courier" font-size="36.0" fill="#00F900" transform="matrix(1.00, 0.00, -0.00, -1.00, 470.9, 470.0)">U</text><text xml:space="preserve" font-family="Courier,Courier" font-size="36.0" fill="#00F900" transform="matrix(1.00, 0.00, -0.00, -1.00, 492.5, 470.0)">T</text><text xml:space="preserve" font-family="Courier,Courier" font-size="36.0" fill="#00F900" transform="matrix(1.00, 0.00, -0.00, -1.00, 514.1, 470.0)">R</text><text xml:space="preserve" font-family="Courier,Courier" font-size="36.0" fill="#00F900" transform="matrix(1.00, 0.00, -0.00, -1.00, 535.7, 470.0)">A</text><text xml:space="preserve" font-family="Courier,Courier" font-size="36.0" fill="#00F900" transform="matrix(1.00, 0.00, -0.00, -1.00, 557.3, 470.0)">L</text><text xml:space="preserve" font-family="Courier,Courier" font-size="36.0" fill="#FEFFFF" transform="matrix(1.00, 0.00, -0.00, -1.00, 60.4, 427.0)">}</text><text xml:space="preserve" font-family="Courier,Courier" font-size="36.0" fill="#FEFFFF" transform="matrix(1.00, 0.00, -0.00, -1.00, 82.0, 427.0)"> </text><text xml:space="preserve" font-family="Courier,Courier" font-size="36.0" fill="#FEFFFF" transform="matrix(1.00, 0.00, -0.00, -1.00, 103.6, 427.0)">f</text><text xml:space="preserve" font-family="Courier,Courier" font-size="36.0" fill="#FEFFFF" transform="matrix(1.00, 0.00, -0.00, -1.00, 125.2, 427.0)">r</text><text xml:space="preserve" font-family="Courier,Courier" font-size="36.0" fill="#FEFFFF" transform="matrix(1.00, 0.00, -0.00, -1.00, 146.8, 427.0)">o</text><text xml:space="preserve" font-family="Courier,Courier" font-size="36.0" fill="#FEFFFF" transform="matrix(1.00, 0.00, -0.00, -1.00, 168.4, 427.0)">m</text><text xml:space="preserve" font-family="Courier,Courier" font-size="36.0" fill="#FEFFFF" transform="matrix(1.00, 0.00, -0.00, -1.00, 190.0, 427.0)"> </text><text xml:space="preserve" font-family="Courier,Courier" font-size="36.0" fill="#FEFFFF" transform="matrix(1.00, 0.00, -0.00, -1.00, 211.6, 427.0)">‘</text><text xml:space="preserve" font-family="Courier,Courier" font-size="36.0" fill="#FEFFFF" transform="matrix(1.00, 0.00, -0.00, -1.00, 233.2, 427.0)">.</text><text xml:space="preserve" font-family="Courier,Courier" font-size="36.0" fill="#FEFFFF" transform="matrix(1.00, 0.00, -0.00, -1.00, 254.8, 427.0)">/</text><text xml:space="preserve" font-family="Courier,Courier" font-size="36.0" fill="#FEFFFF" transform="matrix(1.00, 0.00, -0.00, -1.00, 276.4, 427.0)">p</text><text xml:space="preserve" font-family="Courier,Courier" font-size="36.0" fill="#FEFFFF" transform="matrix(1.00, 0.00, -0.00, -1.00, 298.0, 427.0)">a</text><text xml:space="preserve" font-family="Courier,Courier" font-size="36.0" fill="#FEFFFF" transform="matrix(1.00, 0.00, -0.00, -1.00, 319.7, 427.0)">l</text><text xml:space="preserve" font-family="Courier,Courier" font-size="36.0" fill="#FEFFFF" transform="matrix(1.00, 0.00, -0.00, -1.00, 341.3, 427.0)">e</text><text xml:space="preserve" font-family="Courier,Courier" font-size="36.0" fill="#FEFFFF" transform="matrix(1.00, 0.00, -0.00, -1.00, 362.9, 427.0)">t</text><text xml:space="preserve" font-family="Courier,Courier" font-size="36.0" fill="#FEFFFF" transform="matrix(1.00, 0.00, -0.00, -1.00, 384.5, 427.0)">t</text><text xml:space="preserve" font-family="Courier,Courier" font-size="36.0" fill="#FEFFFF" transform="matrix(1.00, 0.00, -0.00, -1.00, 406.1, 427.0)">e</text><text xml:space="preserve" font-family="Courier,Courier" font-size="36.0" fill="#FEFFFF" transform="matrix(1.00, 0.00, -0.00, -1.00, 427.7, 427.0)">s</text><text xml:space="preserve" font-family="Courier,Courier" font-size="36.0" fill="#FEFFFF" transform="matrix(1.00, 0.00, -0.00, -1.00, 449.3, 427.0)">’</text><text xml:space="preserve" font-family="Courier,Courier" font-size="36.0" fill="#FEFFFF" transform="matrix(1.00, 0.00, -0.00, -1.00, 470.9, 427.0)">;</text><text xml:space="preserve" font-family="Courier,Courier" font-size="36.0" fill="#FEFFFF" transform="matrix(1.00, 0.00, -0.00, -1.00, 60.4, 341.0)">l</text><text xml:space="preserve" font-family="Courier,Courier" font-size="36.0" fill="#FEFFFF" transform="matrix(1.00, 0.00, -0.00, -1.00, 82.0, 341.0)">e</text><text xml:space="preserve" font-family="Courier,Courier" font-size="36.0" fill="#FEFFFF" transform="matrix(1.00, 0.00, -0.00, -1.00, 103.6, 341.0)">t</text><text xml:space="preserve" font-family="Courier,Courier" font-size="36.0" fill="#FEFFFF" transform="matrix(1.00, 0.00, -0.00, -1.00, 125.2, 341.0)"> </text><text xml:space="preserve" font-family="Courier,Courier" font-size="36.0" fill="#FEFFFF" transform="matrix(1.00, 0.00, -0.00, -1.00, 146.8, 341.0)">s</text><text xml:space="preserve" font-family="Courier,Courier" font-size="36.0" fill="#FEFFFF" transform="matrix(1.00, 0.00, -0.00, -1.00, 168.4, 341.0)">t</text><text xml:space="preserve" font-family="Courier,Courier" font-size="36.0" fill="#FEFFFF" transform="matrix(1.00, 0.00, -0.00, -1.00, 190.0, 341.0)">y</text><text xml:space="preserve" font-family="Courier,Courier" font-size="36.0" fill="#FEFFFF" transform="matrix(1.00, 0.00, -0.00, -1.00, 211.6, 341.0)">l</text><text xml:space="preserve" font-family="Courier,Courier" font-size="36.0" fill="#FEFFFF" transform="matrix(1.00, 0.00, -0.00, -1.00, 233.2, 341.0)">e</text><text xml:space="preserve" font-family="Courier,Courier" font-size="36.0" fill="#FEFFFF" transform="matrix(1.00, 0.00, -0.00, -1.00, 254.8, 341.0)">s</text><text xml:space="preserve" font-family="Courier,Courier" font-size="36.0" fill="#FEFFFF" transform="matrix(1.00, 0.00, -0.00, -1.00, 276.4, 341.0)"> </text><text xml:space="preserve" font-family="Courier,Courier" font-size="36.0" fill="#FEFFFF" transform="matrix(1.00, 0.00, -0.00, -1.00, 298.0, 341.0)">=</text><text xml:space="preserve" font-family="Courier,Courier" font-size="36.0" fill="#FEFFFF" transform="matrix(1.00, 0.00, -0.00, -1.00, 319.7, 341.0)"> </text><text xml:space="preserve" font-family="Courier,Courier" font-size="36.0" fill="#FEFFFF" transform="matrix(1.00, 0.00, -0.00, -1.00, 341.3, 341.0)">{</text><text xml:space="preserve" font-family="Courier,Courier" font-size="36.0" fill="#FEFFFF" transform="matrix(1.00, 0.00, -0.00, -1.00, 60.4, 298.0)"> </text><text xml:space="preserve" font-family="Courier,Courier" font-size="36.0" fill="#FEFFFF" transform="matrix(1.00, 0.00, -0.00, -1.00, 82.0, 298.0)"> </text><text xml:space="preserve" font-family="Courier,Courier" font-size="36.0" fill="#FEFFFF" transform="matrix(1.00, 0.00, -0.00, -1.00, 103.6, 298.0)">b</text><text xml:space="preserve" font-family="Courier,Courier" font-size="36.0" fill="#FEFFFF" transform="matrix(1.00, 0.00, -0.00, -1.00, 125.2, 298.0)">a</text><text xml:space="preserve" font-family="Courier,Courier" font-size="36.0" fill="#FEFFFF" transform="matrix(1.00, 0.00, -0.00, -1.00, 146.8, 298.0)">c</text><text xml:space="preserve" font-family="Courier,Courier" font-size="36.0" fill="#FEFFFF" transform="matrix(1.00, 0.00, -0.00, -1.00, 168.4, 298.0)">k</text><text xml:space="preserve" font-family="Courier,Courier" font-size="36.0" fill="#FEFFFF" transform="matrix(1.00, 0.00, -0.00, -1.00, 190.0, 298.0)">g</text><text xml:space="preserve" font-family="Courier,Courier" font-size="36.0" fill="#FEFFFF" transform="matrix(1.00, 0.00, -0.00, -1.00, 211.6, 298.0)">r</text><text xml:space="preserve" font-family="Courier,Courier" font-size="36.0" fill="#FEFFFF" transform="matrix(1.00, 0.00, -0.00, -1.00, 233.2, 298.0)">o</text><text xml:space="preserve" font-family="Courier,Courier" font-size="36.0" fill="#FEFFFF" transform="matrix(1.00, 0.00, -0.00, -1.00, 254.8, 298.0)">u</text><text xml:space="preserve" font-family="Courier,Courier" font-size="36.0" fill="#FEFFFF" transform="matrix(1.00, 0.00, -0.00, -1.00, 276.4, 298.0)">n</text><text xml:space="preserve" font-family="Courier,Courier" font-size="36.0" fill="#FEFFFF" transform="matrix(1.00, 0.00, -0.00, -1.00, 298.0, 298.0)">d</text><text xml:space="preserve" font-family="Courier,Courier" font-size="36.0" fill="#FEFFFF" transform="matrix(1.00, 0.00, -0.00, -1.00, 319.7, 298.0)">C</text><text xml:space="preserve" font-family="Courier,Courier" font-size="36.0" fill="#FEFFFF" transform="matrix(1.00, 0.00, -0.00, -1.00, 341.3, 298.0)">o</text><text xml:space="preserve" font-family="Courier,Courier" font-size="36.0" fill="#FEFFFF" transform="matrix(1.00, 0.00, -0.00, -1.00, 362.9, 298.0)">l</text><text xml:space="preserve" font-family="Courier,Courier" font-size="36.0" fill="#FEFFFF" transform="matrix(1.00, 0.00, -0.00, -1.00, 384.5, 298.0)">o</text><text xml:space="preserve" font-family="Courier,Courier" font-size="36.0" fill="#FEFFFF" transform="matrix(1.00, 0.00, -0.00, -1.00, 406.1, 298.0)">r</text><text xml:space="preserve" font-family="Courier,Courier" font-size="36.0" fill="#FEFFFF" transform="matrix(1.00, 0.00, -0.00, -1.00, 427.7, 298.0)"> </text><text xml:space="preserve" font-family="Courier,Courier" font-size="36.0" fill="#FEFFFF" transform="matrix(1.00, 0.00, -0.00, -1.00, 449.3, 298.0)">:</text><text xml:space="preserve" font-family="Courier,Courier" font-size="36.0" fill="#FEFFFF" transform="matrix(1.00, 0.00, -0.00, -1.00, 470.9, 298.0)"> </text><text xml:space="preserve" font-family="Courier,Courier" font-size="36.0" fill="#FEFFFF" transform="matrix(1.00, 0.00, -0.00, -1.00, 492.5, 298.0)">C</text><text xml:space="preserve" font-family="Courier,Courier" font-size="36.0" fill="#FEFFFF" transform="matrix(1.00, 0.00, -0.00, -1.00, 514.1, 298.0)">O</text><text xml:space="preserve" font-family="Courier,Courier" font-size="36.0" fill="#FEFFFF" transform="matrix(1.00, 0.00, -0.00, -1.00, 535.7, 298.0)">L</text><text xml:space="preserve" font-family="Courier,Courier" font-size="36.0" fill="#FEFFFF" transform="matrix(1.00, 0.00, -0.00, -1.00, 557.3, 298.0)">O</text><text xml:space="preserve" font-family="Courier,Courier" font-size="36.0" fill="#FEFFFF" transform="matrix(1.00, 0.00, -0.00, -1.00, 578.9, 298.0)">R</text><text xml:space="preserve" font-family="Courier,Courier" font-size="36.0" fill="#FEFFFF" transform="matrix(1.00, 0.00, -0.00, -1.00, 600.5, 298.0)">_</text><text xml:space="preserve" font-family="Courier,Courier" font-size="36.0" fill="#FEFFFF" transform="matrix(1.00, 0.00, -0.00, -1.00, 622.2, 298.0)">N</text><text xml:space="preserve" font-family="Courier,Courier" font-size="36.0" fill="#FEFFFF" transform="matrix(1.00, 0.00, -0.00, -1.00, 643.8, 298.0)">E</text><text xml:space="preserve" font-family="Courier,Courier" font-size="36.0" fill="#FEFFFF" transform="matrix(1.00, 0.00, -0.00, -1.00, 665.4, 298.0)">U</text><text xml:space="preserve" font-family="Courier,Courier" font-size="36.0" fill="#FEFFFF" transform="matrix(1.00, 0.00, -0.00, -1.00, 687.0, 298.0)">T</text><text xml:space="preserve" font-family="Courier,Courier" font-size="36.0" fill="#FEFFFF" transform="matrix(1.00, 0.00, -0.00, -1.00, 708.6, 298.0)">R</text><text xml:space="preserve" font-family="Courier,Courier" font-size="36.0" fill="#FEFFFF" transform="matrix(1.00, 0.00, -0.00, -1.00, 730.2, 298.0)">A</text><text xml:space="preserve" font-family="Courier,Courier" font-size="36.0" fill="#FEFFFF" transform="matrix(1.00, 0.00, -0.00, -1.00, 751.8, 298.0)">L</text><text xml:space="preserve" font-family="Courier,Courier" font-size="36.0" fill="#FEFFFF" transform="matrix(1.00, 0.00, -0.00, -1.00, 773.4, 298.0)">[</text><text xml:space="preserve" font-family="Courier,Courier" font-size="36.0" fill="#FEFFFF" transform="matrix(1.00, 0.00, -0.00, -1.00, 795.0, 298.0)">‘</text><text xml:space="preserve" font-family="Courier,Courier" font-size="36.0" fill="#FEFFFF" transform="matrix(1.00, 0.00, -0.00, -1.00, 816.6, 298.0)">5</text><text xml:space="preserve" font-family="Courier,Courier" font-size="36.0" fill="#FEFFFF" transform="matrix(1.00, 0.00, -0.00, -1.00, 838.2, 298.0)">0</text><text xml:space="preserve" font-family="Courier,Courier" font-size="36.0" fill="#FEFFFF" transform="matrix(1.00, 0.00, -0.00, -1.00, 859.8, 298.0)">0</text><text xml:space="preserve" font-family="Courier,Courier" font-size="36.0" fill="#FEFFFF" transform="matrix(1.00, 0.00, -0.00, -1.00, 881.4, 298.0)">’</text><text xml:space="preserve" font-family="Courier,Courier" font-size="36.0" fill="#FEFFFF" transform="matrix(1.00, 0.00, -0.00, -1.00, 903.0, 298.0)">]</text><text xml:space="preserve" font-family="Courier,Courier" font-size="36.0" fill="#FEFFFF" transform="matrix(1.00, 0.00, -0.00, -1.00, 924.6, 298.0)">,</text><text xml:space="preserve" font-family="Courier,Courier" font-size="36.0" fill="#FEFFFF" transform="matrix(1.00, 0.00, -0.00, -1.00, 60.4, 255.0)"> </text><text xml:space="preserve" font-family="Courier,Courier" font-size="36.0" fill="#FEFFFF" transform="matrix(1.00, 0.00, -0.00, -1.00, 82.0, 255.0)"> </text><text xml:space="preserve" font-family="Courier,Courier" font-size="36.0" fill="#FEFFFF" transform="matrix(1.00, 0.00, -0.00, -1.00, 103.6, 255.0)">c</text><text xml:space="preserve" font-family="Courier,Courier" font-size="36.0" fill="#FEFFFF" transform="matrix(1.00, 0.00, -0.00, -1.00, 125.2, 255.0)">o</text><text xml:space="preserve" font-family="Courier,Courier" font-size="36.0" fill="#FEFFFF" transform="matrix(1.00, 0.00, -0.00, -1.00, 146.8, 255.0)">l</text><text xml:space="preserve" font-family="Courier,Courier" font-size="36.0" fill="#FEFFFF" transform="matrix(1.00, 0.00, -0.00, -1.00, 168.4, 255.0)">o</text><text xml:space="preserve" font-family="Courier,Courier" font-size="36.0" fill="#FEFFFF" transform="matrix(1.00, 0.00, -0.00, -1.00, 190.0, 255.0)">r</text><text xml:space="preserve" font-family="Courier,Courier" font-size="36.0" fill="#FEFFFF" transform="matrix(1.00, 0.00, -0.00, -1.00, 211.6, 255.0)"> </text><text xml:space="preserve" font-family="Courier,Courier" font-size="36.0" fill="#FEFFFF" transform="matrix(1.00, 0.00, -0.00, -1.00, 233.2, 255.0)"> </text><text xml:space="preserve" font-family="Courier,Courier" font-size="36.0" fill="#FEFFFF" transform="matrix(1.00, 0.00, -0.00, -1.00, 254.8, 255.0)"> </text><text xml:space="preserve" font-family="Courier,Courier" font-size="36.0" fill="#FEFFFF" transform="matrix(1.00, 0.00, -0.00, -1.00, 276.4, 255.0)"> </text><text xml:space="preserve" font-family="Courier,Courier" font-size="36.0" fill="#FEFFFF" transform="matrix(1.00, 0.00, -0.00, -1.00, 298.0, 255.0)"> </text><text xml:space="preserve" font-family="Courier,Courier" font-size="36.0" fill="#FEFFFF" transform="matrix(1.00, 0.00, -0.00, -1.00, 319.7, 255.0)"> </text><text xml:space="preserve" font-family="Courier,Courier" font-size="36.0" fill="#FEFFFF" transform="matrix(1.00, 0.00, -0.00, -1.00, 341.3, 255.0)"> </text><text xml:space="preserve" font-family="Courier,Courier" font-size="36.0" fill="#FEFFFF" transform="matrix(1.00, 0.00, -0.00, -1.00, 362.9, 255.0)"> </text><text xml:space="preserve" font-family="Courier,Courier" font-size="36.0" fill="#FEFFFF" transform="matrix(1.00, 0.00, -0.00, -1.00, 384.5, 255.0)"> </text><text xml:space="preserve" font-family="Courier,Courier" font-size="36.0" fill="#FEFFFF" transform="matrix(1.00, 0.00, -0.00, -1.00, 406.1, 255.0)"> </text><text xml:space="preserve" font-family="Courier,Courier" font-size="36.0" fill="#FEFFFF" transform="matrix(1.00, 0.00, -0.00, -1.00, 427.7, 255.0)"> </text><text xml:space="preserve" font-family="Courier,Courier" font-size="36.0" fill="#FEFFFF" transform="matrix(1.00, 0.00, -0.00, -1.00, 449.3, 255.0)">:</text><text xml:space="preserve" font-family="Courier,Courier" font-size="36.0" fill="#FEFFFF" transform="matrix(1.00, 0.00, -0.00, -1.00, 470.9, 255.0)"> </text><text xml:space="preserve" font-family="Courier,Courier" font-size="36.0" fill="#FEFFFF" transform="matrix(1.00, 0.00, -0.00, -1.00, 492.5, 255.0)">C</text><text xml:space="preserve" font-family="Courier,Courier" font-size="36.0" fill="#FEFFFF" transform="matrix(1.00, 0.00, -0.00, -1.00, 514.1, 255.0)">O</text><text xml:space="preserve" font-family="Courier,Courier" font-size="36.0" fill="#FEFFFF" transform="matrix(1.00, 0.00, -0.00, -1.00, 535.7, 255.0)">L</text><text xml:space="preserve" font-family="Courier,Courier" font-size="36.0" fill="#FEFFFF" transform="matrix(1.00, 0.00, -0.00, -1.00, 557.3, 255.0)">O</text><text xml:space="preserve" font-family="Courier,Courier" font-size="36.0" fill="#FEFFFF" transform="matrix(1.00, 0.00, -0.00, -1.00, 578.9, 255.0)">R</text><text xml:space="preserve" font-family="Courier,Courier" font-size="36.0" fill="#FEFFFF" transform="matrix(1.00, 0.00, -0.00, -1.00, 600.5, 255.0)">_</text><text xml:space="preserve" font-family="Courier,Courier" font-size="36.0" fill="#FEFFFF" transform="matrix(1.00, 0.00, -0.00, -1.00, 622.2, 255.0)">N</text><text xml:space="preserve" font-family="Courier,Courier" font-size="36.0" fill="#FEFFFF" transform="matrix(1.00, 0.00, -0.00, -1.00, 643.8, 255.0)">E</text><text xml:space="preserve" font-family="Courier,Courier" font-size="36.0" fill="#FEFFFF" transform="matrix(1.00, 0.00, -0.00, -1.00, 665.4, 255.0)">U</text><text xml:space="preserve" font-family="Courier,Courier" font-size="36.0" fill="#FEFFFF" transform="matrix(1.00, 0.00, -0.00, -1.00, 687.0, 255.0)">T</text><text xml:space="preserve" font-family="Courier,Courier" font-size="36.0" fill="#FEFFFF" transform="matrix(1.00, 0.00, -0.00, -1.00, 708.6, 255.0)">R</text><text xml:space="preserve" font-family="Courier,Courier" font-size="36.0" fill="#FEFFFF" transform="matrix(1.00, 0.00, -0.00, -1.00, 730.2, 255.0)">A</text><text xml:space="preserve" font-family="Courier,Courier" font-size="36.0" fill="#FEFFFF" transform="matrix(1.00, 0.00, -0.00, -1.00, 751.8, 255.0)">L</text><text xml:space="preserve" font-family="Courier,Courier" font-size="36.0" fill="#FEFFFF" transform="matrix(1.00, 0.00, -0.00, -1.00, 773.4, 255.0)">[</text><text xml:space="preserve" font-family="Courier,Courier" font-size="36.0" fill="#FEFFFF" transform="matrix(1.00, 0.00, -0.00, -1.00, 795.0, 255.0)">‘</text><text xml:space="preserve" font-family="Courier,Courier" font-size="36.0" fill="#FEFFFF" transform="matrix(1.00, 0.00, -0.00, -1.00, 816.6, 255.0)">5</text><text xml:space="preserve" font-family="Courier,Courier" font-size="36.0" fill="#FEFFFF" transform="matrix(1.00, 0.00, -0.00, -1.00, 838.2, 255.0)">0</text><text xml:space="preserve" font-family="Courier,Courier" font-size="36.0" fill="#FEFFFF" transform="matrix(1.00, 0.00, -0.00, -1.00, 859.8, 255.0)">0</text><text xml:space="preserve" font-family="Courier,Courier" font-size="36.0" fill="#FEFFFF" transform="matrix(1.00, 0.00, -0.00, -1.00, 881.4, 255.0)">c</text><text xml:space="preserve" font-family="Courier,Courier" font-size="36.0" fill="#FEFFFF" transform="matrix(1.00, 0.00, -0.00, -1.00, 903.0, 255.0)">’</text><text xml:space="preserve" font-family="Courier,Courier" font-size="36.0" fill="#FEFFFF" transform="matrix(1.00, 0.00, -0.00, -1.00, 924.6, 255.0)">]</text><text xml:space="preserve" font-family="Courier,Courier" font-size="36.0" fill="#FEFFFF" transform="matrix(1.00, 0.00, -0.00, -1.00, 60.4, 212.0)">}</text><text xml:space="preserve" font-family="Courier,Courier" font-size="36.0" fill="#FEFFFF" transform="matrix(1.00, 0.00, -0.00, -1.00, 82.0, 212.0)">;</text><image xlink:href="../../04E89034-B274-41BA-ADB5-A25EE8AB1BCF/assets/866B35D982D9A86AC411D8BF82B6BDC7.png" width="765.00" height="82.00" transform="matrix(1.00, 0.00, -0.00, -1.00, 130.0, 156.0)"></image></g></svg>