<?xml version="1.0" encoding="UTF-8" standalone="no"?><svg xmlns="http://www.w3.org/2000/svg" xmlns:xlink="http://www.w3.org/1999/xlink" clip-rule="evenodd" stroke-miterlimit="10" viewBox="0 0 1024 768"><desc>SVG generated by Keynote</desc><defs></defs><g transform="matrix(1.00, 0.00, -0.00, -1.00, 0.0, 768.0)"><path d="M 0.0 768.0 L 1024.0 768.0 L 1024.0 0.0 L 0.0 0.0 Z M 0.0 768.0 " fill="#000000"></path><text xml:space="preserve" font-family="Helvetica-Light,Helvetica" font-size="80.0" fill="#FEFFFF" transform="matrix(1.00, 0.00, -0.00, -1.00, 148.9, 633.4)">I</text><text xml:space="preserve" font-family="Helvetica-Light,Helvetica" font-size="80.0" fill="#FEFFFF" transform="matrix(1.00, 0.00, -0.00, -1.00, 171.1, 633.4)">t</text><text xml:space="preserve" font-family="Helvetica-Light,Helvetica" font-size="80.0" fill="#FEFFFF" transform="matrix(1.00, 0.00, -0.00, -1.00, 193.4, 633.4)"> </text><text xml:space="preserve" font-family="Helvetica-Light,Helvetica" font-size="80.0" fill="#FEFFFF" transform="matrix(1.00, 0.00, -0.00, -1.00, 215.6, 633.4)">w</text><text xml:space="preserve" font-family="Helvetica-Light,Helvetica" font-size="80.0" fill="#FEFFFF" transform="matrix(1.00, 0.00, -0.00, -1.00, 273.4, 633.4)">a</text><text xml:space="preserve" font-family="Helvetica-Light,Helvetica" font-size="80.0" fill="#FEFFFF" transform="matrix(1.00, 0.00, -0.00, -1.00, 317.8, 633.4)">s</text><text xml:space="preserve" font-family="Helvetica-Light,Helvetica" font-size="80.0" fill="#FEFFFF" transform="matrix(1.00, 0.00, -0.00, -1.00, 357.8, 633.4)"> </text><text xml:space="preserve" font-family="Helvetica-Light,Helvetica" font-size="80.0" fill="#FEFFFF" transform="matrix(1.00, 0.00, -0.00, -1.00, 380.1, 633.4)">a</text><text xml:space="preserve" font-family="Helvetica-Light,Helvetica" font-size="80.0" fill="#FEFFFF" transform="matrix(1.00, 0.00, -0.00, -1.00, 424.6, 633.4)"> </text><text xml:space="preserve" font-family="Helvetica-Light,Helvetica" font-size="80.0" fill="#FEFFFF" transform="matrix(1.00, 0.00, -0.00, -1.00, 446.8, 633.4)">d</text><text xml:space="preserve" font-family="Helvetica-Light,Helvetica" font-size="80.0" fill="#FEFFFF" transform="matrix(1.00, 0.00, -0.00, -1.00, 495.7, 633.4)">e</text><text xml:space="preserve" font-family="Helvetica-Light,Helvetica" font-size="80.0" fill="#FEFFFF" transform="matrix(1.00, 0.00, -0.00, -1.00, 540.2, 633.4)">c</text><text xml:space="preserve" font-family="Helvetica-Light,Helvetica" font-size="80.0" fill="#FEFFFF" transform="matrix(1.00, 0.00, -0.00, -1.00, 584.6, 633.4)">e</text><text xml:space="preserve" font-family="Helvetica-Light,Helvetica" font-size="80.0" fill="#FEFFFF" transform="matrix(1.00, 0.00, -0.00, -1.00, 629.1, 633.4)">n</text><text xml:space="preserve" font-family="Helvetica-Light,Helvetica" font-size="80.0" fill="#FEFFFF" transform="matrix(1.00, 0.00, -0.00, -1.00, 673.6, 633.4)">t</text><text xml:space="preserve" font-family="Helvetica-Light,Helvetica" font-size="80.0" fill="#FEFFFF" transform="matrix(1.00, 0.00, -0.00, -1.00, 695.8, 633.4)"> </text><text xml:space="preserve" font-family="Helvetica-Light,Helvetica" font-size="80.0" fill="#FEFFFF" transform="matrix(1.00, 0.00, -0.00, -1.00, 718.1, 633.4)">s</text><text xml:space="preserve" font-family="Helvetica-Light,Helvetica" font-size="80.0" fill="#FEFFFF" transform="matrix(1.00, 0.00, -0.00, -1.00, 758.1, 633.4)">t</text><text xml:space="preserve" font-family="Helvetica-Light,Helvetica" font-size="80.0" fill="#FEFFFF" transform="matrix(1.00, 0.00, -0.00, -1.00, 780.3, 633.4)">a</text><text xml:space="preserve" font-family="Helvetica-Light,Helvetica" font-size="80.0" fill="#FEFFFF" transform="matrix(1.00, 0.00, -0.00, -1.00, 824.8, 633.4)">r</text><text xml:space="preserve" font-family="Helvetica-Light,Helvetica" font-size="80.0" fill="#FEFFFF" transform="matrix(1.00, 0.00, -0.00, -1.00, 852.9, 633.4)">t</text><text xml:space="preserve" font-family="Helvetica-Light,Helvetica" font-size="20.8" fill="#FEFFFF" transform="matrix(1.00, 0.00, -0.00, -1.00, 79.0, 528.3)">•</text><text xml:space="preserve" font-family="Helvetica-Light,Helvetica" font-size="27.7" fill="#FEFFFF" transform="matrix(1.00, 0.00, -0.00, -1.00, 104.5, 526.4)">b</text><text xml:space="preserve" font-family="Helvetica-Light,Helvetica" font-size="27.7" fill="#FEFFFF" transform="matrix(1.00, 0.00, -0.00, -1.00, 121.5, 526.4)">u</text><text xml:space="preserve" font-family="Helvetica-Light,Helvetica" font-size="27.7" fill="#FEFFFF" transform="matrix(1.00, 0.00, -0.00, -1.00, 136.9, 526.4)">t</text><text xml:space="preserve" font-family="Helvetica-Light,Helvetica" font-size="27.7" fill="#FEFFFF" transform="matrix(1.00, 0.00, -0.00, -1.00, 144.6, 526.4)">t</text><text xml:space="preserve" font-family="Helvetica-Light,Helvetica" font-size="27.7" fill="#FEFFFF" transform="matrix(1.00, 0.00, -0.00, -1.00, 152.3, 526.4)">o</text><text xml:space="preserve" font-family="Helvetica-Light,Helvetica" font-size="27.7" fill="#FEFFFF" transform="matrix(1.00, 0.00, -0.00, -1.00, 167.8, 526.4)">n</text><text xml:space="preserve" font-family="Helvetica-Light,Helvetica" font-size="27.7" fill="#FEFFFF" transform="matrix(1.00, 0.00, -0.00, -1.00, 183.2, 526.4)">s</text><text xml:space="preserve" font-family="Helvetica-Light,Helvetica" font-size="27.7" fill="#FEFFFF" transform="matrix(1.00, 0.00, -0.00, -1.00, 197.1, 526.4)"> </text><text xml:space="preserve" font-family="Helvetica-Light,Helvetica" font-size="20.8" fill="#FEFFFF" transform="matrix(1.00, 0.00, -0.00, -1.00, 79.0, 465.6)">•</text><text xml:space="preserve" font-family="Helvetica-Light,Helvetica" font-size="27.7" fill="#FEFFFF" transform="matrix(1.00, 0.00, -0.00, -1.00, 104.5, 463.7)">c</text><text xml:space="preserve" font-family="Helvetica-Light,Helvetica" font-size="27.7" fill="#FEFFFF" transform="matrix(1.00, 0.00, -0.00, -1.00, 120.0, 463.7)">h</text><text xml:space="preserve" font-family="Helvetica-Light,Helvetica" font-size="27.7" fill="#FEFFFF" transform="matrix(1.00, 0.00, -0.00, -1.00, 135.4, 463.7)">e</text><text xml:space="preserve" font-family="Helvetica-Light,Helvetica" font-size="27.7" fill="#FEFFFF" transform="matrix(1.00, 0.00, -0.00, -1.00, 150.8, 463.7)">c</text><text xml:space="preserve" font-family="Helvetica-Light,Helvetica" font-size="27.7" fill="#FEFFFF" transform="matrix(1.00, 0.00, -0.00, -1.00, 166.2, 463.7)">k</text><text xml:space="preserve" font-family="Helvetica-Light,Helvetica" font-size="27.7" fill="#FEFFFF" transform="matrix(1.00, 0.00, -0.00, -1.00, 180.1, 463.7)">b</text><text xml:space="preserve" font-family="Helvetica-Light,Helvetica" font-size="27.7" fill="#FEFFFF" transform="matrix(1.00, 0.00, -0.00, -1.00, 197.1, 463.7)">o</text><text xml:space="preserve" font-family="Helvetica-Light,Helvetica" font-size="27.7" fill="#FEFFFF" transform="matrix(1.00, 0.00, -0.00, -1.00, 212.5, 463.7)">x</text><text xml:space="preserve" font-family="Helvetica-Light,Helvetica" font-size="27.7" fill="#FEFFFF" transform="matrix(1.00, 0.00, -0.00, -1.00, 226.4, 463.7)"> </text><text xml:space="preserve" font-family="Helvetica-Light,Helvetica" font-size="27.7" fill="#FEFFFF" transform="matrix(1.00, 0.00, -0.00, -1.00, 234.1, 463.7)">/</text><text xml:space="preserve" font-family="Helvetica-Light,Helvetica" font-size="27.7" fill="#FEFFFF" transform="matrix(1.00, 0.00, -0.00, -1.00, 241.8, 463.7)"> </text><text xml:space="preserve" font-family="Helvetica-Light,Helvetica" font-size="27.7" fill="#FEFFFF" transform="matrix(1.00, 0.00, -0.00, -1.00, 249.5, 463.7)">c</text><text xml:space="preserve" font-family="Helvetica-Light,Helvetica" font-size="27.7" fill="#FEFFFF" transform="matrix(1.00, 0.00, -0.00, -1.00, 264.9, 463.7)">h</text><text xml:space="preserve" font-family="Helvetica-Light,Helvetica" font-size="27.7" fill="#FEFFFF" transform="matrix(1.00, 0.00, -0.00, -1.00, 280.3, 463.7)">e</text><text xml:space="preserve" font-family="Helvetica-Light,Helvetica" font-size="27.7" fill="#FEFFFF" transform="matrix(1.00, 0.00, -0.00, -1.00, 295.8, 463.7)">c</text><text xml:space="preserve" font-family="Helvetica-Light,Helvetica" font-size="27.7" fill="#FEFFFF" transform="matrix(1.00, 0.00, -0.00, -1.00, 311.2, 463.7)">k</text><text xml:space="preserve" font-family="Helvetica-Light,Helvetica" font-size="27.7" fill="#FEFFFF" transform="matrix(1.00, 0.00, -0.00, -1.00, 325.1, 463.7)">l</text><text xml:space="preserve" font-family="Helvetica-Light,Helvetica" font-size="27.7" fill="#FEFFFF" transform="matrix(1.00, 0.00, -0.00, -1.00, 331.2, 463.7)">i</text><text xml:space="preserve" font-family="Helvetica-Light,Helvetica" font-size="27.7" fill="#FEFFFF" transform="matrix(1.00, 0.00, -0.00, -1.00, 337.4, 463.7)">s</text><text xml:space="preserve" font-family="Helvetica-Light,Helvetica" font-size="27.7" fill="#FEFFFF" transform="matrix(1.00, 0.00, -0.00, -1.00, 351.2, 463.7)">t</text><text xml:space="preserve" font-family="Helvetica-Light,Helvetica" font-size="27.7" fill="#FEFFFF" transform="matrix(1.00, 0.00, -0.00, -1.00, 359.0, 463.7)"> </text><text xml:space="preserve" font-family="Helvetica-Light,Helvetica" font-size="20.8" fill="#FEFFFF" transform="matrix(1.00, 0.00, -0.00, -1.00, 79.0, 403.0)">•</text><text xml:space="preserve" font-family="Helvetica-Light,Helvetica" font-size="27.7" fill="#FEFFFF" transform="matrix(1.00, 0.00, -0.00, -1.00, 104.5, 401.1)">r</text><text xml:space="preserve" font-family="Helvetica-Light,Helvetica" font-size="27.7" fill="#FEFFFF" transform="matrix(1.00, 0.00, -0.00, -1.00, 113.8, 401.1)">a</text><text xml:space="preserve" font-family="Helvetica-Light,Helvetica" font-size="27.7" fill="#FEFFFF" transform="matrix(1.00, 0.00, -0.00, -1.00, 129.2, 401.1)">d</text><text xml:space="preserve" font-family="Helvetica-Light,Helvetica" font-size="27.7" fill="#FEFFFF" transform="matrix(1.00, 0.00, -0.00, -1.00, 146.2, 401.1)">i</text><text xml:space="preserve" font-family="Helvetica-Light,Helvetica" font-size="27.7" fill="#FEFFFF" transform="matrix(1.00, 0.00, -0.00, -1.00, 152.3, 401.1)">o</text><text xml:space="preserve" font-family="Helvetica-Light,Helvetica" font-size="27.7" fill="#FEFFFF" transform="matrix(1.00, 0.00, -0.00, -1.00, 167.7, 401.1)"> </text><text xml:space="preserve" font-family="Helvetica-Light,Helvetica" font-size="27.7" fill="#FEFFFF" transform="matrix(1.00, 0.00, -0.00, -1.00, 175.5, 401.1)">/</text><text xml:space="preserve" font-family="Helvetica-Light,Helvetica" font-size="27.7" fill="#FEFFFF" transform="matrix(1.00, 0.00, -0.00, -1.00, 183.2, 401.1)"> </text><text xml:space="preserve" font-family="Helvetica-Light,Helvetica" font-size="27.7" fill="#FEFFFF" transform="matrix(1.00, 0.00, -0.00, -1.00, 190.9, 401.1)">r</text><text xml:space="preserve" font-family="Helvetica-Light,Helvetica" font-size="27.7" fill="#FEFFFF" transform="matrix(1.00, 0.00, -0.00, -1.00, 200.1, 401.1)">a</text><text xml:space="preserve" font-family="Helvetica-Light,Helvetica" font-size="27.7" fill="#FEFFFF" transform="matrix(1.00, 0.00, -0.00, -1.00, 215.5, 401.1)">d</text><text xml:space="preserve" font-family="Helvetica-Light,Helvetica" font-size="27.7" fill="#FEFFFF" transform="matrix(1.00, 0.00, -0.00, -1.00, 232.5, 401.1)">i</text><text xml:space="preserve" font-family="Helvetica-Light,Helvetica" font-size="27.7" fill="#FEFFFF" transform="matrix(1.00, 0.00, -0.00, -1.00, 238.6, 401.1)">o</text><text xml:space="preserve" font-family="Helvetica-Light,Helvetica" font-size="27.7" fill="#FEFFFF" transform="matrix(1.00, 0.00, -0.00, -1.00, 254.1, 401.1)">l</text><text xml:space="preserve" font-family="Helvetica-Light,Helvetica" font-size="27.7" fill="#FEFFFF" transform="matrix(1.00, 0.00, -0.00, -1.00, 260.2, 401.1)">i</text><text xml:space="preserve" font-family="Helvetica-Light,Helvetica" font-size="27.7" fill="#FEFFFF" transform="matrix(1.00, 0.00, -0.00, -1.00, 266.4, 401.1)">s</text><text xml:space="preserve" font-family="Helvetica-Light,Helvetica" font-size="27.7" fill="#FEFFFF" transform="matrix(1.00, 0.00, -0.00, -1.00, 280.3, 401.1)">t</text><text xml:space="preserve" font-family="Helvetica-Light,Helvetica" font-size="27.7" fill="#FEFFFF" transform="matrix(1.00, 0.00, -0.00, -1.00, 288.0, 401.1)"> </text><text xml:space="preserve" font-family="Helvetica-Light,Helvetica" font-size="20.8" fill="#FEFFFF" transform="matrix(1.00, 0.00, -0.00, -1.00, 79.0, 340.3)">•</text><text xml:space="preserve" font-family="Helvetica-Light,Helvetica" font-size="27.7" fill="#FEFFFF" transform="matrix(1.00, 0.00, -0.00, -1.00, 104.5, 338.4)">s</text><text xml:space="preserve" font-family="Helvetica-Light,Helvetica" font-size="27.7" fill="#FEFFFF" transform="matrix(1.00, 0.00, -0.00, -1.00, 118.4, 338.4)">e</text><text xml:space="preserve" font-family="Helvetica-Light,Helvetica" font-size="27.7" fill="#FEFFFF" transform="matrix(1.00, 0.00, -0.00, -1.00, 133.8, 338.4)">a</text><text xml:space="preserve" font-family="Helvetica-Light,Helvetica" font-size="27.7" fill="#FEFFFF" transform="matrix(1.00, 0.00, -0.00, -1.00, 149.3, 338.4)">r</text><text xml:space="preserve" font-family="Helvetica-Light,Helvetica" font-size="27.7" fill="#FEFFFF" transform="matrix(1.00, 0.00, -0.00, -1.00, 158.0, 338.4)">c</text><text xml:space="preserve" font-family="Helvetica-Light,Helvetica" font-size="27.7" fill="#FEFFFF" transform="matrix(1.00, 0.00, -0.00, -1.00, 173.4, 338.4)">h</text><text xml:space="preserve" font-family="Helvetica-Light,Helvetica" font-size="27.7" fill="#FEFFFF" transform="matrix(1.00, 0.00, -0.00, -1.00, 188.9, 338.4)"> </text><text xml:space="preserve" font-family="Helvetica-Light,Helvetica" font-size="27.7" fill="#FEFFFF" transform="matrix(1.00, 0.00, -0.00, -1.00, 196.6, 338.4)">i</text><text xml:space="preserve" font-family="Helvetica-Light,Helvetica" font-size="27.7" fill="#FEFFFF" transform="matrix(1.00, 0.00, -0.00, -1.00, 202.7, 338.4)">n</text><text xml:space="preserve" font-family="Helvetica-Light,Helvetica" font-size="27.7" fill="#FEFFFF" transform="matrix(1.00, 0.00, -0.00, -1.00, 218.1, 338.4)">p</text><text xml:space="preserve" font-family="Helvetica-Light,Helvetica" font-size="27.7" fill="#FEFFFF" transform="matrix(1.00, 0.00, -0.00, -1.00, 235.1, 338.4)">u</text><text xml:space="preserve" font-family="Helvetica-Light,Helvetica" font-size="27.7" fill="#FEFFFF" transform="matrix(1.00, 0.00, -0.00, -1.00, 250.5, 338.4)">t</text><text xml:space="preserve" font-family="Helvetica-Light,Helvetica" font-size="27.7" fill="#FEFFFF" transform="matrix(1.00, 0.00, -0.00, -1.00, 258.2, 338.4)"> </text><text xml:space="preserve" font-family="Helvetica-Light,Helvetica" font-size="20.8" fill="#FEFFFF" transform="matrix(1.00, 0.00, -0.00, -1.00, 79.0, 277.6)">•</text><text xml:space="preserve" font-family="Helvetica-Light,Helvetica" font-size="27.7" fill="#FEFFFF" transform="matrix(1.00, 0.00, -0.00, -1.00, 104.5, 275.7)">d</text><text xml:space="preserve" font-family="Helvetica-Light,Helvetica" font-size="27.7" fill="#FEFFFF" transform="matrix(1.00, 0.00, -0.00, -1.00, 121.5, 275.7)">a</text><text xml:space="preserve" font-family="Helvetica-Light,Helvetica" font-size="27.7" fill="#FEFFFF" transform="matrix(1.00, 0.00, -0.00, -1.00, 136.9, 275.7)">t</text><text xml:space="preserve" font-family="Helvetica-Light,Helvetica" font-size="27.7" fill="#FEFFFF" transform="matrix(1.00, 0.00, -0.00, -1.00, 144.6, 275.7)">e</text><text xml:space="preserve" font-family="Helvetica-Light,Helvetica" font-size="27.7" fill="#FEFFFF" transform="matrix(1.00, 0.00, -0.00, -1.00, 160.1, 275.7)"> </text><text xml:space="preserve" font-family="Helvetica-Light,Helvetica" font-size="27.7" fill="#FEFFFF" transform="matrix(1.00, 0.00, -0.00, -1.00, 167.8, 275.7)">r</text><text xml:space="preserve" font-family="Helvetica-Light,Helvetica" font-size="27.7" fill="#FEFFFF" transform="matrix(1.00, 0.00, -0.00, -1.00, 177.0, 275.7)">a</text><text xml:space="preserve" font-family="Helvetica-Light,Helvetica" font-size="27.7" fill="#FEFFFF" transform="matrix(1.00, 0.00, -0.00, -1.00, 192.4, 275.7)">n</text><text xml:space="preserve" font-family="Helvetica-Light,Helvetica" font-size="27.7" fill="#FEFFFF" transform="matrix(1.00, 0.00, -0.00, -1.00, 207.9, 275.7)">g</text><text xml:space="preserve" font-family="Helvetica-Light,Helvetica" font-size="27.7" fill="#FEFFFF" transform="matrix(1.00, 0.00, -0.00, -1.00, 224.8, 275.7)">e</text><text xml:space="preserve" font-family="Helvetica-Light,Helvetica" font-size="27.7" fill="#FEFFFF" transform="matrix(1.00, 0.00, -0.00, -1.00, 240.2, 275.7)"> </text><text xml:space="preserve" font-family="Helvetica-Light,Helvetica" font-size="27.7" fill="#FEFFFF" transform="matrix(1.00, 0.00, -0.00, -1.00, 247.9, 275.7)">p</text><text xml:space="preserve" font-family="Helvetica-Light,Helvetica" font-size="27.7" fill="#FEFFFF" transform="matrix(1.00, 0.00, -0.00, -1.00, 264.9, 275.7)">i</text><text xml:space="preserve" font-family="Helvetica-Light,Helvetica" font-size="27.7" fill="#FEFFFF" transform="matrix(1.00, 0.00, -0.00, -1.00, 271.0, 275.7)">c</text><text xml:space="preserve" font-family="Helvetica-Light,Helvetica" font-size="27.7" fill="#FEFFFF" transform="matrix(1.00, 0.00, -0.00, -1.00, 286.5, 275.7)">k</text><text xml:space="preserve" font-family="Helvetica-Light,Helvetica" font-size="27.7" fill="#FEFFFF" transform="matrix(1.00, 0.00, -0.00, -1.00, 300.3, 275.7)">e</text><text xml:space="preserve" font-family="Helvetica-Light,Helvetica" font-size="27.7" fill="#FEFFFF" transform="matrix(1.00, 0.00, -0.00, -1.00, 315.8, 275.7)">r</text><text xml:space="preserve" font-family="Helvetica-Light,Helvetica" font-size="27.7" fill="#FEFFFF" transform="matrix(1.00, 0.00, -0.00, -1.00, 325.0, 275.7)"> </text><text xml:space="preserve" font-family="Helvetica-Light,Helvetica" font-size="20.8" fill="#FEFFFF" transform="matrix(1.00, 0.00, -0.00, -1.00, 79.0, 215.0)">•</text><text xml:space="preserve" font-family="Helvetica-Light,Helvetica" font-size="27.7" fill="#FEFFFF" transform="matrix(1.00, 0.00, -0.00, -1.00, 104.5, 213.1)">d</text><text xml:space="preserve" font-family="Helvetica-Light,Helvetica" font-size="27.7" fill="#FEFFFF" transform="matrix(1.00, 0.00, -0.00, -1.00, 121.5, 213.1)">r</text><text xml:space="preserve" font-family="Helvetica-Light,Helvetica" font-size="27.7" fill="#FEFFFF" transform="matrix(1.00, 0.00, -0.00, -1.00, 130.7, 213.1)">i</text><text xml:space="preserve" font-family="Helvetica-Light,Helvetica" font-size="27.7" fill="#FEFFFF" transform="matrix(1.00, 0.00, -0.00, -1.00, 136.9, 213.1)">l</text><text xml:space="preserve" font-family="Helvetica-Light,Helvetica" font-size="27.7" fill="#FEFFFF" transform="matrix(1.00, 0.00, -0.00, -1.00, 143.1, 213.1)">l</text><text xml:space="preserve" font-family="Helvetica-Light,Helvetica" font-size="27.7" fill="#FEFFFF" transform="matrix(1.00, 0.00, -0.00, -1.00, 149.2, 213.1)">d</text><text xml:space="preserve" font-family="Helvetica-Light,Helvetica" font-size="27.7" fill="#FEFFFF" transform="matrix(1.00, 0.00, -0.00, -1.00, 166.2, 213.1)">o</text><text xml:space="preserve" font-family="Helvetica-Light,Helvetica" font-size="27.7" fill="#FEFFFF" transform="matrix(1.00, 0.00, -0.00, -1.00, 181.6, 213.1)">w</text><text xml:space="preserve" font-family="Helvetica-Light,Helvetica" font-size="27.7" fill="#FEFFFF" transform="matrix(1.00, 0.00, -0.00, -1.00, 201.6, 213.1)">n</text><text xml:space="preserve" font-family="Helvetica-Light,Helvetica" font-size="27.7" fill="#FEFFFF" transform="matrix(1.00, 0.00, -0.00, -1.00, 217.0, 213.1)"> </text><text xml:space="preserve" font-family="Helvetica-Light,Helvetica" font-size="27.7" fill="#FEFFFF" transform="matrix(1.00, 0.00, -0.00, -1.00, 224.7, 213.1)">m</text><text xml:space="preserve" font-family="Helvetica-Light,Helvetica" font-size="27.7" fill="#FEFFFF" transform="matrix(1.00, 0.00, -0.00, -1.00, 247.9, 213.1)">e</text><text xml:space="preserve" font-family="Helvetica-Light,Helvetica" font-size="27.7" fill="#FEFFFF" transform="matrix(1.00, 0.00, -0.00, -1.00, 263.3, 213.1)">n</text><text xml:space="preserve" font-family="Helvetica-Light,Helvetica" font-size="27.7" fill="#FEFFFF" transform="matrix(1.00, 0.00, -0.00, -1.00, 278.7, 213.1)">u</text><text xml:space="preserve" font-family="Helvetica-Light,Helvetica" font-size="27.7" fill="#FEFFFF" transform="matrix(1.00, 0.00, -0.00, -1.00, 294.1, 213.1)"> </text><text xml:space="preserve" font-family="Helvetica-Light,Helvetica" font-size="20.8" fill="#FEFFFF" transform="matrix(1.00, 0.00, -0.00, -1.00, 79.0, 152.3)">•</text><text xml:space="preserve" font-family="Helvetica-Light,Helvetica" font-size="27.7" fill="#FEFFFF" transform="matrix(1.00, 0.00, -0.00, -1.00, 104.5, 150.4)">d</text><text xml:space="preserve" font-family="Helvetica-Light,Helvetica" font-size="27.7" fill="#FEFFFF" transform="matrix(1.00, 0.00, -0.00, -1.00, 121.5, 150.4)">r</text><text xml:space="preserve" font-family="Helvetica-Light,Helvetica" font-size="27.7" fill="#FEFFFF" transform="matrix(1.00, 0.00, -0.00, -1.00, 130.2, 150.4)">o</text><text xml:space="preserve" font-family="Helvetica-Light,Helvetica" font-size="27.7" fill="#FEFFFF" transform="matrix(1.00, 0.00, -0.00, -1.00, 145.7, 150.4)">p</text><text xml:space="preserve" font-family="Helvetica-Light,Helvetica" font-size="27.7" fill="#FEFFFF" transform="matrix(1.00, 0.00, -0.00, -1.00, 162.6, 150.4)">d</text><text xml:space="preserve" font-family="Helvetica-Light,Helvetica" font-size="27.7" fill="#FEFFFF" transform="matrix(1.00, 0.00, -0.00, -1.00, 179.6, 150.4)">o</text><text xml:space="preserve" font-family="Helvetica-Light,Helvetica" font-size="27.7" fill="#FEFFFF" transform="matrix(1.00, 0.00, -0.00, -1.00, 195.0, 150.4)">w</text><text xml:space="preserve" font-family="Helvetica-Light,Helvetica" font-size="27.7" fill="#FEFFFF" transform="matrix(1.00, 0.00, -0.00, -1.00, 215.0, 150.4)">n</text><text xml:space="preserve" font-family="Helvetica-Light,Helvetica" font-size="27.7" fill="#FEFFFF" transform="matrix(1.00, 0.00, -0.00, -1.00, 230.4, 150.4)"> </text><text xml:space="preserve" font-family="Helvetica-Light,Helvetica" font-size="20.8" fill="#FEFFFF" transform="matrix(1.00, 0.00, -0.00, -1.00, 79.0, 89.7)">•</text><text xml:space="preserve" font-family="Helvetica-Light,Helvetica" font-size="27.7" fill="#FEFFFF" transform="matrix(1.00, 0.00, -0.00, -1.00, 104.5, 87.8)">i</text><text xml:space="preserve" font-family="Helvetica-Light,Helvetica" font-size="27.7" fill="#FEFFFF" transform="matrix(1.00, 0.00, -0.00, -1.00, 110.7, 87.8)">c</text><text xml:space="preserve" font-family="Helvetica-Light,Helvetica" font-size="27.7" fill="#FEFFFF" transform="matrix(1.00, 0.00, -0.00, -1.00, 126.1, 87.8)">o</text><text xml:space="preserve" font-family="Helvetica-Light,Helvetica" font-size="27.7" fill="#FEFFFF" transform="matrix(1.00, 0.00, -0.00, -1.00, 141.6, 87.8)">n</text><text xml:space="preserve" font-family="Helvetica-Light,Helvetica" font-size="27.7" fill="#FEFFFF" transform="matrix(1.00, 0.00, -0.00, -1.00, 157.0, 87.8)">s</text><image xlink:href="../../B060F8BC-8F09-42A8-B9AD-7C227B309BCD/assets/3F78AC9781ACA660E95333DE2E7500D2.png" width="503.00" height="384.00" transform="matrix(1.00, 0.00, -0.00, -1.00, 448.3, 508.5)"></image></g></svg>