<?xml version="1.0" encoding="UTF-8" standalone="no"?><svg xmlns="http://www.w3.org/2000/svg" xmlns:xlink="http://www.w3.org/1999/xlink" clip-rule="evenodd" stroke-miterlimit="10" viewBox="0 0 414 250"><desc>SVG generated by Keynote</desc><defs></defs><g transform="matrix(1.00, 0.00, -0.00, -1.00, 0.0, 250.0)"><text xml:space="preserve" font-family="Courier,Courier" font-size="36.0" fill="#FEFFFF" transform="matrix(1.00, 0.00, -0.00, -1.00, 1.5, 223.5)">f</text><text xml:space="preserve" font-family="Courier,Courier" font-size="36.0" fill="#FEFFFF" transform="matrix(1.00, 0.00, -0.00, -1.00, 23.1, 223.5)">u</text><text xml:space="preserve" font-family="Courier,Courier" font-size="36.0" fill="#FEFFFF" transform="matrix(1.00, 0.00, -0.00, -1.00, 44.7, 223.5)">n</text><text xml:space="preserve" font-family="Courier,Courier" font-size="36.0" fill="#FEFFFF" transform="matrix(1.00, 0.00, -0.00, -1.00, 66.3, 223.5)">c</text><text xml:space="preserve" font-family="Courier,Courier" font-size="36.0" fill="#FEFFFF" transform="matrix(1.00, 0.00, -0.00, -1.00, 87.9, 223.5)">t</text><text xml:space="preserve" font-family="Courier,Courier" font-size="36.0" fill="#FEFFFF" transform="matrix(1.00, 0.00, -0.00, -1.00, 109.5, 223.5)">i</text><text xml:space="preserve" font-family="Courier,Courier" font-size="36.0" fill="#FEFFFF" transform="matrix(1.00, 0.00, -0.00, -1.00, 131.1, 223.5)">o</text><text xml:space="preserve" font-family="Courier,Courier" font-size="36.0" fill="#FEFFFF" transform="matrix(1.00, 0.00, -0.00, -1.00, 152.7, 223.5)">n</text><text xml:space="preserve" font-family="Courier,Courier" font-size="36.0" fill="#FEFFFF" transform="matrix(1.00, 0.00, -0.00, -1.00, 174.3, 223.5)"> </text><text xml:space="preserve" font-family="Courier,Courier" font-size="36.0" fill="#FEFFFF" transform="matrix(1.00, 0.00, -0.00, -1.00, 195.9, 223.5)">s</text><text xml:space="preserve" font-family="Courier,Courier" font-size="36.0" fill="#FEFFFF" transform="matrix(1.00, 0.00, -0.00, -1.00, 217.5, 223.5)">q</text><text xml:space="preserve" font-family="Courier,Courier" font-size="36.0" fill="#FEFFFF" transform="matrix(1.00, 0.00, -0.00, -1.00, 239.1, 223.5)">(</text><text xml:space="preserve" font-family="Courier,Courier" font-size="36.0" fill="#FEFFFF" transform="matrix(1.00, 0.00, -0.00, -1.00, 260.8, 223.5)">s</text><text xml:space="preserve" font-family="Courier,Courier" font-size="36.0" fill="#FEFFFF" transform="matrix(1.00, 0.00, -0.00, -1.00, 282.4, 223.5)">i</text><text xml:space="preserve" font-family="Courier,Courier" font-size="36.0" fill="#FEFFFF" transform="matrix(1.00, 0.00, -0.00, -1.00, 304.0, 223.5)">z</text><text xml:space="preserve" font-family="Courier,Courier" font-size="36.0" fill="#FEFFFF" transform="matrix(1.00, 0.00, -0.00, -1.00, 325.6, 223.5)">e</text><text xml:space="preserve" font-family="Courier,Courier" font-size="36.0" fill="#FEFFFF" transform="matrix(1.00, 0.00, -0.00, -1.00, 347.2, 223.5)">)</text><text xml:space="preserve" font-family="Courier,Courier" font-size="36.0" fill="#FEFFFF" transform="matrix(1.00, 0.00, -0.00, -1.00, 368.8, 223.5)"> </text><text xml:space="preserve" font-family="Courier,Courier" font-size="36.0" fill="#FEFFFF" transform="matrix(1.00, 0.00, -0.00, -1.00, 390.4, 223.5)">{</text><text xml:space="preserve" font-family="Courier,Courier" font-size="36.0" fill="#FEFFFF" transform="matrix(1.00, 0.00, -0.00, -1.00, 1.5, 180.5)"> </text><text xml:space="preserve" font-family="Courier,Courier" font-size="36.0" fill="#FEFFFF" transform="matrix(1.00, 0.00, -0.00, -1.00, 23.1, 180.5)"> </text><text xml:space="preserve" font-family="Courier,Courier" font-size="36.0" fill="#FEFFFF" transform="matrix(1.00, 0.00, -0.00, -1.00, 44.7, 180.5)">r</text><text xml:space="preserve" font-family="Courier,Courier" font-size="36.0" fill="#FEFFFF" transform="matrix(1.00, 0.00, -0.00, -1.00, 66.3, 180.5)">e</text><text xml:space="preserve" font-family="Courier,Courier" font-size="36.0" fill="#FEFFFF" transform="matrix(1.00, 0.00, -0.00, -1.00, 87.9, 180.5)">t</text><text xml:space="preserve" font-family="Courier,Courier" font-size="36.0" fill="#FEFFFF" transform="matrix(1.00, 0.00, -0.00, -1.00, 109.5, 180.5)">u</text><text xml:space="preserve" font-family="Courier,Courier" font-size="36.0" fill="#FEFFFF" transform="matrix(1.00, 0.00, -0.00, -1.00, 131.1, 180.5)">r</text><text xml:space="preserve" font-family="Courier,Courier" font-size="36.0" fill="#FEFFFF" transform="matrix(1.00, 0.00, -0.00, -1.00, 152.7, 180.5)">n</text><text xml:space="preserve" font-family="Courier,Courier" font-size="36.0" fill="#FEFFFF" transform="matrix(1.00, 0.00, -0.00, -1.00, 174.3, 180.5)"> </text><text xml:space="preserve" font-family="Courier,Courier" font-size="36.0" fill="#FEFFFF" transform="matrix(1.00, 0.00, -0.00, -1.00, 195.9, 180.5)">{</text><text xml:space="preserve" font-family="Courier,Courier" font-size="36.0" fill="#FEFFFF" transform="matrix(1.00, 0.00, -0.00, -1.00, 1.5, 137.5)"> </text><text xml:space="preserve" font-family="Courier,Courier" font-size="36.0" fill="#FEFFFF" transform="matrix(1.00, 0.00, -0.00, -1.00, 23.1, 137.5)"> </text><text xml:space="preserve" font-family="Courier,Courier" font-size="36.0" fill="#FEFFFF" transform="matrix(1.00, 0.00, -0.00, -1.00, 44.7, 137.5)"> </text><text xml:space="preserve" font-family="Courier,Courier" font-size="36.0" fill="#FEFFFF" transform="matrix(1.00, 0.00, -0.00, -1.00, 66.3, 137.5)"> </text><text xml:space="preserve" font-family="Courier,Courier" font-size="36.0" fill="#FEFFFF" transform="matrix(1.00, 0.00, -0.00, -1.00, 87.9, 137.5)">h</text><text xml:space="preserve" font-family="Courier,Courier" font-size="36.0" fill="#FEFFFF" transform="matrix(1.00, 0.00, -0.00, -1.00, 109.5, 137.5)">e</text><text xml:space="preserve" font-family="Courier,Courier" font-size="36.0" fill="#FEFFFF" transform="matrix(1.00, 0.00, -0.00, -1.00, 131.1, 137.5)">i</text><text xml:space="preserve" font-family="Courier,Courier" font-size="36.0" fill="#FEFFFF" transform="matrix(1.00, 0.00, -0.00, -1.00, 152.7, 137.5)">g</text><text xml:space="preserve" font-family="Courier,Courier" font-size="36.0" fill="#FEFFFF" transform="matrix(1.00, 0.00, -0.00, -1.00, 174.3, 137.5)">h</text><text xml:space="preserve" font-family="Courier,Courier" font-size="36.0" fill="#FEFFFF" transform="matrix(1.00, 0.00, -0.00, -1.00, 195.9, 137.5)">t</text><text xml:space="preserve" font-family="Courier,Courier" font-size="36.0" fill="#FEFFFF" transform="matrix(1.00, 0.00, -0.00, -1.00, 217.5, 137.5)"> </text><text xml:space="preserve" font-family="Courier,Courier" font-size="36.0" fill="#FEFFFF" transform="matrix(1.00, 0.00, -0.00, -1.00, 239.1, 137.5)">:</text><text xml:space="preserve" font-family="Courier,Courier" font-size="36.0" fill="#FEFFFF" transform="matrix(1.00, 0.00, -0.00, -1.00, 260.8, 137.5)"> </text><text xml:space="preserve" font-family="Courier,Courier" font-size="36.0" fill="#FEFFFF" transform="matrix(1.00, 0.00, -0.00, -1.00, 282.4, 137.5)">s</text><text xml:space="preserve" font-family="Courier,Courier" font-size="36.0" fill="#FEFFFF" transform="matrix(1.00, 0.00, -0.00, -1.00, 304.0, 137.5)">i</text><text xml:space="preserve" font-family="Courier,Courier" font-size="36.0" fill="#FEFFFF" transform="matrix(1.00, 0.00, -0.00, -1.00, 325.6, 137.5)">z</text><text xml:space="preserve" font-family="Courier,Courier" font-size="36.0" fill="#FEFFFF" transform="matrix(1.00, 0.00, -0.00, -1.00, 347.2, 137.5)">e</text><text xml:space="preserve" font-family="Courier,Courier" font-size="36.0" fill="#FEFFFF" transform="matrix(1.00, 0.00, -0.00, -1.00, 368.8, 137.5)">,</text><text xml:space="preserve" font-family="Courier,Courier" font-size="36.0" fill="#FEFFFF" transform="matrix(1.00, 0.00, -0.00, -1.00, 1.5, 94.5)"> </text><text xml:space="preserve" font-family="Courier,Courier" font-size="36.0" fill="#FEFFFF" transform="matrix(1.00, 0.00, -0.00, -1.00, 23.1, 94.5)"> </text><text xml:space="preserve" font-family="Courier,Courier" font-size="36.0" fill="#FEFFFF" transform="matrix(1.00, 0.00, -0.00, -1.00, 44.7, 94.5)"> </text><text xml:space="preserve" font-family="Courier,Courier" font-size="36.0" fill="#FEFFFF" transform="matrix(1.00, 0.00, -0.00, -1.00, 66.3, 94.5)"> </text><text xml:space="preserve" font-family="Courier,Courier" font-size="36.0" fill="#FEFFFF" transform="matrix(1.00, 0.00, -0.00, -1.00, 87.9, 94.5)">w</text><text xml:space="preserve" font-family="Courier,Courier" font-size="36.0" fill="#FEFFFF" transform="matrix(1.00, 0.00, -0.00, -1.00, 109.5, 94.5)">i</text><text xml:space="preserve" font-family="Courier,Courier" font-size="36.0" fill="#FEFFFF" transform="matrix(1.00, 0.00, -0.00, -1.00, 131.1, 94.5)">d</text><text xml:space="preserve" font-family="Courier,Courier" font-size="36.0" fill="#FEFFFF" transform="matrix(1.00, 0.00, -0.00, -1.00, 152.7, 94.5)">t</text><text xml:space="preserve" font-family="Courier,Courier" font-size="36.0" fill="#FEFFFF" transform="matrix(1.00, 0.00, -0.00, -1.00, 174.3, 94.5)">h</text><text xml:space="preserve" font-family="Courier,Courier" font-size="36.0" fill="#FEFFFF" transform="matrix(1.00, 0.00, -0.00, -1.00, 195.9, 94.5)"> </text><text xml:space="preserve" font-family="Courier,Courier" font-size="36.0" fill="#FEFFFF" transform="matrix(1.00, 0.00, -0.00, -1.00, 217.5, 94.5)"> </text><text xml:space="preserve" font-family="Courier,Courier" font-size="36.0" fill="#FEFFFF" transform="matrix(1.00, 0.00, -0.00, -1.00, 239.1, 94.5)">:</text><text xml:space="preserve" font-family="Courier,Courier" font-size="36.0" fill="#FEFFFF" transform="matrix(1.00, 0.00, -0.00, -1.00, 260.8, 94.5)"> </text><text xml:space="preserve" font-family="Courier,Courier" font-size="36.0" fill="#FEFFFF" transform="matrix(1.00, 0.00, -0.00, -1.00, 282.4, 94.5)">s</text><text xml:space="preserve" font-family="Courier,Courier" font-size="36.0" fill="#FEFFFF" transform="matrix(1.00, 0.00, -0.00, -1.00, 304.0, 94.5)">i</text><text xml:space="preserve" font-family="Courier,Courier" font-size="36.0" fill="#FEFFFF" transform="matrix(1.00, 0.00, -0.00, -1.00, 325.6, 94.5)">z</text><text xml:space="preserve" font-family="Courier,Courier" font-size="36.0" fill="#FEFFFF" transform="matrix(1.00, 0.00, -0.00, -1.00, 347.2, 94.5)">e</text><text xml:space="preserve" font-family="Courier,Courier" font-size="36.0" fill="#FEFFFF" transform="matrix(1.00, 0.00, -0.00, -1.00, 1.5, 51.5)"> </text><text xml:space="preserve" font-family="Courier,Courier" font-size="36.0" fill="#FEFFFF" transform="matrix(1.00, 0.00, -0.00, -1.00, 23.1, 51.5)"> </text><text xml:space="preserve" font-family="Courier,Courier" font-size="36.0" fill="#FEFFFF" transform="matrix(1.00, 0.00, -0.00, -1.00, 44.7, 51.5)">}</text><text xml:space="preserve" font-family="Courier,Courier" font-size="36.0" fill="#FEFFFF" transform="matrix(1.00, 0.00, -0.00, -1.00, 1.5, 8.5)">}</text></g></svg>