<?xml version="1.0" encoding="UTF-8" standalone="no"?><svg xmlns="http://www.w3.org/2000/svg" xmlns:xlink="http://www.w3.org/1999/xlink" clip-rule="evenodd" stroke-miterlimit="10" viewBox="0 0 392 205"><desc>SVG generated by Keynote</desc><defs></defs><g transform="matrix(1.00, 0.00, -0.00, -1.00, 0.0, 205.0)"><text xml:space="preserve" font-family="Courier,Courier" font-size="36.0" fill="#FEFFFF" transform="matrix(1.00, 0.00, -0.00, -1.00, 1.8, 180.6)">c</text><text xml:space="preserve" font-family="Courier,Courier" font-size="36.0" fill="#FEFFFF" transform="matrix(1.00, 0.00, -0.00, -1.00, 23.4, 180.6)">o</text><text xml:space="preserve" font-family="Courier,Courier" font-size="36.0" fill="#FEFFFF" transform="matrix(1.00, 0.00, -0.00, -1.00, 45.0, 180.6)">n</text><text xml:space="preserve" font-family="Courier,Courier" font-size="36.0" fill="#FEFFFF" transform="matrix(1.00, 0.00, -0.00, -1.00, 66.6, 180.6)">s</text><text xml:space="preserve" font-family="Courier,Courier" font-size="36.0" fill="#FEFFFF" transform="matrix(1.00, 0.00, -0.00, -1.00, 88.2, 180.6)">t</text><text xml:space="preserve" font-family="Courier,Courier" font-size="36.0" fill="#FEFFFF" transform="matrix(1.00, 0.00, -0.00, -1.00, 109.9, 180.6)"> </text><text xml:space="preserve" font-family="Courier,Courier" font-size="36.0" fill="#FEFFFF" transform="matrix(1.00, 0.00, -0.00, -1.00, 131.5, 180.6)">S</text><text xml:space="preserve" font-family="Courier,Courier" font-size="36.0" fill="#FEFFFF" transform="matrix(1.00, 0.00, -0.00, -1.00, 153.1, 180.6)">T</text><text xml:space="preserve" font-family="Courier,Courier" font-size="36.0" fill="#FEFFFF" transform="matrix(1.00, 0.00, -0.00, -1.00, 174.7, 180.6)">Y</text><text xml:space="preserve" font-family="Courier,Courier" font-size="36.0" fill="#FEFFFF" transform="matrix(1.00, 0.00, -0.00, -1.00, 196.3, 180.6)">L</text><text xml:space="preserve" font-family="Courier,Courier" font-size="36.0" fill="#FEFFFF" transform="matrix(1.00, 0.00, -0.00, -1.00, 217.9, 180.6)">E</text><text xml:space="preserve" font-family="Courier,Courier" font-size="36.0" fill="#FEFFFF" transform="matrix(1.00, 0.00, -0.00, -1.00, 239.5, 180.6)">S</text><text xml:space="preserve" font-family="Courier,Courier" font-size="36.0" fill="#FEFFFF" transform="matrix(1.00, 0.00, -0.00, -1.00, 261.1, 180.6)"> </text><text xml:space="preserve" font-family="Courier,Courier" font-size="36.0" fill="#FEFFFF" transform="matrix(1.00, 0.00, -0.00, -1.00, 282.7, 180.6)">=</text><text xml:space="preserve" font-family="Courier,Courier" font-size="36.0" fill="#FEFFFF" transform="matrix(1.00, 0.00, -0.00, -1.00, 304.3, 180.6)"> </text><text xml:space="preserve" font-family="Courier,Courier" font-size="36.0" fill="#FEFFFF" transform="matrix(1.00, 0.00, -0.00, -1.00, 325.9, 180.6)">{</text><text xml:space="preserve" font-family="Courier,Courier" font-size="36.0" fill="#FEFFFF" transform="matrix(1.00, 0.00, -0.00, -1.00, 1.8, 137.6)"> </text><text xml:space="preserve" font-family="Courier,Courier" font-size="36.0" fill="#FEFFFF" transform="matrix(1.00, 0.00, -0.00, -1.00, 23.4, 137.6)"> </text><text xml:space="preserve" font-family="Courier,Courier" font-size="36.0" fill="#00F900" transform="matrix(1.00, 0.00, -0.00, -1.00, 45.0, 137.6)">h</text><text xml:space="preserve" font-family="Courier,Courier" font-size="36.0" fill="#00F900" transform="matrix(1.00, 0.00, -0.00, -1.00, 66.6, 137.6)">e</text><text xml:space="preserve" font-family="Courier,Courier" font-size="36.0" fill="#00F900" transform="matrix(1.00, 0.00, -0.00, -1.00, 88.2, 137.6)">i</text><text xml:space="preserve" font-family="Courier,Courier" font-size="36.0" fill="#00F900" transform="matrix(1.00, 0.00, -0.00, -1.00, 109.8, 137.6)">g</text><text xml:space="preserve" font-family="Courier,Courier" font-size="36.0" fill="#00F900" transform="matrix(1.00, 0.00, -0.00, -1.00, 131.5, 137.6)">h</text><text xml:space="preserve" font-family="Courier,Courier" font-size="36.0" fill="#00F900" transform="matrix(1.00, 0.00, -0.00, -1.00, 153.1, 137.6)">t</text><text xml:space="preserve" font-family="Courier,Courier" font-size="36.0" fill="#00F900" transform="matrix(1.00, 0.00, -0.00, -1.00, 174.7, 137.6)"> </text><text xml:space="preserve" font-family="Courier,Courier" font-size="36.0" fill="#00F900" transform="matrix(1.00, 0.00, -0.00, -1.00, 196.3, 137.6)">:</text><text xml:space="preserve" font-family="Courier,Courier" font-size="36.0" fill="#00F900" transform="matrix(1.00, 0.00, -0.00, -1.00, 217.9, 137.6)"> </text><text xml:space="preserve" font-family="Courier,Courier" font-size="36.0" fill="#00F900" transform="matrix(1.00, 0.00, -0.00, -1.00, 239.5, 137.6)">‘</text><text xml:space="preserve" font-family="Courier,Courier" font-size="36.0" fill="#00F900" transform="matrix(1.00, 0.00, -0.00, -1.00, 261.1, 137.6)">2</text><text xml:space="preserve" font-family="Courier,Courier" font-size="36.0" fill="#00F900" transform="matrix(1.00, 0.00, -0.00, -1.00, 282.7, 137.6)">0</text><text xml:space="preserve" font-family="Courier,Courier" font-size="36.0" fill="#00F900" transform="matrix(1.00, 0.00, -0.00, -1.00, 304.3, 137.6)">p</text><text xml:space="preserve" font-family="Courier,Courier" font-size="36.0" fill="#00F900" transform="matrix(1.00, 0.00, -0.00, -1.00, 325.9, 137.6)">x</text><text xml:space="preserve" font-family="Courier,Courier" font-size="36.0" fill="#00F900" transform="matrix(1.00, 0.00, -0.00, -1.00, 347.5, 137.6)">’</text><text xml:space="preserve" font-family="Courier,Courier" font-size="36.0" fill="#00F900" transform="matrix(1.00, 0.00, -0.00, -1.00, 369.1, 137.6)">,</text><text xml:space="preserve" font-family="Courier,Courier" font-size="36.0" fill="#00F900" transform="matrix(1.00, 0.00, -0.00, -1.00, 1.8, 94.6)"> </text><text xml:space="preserve" font-family="Courier,Courier" font-size="36.0" fill="#00F900" transform="matrix(1.00, 0.00, -0.00, -1.00, 23.4, 94.6)"> </text><text xml:space="preserve" font-family="Courier,Courier" font-size="36.0" fill="#00F900" transform="matrix(1.00, 0.00, -0.00, -1.00, 45.0, 94.6)">w</text><text xml:space="preserve" font-family="Courier,Courier" font-size="36.0" fill="#00F900" transform="matrix(1.00, 0.00, -0.00, -1.00, 66.6, 94.6)">i</text><text xml:space="preserve" font-family="Courier,Courier" font-size="36.0" fill="#00F900" transform="matrix(1.00, 0.00, -0.00, -1.00, 88.2, 94.6)">d</text><text xml:space="preserve" font-family="Courier,Courier" font-size="36.0" fill="#00F900" transform="matrix(1.00, 0.00, -0.00, -1.00, 109.9, 94.6)">t</text><text xml:space="preserve" font-family="Courier,Courier" font-size="36.0" fill="#00F900" transform="matrix(1.00, 0.00, -0.00, -1.00, 131.5, 94.6)">h</text><text xml:space="preserve" font-family="Courier,Courier" font-size="36.0" fill="#00F900" transform="matrix(1.00, 0.00, -0.00, -1.00, 153.1, 94.6)"> </text><text xml:space="preserve" font-family="Courier,Courier" font-size="36.0" fill="#00F900" transform="matrix(1.00, 0.00, -0.00, -1.00, 174.7, 94.6)"> </text><text xml:space="preserve" font-family="Courier,Courier" font-size="36.0" fill="#00F900" transform="matrix(1.00, 0.00, -0.00, -1.00, 196.3, 94.6)">:</text><text xml:space="preserve" font-family="Courier,Courier" font-size="36.0" fill="#00F900" transform="matrix(1.00, 0.00, -0.00, -1.00, 217.9, 94.6)"> </text><text xml:space="preserve" font-family="Courier,Courier" font-size="36.0" fill="#00F900" transform="matrix(1.00, 0.00, -0.00, -1.00, 239.5, 94.6)">‘</text><text xml:space="preserve" font-family="Courier,Courier" font-size="36.0" fill="#00F900" transform="matrix(1.00, 0.00, -0.00, -1.00, 261.1, 94.6)">2</text><text xml:space="preserve" font-family="Courier,Courier" font-size="36.0" fill="#00F900" transform="matrix(1.00, 0.00, -0.00, -1.00, 282.7, 94.6)">0</text><text xml:space="preserve" font-family="Courier,Courier" font-size="36.0" fill="#00F900" transform="matrix(1.00, 0.00, -0.00, -1.00, 304.3, 94.6)">p</text><text xml:space="preserve" font-family="Courier,Courier" font-size="36.0" fill="#00F900" transform="matrix(1.00, 0.00, -0.00, -1.00, 325.9, 94.6)">x</text><text xml:space="preserve" font-family="Courier,Courier" font-size="36.0" fill="#00F900" transform="matrix(1.00, 0.00, -0.00, -1.00, 347.5, 94.6)">’</text><text xml:space="preserve" font-family="Courier,Courier" font-size="36.0" fill="#00F900" transform="matrix(1.00, 0.00, -0.00, -1.00, 369.1, 94.6)">,</text><text xml:space="preserve" font-family="Courier,Courier" font-size="36.0" fill="#FEFFFF" transform="matrix(1.00, 0.00, -0.00, -1.00, 1.8, 51.6)"> </text><text xml:space="preserve" font-family="Courier,Courier" font-size="36.0" fill="#FEFFFF" transform="matrix(1.00, 0.00, -0.00, -1.00, 23.4, 51.6)"> </text><text xml:space="preserve" font-family="Courier,Courier" font-size="36.0" fill="#FEFFFF" transform="matrix(1.00, 0.00, -0.00, -1.00, 45.0, 51.6)">c</text><text xml:space="preserve" font-family="Courier,Courier" font-size="36.0" fill="#FEFFFF" transform="matrix(1.00, 0.00, -0.00, -1.00, 66.6, 51.6)">o</text><text xml:space="preserve" font-family="Courier,Courier" font-size="36.0" fill="#FEFFFF" transform="matrix(1.00, 0.00, -0.00, -1.00, 88.2, 51.6)">l</text><text xml:space="preserve" font-family="Courier,Courier" font-size="36.0" fill="#FEFFFF" transform="matrix(1.00, 0.00, -0.00, -1.00, 109.9, 51.6)">o</text><text xml:space="preserve" font-family="Courier,Courier" font-size="36.0" fill="#FEFFFF" transform="matrix(1.00, 0.00, -0.00, -1.00, 131.5, 51.6)">r</text><text xml:space="preserve" font-family="Courier,Courier" font-size="36.0" fill="#FEFFFF" transform="matrix(1.00, 0.00, -0.00, -1.00, 153.1, 51.6)"> </text><text xml:space="preserve" font-family="Courier,Courier" font-size="36.0" fill="#FEFFFF" transform="matrix(1.00, 0.00, -0.00, -1.00, 174.7, 51.6)"> </text><text xml:space="preserve" font-family="Courier,Courier" font-size="36.0" fill="#FEFFFF" transform="matrix(1.00, 0.00, -0.00, -1.00, 196.3, 51.6)">:</text><text xml:space="preserve" font-family="Courier,Courier" font-size="36.0" fill="#FEFFFF" transform="matrix(1.00, 0.00, -0.00, -1.00, 217.9, 51.6)"> </text><text xml:space="preserve" font-family="Courier,Courier" font-size="36.0" fill="#FEFFFF" transform="matrix(1.00, 0.00, -0.00, -1.00, 239.5, 51.6)">‘</text><text xml:space="preserve" font-family="Courier,Courier" font-size="36.0" fill="#FEFFFF" transform="matrix(1.00, 0.00, -0.00, -1.00, 261.1, 51.6)">r</text><text xml:space="preserve" font-family="Courier,Courier" font-size="36.0" fill="#FEFFFF" transform="matrix(1.00, 0.00, -0.00, -1.00, 282.7, 51.6)">e</text><text xml:space="preserve" font-family="Courier,Courier" font-size="36.0" fill="#FEFFFF" transform="matrix(1.00, 0.00, -0.00, -1.00, 304.3, 51.6)">d</text><text xml:space="preserve" font-family="Courier,Courier" font-size="36.0" fill="#FEFFFF" transform="matrix(1.00, 0.00, -0.00, -1.00, 325.9, 51.6)">’</text><text xml:space="preserve" font-family="Courier,Courier" font-size="36.0" fill="#FEFFFF" transform="matrix(1.00, 0.00, -0.00, -1.00, 1.8, 8.6)">}</text></g></svg>