<?xml version="1.0" encoding="UTF-8" standalone="no"?><svg xmlns="http://www.w3.org/2000/svg" xmlns:xlink="http://www.w3.org/1999/xlink" clip-rule="evenodd" stroke-miterlimit="10" viewBox="0 0 851 68"><desc>SVG generated by Keynote</desc><defs></defs><g transform="matrix(1.00, 0.00, -0.00, -1.00, 0.0, 68.0)"><text xml:space="preserve" font-family="Helvetica-Light,Helvetica" font-size="68.8" fill="#FEFFFF" transform="matrix(1.00, 0.00, -0.00, -1.00, -4.2, 15.8)">D</text><text xml:space="preserve" font-family="Helvetica-Light,Helvetica" font-size="68.8" fill="#FEFFFF" transform="matrix(1.00, 0.00, -0.00, -1.00, 45.4, 15.8)">e</text><text xml:space="preserve" font-family="Helvetica-Light,Helvetica" font-size="68.8" fill="#FEFFFF" transform="matrix(1.00, 0.00, -0.00, -1.00, 83.7, 15.8)">s</text><text xml:space="preserve" font-family="Helvetica-Light,Helvetica" font-size="68.8" fill="#FEFFFF" transform="matrix(1.00, 0.00, -0.00, -1.00, 118.1, 15.8)">t</text><text xml:space="preserve" font-family="Helvetica-Light,Helvetica" font-size="68.8" fill="#FEFFFF" transform="matrix(1.00, 0.00, -0.00, -1.00, 137.2, 15.8)">r</text><text xml:space="preserve" font-family="Helvetica-Light,Helvetica" font-size="68.8" fill="#FEFFFF" transform="matrix(1.00, 0.00, -0.00, -1.00, 160.1, 15.8)">u</text><text xml:space="preserve" font-family="Helvetica-Light,Helvetica" font-size="68.8" fill="#FEFFFF" transform="matrix(1.00, 0.00, -0.00, -1.00, 198.4, 15.8)">c</text><text xml:space="preserve" font-family="Helvetica-Light,Helvetica" font-size="68.8" fill="#FEFFFF" transform="matrix(1.00, 0.00, -0.00, -1.00, 236.6, 15.8)">t</text><text xml:space="preserve" font-family="Helvetica-Light,Helvetica" font-size="68.8" fill="#FEFFFF" transform="matrix(1.00, 0.00, -0.00, -1.00, 255.7, 15.8)">u</text><text xml:space="preserve" font-family="Helvetica-Light,Helvetica" font-size="68.8" fill="#FEFFFF" transform="matrix(1.00, 0.00, -0.00, -1.00, 294.0, 15.8)">r</text><text xml:space="preserve" font-family="Helvetica-Light,Helvetica" font-size="68.8" fill="#FEFFFF" transform="matrix(1.00, 0.00, -0.00, -1.00, 316.9, 15.8)">i</text><text xml:space="preserve" font-family="Helvetica-Light,Helvetica" font-size="68.8" fill="#FEFFFF" transform="matrix(1.00, 0.00, -0.00, -1.00, 332.2, 15.8)">n</text><text xml:space="preserve" font-family="Helvetica-Light,Helvetica" font-size="68.8" fill="#FEFFFF" transform="matrix(1.00, 0.00, -0.00, -1.00, 370.4, 15.8)">g</text><text xml:space="preserve" font-family="Helvetica-Light,Helvetica" font-size="68.8" fill="#FEFFFF" transform="matrix(1.00, 0.00, -0.00, -1.00, 412.5, 15.8)"> </text><text xml:space="preserve" font-family="Helvetica-Light,Helvetica" font-size="68.8" fill="#FEFFFF" transform="matrix(1.00, 0.00, -0.00, -1.00, 431.6, 15.8)">w</text><text xml:space="preserve" font-family="Helvetica-Light,Helvetica" font-size="68.8" fill="#FEFFFF" transform="matrix(1.00, 0.00, -0.00, -1.00, 481.3, 15.8)">i</text><text xml:space="preserve" font-family="Helvetica-Light,Helvetica" font-size="68.8" fill="#FEFFFF" transform="matrix(1.00, 0.00, -0.00, -1.00, 496.5, 15.8)">t</text><text xml:space="preserve" font-family="Helvetica-Light,Helvetica" font-size="68.8" fill="#FEFFFF" transform="matrix(1.00, 0.00, -0.00, -1.00, 515.7, 15.8)">h</text><text xml:space="preserve" font-family="Helvetica-Light,Helvetica" font-size="68.8" fill="#FEFFFF" transform="matrix(1.00, 0.00, -0.00, -1.00, 553.9, 15.8)"> </text><text xml:space="preserve" font-family="Helvetica-Light,Helvetica" font-size="68.8" fill="#FEFFFF" transform="matrix(1.00, 0.00, -0.00, -1.00, 573.1, 15.8)">f</text><text xml:space="preserve" font-family="Helvetica-Light,Helvetica" font-size="68.8" fill="#FEFFFF" transform="matrix(1.00, 0.00, -0.00, -1.00, 592.2, 15.8)">u</text><text xml:space="preserve" font-family="Helvetica-Light,Helvetica" font-size="68.8" fill="#FEFFFF" transform="matrix(1.00, 0.00, -0.00, -1.00, 630.4, 15.8)">n</text><text xml:space="preserve" font-family="Helvetica-Light,Helvetica" font-size="68.8" fill="#FEFFFF" transform="matrix(1.00, 0.00, -0.00, -1.00, 668.7, 15.8)">c</text><text xml:space="preserve" font-family="Helvetica-Light,Helvetica" font-size="68.8" fill="#FEFFFF" transform="matrix(1.00, 0.00, -0.00, -1.00, 706.9, 15.8)">t</text><text xml:space="preserve" font-family="Helvetica-Light,Helvetica" font-size="68.8" fill="#FEFFFF" transform="matrix(1.00, 0.00, -0.00, -1.00, 726.1, 15.8)">i</text><text xml:space="preserve" font-family="Helvetica-Light,Helvetica" font-size="68.8" fill="#FEFFFF" transform="matrix(1.00, 0.00, -0.00, -1.00, 741.3, 15.8)">o</text><text xml:space="preserve" font-family="Helvetica-Light,Helvetica" font-size="68.8" fill="#FEFFFF" transform="matrix(1.00, 0.00, -0.00, -1.00, 779.6, 15.8)">n</text><text xml:space="preserve" font-family="Helvetica-Light,Helvetica" font-size="68.8" fill="#FEFFFF" transform="matrix(1.00, 0.00, -0.00, -1.00, 817.8, 15.8)">s</text></g></svg>