<?xml version="1.0" encoding="UTF-8" standalone="no"?><svg xmlns="http://www.w3.org/2000/svg" xmlns:xlink="http://www.w3.org/1999/xlink" clip-rule="evenodd" stroke-miterlimit="10" viewBox="0 0 1024 768"><desc>SVG generated by Keynote</desc><defs></defs><g transform="matrix(1.00, 0.00, -0.00, -1.00, 0.0, 768.0)"><path d="M 0.0 768.0 L 1024.0 768.0 L 1024.0 0.0 L 0.0 0.0 Z M 0.0 768.0 " fill="#000000"></path><text xml:space="preserve" font-family="Helvetica-Light,Helvetica" font-size="67.2" fill="#FEFFFF" transform="matrix(1.00, 0.00, -0.00, -1.00, 175.9, 558.5)">B</text><text xml:space="preserve" font-family="Helvetica-Light,Helvetica" font-size="67.2" fill="#FEFFFF" transform="matrix(1.00, 0.00, -0.00, -1.00, 220.7, 558.5)">u</text><text xml:space="preserve" font-family="Helvetica-Light,Helvetica" font-size="67.2" fill="#FEFFFF" transform="matrix(1.00, 0.00, -0.00, -1.00, 258.1, 558.5)">i</text><text xml:space="preserve" font-family="Helvetica-Light,Helvetica" font-size="67.2" fill="#FEFFFF" transform="matrix(1.00, 0.00, -0.00, -1.00, 273.0, 558.5)">l</text><text xml:space="preserve" font-family="Helvetica-Light,Helvetica" font-size="67.2" fill="#FEFFFF" transform="matrix(1.00, 0.00, -0.00, -1.00, 287.9, 558.5)">d</text><text xml:space="preserve" font-family="Helvetica-Light,Helvetica" font-size="67.2" fill="#FEFFFF" transform="matrix(1.00, 0.00, -0.00, -1.00, 329.0, 558.5)">i</text><text xml:space="preserve" font-family="Helvetica-Light,Helvetica" font-size="67.2" fill="#FEFFFF" transform="matrix(1.00, 0.00, -0.00, -1.00, 343.9, 558.5)">n</text><text xml:space="preserve" font-family="Helvetica-Light,Helvetica" font-size="67.2" fill="#FEFFFF" transform="matrix(1.00, 0.00, -0.00, -1.00, 381.3, 558.5)">g</text><text xml:space="preserve" font-family="Helvetica-Light,Helvetica" font-size="67.2" fill="#FEFFFF" transform="matrix(1.00, 0.00, -0.00, -1.00, 422.3, 558.5)"> </text><text xml:space="preserve" font-family="Helvetica-Light,Helvetica" font-size="67.2" fill="#FEFFFF" transform="matrix(1.00, 0.00, -0.00, -1.00, 441.0, 558.5)">a</text><text xml:space="preserve" font-family="Helvetica-Light,Helvetica" font-size="67.2" fill="#FEFFFF" transform="matrix(1.00, 0.00, -0.00, -1.00, 478.4, 558.5)"> </text><text xml:space="preserve" font-family="Helvetica-Light,Helvetica" font-size="67.2" fill="#FEFFFF" transform="matrix(1.00, 0.00, -0.00, -1.00, 497.0, 558.5)">C</text><text xml:space="preserve" font-family="Helvetica-Light,Helvetica" font-size="67.2" fill="#FEFFFF" transform="matrix(1.00, 0.00, -0.00, -1.00, 545.6, 558.5)">o</text><text xml:space="preserve" font-family="Helvetica-Light,Helvetica" font-size="67.2" fill="#FEFFFF" transform="matrix(1.00, 0.00, -0.00, -1.00, 582.9, 558.5)">m</text><text xml:space="preserve" font-family="Helvetica-Light,Helvetica" font-size="67.2" fill="#FEFFFF" transform="matrix(1.00, 0.00, -0.00, -1.00, 638.9, 558.5)">p</text><text xml:space="preserve" font-family="Helvetica-Light,Helvetica" font-size="67.2" fill="#FEFFFF" transform="matrix(1.00, 0.00, -0.00, -1.00, 680.0, 558.5)">o</text><text xml:space="preserve" font-family="Helvetica-Light,Helvetica" font-size="67.2" fill="#FEFFFF" transform="matrix(1.00, 0.00, -0.00, -1.00, 717.3, 558.5)">n</text><text xml:space="preserve" font-family="Helvetica-Light,Helvetica" font-size="67.2" fill="#FEFFFF" transform="matrix(1.00, 0.00, -0.00, -1.00, 754.7, 558.5)">e</text><text xml:space="preserve" font-family="Helvetica-Light,Helvetica" font-size="67.2" fill="#FEFFFF" transform="matrix(1.00, 0.00, -0.00, -1.00, 792.1, 558.5)">n</text><text xml:space="preserve" font-family="Helvetica-Light,Helvetica" font-size="67.2" fill="#FEFFFF" transform="matrix(1.00, 0.00, -0.00, -1.00, 829.4, 558.5)">t</text><text xml:space="preserve" font-family="Helvetica-Light,Helvetica" font-size="67.2" fill="#FEFFFF" transform="matrix(1.00, 0.00, -0.00, -1.00, 848.1, 558.5)"> </text><text xml:space="preserve" font-family="Helvetica-Light,Helvetica" font-size="67.2" fill="#FEFFFF" transform="matrix(1.00, 0.00, -0.00, -1.00, 106.3, 478.5)">L</text><text xml:space="preserve" font-family="Helvetica-Light,Helvetica" font-size="67.2" fill="#FEFFFF" transform="matrix(1.00, 0.00, -0.00, -1.00, 143.6, 478.5)">i</text><text xml:space="preserve" font-family="Helvetica-Light,Helvetica" font-size="67.2" fill="#FEFFFF" transform="matrix(1.00, 0.00, -0.00, -1.00, 158.6, 478.5)">b</text><text xml:space="preserve" font-family="Helvetica-Light,Helvetica" font-size="67.2" fill="#FEFFFF" transform="matrix(1.00, 0.00, -0.00, -1.00, 199.6, 478.5)">r</text><text xml:space="preserve" font-family="Helvetica-Light,Helvetica" font-size="67.2" fill="#FEFFFF" transform="matrix(1.00, 0.00, -0.00, -1.00, 222.0, 478.5)">a</text><text xml:space="preserve" font-family="Helvetica-Light,Helvetica" font-size="67.2" fill="#FEFFFF" transform="matrix(1.00, 0.00, -0.00, -1.00, 259.4, 478.5)">r</text><text xml:space="preserve" font-family="Helvetica-Light,Helvetica" font-size="67.2" fill="#FEFFFF" transform="matrix(1.00, 0.00, -0.00, -1.00, 282.9, 478.5)">y</text><text xml:space="preserve" font-family="Helvetica-Light,Helvetica" font-size="67.2" fill="#FEFFFF" transform="matrix(1.00, 0.00, -0.00, -1.00, 316.5, 478.5)"> </text><text xml:space="preserve" font-family="Helvetica-Light,Helvetica" font-size="67.2" fill="#FEFFFF" transform="matrix(1.00, 0.00, -0.00, -1.00, 335.2, 478.5)">f</text><text xml:space="preserve" font-family="Helvetica-Light,Helvetica" font-size="67.2" fill="#FEFFFF" transform="matrix(1.00, 0.00, -0.00, -1.00, 353.9, 478.5)">o</text><text xml:space="preserve" font-family="Helvetica-Light,Helvetica" font-size="67.2" fill="#FEFFFF" transform="matrix(1.00, 0.00, -0.00, -1.00, 391.3, 478.5)">r</text><text xml:space="preserve" font-family="Helvetica-Light,Helvetica" font-size="67.2" fill="#FEFFFF" transform="matrix(1.00, 0.00, -0.00, -1.00, 413.7, 478.5)"> </text><text xml:space="preserve" font-family="Helvetica-Light,Helvetica" font-size="67.2" fill="#FEFFFF" transform="matrix(1.00, 0.00, -0.00, -1.00, 432.3, 478.5)">E</text><text xml:space="preserve" font-family="Helvetica-Light,Helvetica" font-size="67.2" fill="#FEFFFF" transform="matrix(1.00, 0.00, -0.00, -1.00, 473.4, 478.5)">n</text><text xml:space="preserve" font-family="Helvetica-Light,Helvetica" font-size="67.2" fill="#FEFFFF" transform="matrix(1.00, 0.00, -0.00, -1.00, 510.8, 478.5)">t</text><text xml:space="preserve" font-family="Helvetica-Light,Helvetica" font-size="67.2" fill="#FEFFFF" transform="matrix(1.00, 0.00, -0.00, -1.00, 529.4, 478.5)">e</text><text xml:space="preserve" font-family="Helvetica-Light,Helvetica" font-size="67.2" fill="#FEFFFF" transform="matrix(1.00, 0.00, -0.00, -1.00, 566.8, 478.5)">r</text><text xml:space="preserve" font-family="Helvetica-Light,Helvetica" font-size="67.2" fill="#FEFFFF" transform="matrix(1.00, 0.00, -0.00, -1.00, 589.2, 478.5)">p</text><text xml:space="preserve" font-family="Helvetica-Light,Helvetica" font-size="67.2" fill="#FEFFFF" transform="matrix(1.00, 0.00, -0.00, -1.00, 630.2, 478.5)">r</text><text xml:space="preserve" font-family="Helvetica-Light,Helvetica" font-size="67.2" fill="#FEFFFF" transform="matrix(1.00, 0.00, -0.00, -1.00, 652.6, 478.5)">i</text><text xml:space="preserve" font-family="Helvetica-Light,Helvetica" font-size="67.2" fill="#FEFFFF" transform="matrix(1.00, 0.00, -0.00, -1.00, 667.5, 478.5)">s</text><text xml:space="preserve" font-family="Helvetica-Light,Helvetica" font-size="67.2" fill="#FEFFFF" transform="matrix(1.00, 0.00, -0.00, -1.00, 701.1, 478.5)">e</text><text xml:space="preserve" font-family="Helvetica-Light,Helvetica" font-size="67.2" fill="#FEFFFF" transform="matrix(1.00, 0.00, -0.00, -1.00, 738.5, 478.5)"> </text><text xml:space="preserve" font-family="Helvetica-Light,Helvetica" font-size="67.2" fill="#FEFFFF" transform="matrix(1.00, 0.00, -0.00, -1.00, 757.2, 478.5)">A</text><text xml:space="preserve" font-family="Helvetica-Light,Helvetica" font-size="67.2" fill="#FEFFFF" transform="matrix(1.00, 0.00, -0.00, -1.00, 802.0, 478.5)">p</text><text xml:space="preserve" font-family="Helvetica-Light,Helvetica" font-size="67.2" fill="#FEFFFF" transform="matrix(1.00, 0.00, -0.00, -1.00, 843.1, 478.5)">p</text><text xml:space="preserve" font-family="Helvetica-Light,Helvetica" font-size="67.2" fill="#FEFFFF" transform="matrix(1.00, 0.00, -0.00, -1.00, 884.1, 478.5)">s</text><text xml:space="preserve" font-family="Helvetica-Light,Helvetica" font-size="67.2" fill="#FEFFFF" transform="matrix(1.00, 0.00, -0.00, -1.00, 917.7, 478.5)"> </text><text xml:space="preserve" font-family="Helvetica-Light,Helvetica" font-size="67.2" fill="#FEFFFF" transform="matrix(1.00, 0.00, -0.00, -1.00, 168.4, 398.5)">w</text><text xml:space="preserve" font-family="Helvetica-Light,Helvetica" font-size="67.2" fill="#FEFFFF" transform="matrix(1.00, 0.00, -0.00, -1.00, 216.9, 398.5)">i</text><text xml:space="preserve" font-family="Helvetica-Light,Helvetica" font-size="67.2" fill="#FEFFFF" transform="matrix(1.00, 0.00, -0.00, -1.00, 231.8, 398.5)">t</text><text xml:space="preserve" font-family="Helvetica-Light,Helvetica" font-size="67.2" fill="#FEFFFF" transform="matrix(1.00, 0.00, -0.00, -1.00, 250.5, 398.5)">h</text><text xml:space="preserve" font-family="Helvetica-Light,Helvetica" font-size="67.2" fill="#FEFFFF" transform="matrix(1.00, 0.00, -0.00, -1.00, 287.9, 398.5)"> </text><text xml:space="preserve" font-family="Helvetica-Light,Helvetica" font-size="67.2" fill="#FEFFFF" transform="matrix(1.00, 0.00, -0.00, -1.00, 306.6, 398.5)">R</text><text xml:space="preserve" font-family="Helvetica-Light,Helvetica" font-size="67.2" fill="#FEFFFF" transform="matrix(1.00, 0.00, -0.00, -1.00, 351.4, 398.5)">e</text><text xml:space="preserve" font-family="Helvetica-Light,Helvetica" font-size="67.2" fill="#FEFFFF" transform="matrix(1.00, 0.00, -0.00, -1.00, 388.8, 398.5)">a</text><text xml:space="preserve" font-family="Helvetica-Light,Helvetica" font-size="67.2" fill="#FEFFFF" transform="matrix(1.00, 0.00, -0.00, -1.00, 426.1, 398.5)">c</text><text xml:space="preserve" font-family="Helvetica-Light,Helvetica" font-size="67.2" fill="#FEFFFF" transform="matrix(1.00, 0.00, -0.00, -1.00, 463.5, 398.5)">t</text><text xml:space="preserve" font-family="Helvetica-Light,Helvetica" font-size="67.2" fill="#FEFFFF" transform="matrix(1.00, 0.00, -0.00, -1.00, 482.2, 398.5)"> </text><text xml:space="preserve" font-family="Helvetica-Light,Helvetica" font-size="67.2" fill="#FEFFFF" transform="matrix(1.00, 0.00, -0.00, -1.00, 500.8, 398.5)">a</text><text xml:space="preserve" font-family="Helvetica-Light,Helvetica" font-size="67.2" fill="#FEFFFF" transform="matrix(1.00, 0.00, -0.00, -1.00, 538.2, 398.5)">n</text><text xml:space="preserve" font-family="Helvetica-Light,Helvetica" font-size="67.2" fill="#FEFFFF" transform="matrix(1.00, 0.00, -0.00, -1.00, 575.6, 398.5)">d</text><text xml:space="preserve" font-family="Helvetica-Light,Helvetica" font-size="67.2" fill="#FEFFFF" transform="matrix(1.00, 0.00, -0.00, -1.00, 616.6, 398.5)"> </text><text xml:space="preserve" font-family="Helvetica-Light,Helvetica" font-size="67.2" fill="#FEFFFF" transform="matrix(1.00, 0.00, -0.00, -1.00, 635.3, 398.5)">E</text><text xml:space="preserve" font-family="Helvetica-Light,Helvetica" font-size="67.2" fill="#FEFFFF" transform="matrix(1.00, 0.00, -0.00, -1.00, 676.4, 398.5)">S</text><text xml:space="preserve" font-family="Helvetica-Light,Helvetica" font-size="67.2" fill="#FEFFFF" transform="matrix(1.00, 0.00, -0.00, -1.00, 717.4, 398.5)">N</text><text xml:space="preserve" font-family="Helvetica-Light,Helvetica" font-size="67.2" fill="#FEFFFF" transform="matrix(1.00, 0.00, -0.00, -1.00, 765.9, 398.5)">e</text><text xml:space="preserve" font-family="Helvetica-Light,Helvetica" font-size="67.2" fill="#FEFFFF" transform="matrix(1.00, 0.00, -0.00, -1.00, 803.3, 398.5)">x</text><text xml:space="preserve" font-family="Helvetica-Light,Helvetica" font-size="67.2" fill="#FEFFFF" transform="matrix(1.00, 0.00, -0.00, -1.00, 836.9, 398.5)">t</text><text xml:space="preserve" font-family="Helvetica-Light,Helvetica" font-size="32.0" fill="#FEFFFF" transform="matrix(1.00, 0.00, -0.00, -1.00, 246.1, 336.9)">S</text><text xml:space="preserve" font-family="Helvetica-Light,Helvetica" font-size="32.0" fill="#FEFFFF" transform="matrix(1.00, 0.00, -0.00, -1.00, 265.6, 336.9)">e</text><text xml:space="preserve" font-family="Helvetica-Light,Helvetica" font-size="32.0" fill="#FEFFFF" transform="matrix(1.00, 0.00, -0.00, -1.00, 283.4, 336.9)">a</text><text xml:space="preserve" font-family="Helvetica-Light,Helvetica" font-size="32.0" fill="#FEFFFF" transform="matrix(1.00, 0.00, -0.00, -1.00, 301.2, 336.9)">t</text><text xml:space="preserve" font-family="Helvetica-Light,Helvetica" font-size="32.0" fill="#FEFFFF" transform="matrix(1.00, 0.00, -0.00, -1.00, 310.1, 336.9)">t</text><text xml:space="preserve" font-family="Helvetica-Light,Helvetica" font-size="32.0" fill="#FEFFFF" transform="matrix(1.00, 0.00, -0.00, -1.00, 319.0, 336.9)">l</text><text xml:space="preserve" font-family="Helvetica-Light,Helvetica" font-size="32.0" fill="#FEFFFF" transform="matrix(1.00, 0.00, -0.00, -1.00, 326.1, 336.9)">e</text><text xml:space="preserve" font-family="Helvetica-Light,Helvetica" font-size="32.0" fill="#FEFFFF" transform="matrix(1.00, 0.00, -0.00, -1.00, 343.9, 336.9)"> </text><text xml:space="preserve" font-family="Helvetica-Light,Helvetica" font-size="32.0" fill="#FEFFFF" transform="matrix(1.00, 0.00, -0.00, -1.00, 352.8, 336.9)">R</text><text xml:space="preserve" font-family="Helvetica-Light,Helvetica" font-size="32.0" fill="#FEFFFF" transform="matrix(1.00, 0.00, -0.00, -1.00, 374.1, 336.9)">e</text><text xml:space="preserve" font-family="Helvetica-Light,Helvetica" font-size="32.0" fill="#FEFFFF" transform="matrix(1.00, 0.00, -0.00, -1.00, 391.9, 336.9)">a</text><text xml:space="preserve" font-family="Helvetica-Light,Helvetica" font-size="32.0" fill="#FEFFFF" transform="matrix(1.00, 0.00, -0.00, -1.00, 409.7, 336.9)">c</text><text xml:space="preserve" font-family="Helvetica-Light,Helvetica" font-size="32.0" fill="#FEFFFF" transform="matrix(1.00, 0.00, -0.00, -1.00, 427.5, 336.9)">t</text><text xml:space="preserve" font-family="Helvetica-Light,Helvetica" font-size="32.0" fill="#FEFFFF" transform="matrix(1.00, 0.00, -0.00, -1.00, 436.4, 336.9)">J</text><text xml:space="preserve" font-family="Helvetica-Light,Helvetica" font-size="32.0" fill="#FEFFFF" transform="matrix(1.00, 0.00, -0.00, -1.00, 452.4, 336.9)">S</text><text xml:space="preserve" font-family="Helvetica-Light,Helvetica" font-size="32.0" fill="#FEFFFF" transform="matrix(1.00, 0.00, -0.00, -1.00, 472.0, 336.9)"> </text><text xml:space="preserve" font-family="Helvetica-Light,Helvetica" font-size="32.0" fill="#FEFFFF" transform="matrix(1.00, 0.00, -0.00, -1.00, 480.9, 336.9)">m</text><text xml:space="preserve" font-family="Helvetica-Light,Helvetica" font-size="32.0" fill="#FEFFFF" transform="matrix(1.00, 0.00, -0.00, -1.00, 507.5, 336.9)">e</text><text xml:space="preserve" font-family="Helvetica-Light,Helvetica" font-size="32.0" fill="#FEFFFF" transform="matrix(1.00, 0.00, -0.00, -1.00, 525.3, 336.9)">e</text><text xml:space="preserve" font-family="Helvetica-Light,Helvetica" font-size="32.0" fill="#FEFFFF" transform="matrix(1.00, 0.00, -0.00, -1.00, 543.1, 336.9)">t</text><text xml:space="preserve" font-family="Helvetica-Light,Helvetica" font-size="32.0" fill="#FEFFFF" transform="matrix(1.00, 0.00, -0.00, -1.00, 552.0, 336.9)">u</text><text xml:space="preserve" font-family="Helvetica-Light,Helvetica" font-size="32.0" fill="#FEFFFF" transform="matrix(1.00, 0.00, -0.00, -1.00, 569.8, 336.9)">p</text><text xml:space="preserve" font-family="Helvetica-Light,Helvetica" font-size="32.0" fill="#FEFFFF" transform="matrix(1.00, 0.00, -0.00, -1.00, 589.3, 336.9)"> </text><text xml:space="preserve" font-family="Helvetica-Light,Helvetica" font-size="32.0" fill="#FEFFFF" transform="matrix(1.00, 0.00, -0.00, -1.00, 598.2, 336.9)">-</text><text xml:space="preserve" font-family="Helvetica-Light,Helvetica" font-size="32.0" fill="#FEFFFF" transform="matrix(1.00, 0.00, -0.00, -1.00, 608.9, 336.9)"> </text><text xml:space="preserve" font-family="Helvetica-Light,Helvetica" font-size="32.0" fill="#FEFFFF" transform="matrix(1.00, 0.00, -0.00, -1.00, 617.8, 336.9)">0</text><text xml:space="preserve" font-family="Helvetica-Light,Helvetica" font-size="32.0" fill="#FEFFFF" transform="matrix(1.00, 0.00, -0.00, -1.00, 635.6, 336.9)">9</text><text xml:space="preserve" font-family="Helvetica-Light,Helvetica" font-size="32.0" fill="#FEFFFF" transform="matrix(1.00, 0.00, -0.00, -1.00, 653.4, 336.9)">/</text><text xml:space="preserve" font-family="Helvetica-Light,Helvetica" font-size="32.0" fill="#FEFFFF" transform="matrix(1.00, 0.00, -0.00, -1.00, 662.3, 336.9)">2</text><text xml:space="preserve" font-family="Helvetica-Light,Helvetica" font-size="32.0" fill="#FEFFFF" transform="matrix(1.00, 0.00, -0.00, -1.00, 680.1, 336.9)">2</text><text xml:space="preserve" font-family="Helvetica-Light,Helvetica" font-size="32.0" fill="#FEFFFF" transform="matrix(1.00, 0.00, -0.00, -1.00, 697.9, 336.9)">/</text><text xml:space="preserve" font-family="Helvetica-Light,Helvetica" font-size="32.0" fill="#FEFFFF" transform="matrix(1.00, 0.00, -0.00, -1.00, 706.8, 336.9)">2</text><text xml:space="preserve" font-family="Helvetica-Light,Helvetica" font-size="32.0" fill="#FEFFFF" transform="matrix(1.00, 0.00, -0.00, -1.00, 724.5, 336.9)">0</text><text xml:space="preserve" font-family="Helvetica-Light,Helvetica" font-size="32.0" fill="#FEFFFF" transform="matrix(1.00, 0.00, -0.00, -1.00, 742.3, 336.9)">1</text><text xml:space="preserve" font-family="Helvetica-Light,Helvetica" font-size="32.0" fill="#FEFFFF" transform="matrix(1.00, 0.00, -0.00, -1.00, 760.1, 336.9)">5</text><text xml:space="preserve" font-family="Helvetica-Light,Helvetica" font-size="32.0" fill="#FEFFFF" transform="matrix(1.00, 0.00, -0.00, -1.00, 777.9, 336.9)"> </text><text xml:space="preserve" font-family="Helvetica-Light,Helvetica" font-size="32.0" fill="#FEFFFF" transform="matrix(1.00, 0.00, -0.00, -1.00, 256.8, 298.9)">D</text><text xml:space="preserve" font-family="Helvetica-Light,Helvetica" font-size="32.0" fill="#FEFFFF" transform="matrix(1.00, 0.00, -0.00, -1.00, 279.9, 298.9)">a</text><text xml:space="preserve" font-family="Helvetica-Light,Helvetica" font-size="32.0" fill="#FEFFFF" transform="matrix(1.00, 0.00, -0.00, -1.00, 297.7, 298.9)">v</text><text xml:space="preserve" font-family="Helvetica-Light,Helvetica" font-size="32.0" fill="#FEFFFF" transform="matrix(1.00, 0.00, -0.00, -1.00, 313.7, 298.9)">i</text><text xml:space="preserve" font-family="Helvetica-Light,Helvetica" font-size="32.0" fill="#FEFFFF" transform="matrix(1.00, 0.00, -0.00, -1.00, 320.8, 298.9)">d</text><text xml:space="preserve" font-family="Helvetica-Light,Helvetica" font-size="32.0" fill="#FEFFFF" transform="matrix(1.00, 0.00, -0.00, -1.00, 340.4, 298.9)"> </text><text xml:space="preserve" font-family="Helvetica-Light,Helvetica" font-size="32.0" fill="#FEFFFF" transform="matrix(1.00, 0.00, -0.00, -1.00, 349.3, 298.9)">A</text><text xml:space="preserve" font-family="Helvetica-Light,Helvetica" font-size="32.0" fill="#FEFFFF" transform="matrix(1.00, 0.00, -0.00, -1.00, 370.6, 298.9)">n</text><text xml:space="preserve" font-family="Helvetica-Light,Helvetica" font-size="32.0" fill="#FEFFFF" transform="matrix(1.00, 0.00, -0.00, -1.00, 388.4, 298.9)">d</text><text xml:space="preserve" font-family="Helvetica-Light,Helvetica" font-size="32.0" fill="#FEFFFF" transform="matrix(1.00, 0.00, -0.00, -1.00, 408.0, 298.9)">r</text><text xml:space="preserve" font-family="Helvetica-Light,Helvetica" font-size="32.0" fill="#FEFFFF" transform="matrix(1.00, 0.00, -0.00, -1.00, 418.6, 298.9)">u</text><text xml:space="preserve" font-family="Helvetica-Light,Helvetica" font-size="32.0" fill="#FEFFFF" transform="matrix(1.00, 0.00, -0.00, -1.00, 436.4, 298.9)">s</text><text xml:space="preserve" font-family="Helvetica-Light,Helvetica" font-size="32.0" fill="#FEFFFF" transform="matrix(1.00, 0.00, -0.00, -1.00, 452.4, 298.9)"> </text><text xml:space="preserve" font-family="Helvetica-Light,Helvetica" font-size="32.0" fill="#FEFFFF" transform="matrix(1.00, 0.00, -0.00, -1.00, 461.3, 298.9)">a</text><text xml:space="preserve" font-family="Helvetica-Light,Helvetica" font-size="32.0" fill="#FEFFFF" transform="matrix(1.00, 0.00, -0.00, -1.00, 479.1, 298.9)">n</text><text xml:space="preserve" font-family="Helvetica-Light,Helvetica" font-size="32.0" fill="#FEFFFF" transform="matrix(1.00, 0.00, -0.00, -1.00, 496.9, 298.9)">d</text><text xml:space="preserve" font-family="Helvetica-Light,Helvetica" font-size="32.0" fill="#FEFFFF" transform="matrix(1.00, 0.00, -0.00, -1.00, 516.4, 298.9)"> </text><text xml:space="preserve" font-family="Helvetica-Light,Helvetica" font-size="32.0" fill="#FEFFFF" transform="matrix(1.00, 0.00, -0.00, -1.00, 525.3, 298.9)">P</text><text xml:space="preserve" font-family="Helvetica-Light,Helvetica" font-size="32.0" fill="#FEFFFF" transform="matrix(1.00, 0.00, -0.00, -1.00, 544.9, 298.9)">a</text><text xml:space="preserve" font-family="Helvetica-Light,Helvetica" font-size="32.0" fill="#FEFFFF" transform="matrix(1.00, 0.00, -0.00, -1.00, 562.7, 298.9)">t</text><text xml:space="preserve" font-family="Helvetica-Light,Helvetica" font-size="32.0" fill="#FEFFFF" transform="matrix(1.00, 0.00, -0.00, -1.00, 571.6, 298.9)">r</text><text xml:space="preserve" font-family="Helvetica-Light,Helvetica" font-size="32.0" fill="#FEFFFF" transform="matrix(1.00, 0.00, -0.00, -1.00, 582.2, 298.9)">i</text><text xml:space="preserve" font-family="Helvetica-Light,Helvetica" font-size="32.0" fill="#FEFFFF" transform="matrix(1.00, 0.00, -0.00, -1.00, 589.3, 298.9)">c</text><text xml:space="preserve" font-family="Helvetica-Light,Helvetica" font-size="32.0" fill="#FEFFFF" transform="matrix(1.00, 0.00, -0.00, -1.00, 607.1, 298.9)">k</text><text xml:space="preserve" font-family="Helvetica-Light,Helvetica" font-size="32.0" fill="#FEFFFF" transform="matrix(1.00, 0.00, -0.00, -1.00, 623.1, 298.9)"> </text><text xml:space="preserve" font-family="Helvetica-Light,Helvetica" font-size="32.0" fill="#FEFFFF" transform="matrix(1.00, 0.00, -0.00, -1.00, 632.0, 298.9)">C</text><text xml:space="preserve" font-family="Helvetica-Light,Helvetica" font-size="32.0" fill="#FEFFFF" transform="matrix(1.00, 0.00, -0.00, -1.00, 655.1, 298.9)">o</text><text xml:space="preserve" font-family="Helvetica-Light,Helvetica" font-size="32.0" fill="#FEFFFF" transform="matrix(1.00, 0.00, -0.00, -1.00, 672.9, 298.9)">s</text><text xml:space="preserve" font-family="Helvetica-Light,Helvetica" font-size="32.0" fill="#FEFFFF" transform="matrix(1.00, 0.00, -0.00, -1.00, 688.9, 298.9)">t</text><text xml:space="preserve" font-family="Helvetica-Light,Helvetica" font-size="32.0" fill="#FEFFFF" transform="matrix(1.00, 0.00, -0.00, -1.00, 697.8, 298.9)">a</text><text xml:space="preserve" font-family="Helvetica-Light,Helvetica" font-size="32.0" fill="#FEFFFF" transform="matrix(1.00, 0.00, -0.00, -1.00, 715.6, 298.9)">n</text><text xml:space="preserve" font-family="Helvetica-Light,Helvetica" font-size="32.0" fill="#FEFFFF" transform="matrix(1.00, 0.00, -0.00, -1.00, 733.4, 298.9)">z</text><text xml:space="preserve" font-family="Helvetica-Light,Helvetica" font-size="32.0" fill="#FEFFFF" transform="matrix(1.00, 0.00, -0.00, -1.00, 749.4, 298.9)">o</text><text xml:space="preserve" font-family="Helvetica-Light,Helvetica" font-size="32.0" fill="#FEFFFF" transform="matrix(1.00, 0.00, -0.00, -1.00, 767.2, 298.9)"> </text><text xml:space="preserve" font-family="Helvetica-Light,Helvetica" font-size="32.0" fill="#FEFFFF" transform="matrix(1.00, 0.00, -0.00, -1.00, 367.1, 222.9)">h</text><text xml:space="preserve" font-family="Helvetica-Light,Helvetica" font-size="32.0" fill="#FEFFFF" transform="matrix(1.00, 0.00, -0.00, -1.00, 384.9, 222.9)">t</text><text xml:space="preserve" font-family="Helvetica-Light,Helvetica" font-size="32.0" fill="#FEFFFF" transform="matrix(1.00, 0.00, -0.00, -1.00, 393.8, 222.9)">t</text><text xml:space="preserve" font-family="Helvetica-Light,Helvetica" font-size="32.0" fill="#FEFFFF" transform="matrix(1.00, 0.00, -0.00, -1.00, 402.7, 222.9)">p</text><text xml:space="preserve" font-family="Helvetica-Light,Helvetica" font-size="32.0" fill="#FEFFFF" transform="matrix(1.00, 0.00, -0.00, -1.00, 422.2, 222.9)">:</text><text xml:space="preserve" font-family="Helvetica-Light,Helvetica" font-size="32.0" fill="#FEFFFF" transform="matrix(1.00, 0.00, -0.00, -1.00, 431.1, 222.9)">/</text><text xml:space="preserve" font-family="Helvetica-Light,Helvetica" font-size="32.0" fill="#FEFFFF" transform="matrix(1.00, 0.00, -0.00, -1.00, 440.0, 222.9)">/</text><text xml:space="preserve" font-family="Helvetica-Light,Helvetica" font-size="32.0" fill="#FEFFFF" transform="matrix(1.00, 0.00, -0.00, -1.00, 448.9, 222.9)">b</text><text xml:space="preserve" font-family="Helvetica-Light,Helvetica" font-size="32.0" fill="#FEFFFF" transform="matrix(1.00, 0.00, -0.00, -1.00, 468.4, 222.9)">i</text><text xml:space="preserve" font-family="Helvetica-Light,Helvetica" font-size="32.0" fill="#FEFFFF" transform="matrix(1.00, 0.00, -0.00, -1.00, 475.6, 222.9)">t</text><text xml:space="preserve" font-family="Helvetica-Light,Helvetica" font-size="32.0" fill="#FEFFFF" transform="matrix(1.00, 0.00, -0.00, -1.00, 484.4, 222.9)">.</text><text xml:space="preserve" font-family="Helvetica-Light,Helvetica" font-size="32.0" fill="#FEFFFF" transform="matrix(1.00, 0.00, -0.00, -1.00, 493.3, 222.9)">l</text><text xml:space="preserve" font-family="Helvetica-Light,Helvetica" font-size="32.0" fill="#FEFFFF" transform="matrix(1.00, 0.00, -0.00, -1.00, 500.4, 222.9)">y</text><text xml:space="preserve" font-family="Helvetica-Light,Helvetica" font-size="32.0" fill="#FEFFFF" transform="matrix(1.00, 0.00, -0.00, -1.00, 516.4, 222.9)">/</text><text xml:space="preserve" font-family="Helvetica-Light,Helvetica" font-size="32.0" fill="#FEFFFF" transform="matrix(1.00, 0.00, -0.00, -1.00, 525.3, 222.9)">1</text><text xml:space="preserve" font-family="Helvetica-Light,Helvetica" font-size="32.0" fill="#FEFFFF" transform="matrix(1.00, 0.00, -0.00, -1.00, 543.1, 222.9)">J</text><text xml:space="preserve" font-family="Helvetica-Light,Helvetica" font-size="32.0" fill="#FEFFFF" transform="matrix(1.00, 0.00, -0.00, -1.00, 559.1, 222.9)">n</text><text xml:space="preserve" font-family="Helvetica-Light,Helvetica" font-size="32.0" fill="#FEFFFF" transform="matrix(1.00, 0.00, -0.00, -1.00, 576.9, 222.9)">Z</text><text xml:space="preserve" font-family="Helvetica-Light,Helvetica" font-size="32.0" fill="#FEFFFF" transform="matrix(1.00, 0.00, -0.00, -1.00, 596.5, 222.9)">w</text><text xml:space="preserve" font-family="Helvetica-Light,Helvetica" font-size="32.0" fill="#FEFFFF" transform="matrix(1.00, 0.00, -0.00, -1.00, 619.6, 222.9)">9</text><text xml:space="preserve" font-family="Helvetica-Light,Helvetica" font-size="32.0" fill="#FEFFFF" transform="matrix(1.00, 0.00, -0.00, -1.00, 637.4, 222.9)">S</text><g><clipPath id="clip0x610000aa5a60"><path d="M 366.1 218.7 L 656.9 218.7 L 656.9 222.3 L 366.1 222.3 Z M 366.1 218.7 "></path></clipPath><g clip-path="url(#clip0x610000aa5a60)"><path d="M 267.1 151.0 L 556.9 151.0 " fill="none" stroke="#FEFFFF" stroke-width="1.60" transform="matrix(1.00, 0.00, 0.00, -1.00, 100.0, 371.5)"></path></g></g></g></svg>