<?xml version="1.0" encoding="UTF-8" standalone="no"?><svg xmlns="http://www.w3.org/2000/svg" xmlns:xlink="http://www.w3.org/1999/xlink" clip-rule="evenodd" stroke-miterlimit="10" viewBox="0 0 953 390"><desc>SVG generated by Keynote</desc><defs></defs><g transform="matrix(1.00, 0.00, -0.00, -1.00, 0.0, 390.0)"><g><clipPath id="clip0x610000aaf2a0"><path d="M -3.3 102.8 L 1892.8 102.8 L 1892.8 206.8 L -3.3 206.8 Z M -3.3 102.8 "></path></clipPath><g clip-path="url(#clip0x610000aaf2a0)"><text xml:space="preserve" font-family="Helvetica-Light,Helvetica" font-size="36.0" fill="#FEFFFF" transform="matrix(1.00, 0.00, -0.00, -1.00, 11.2, 163.1)">W</text><text xml:space="preserve" font-family="Helvetica-Light,Helvetica" font-size="36.0" fill="#FEFFFF" transform="matrix(1.00, 0.00, -0.00, -1.00, 42.5, 163.1)">e</text><text xml:space="preserve" font-family="Helvetica-Light,Helvetica" font-size="36.0" fill="#FEFFFF" transform="matrix(1.00, 0.00, -0.00, -1.00, 62.6, 163.1)">l</text><text xml:space="preserve" font-family="Helvetica-Light,Helvetica" font-size="36.0" fill="#FEFFFF" transform="matrix(1.00, 0.00, -0.00, -1.00, 70.5, 163.1)">l</text><text xml:space="preserve" font-family="Helvetica-Light,Helvetica" font-size="36.0" fill="#FEFFFF" transform="matrix(1.00, 0.00, -0.00, -1.00, 78.5, 163.1)"> </text><text xml:space="preserve" font-family="Helvetica-Light,Helvetica" font-size="36.0" fill="#FEFFFF" transform="matrix(1.00, 0.00, -0.00, -1.00, 88.5, 163.1)">t</text><text xml:space="preserve" font-family="Helvetica-Light,Helvetica" font-size="36.0" fill="#FEFFFF" transform="matrix(1.00, 0.00, -0.00, -1.00, 98.6, 163.1)">h</text><text xml:space="preserve" font-family="Helvetica-Light,Helvetica" font-size="36.0" fill="#FEFFFF" transform="matrix(1.00, 0.00, -0.00, -1.00, 118.6, 163.1)">a</text><text xml:space="preserve" font-family="Helvetica-Light,Helvetica" font-size="36.0" fill="#FEFFFF" transform="matrix(1.00, 0.00, -0.00, -1.00, 138.6, 163.1)">t</text><text xml:space="preserve" font-family="Helvetica-Light,Helvetica" font-size="36.0" fill="#FEFFFF" transform="matrix(1.00, 0.00, -0.00, -1.00, 148.6, 163.1)"> </text><text xml:space="preserve" font-family="Helvetica-Light,Helvetica" font-size="36.0" fill="#FEFFFF" transform="matrix(1.00, 0.00, -0.00, -1.00, 158.6, 163.1)">s</text><text xml:space="preserve" font-family="Helvetica-Light,Helvetica" font-size="36.0" fill="#FEFFFF" transform="matrix(1.00, 0.00, -0.00, -1.00, 176.6, 163.1)">u</text><text xml:space="preserve" font-family="Helvetica-Light,Helvetica" font-size="36.0" fill="#FEFFFF" transform="matrix(1.00, 0.00, -0.00, -1.00, 196.6, 163.1)">c</text><text xml:space="preserve" font-family="Helvetica-Light,Helvetica" font-size="36.0" fill="#FEFFFF" transform="matrix(1.00, 0.00, -0.00, -1.00, 216.6, 163.1)">k</text><text xml:space="preserve" font-family="Helvetica-Light,Helvetica" font-size="36.0" fill="#FEFFFF" transform="matrix(1.00, 0.00, -0.00, -1.00, 234.6, 163.1)">s</text><text xml:space="preserve" font-family="Helvetica-Light,Helvetica" font-size="36.0" fill="#FEFFFF" transform="matrix(1.00, 0.00, -0.00, -1.00, 252.6, 163.1)">,</text><text xml:space="preserve" font-family="Helvetica-Light,Helvetica" font-size="36.0" fill="#FEFFFF" transform="matrix(1.00, 0.00, -0.00, -1.00, 262.6, 163.1)"> </text><text xml:space="preserve" font-family="Helvetica-Light,Helvetica" font-size="36.0" fill="#FEFFFF" transform="matrix(1.00, 0.00, -0.00, -1.00, 272.6, 163.1)">m</text><text xml:space="preserve" font-family="Helvetica-Light,Helvetica" font-size="36.0" fill="#FEFFFF" transform="matrix(1.00, 0.00, -0.00, -1.00, 302.6, 163.1)">y</text><text xml:space="preserve" font-family="Helvetica-Light,Helvetica" font-size="36.0" fill="#FEFFFF" transform="matrix(1.00, 0.00, -0.00, -1.00, 320.6, 163.1)"> </text><text xml:space="preserve" font-family="Helvetica-Light,Helvetica" font-size="36.0" fill="#FEFFFF" transform="matrix(1.00, 0.00, -0.00, -1.00, 330.6, 163.1)">b</text><text xml:space="preserve" font-family="Helvetica-Light,Helvetica" font-size="36.0" fill="#FEFFFF" transform="matrix(1.00, 0.00, -0.00, -1.00, 352.6, 163.1)">u</text><text xml:space="preserve" font-family="Helvetica-Light,Helvetica" font-size="36.0" fill="#FEFFFF" transform="matrix(1.00, 0.00, -0.00, -1.00, 372.7, 163.1)">i</text><text xml:space="preserve" font-family="Helvetica-Light,Helvetica" font-size="36.0" fill="#FEFFFF" transform="matrix(1.00, 0.00, -0.00, -1.00, 380.6, 163.1)">l</text><text xml:space="preserve" font-family="Helvetica-Light,Helvetica" font-size="36.0" fill="#FEFFFF" transform="matrix(1.00, 0.00, -0.00, -1.00, 388.6, 163.1)">d</text><text xml:space="preserve" font-family="Helvetica-Light,Helvetica" font-size="36.0" fill="#FEFFFF" transform="matrix(1.00, 0.00, -0.00, -1.00, 410.6, 163.1)"> </text><text xml:space="preserve" font-family="Helvetica-Light,Helvetica" font-size="36.0" fill="#FEFFFF" transform="matrix(1.00, 0.00, -0.00, -1.00, 420.6, 163.1)">i</text><text xml:space="preserve" font-family="Helvetica-Light,Helvetica" font-size="36.0" fill="#FEFFFF" transform="matrix(1.00, 0.00, -0.00, -1.00, 428.6, 163.1)">s</text><text xml:space="preserve" font-family="Helvetica-Light,Helvetica" font-size="36.0" fill="#FEFFFF" transform="matrix(1.00, 0.00, -0.00, -1.00, 446.6, 163.1)"> </text><text xml:space="preserve" font-family="Helvetica-Light,Helvetica" font-size="36.0" fill="#FEFFFF" transform="matrix(1.00, 0.00, -0.00, -1.00, 456.6, 163.1)">b</text><text xml:space="preserve" font-family="Helvetica-Light,Helvetica" font-size="36.0" fill="#FEFFFF" transform="matrix(1.00, 0.00, -0.00, -1.00, 478.6, 163.1)">r</text><text xml:space="preserve" font-family="Helvetica-Light,Helvetica" font-size="36.0" fill="#FEFFFF" transform="matrix(1.00, 0.00, -0.00, -1.00, 490.0, 163.1)">e</text><text xml:space="preserve" font-family="Helvetica-Light,Helvetica" font-size="36.0" fill="#FEFFFF" transform="matrix(1.00, 0.00, -0.00, -1.00, 510.0, 163.1)">a</text><text xml:space="preserve" font-family="Helvetica-Light,Helvetica" font-size="36.0" fill="#FEFFFF" transform="matrix(1.00, 0.00, -0.00, -1.00, 530.0, 163.1)">k</text><text xml:space="preserve" font-family="Helvetica-Light,Helvetica" font-size="36.0" fill="#FEFFFF" transform="matrix(1.00, 0.00, -0.00, -1.00, 548.0, 163.1)">i</text><text xml:space="preserve" font-family="Helvetica-Light,Helvetica" font-size="36.0" fill="#FEFFFF" transform="matrix(1.00, 0.00, -0.00, -1.00, 556.0, 163.1)">n</text><text xml:space="preserve" font-family="Helvetica-Light,Helvetica" font-size="36.0" fill="#FEFFFF" transform="matrix(1.00, 0.00, -0.00, -1.00, 576.0, 163.1)">g</text><text xml:space="preserve" font-family="Helvetica-Light,Helvetica" font-size="36.0" fill="#FEFFFF" transform="matrix(1.00, 0.00, -0.00, -1.00, 598.0, 163.1)"> </text><text xml:space="preserve" font-family="Helvetica-Light,Helvetica" font-size="36.0" fill="#FEFFFF" transform="matrix(1.00, 0.00, -0.00, -1.00, 608.0, 163.1)">n</text><text xml:space="preserve" font-family="Helvetica-Light,Helvetica" font-size="36.0" fill="#FEFFFF" transform="matrix(1.00, 0.00, -0.00, -1.00, 628.0, 163.1)">o</text><text xml:space="preserve" font-family="Helvetica-Light,Helvetica" font-size="36.0" fill="#FEFFFF" transform="matrix(1.00, 0.00, -0.00, -1.00, 648.1, 163.1)">w</text><text xml:space="preserve" font-family="Helvetica-Light,Helvetica" font-size="36.0" fill="#FEFFFF" transform="matrix(1.00, 0.00, -0.00, -1.00, 672.1, 163.1)">.</text><text xml:space="preserve" font-family="Helvetica-Light,Helvetica" font-size="36.0" fill="#FEFFFF" transform="matrix(1.00, 0.00, -0.00, -1.00, 682.1, 163.1)"> </text><text xml:space="preserve" font-family="Helvetica-Light,Helvetica" font-size="36.0" fill="#FEFFFF" transform="matrix(1.00, 0.00, -0.00, -1.00, 692.1, 163.1)">H</text><text xml:space="preserve" font-family="Helvetica-Light,Helvetica" font-size="36.0" fill="#FEFFFF" transform="matrix(1.00, 0.00, -0.00, -1.00, 718.1, 163.1)">o</text><text xml:space="preserve" font-family="Helvetica-Light,Helvetica" font-size="36.0" fill="#FEFFFF" transform="matrix(1.00, 0.00, -0.00, -1.00, 738.1, 163.1)">w</text><text xml:space="preserve" font-family="Helvetica-Light,Helvetica" font-size="36.0" fill="#FEFFFF" transform="matrix(1.00, 0.00, -0.00, -1.00, 764.1, 163.1)"> </text><text xml:space="preserve" font-family="Helvetica-Light,Helvetica" font-size="36.0" fill="#FEFFFF" transform="matrix(1.00, 0.00, -0.00, -1.00, 774.1, 163.1)">a</text><text xml:space="preserve" font-family="Helvetica-Light,Helvetica" font-size="36.0" fill="#FEFFFF" transform="matrix(1.00, 0.00, -0.00, -1.00, 794.1, 163.1)">b</text><text xml:space="preserve" font-family="Helvetica-Light,Helvetica" font-size="36.0" fill="#FEFFFF" transform="matrix(1.00, 0.00, -0.00, -1.00, 816.1, 163.1)">o</text><text xml:space="preserve" font-family="Helvetica-Light,Helvetica" font-size="36.0" fill="#FEFFFF" transform="matrix(1.00, 0.00, -0.00, -1.00, 836.1, 163.1)">u</text><text xml:space="preserve" font-family="Helvetica-Light,Helvetica" font-size="36.0" fill="#FEFFFF" transform="matrix(1.00, 0.00, -0.00, -1.00, 856.1, 163.1)">t</text><text xml:space="preserve" font-family="Helvetica-Light,Helvetica" font-size="36.0" fill="#FEFFFF" transform="matrix(1.00, 0.00, -0.00, -1.00, 866.1, 163.1)"> </text><text xml:space="preserve" font-family="Helvetica-Light,Helvetica" font-size="36.0" fill="#FEFFFF" transform="matrix(1.00, 0.00, -0.00, -1.00, 876.2, 163.1)">t</text><text xml:space="preserve" font-family="Helvetica-Light,Helvetica" font-size="36.0" fill="#FEFFFF" transform="matrix(1.00, 0.00, -0.00, -1.00, 886.2, 163.1)">h</text><text xml:space="preserve" font-family="Helvetica-Light,Helvetica" font-size="36.0" fill="#FEFFFF" transform="matrix(1.00, 0.00, -0.00, -1.00, 906.2, 163.1)">i</text><text xml:space="preserve" font-family="Helvetica-Light,Helvetica" font-size="36.0" fill="#FEFFFF" transform="matrix(1.00, 0.00, -0.00, -1.00, 914.2, 163.1)">s</text><text xml:space="preserve" font-family="Helvetica-Light,Helvetica" font-size="36.0" fill="#FEFFFF" transform="matrix(1.00, 0.00, -0.00, -1.00, 932.2, 163.1)">.</text><text xml:space="preserve" font-family="Helvetica-Light,Helvetica" font-size="36.0" fill="#FEFFFF" transform="matrix(1.00, 0.00, -0.00, -1.00, 942.2, 163.1)"> </text><text xml:space="preserve" font-family="Helvetica-Light,Helvetica" font-size="36.0" fill="#FEFFFF" transform="matrix(1.00, 0.00, -0.00, -1.00, 327.3, 120.1)">I</text><text xml:space="preserve" font-family="Helvetica-Light,Helvetica" font-size="36.0" fill="#FEFFFF" transform="matrix(1.00, 0.00, -0.00, -1.00, 337.3, 120.1)">t</text><text xml:space="preserve" font-family="Helvetica-Light,Helvetica" font-size="36.0" fill="#FEFFFF" transform="matrix(1.00, 0.00, -0.00, -1.00, 347.3, 120.1)">’</text><text xml:space="preserve" font-family="Helvetica-Light,Helvetica" font-size="36.0" fill="#FEFFFF" transform="matrix(1.00, 0.00, -0.00, -1.00, 352.6, 120.1)">s</text><text xml:space="preserve" font-family="Helvetica-Light,Helvetica" font-size="36.0" fill="#FEFFFF" transform="matrix(1.00, 0.00, -0.00, -1.00, 370.6, 120.1)"> </text><text xml:space="preserve" font-family="Helvetica-Light,Helvetica" font-size="36.0" fill="#FEFFFF" transform="matrix(1.00, 0.00, -0.00, -1.00, 380.6, 120.1)">n</text><text xml:space="preserve" font-family="Helvetica-Light,Helvetica" font-size="36.0" fill="#FEFFFF" transform="matrix(1.00, 0.00, -0.00, -1.00, 400.6, 120.1)">o</text><text xml:space="preserve" font-family="Helvetica-Light,Helvetica" font-size="36.0" fill="#FEFFFF" transform="matrix(1.00, 0.00, -0.00, -1.00, 420.7, 120.1)">t</text><text xml:space="preserve" font-family="Helvetica-Light,Helvetica" font-size="36.0" fill="#FEFFFF" transform="matrix(1.00, 0.00, -0.00, -1.00, 430.7, 120.1)"> </text><text xml:space="preserve" font-family="Helvetica-Light,Helvetica" font-size="36.0" fill="#FEFFFF" transform="matrix(1.00, 0.00, -0.00, -1.00, 440.7, 120.1)">g</text><text xml:space="preserve" font-family="Helvetica-Light,Helvetica" font-size="36.0" fill="#FEFFFF" transform="matrix(1.00, 0.00, -0.00, -1.00, 462.7, 120.1)">r</text><text xml:space="preserve" font-family="Helvetica-Light,Helvetica" font-size="36.0" fill="#FEFFFF" transform="matrix(1.00, 0.00, -0.00, -1.00, 474.0, 120.1)">o</text><text xml:space="preserve" font-family="Helvetica-Light,Helvetica" font-size="36.0" fill="#FEFFFF" transform="matrix(1.00, 0.00, -0.00, -1.00, 494.0, 120.1)">s</text><text xml:space="preserve" font-family="Helvetica-Light,Helvetica" font-size="36.0" fill="#FEFFFF" transform="matrix(1.00, 0.00, -0.00, -1.00, 512.0, 120.1)">s</text><text xml:space="preserve" font-family="Helvetica-Light,Helvetica" font-size="36.0" fill="#FEFFFF" transform="matrix(1.00, 0.00, -0.00, -1.00, 530.0, 120.1)"> </text><text xml:space="preserve" font-family="Helvetica-Light,Helvetica" font-size="36.0" fill="#FEFFFF" transform="matrix(1.00, 0.00, -0.00, -1.00, 540.0, 120.1)">a</text><text xml:space="preserve" font-family="Helvetica-Light,Helvetica" font-size="36.0" fill="#FEFFFF" transform="matrix(1.00, 0.00, -0.00, -1.00, 560.1, 120.1)">t</text><text xml:space="preserve" font-family="Helvetica-Light,Helvetica" font-size="36.0" fill="#FEFFFF" transform="matrix(1.00, 0.00, -0.00, -1.00, 570.1, 120.1)"> </text><text xml:space="preserve" font-family="Helvetica-Light,Helvetica" font-size="36.0" fill="#FEFFFF" transform="matrix(1.00, 0.00, -0.00, -1.00, 580.1, 120.1)">a</text><text xml:space="preserve" font-family="Helvetica-Light,Helvetica" font-size="36.0" fill="#FEFFFF" transform="matrix(1.00, 0.00, -0.00, -1.00, 600.1, 120.1)">l</text><text xml:space="preserve" font-family="Helvetica-Light,Helvetica" font-size="36.0" fill="#FEFFFF" transform="matrix(1.00, 0.00, -0.00, -1.00, 608.1, 120.1)">l</text><text xml:space="preserve" font-family="Helvetica-Light,Helvetica" font-size="36.0" fill="#FEFFFF" transform="matrix(1.00, 0.00, -0.00, -1.00, 616.1, 120.1)">.</text></g></g><g><clipPath id="clip0x608000aaf2a0"><path d="M 239.0 -6.7 L 1439.4 -6.7 L 1439.4 102.4 L 239.0 102.4 Z M 239.0 -6.7 "></path></clipPath><g clip-path="url(#clip0x608000aaf2a0)"><text xml:space="preserve" font-family="HelveticaNeue,Helvetica Neue" font-size="22.0" fill="#FEFFFE" transform="matrix(1.00, 0.00, -0.00, -1.00, 245.6, 74.1)">.</text><text xml:space="preserve" font-family="HelveticaNeue,Helvetica Neue" font-size="22.0" fill="#FEFFFE" transform="matrix(1.00, 0.00, -0.00, -1.00, 251.7, 74.1)">g</text><text xml:space="preserve" font-family="HelveticaNeue,Helvetica Neue" font-size="22.0" fill="#FEFFFE" transform="matrix(1.00, 0.00, -0.00, -1.00, 264.3, 74.1)">i</text><text xml:space="preserve" font-family="HelveticaNeue,Helvetica Neue" font-size="22.0" fill="#FEFFFE" transform="matrix(1.00, 0.00, -0.00, -1.00, 269.2, 74.1)">t</text><text xml:space="preserve" font-family="HelveticaNeue,Helvetica Neue" font-size="22.0" fill="#FEFFFE" transform="matrix(1.00, 0.00, -0.00, -1.00, 276.2, 74.1)">m</text><text xml:space="preserve" font-family="HelveticaNeue,Helvetica Neue" font-size="22.0" fill="#FEFFFE" transform="matrix(1.00, 0.00, -0.00, -1.00, 294.9, 74.1)">o</text><text xml:space="preserve" font-family="HelveticaNeue,Helvetica Neue" font-size="22.0" fill="#FEFFFE" transform="matrix(1.00, 0.00, -0.00, -1.00, 307.6, 74.1)">d</text><text xml:space="preserve" font-family="HelveticaNeue,Helvetica Neue" font-size="22.0" fill="#FEFFFE" transform="matrix(1.00, 0.00, -0.00, -1.00, 320.6, 74.1)">u</text><text xml:space="preserve" font-family="HelveticaNeue,Helvetica Neue" font-size="22.0" fill="#FEFFFE" transform="matrix(1.00, 0.00, -0.00, -1.00, 332.8, 74.1)">l</text><text xml:space="preserve" font-family="HelveticaNeue,Helvetica Neue" font-size="22.0" fill="#FEFFFE" transform="matrix(1.00, 0.00, -0.00, -1.00, 337.7, 74.1)">e</text><text xml:space="preserve" font-family="HelveticaNeue,Helvetica Neue" font-size="22.0" fill="#FEFFFE" transform="matrix(1.00, 0.00, -0.00, -1.00, 349.5, 74.1)">s</text><text xml:space="preserve" font-family="HelveticaNeue,Helvetica Neue" font-size="22.0" fill="#FEFFFE" transform="matrix(1.00, 0.00, -0.00, -1.00, 360.5, 74.1)"> </text><text xml:space="preserve" font-family="HelveticaNeue,Helvetica Neue" font-size="22.0" fill="#FEFFFE" transform="matrix(1.00, 0.00, -0.00, -1.00, 366.6, 74.1)">-</text><text xml:space="preserve" font-family="HelveticaNeue,Helvetica Neue" font-size="22.0" fill="#FEFFFE" transform="matrix(1.00, 0.00, -0.00, -1.00, 375.2, 74.1)"> </text><text xml:space="preserve" font-family="Courier,Courier" font-size="22.0" fill="#FEFFFE" transform="matrix(1.00, 0.00, -0.00, -1.00, 381.3, 74.1)">[</text><text xml:space="preserve" font-family="Courier,Courier" font-size="22.0" fill="#FEFFFE" transform="matrix(1.00, 0.00, -0.00, -1.00, 394.5, 74.1)">s</text><text xml:space="preserve" font-family="Courier,Courier" font-size="22.0" fill="#FEFFFE" transform="matrix(1.00, 0.00, -0.00, -1.00, 407.7, 74.1)">u</text><text xml:space="preserve" font-family="Courier,Courier" font-size="22.0" fill="#FEFFFE" transform="matrix(1.00, 0.00, -0.00, -1.00, 420.9, 74.1)">b</text><text xml:space="preserve" font-family="Courier,Courier" font-size="22.0" fill="#FEFFFE" transform="matrix(1.00, 0.00, -0.00, -1.00, 434.1, 74.1)">m</text><text xml:space="preserve" font-family="Courier,Courier" font-size="22.0" fill="#FEFFFE" transform="matrix(1.00, 0.00, -0.00, -1.00, 447.3, 74.1)">o</text><text xml:space="preserve" font-family="Courier,Courier" font-size="22.0" fill="#FEFFFE" transform="matrix(1.00, 0.00, -0.00, -1.00, 460.5, 74.1)">d</text><text xml:space="preserve" font-family="Courier,Courier" font-size="22.0" fill="#FEFFFE" transform="matrix(1.00, 0.00, -0.00, -1.00, 473.7, 74.1)">u</text><text xml:space="preserve" font-family="Courier,Courier" font-size="22.0" fill="#FEFFFE" transform="matrix(1.00, 0.00, -0.00, -1.00, 487.0, 74.1)">l</text><text xml:space="preserve" font-family="Courier,Courier" font-size="22.0" fill="#FEFFFE" transform="matrix(1.00, 0.00, -0.00, -1.00, 500.2, 74.1)">e</text><text xml:space="preserve" font-family="Courier,Courier" font-size="22.0" fill="#FEFFFE" transform="matrix(1.00, 0.00, -0.00, -1.00, 513.4, 74.1)"> </text><text xml:space="preserve" font-family="Courier,Courier" font-size="22.0" fill="#FEFFFE" transform="matrix(1.00, 0.00, -0.00, -1.00, 526.6, 74.1)">“</text><text xml:space="preserve" font-family="Courier,Courier" font-size="22.0" fill="#FEFFFE" transform="matrix(1.00, 0.00, -0.00, -1.00, 539.8, 74.1)">s</text><text xml:space="preserve" font-family="Courier,Courier" font-size="22.0" fill="#FEFFFE" transform="matrix(1.00, 0.00, -0.00, -1.00, 553.0, 74.1)">u</text><text xml:space="preserve" font-family="Courier,Courier" font-size="22.0" fill="#FEFFFE" transform="matrix(1.00, 0.00, -0.00, -1.00, 566.2, 74.1)">b</text><text xml:space="preserve" font-family="Courier,Courier" font-size="22.0" fill="#FEFFFE" transform="matrix(1.00, 0.00, -0.00, -1.00, 579.4, 74.1)">m</text><text xml:space="preserve" font-family="Courier,Courier" font-size="22.0" fill="#FEFFFE" transform="matrix(1.00, 0.00, -0.00, -1.00, 592.6, 74.1)">o</text><text xml:space="preserve" font-family="Courier,Courier" font-size="22.0" fill="#FEFFFE" transform="matrix(1.00, 0.00, -0.00, -1.00, 605.8, 74.1)">d</text><text xml:space="preserve" font-family="Courier,Courier" font-size="22.0" fill="#FEFFFE" transform="matrix(1.00, 0.00, -0.00, -1.00, 619.0, 74.1)">u</text><text xml:space="preserve" font-family="Courier,Courier" font-size="22.0" fill="#FEFFFE" transform="matrix(1.00, 0.00, -0.00, -1.00, 632.2, 74.1)">l</text><text xml:space="preserve" font-family="Courier,Courier" font-size="22.0" fill="#FEFFFE" transform="matrix(1.00, 0.00, -0.00, -1.00, 645.4, 74.1)">e</text><text xml:space="preserve" font-family="Courier,Courier" font-size="22.0" fill="#FEFFFE" transform="matrix(1.00, 0.00, -0.00, -1.00, 658.6, 74.1)">s</text><text xml:space="preserve" font-family="Courier,Courier" font-size="22.0" fill="#FEFFFE" transform="matrix(1.00, 0.00, -0.00, -1.00, 671.8, 74.1)">/</text><text xml:space="preserve" font-family="Courier,Courier" font-size="22.0" fill="#FEFFFE" transform="matrix(1.00, 0.00, -0.00, -1.00, 685.0, 74.1)">r</text><text xml:space="preserve" font-family="Courier,Courier" font-size="22.0" fill="#FEFFFE" transform="matrix(1.00, 0.00, -0.00, -1.00, 698.2, 74.1)">e</text><text xml:space="preserve" font-family="Courier,Courier" font-size="22.0" fill="#FEFFFE" transform="matrix(1.00, 0.00, -0.00, -1.00, 711.4, 74.1)">p</text><text xml:space="preserve" font-family="Courier,Courier" font-size="22.0" fill="#FEFFFE" transform="matrix(1.00, 0.00, -0.00, -1.00, 724.6, 74.1)">o</text><text xml:space="preserve" font-family="Courier,Courier" font-size="22.0" fill="#FEFFFE" transform="matrix(1.00, 0.00, -0.00, -1.00, 737.8, 74.1)">N</text><text xml:space="preserve" font-family="Courier,Courier" font-size="22.0" fill="#FEFFFE" transform="matrix(1.00, 0.00, -0.00, -1.00, 751.0, 74.1)">a</text><text xml:space="preserve" font-family="Courier,Courier" font-size="22.0" fill="#FEFFFE" transform="matrix(1.00, 0.00, -0.00, -1.00, 764.2, 74.1)">m</text><text xml:space="preserve" font-family="Courier,Courier" font-size="22.0" fill="#FEFFFE" transform="matrix(1.00, 0.00, -0.00, -1.00, 777.4, 74.1)">e</text><text xml:space="preserve" font-family="Courier,Courier" font-size="22.0" fill="#FEFFFE" transform="matrix(1.00, 0.00, -0.00, -1.00, 790.7, 74.1)">”</text><text xml:space="preserve" font-family="Courier,Courier" font-size="22.0" fill="#FEFFFE" transform="matrix(1.00, 0.00, -0.00, -1.00, 803.8, 74.1)">]</text><text xml:space="preserve" font-family="Courier,Courier" font-size="22.0" fill="#FEFFFE" transform="matrix(1.00, 0.00, -0.00, -1.00, 245.6, 42.6)"> </text><text xml:space="preserve" font-family="Courier,Courier" font-size="22.0" fill="#FEFFFE" transform="matrix(1.00, 0.00, -0.00, -1.00, 258.8, 42.6)"> </text><text xml:space="preserve" font-family="Courier,Courier" font-size="22.0" fill="#FEFFFE" transform="matrix(1.00, 0.00, -0.00, -1.00, 272.0, 42.6)"> </text><text xml:space="preserve" font-family="Courier,Courier" font-size="22.0" fill="#FEFFFE" transform="matrix(1.00, 0.00, -0.00, -1.00, 285.2, 42.6)"> </text><text xml:space="preserve" font-family="Courier,Courier" font-size="22.0" fill="#FEFFFE" transform="matrix(1.00, 0.00, -0.00, -1.00, 298.4, 42.6)"> </text><text xml:space="preserve" font-family="Courier,Courier" font-size="22.0" fill="#FEFFFE" transform="matrix(1.00, 0.00, -0.00, -1.00, 311.6, 42.6)"> </text><text xml:space="preserve" font-family="Courier,Courier" font-size="22.0" fill="#FEFFFE" transform="matrix(1.00, 0.00, -0.00, -1.00, 324.8, 42.6)"> </text><text xml:space="preserve" font-family="Courier,Courier" font-size="22.0" fill="#FEFFFE" transform="matrix(1.00, 0.00, -0.00, -1.00, 338.0, 42.6)"> </text><text xml:space="preserve" font-family="Courier,Courier" font-size="22.0" fill="#FEFFFE" transform="matrix(1.00, 0.00, -0.00, -1.00, 351.2, 42.6)"> </text><text xml:space="preserve" font-family="Courier,Courier" font-size="22.0" fill="#FEFFFE" transform="matrix(1.00, 0.00, -0.00, -1.00, 364.4, 42.6)"> </text><text xml:space="preserve" font-family="Courier,Courier" font-size="22.0" fill="#FEFFFE" transform="matrix(1.00, 0.00, -0.00, -1.00, 377.6, 42.6)"> </text><text xml:space="preserve" font-family="Courier,Courier" font-size="22.0" fill="#FEFFFE" transform="matrix(1.00, 0.00, -0.00, -1.00, 390.8, 42.6)"> </text><text xml:space="preserve" font-family="Courier,Courier" font-size="22.0" fill="#FEFFFE" transform="matrix(1.00, 0.00, -0.00, -1.00, 404.0, 42.6)">p</text><text xml:space="preserve" font-family="Courier,Courier" font-size="22.0" fill="#FEFFFE" transform="matrix(1.00, 0.00, -0.00, -1.00, 417.2, 42.6)">a</text><text xml:space="preserve" font-family="Courier,Courier" font-size="22.0" fill="#FEFFFE" transform="matrix(1.00, 0.00, -0.00, -1.00, 430.4, 42.6)">t</text><text xml:space="preserve" font-family="Courier,Courier" font-size="22.0" fill="#FEFFFE" transform="matrix(1.00, 0.00, -0.00, -1.00, 443.6, 42.6)">h</text><text xml:space="preserve" font-family="Courier,Courier" font-size="22.0" fill="#FEFFFE" transform="matrix(1.00, 0.00, -0.00, -1.00, 456.8, 42.6)"> </text><text xml:space="preserve" font-family="Courier,Courier" font-size="22.0" fill="#FEFFFE" transform="matrix(1.00, 0.00, -0.00, -1.00, 470.0, 42.6)">=</text><text xml:space="preserve" font-family="Courier,Courier" font-size="22.0" fill="#FEFFFE" transform="matrix(1.00, 0.00, -0.00, -1.00, 483.3, 42.6)"> </text><text xml:space="preserve" font-family="Courier,Courier" font-size="22.0" fill="#FEFFFE" transform="matrix(1.00, 0.00, -0.00, -1.00, 496.5, 42.6)">s</text><text xml:space="preserve" font-family="Courier,Courier" font-size="22.0" fill="#FEFFFE" transform="matrix(1.00, 0.00, -0.00, -1.00, 509.7, 42.6)">u</text><text xml:space="preserve" font-family="Courier,Courier" font-size="22.0" fill="#FEFFFE" transform="matrix(1.00, 0.00, -0.00, -1.00, 522.9, 42.6)">b</text><text xml:space="preserve" font-family="Courier,Courier" font-size="22.0" fill="#FEFFFE" transform="matrix(1.00, 0.00, -0.00, -1.00, 536.1, 42.6)">m</text><text xml:space="preserve" font-family="Courier,Courier" font-size="22.0" fill="#FEFFFE" transform="matrix(1.00, 0.00, -0.00, -1.00, 549.3, 42.6)">o</text><text xml:space="preserve" font-family="Courier,Courier" font-size="22.0" fill="#FEFFFE" transform="matrix(1.00, 0.00, -0.00, -1.00, 562.5, 42.6)">d</text><text xml:space="preserve" font-family="Courier,Courier" font-size="22.0" fill="#FEFFFE" transform="matrix(1.00, 0.00, -0.00, -1.00, 575.7, 42.6)">u</text><text xml:space="preserve" font-family="Courier,Courier" font-size="22.0" fill="#FEFFFE" transform="matrix(1.00, 0.00, -0.00, -1.00, 588.9, 42.6)">l</text><text xml:space="preserve" font-family="Courier,Courier" font-size="22.0" fill="#FEFFFE" transform="matrix(1.00, 0.00, -0.00, -1.00, 602.1, 42.6)">e</text><text xml:space="preserve" font-family="Courier,Courier" font-size="22.0" fill="#FEFFFE" transform="matrix(1.00, 0.00, -0.00, -1.00, 615.3, 42.6)">s</text><text xml:space="preserve" font-family="Courier,Courier" font-size="22.0" fill="#FEFFFE" transform="matrix(1.00, 0.00, -0.00, -1.00, 628.5, 42.6)">/</text><text xml:space="preserve" font-family="Courier,Courier" font-size="22.0" fill="#FEFFFE" transform="matrix(1.00, 0.00, -0.00, -1.00, 641.7, 42.6)">r</text><text xml:space="preserve" font-family="Courier,Courier" font-size="22.0" fill="#FEFFFE" transform="matrix(1.00, 0.00, -0.00, -1.00, 654.9, 42.6)">e</text><text xml:space="preserve" font-family="Courier,Courier" font-size="22.0" fill="#FEFFFE" transform="matrix(1.00, 0.00, -0.00, -1.00, 668.1, 42.6)">p</text><text xml:space="preserve" font-family="Courier,Courier" font-size="22.0" fill="#FEFFFE" transform="matrix(1.00, 0.00, -0.00, -1.00, 681.3, 42.6)">o</text><text xml:space="preserve" font-family="Courier,Courier" font-size="22.0" fill="#FEFFFE" transform="matrix(1.00, 0.00, -0.00, -1.00, 694.5, 42.6)">N</text><text xml:space="preserve" font-family="Courier,Courier" font-size="22.0" fill="#FEFFFE" transform="matrix(1.00, 0.00, -0.00, -1.00, 707.7, 42.6)">a</text><text xml:space="preserve" font-family="Courier,Courier" font-size="22.0" fill="#FEFFFE" transform="matrix(1.00, 0.00, -0.00, -1.00, 720.9, 42.6)">m</text><text xml:space="preserve" font-family="Courier,Courier" font-size="22.0" fill="#FEFFFE" transform="matrix(1.00, 0.00, -0.00, -1.00, 734.1, 42.6)">e</text><text xml:space="preserve" font-family="Courier,Courier" font-size="22.0" fill="#000000" transform="matrix(1.00, 0.00, -0.00, -1.00, 245.6, 10.8)"> </text><text xml:space="preserve" font-family="Courier,Courier" font-size="22.0" fill="#000000" transform="matrix(1.00, 0.00, -0.00, -1.00, 258.8, 10.8)"> </text><text xml:space="preserve" font-family="Courier,Courier" font-size="22.0" fill="#000000" transform="matrix(1.00, 0.00, -0.00, -1.00, 272.0, 10.8)"> </text><text xml:space="preserve" font-family="Courier,Courier" font-size="22.0" fill="#000000" transform="matrix(1.00, 0.00, -0.00, -1.00, 285.2, 10.8)"> </text><text xml:space="preserve" font-family="Courier,Courier" font-size="22.0" fill="#000000" transform="matrix(1.00, 0.00, -0.00, -1.00, 298.4, 10.8)"> </text><text xml:space="preserve" font-family="Courier,Courier" font-size="22.0" fill="#000000" transform="matrix(1.00, 0.00, -0.00, -1.00, 311.6, 10.8)"> </text><text xml:space="preserve" font-family="Courier,Courier" font-size="22.0" fill="#000000" transform="matrix(1.00, 0.00, -0.00, -1.00, 324.8, 10.8)"> </text><text xml:space="preserve" font-family="Courier,Courier" font-size="22.0" fill="#000000" transform="matrix(1.00, 0.00, -0.00, -1.00, 338.0, 10.8)"> </text><text xml:space="preserve" font-family="Courier,Courier" font-size="22.0" fill="#000000" transform="matrix(1.00, 0.00, -0.00, -1.00, 351.2, 10.8)"> </text><text xml:space="preserve" font-family="Courier,Courier" font-size="22.0" fill="#000000" transform="matrix(1.00, 0.00, -0.00, -1.00, 364.4, 10.8)"> </text><text xml:space="preserve" font-family="Courier,Courier" font-size="22.0" fill="#000000" transform="matrix(1.00, 0.00, -0.00, -1.00, 377.6, 10.8)"> </text><text xml:space="preserve" font-family="Courier,Courier" font-size="22.0" fill="#000000" transform="matrix(1.00, 0.00, -0.00, -1.00, 390.8, 10.8)"> </text><text xml:space="preserve" font-family="Courier,Courier" font-size="22.0" fill="#FEFFFE" transform="matrix(1.00, 0.00, -0.00, -1.00, 404.0, 10.8)">u</text><text xml:space="preserve" font-family="Courier,Courier" font-size="22.0" fill="#FEFFFE" transform="matrix(1.00, 0.00, -0.00, -1.00, 417.2, 10.8)">r</text><text xml:space="preserve" font-family="Courier,Courier" font-size="22.0" fill="#FEFFFE" transform="matrix(1.00, 0.00, -0.00, -1.00, 430.4, 10.8)">l</text><text xml:space="preserve" font-family="Courier,Courier" font-size="22.0" fill="#FEFFFE" transform="matrix(1.00, 0.00, -0.00, -1.00, 443.6, 10.8)"> </text><text xml:space="preserve" font-family="Courier,Courier" font-size="22.0" fill="#FEFFFE" transform="matrix(1.00, 0.00, -0.00, -1.00, 456.8, 10.8)">=</text><text xml:space="preserve" font-family="Courier,Courier" font-size="22.0" fill="#FEFFFE" transform="matrix(1.00, 0.00, -0.00, -1.00, 470.0, 10.8)"> </text><text xml:space="preserve" font-family="Courier,Courier" font-size="22.0" fill="#FEFFFE" transform="matrix(1.00, 0.00, -0.00, -1.00, 483.2, 10.8)">g</text><text xml:space="preserve" font-family="Courier,Courier" font-size="22.0" fill="#FEFFFE" transform="matrix(1.00, 0.00, -0.00, -1.00, 496.4, 10.8)">i</text><text xml:space="preserve" font-family="Courier,Courier" font-size="22.0" fill="#FEFFFE" transform="matrix(1.00, 0.00, -0.00, -1.00, 509.6, 10.8)">t</text><text xml:space="preserve" font-family="Courier,Courier" font-size="22.0" fill="#FEFFFE" transform="matrix(1.00, 0.00, -0.00, -1.00, 522.9, 10.8)">@</text><text xml:space="preserve" font-family="Courier,Courier" font-size="22.0" fill="#FEFFFE" transform="matrix(1.00, 0.00, -0.00, -1.00, 536.1, 10.8)">g</text><text xml:space="preserve" font-family="Courier,Courier" font-size="22.0" fill="#FEFFFE" transform="matrix(1.00, 0.00, -0.00, -1.00, 549.3, 10.8)">i</text><text xml:space="preserve" font-family="Courier,Courier" font-size="22.0" fill="#FEFFFE" transform="matrix(1.00, 0.00, -0.00, -1.00, 562.5, 10.8)">t</text><text xml:space="preserve" font-family="Courier,Courier" font-size="22.0" fill="#FEFFFE" transform="matrix(1.00, 0.00, -0.00, -1.00, 575.7, 10.8)">h</text><text xml:space="preserve" font-family="Courier,Courier" font-size="22.0" fill="#FEFFFE" transform="matrix(1.00, 0.00, -0.00, -1.00, 588.9, 10.8)">u</text><text xml:space="preserve" font-family="Courier,Courier" font-size="22.0" fill="#FEFFFE" transform="matrix(1.00, 0.00, -0.00, -1.00, 602.1, 10.8)">b</text><text xml:space="preserve" font-family="Courier,Courier" font-size="22.0" fill="#FEFFFE" transform="matrix(1.00, 0.00, -0.00, -1.00, 615.3, 10.8)">.</text><text xml:space="preserve" font-family="Courier,Courier" font-size="22.0" fill="#FEFFFE" transform="matrix(1.00, 0.00, -0.00, -1.00, 628.5, 10.8)">c</text><text xml:space="preserve" font-family="Courier,Courier" font-size="22.0" fill="#FEFFFE" transform="matrix(1.00, 0.00, -0.00, -1.00, 641.7, 10.8)">o</text><text xml:space="preserve" font-family="Courier,Courier" font-size="22.0" fill="#FEFFFE" transform="matrix(1.00, 0.00, -0.00, -1.00, 654.9, 10.8)">m</text><text xml:space="preserve" font-family="Courier,Courier" font-size="22.0" fill="#000000" transform="matrix(1.00, 0.00, -0.00, -1.00, 668.1, 10.8)">/</text><text xml:space="preserve" font-family="HelveticaNeue,Helvetica Neue" font-size="22.0" fill="#000000" transform="matrix(1.00, 0.00, -0.00, -1.00, 681.3, 10.8)">:</text><text xml:space="preserve" font-family="HelveticaNeue,Helvetica Neue" font-size="22.0" fill="#000000" transform="matrix(1.00, 0.00, -0.00, -1.00, 687.4, 10.8)">T</text><text xml:space="preserve" font-family="HelveticaNeue,Helvetica Neue" font-size="22.0" fill="#000000" transform="matrix(1.00, 0.00, -0.00, -1.00, 700.0, 10.8)">U</text><text xml:space="preserve" font-family="HelveticaNeue,Helvetica Neue" font-size="22.0" fill="#000000" transform="matrix(1.00, 0.00, -0.00, -1.00, 715.9, 10.8)">N</text><text xml:space="preserve" font-family="HelveticaNeue,Helvetica Neue" font-size="22.0" fill="#000000" transform="matrix(1.00, 0.00, -0.00, -1.00, 731.8, 10.8)">E</text><text xml:space="preserve" font-family="HelveticaNeue,Helvetica Neue" font-size="22.0" fill="#000000" transform="matrix(1.00, 0.00, -0.00, -1.00, 745.2, 10.8)">/</text><text xml:space="preserve" font-family="HelveticaNeue,Helvetica Neue" font-size="22.0" fill="#000000" transform="matrix(1.00, 0.00, -0.00, -1.00, 752.6, 10.8)">r</text><text xml:space="preserve" font-family="HelveticaNeue,Helvetica Neue" font-size="22.0" fill="#000000" transform="matrix(1.00, 0.00, -0.00, -1.00, 759.5, 10.8)">e</text><text xml:space="preserve" font-family="HelveticaNeue,Helvetica Neue" font-size="22.0" fill="#000000" transform="matrix(1.00, 0.00, -0.00, -1.00, 771.3, 10.8)">p</text><text xml:space="preserve" font-family="HelveticaNeue,Helvetica Neue" font-size="22.0" fill="#000000" transform="matrix(1.00, 0.00, -0.00, -1.00, 784.3, 10.8)">o</text><text xml:space="preserve" font-family="HelveticaNeue,Helvetica Neue" font-size="22.0" fill="#000000" transform="matrix(1.00, 0.00, -0.00, -1.00, 797.0, 10.8)">N</text><text xml:space="preserve" font-family="HelveticaNeue,Helvetica Neue" font-size="22.0" fill="#000000" transform="matrix(1.00, 0.00, -0.00, -1.00, 812.9, 10.8)">a</text><text xml:space="preserve" font-family="HelveticaNeue,Helvetica Neue" font-size="22.0" fill="#000000" transform="matrix(1.00, 0.00, -0.00, -1.00, 824.7, 10.8)">m</text><text xml:space="preserve" font-family="HelveticaNeue,Helvetica Neue" font-size="22.0" fill="#000000" transform="matrix(1.00, 0.00, -0.00, -1.00, 843.4, 10.8)">e</text><path d="M 241.6 92.9 L 426.5 92.9 " fill="none" stroke="#FEFFFE" stroke-width="1.27" transform="matrix(1.00, 0.00, 0.00, -1.00, 241.6, 99.8)"></path></g></g><g><clipPath id="clip0x608000abce60"><path d="M 392.0 249.1 L 534.0 249.1 L 534.0 389.0 L 392.0 389.0 Z M 392.0 249.1 "></path></clipPath><g clip-path="url(#clip0x608000abce60)"><image xlink:href="../../1920487D-9F25-4FD7-87AA-9B685A39BEA4/assets/5F22C0501433C0F667CE7992093D21A0.png" width="131.00" height="129.00" transform="matrix(1.08, 0.00, -0.00, -1.09, 392.0, 389.0)"></image></g></g></g></svg>