<?xml version="1.0" encoding="UTF-8" standalone="no"?><svg xmlns="http://www.w3.org/2000/svg" xmlns:xlink="http://www.w3.org/1999/xlink" clip-rule="evenodd" stroke-miterlimit="10" viewBox="0 0 234 106"><desc>SVG generated by Keynote</desc><defs></defs><g transform="matrix(1.00, 0.00, -0.00, -1.00, 0.0, 106.0)"><g><clipPath id="clip0x610000ab20c0"><path d="M 0.0 0.5 L 234.0 0.5 L 234.0 105.5 L 0.0 105.5 Z M 0.0 0.5 "></path></clipPath><g clip-path="url(#clip0x610000ab20c0)"><path d="M 198.0 88.4 C 242.7 68.8 242.7 37.2 198.0 17.6 C 153.2 -1.9 80.8 -1.9 36.0 17.6 C -8.7 37.2 -8.7 68.8 36.0 88.4 C 80.8 107.9 153.2 107.9 198.0 88.4 Z M 198.0 88.4 " fill="#FEFFFE"></path><path d="M 195.5 14.6 C 240.2 34.2 240.2 65.8 195.5 85.4 C 150.7 104.9 78.2 104.9 33.5 85.4 C -11.2 65.8 -11.2 34.2 33.5 14.6 C 78.2 -4.9 150.7 -4.9 195.5 14.6 Z M 195.5 14.6 " fill="none" stroke="#10DAE2" stroke-width="3.00" transform="matrix(1.00, 0.00, 0.00, -1.00, 2.5, 103.0)"></path></g></g><g><clipPath id="clip0x6100006b6ec0"><path d="M 9.3 33.2 L 224.7 33.2 L 224.7 72.8 L 9.3 72.8 Z M 9.3 33.2 "></path></clipPath><g clip-path="url(#clip0x6100006b6ec0)"><text xml:space="preserve" font-family="Helvetica-Light,Helvetica" font-size="23.0" fill="#000000" transform="matrix(1.00, 0.00, -0.00, -1.00, 15.6, 44.3)">A</text><text xml:space="preserve" font-family="Helvetica-Light,Helvetica" font-size="23.0" fill="#000000" transform="matrix(1.00, 0.00, -0.00, -1.00, 30.9, 44.3)">p</text><text xml:space="preserve" font-family="Helvetica-Light,Helvetica" font-size="23.0" fill="#000000" transform="matrix(1.00, 0.00, -0.00, -1.00, 45.0, 44.3)">p</text><text xml:space="preserve" font-family="Helvetica-Light,Helvetica" font-size="23.0" fill="#000000" transform="matrix(1.00, 0.00, -0.00, -1.00, 59.0, 44.3)"> </text><text xml:space="preserve" font-family="Helvetica-Light,Helvetica" font-size="23.0" fill="#000000" transform="matrix(1.00, 0.00, -0.00, -1.00, 65.4, 44.3)">S</text><text xml:space="preserve" font-family="Helvetica-Light,Helvetica" font-size="23.0" fill="#000000" transform="matrix(1.00, 0.00, -0.00, -1.00, 79.5, 44.3)">t</text><text xml:space="preserve" font-family="Helvetica-Light,Helvetica" font-size="23.0" fill="#000000" transform="matrix(1.00, 0.00, -0.00, -1.00, 85.9, 44.3)">o</text><text xml:space="preserve" font-family="Helvetica-Light,Helvetica" font-size="23.0" fill="#000000" transform="matrix(1.00, 0.00, -0.00, -1.00, 98.7, 44.3)">r</text><text xml:space="preserve" font-family="Helvetica-Light,Helvetica" font-size="23.0" fill="#000000" transform="matrix(1.00, 0.00, -0.00, -1.00, 105.9, 44.3)">e</text><text xml:space="preserve" font-family="Helvetica-Light,Helvetica" font-size="23.0" fill="#000000" transform="matrix(1.00, 0.00, -0.00, -1.00, 118.7, 44.3)"> </text><text xml:space="preserve" font-family="Helvetica-Light,Helvetica" font-size="23.0" fill="#000000" transform="matrix(1.00, 0.00, -0.00, -1.00, 125.1, 44.3)">A</text><text xml:space="preserve" font-family="Helvetica-Light,Helvetica" font-size="23.0" fill="#000000" transform="matrix(1.00, 0.00, -0.00, -1.00, 140.4, 44.3)">n</text><text xml:space="preserve" font-family="Helvetica-Light,Helvetica" font-size="23.0" fill="#000000" transform="matrix(1.00, 0.00, -0.00, -1.00, 153.2, 44.3)">a</text><text xml:space="preserve" font-family="Helvetica-Light,Helvetica" font-size="23.0" fill="#000000" transform="matrix(1.00, 0.00, -0.00, -1.00, 166.0, 44.3)">l</text><text xml:space="preserve" font-family="Helvetica-Light,Helvetica" font-size="23.0" fill="#000000" transform="matrix(1.00, 0.00, -0.00, -1.00, 171.1, 44.3)">y</text><text xml:space="preserve" font-family="Helvetica-Light,Helvetica" font-size="23.0" fill="#000000" transform="matrix(1.00, 0.00, -0.00, -1.00, 182.6, 44.3)">t</text><text xml:space="preserve" font-family="Helvetica-Light,Helvetica" font-size="23.0" fill="#000000" transform="matrix(1.00, 0.00, -0.00, -1.00, 189.0, 44.3)">i</text><text xml:space="preserve" font-family="Helvetica-Light,Helvetica" font-size="23.0" fill="#000000" transform="matrix(1.00, 0.00, -0.00, -1.00, 194.1, 44.3)">c</text><text xml:space="preserve" font-family="Helvetica-Light,Helvetica" font-size="23.0" fill="#000000" transform="matrix(1.00, 0.00, -0.00, -1.00, 206.9, 44.3)">s</text></g></g></g></svg>