<?xml version="1.0" encoding="UTF-8" standalone="no"?><svg xmlns="http://www.w3.org/2000/svg" xmlns:xlink="http://www.w3.org/1999/xlink" clip-rule="evenodd" stroke-miterlimit="10" viewBox="0 0 235 106"><desc>SVG generated by Keynote</desc><defs></defs><g transform="matrix(1.00, 0.00, -0.00, -1.00, 0.0, 106.0)"><g><clipPath id="clip0x6100008a0540"><path d="M 0.4 1.0 L 234.4 1.0 L 234.4 106.0 L 0.4 106.0 Z M 0.4 1.0 "></path></clipPath><g clip-path="url(#clip0x6100008a0540)"><path d="M 198.4 88.8 C 243.1 69.3 243.1 37.6 198.4 18.1 C 153.7 -1.4 81.2 -1.4 36.5 18.1 C -8.2 37.6 -8.2 69.3 36.5 88.8 C 81.2 108.3 153.7 108.3 198.4 88.8 Z M 198.4 88.8 " fill="#FEFFFE"></path><path d="M 195.5 14.6 C 240.2 34.2 240.2 65.8 195.5 85.4 C 150.7 104.9 78.2 104.9 33.5 85.4 C -11.2 65.8 -11.2 34.2 33.5 14.6 C 78.2 -4.9 150.7 -4.9 195.5 14.6 Z M 195.5 14.6 " fill="none" stroke="#0065C0" stroke-width="3.00" transform="matrix(1.00, 0.00, 0.00, -1.00, 2.9, 103.5)"></path></g></g><g><clipPath id="clip0x6100006b6680"><path d="M 16.5 37.2 L 218.4 37.2 L 218.4 69.7 L 16.5 69.7 Z M 16.5 37.2 "></path></clipPath><g clip-path="url(#clip0x6100006b6680)"><text xml:space="preserve" font-family="Helvetica-Light,Helvetica" font-size="19.0" fill="#000000" transform="matrix(1.00, 0.00, -0.00, -1.00, 21.7, 46.3)">T</text><text xml:space="preserve" font-family="Helvetica-Light,Helvetica" font-size="19.0" fill="#000000" transform="matrix(1.00, 0.00, -0.00, -1.00, 32.3, 46.3)">U</text><text xml:space="preserve" font-family="Helvetica-Light,Helvetica" font-size="19.0" fill="#000000" transform="matrix(1.00, 0.00, -0.00, -1.00, 46.0, 46.3)">N</text><text xml:space="preserve" font-family="Helvetica-Light,Helvetica" font-size="19.0" fill="#000000" transform="matrix(1.00, 0.00, -0.00, -1.00, 59.7, 46.3)">E</text><text xml:space="preserve" font-family="Helvetica-Light,Helvetica" font-size="19.0" fill="#000000" transform="matrix(1.00, 0.00, -0.00, -1.00, 71.3, 46.3)"> </text><text xml:space="preserve" font-family="Helvetica-Light,Helvetica" font-size="19.0" fill="#000000" transform="matrix(1.00, 0.00, -0.00, -1.00, 76.6, 46.3)">P</text><text xml:space="preserve" font-family="Helvetica-Light,Helvetica" font-size="19.0" fill="#000000" transform="matrix(1.00, 0.00, -0.00, -1.00, 88.2, 46.3)">a</text><text xml:space="preserve" font-family="Helvetica-Light,Helvetica" font-size="19.0" fill="#000000" transform="matrix(1.00, 0.00, -0.00, -1.00, 98.8, 46.3)">r</text><text xml:space="preserve" font-family="Helvetica-Light,Helvetica" font-size="19.0" fill="#000000" transform="matrix(1.00, 0.00, -0.00, -1.00, 105.4, 46.3)">t</text><text xml:space="preserve" font-family="Helvetica-Light,Helvetica" font-size="19.0" fill="#000000" transform="matrix(1.00, 0.00, -0.00, -1.00, 110.7, 46.3)">n</text><text xml:space="preserve" font-family="Helvetica-Light,Helvetica" font-size="19.0" fill="#000000" transform="matrix(1.00, 0.00, -0.00, -1.00, 121.3, 46.3)">e</text><text xml:space="preserve" font-family="Helvetica-Light,Helvetica" font-size="19.0" fill="#000000" transform="matrix(1.00, 0.00, -0.00, -1.00, 131.9, 46.3)">r</text><text xml:space="preserve" font-family="Helvetica-Light,Helvetica" font-size="19.0" fill="#000000" transform="matrix(1.00, 0.00, -0.00, -1.00, 138.2, 46.3)"> </text><text xml:space="preserve" font-family="Helvetica-Light,Helvetica" font-size="19.0" fill="#000000" transform="matrix(1.00, 0.00, -0.00, -1.00, 143.5, 46.3)">C</text><text xml:space="preserve" font-family="Helvetica-Light,Helvetica" font-size="19.0" fill="#000000" transform="matrix(1.00, 0.00, -0.00, -1.00, 157.2, 46.3)">o</text><text xml:space="preserve" font-family="Helvetica-Light,Helvetica" font-size="19.0" fill="#000000" transform="matrix(1.00, 0.00, -0.00, -1.00, 167.7, 46.3)">n</text><text xml:space="preserve" font-family="Helvetica-Light,Helvetica" font-size="19.0" fill="#000000" transform="matrix(1.00, 0.00, -0.00, -1.00, 178.3, 46.3)">s</text><text xml:space="preserve" font-family="Helvetica-Light,Helvetica" font-size="19.0" fill="#000000" transform="matrix(1.00, 0.00, -0.00, -1.00, 187.8, 46.3)">o</text><text xml:space="preserve" font-family="Helvetica-Light,Helvetica" font-size="19.0" fill="#000000" transform="matrix(1.00, 0.00, -0.00, -1.00, 198.4, 46.3)">l</text><text xml:space="preserve" font-family="Helvetica-Light,Helvetica" font-size="19.0" fill="#000000" transform="matrix(1.00, 0.00, -0.00, -1.00, 202.6, 46.3)">e</text></g></g></g></svg>